%TF.GenerationSoftware,KiCad,Pcbnew,(6.0.4)*%
%TF.CreationDate,2022-04-22T00:13:30+02:00*%
%TF.ProjectId,main,6d61696e-2e6b-4696-9361-645f70636258,rev?*%
%TF.SameCoordinates,Original*%
%TF.FileFunction,Legend,Top*%
%TF.FilePolarity,Positive*%
%FSLAX46Y46*%
G04 Gerber Fmt 4.6, Leading zero omitted, Abs format (unit mm)*
G04 Created by KiCad (PCBNEW (6.0.4)) date 2022-04-22 00:13:30*
%MOMM*%
%LPD*%
G01*
G04 APERTURE LIST*
%ADD10C,0.150000*%
%ADD11C,0.120000*%
G04 APERTURE END LIST*
D10*
%TO.C,R18*%
X161409142Y-109546380D02*
X161075809Y-109070190D01*
X160837714Y-109546380D02*
X160837714Y-108546380D01*
X161218666Y-108546380D01*
X161313904Y-108594000D01*
X161361523Y-108641619D01*
X161409142Y-108736857D01*
X161409142Y-108879714D01*
X161361523Y-108974952D01*
X161313904Y-109022571D01*
X161218666Y-109070190D01*
X160837714Y-109070190D01*
X162361523Y-109546380D02*
X161790095Y-109546380D01*
X162075809Y-109546380D02*
X162075809Y-108546380D01*
X161980571Y-108689238D01*
X161885333Y-108784476D01*
X161790095Y-108832095D01*
X162932952Y-108974952D02*
X162837714Y-108927333D01*
X162790095Y-108879714D01*
X162742476Y-108784476D01*
X162742476Y-108736857D01*
X162790095Y-108641619D01*
X162837714Y-108594000D01*
X162932952Y-108546380D01*
X163123428Y-108546380D01*
X163218666Y-108594000D01*
X163266285Y-108641619D01*
X163313904Y-108736857D01*
X163313904Y-108784476D01*
X163266285Y-108879714D01*
X163218666Y-108927333D01*
X163123428Y-108974952D01*
X162932952Y-108974952D01*
X162837714Y-109022571D01*
X162790095Y-109070190D01*
X162742476Y-109165428D01*
X162742476Y-109355904D01*
X162790095Y-109451142D01*
X162837714Y-109498761D01*
X162932952Y-109546380D01*
X163123428Y-109546380D01*
X163218666Y-109498761D01*
X163266285Y-109451142D01*
X163313904Y-109355904D01*
X163313904Y-109165428D01*
X163266285Y-109070190D01*
X163218666Y-109022571D01*
X163123428Y-108974952D01*
%TO.C,C8*%
X223353333Y-89257142D02*
X223305714Y-89304761D01*
X223162857Y-89352380D01*
X223067619Y-89352380D01*
X222924761Y-89304761D01*
X222829523Y-89209523D01*
X222781904Y-89114285D01*
X222734285Y-88923809D01*
X222734285Y-88780952D01*
X222781904Y-88590476D01*
X222829523Y-88495238D01*
X222924761Y-88400000D01*
X223067619Y-88352380D01*
X223162857Y-88352380D01*
X223305714Y-88400000D01*
X223353333Y-88447619D01*
X223924761Y-88780952D02*
X223829523Y-88733333D01*
X223781904Y-88685714D01*
X223734285Y-88590476D01*
X223734285Y-88542857D01*
X223781904Y-88447619D01*
X223829523Y-88400000D01*
X223924761Y-88352380D01*
X224115238Y-88352380D01*
X224210476Y-88400000D01*
X224258095Y-88447619D01*
X224305714Y-88542857D01*
X224305714Y-88590476D01*
X224258095Y-88685714D01*
X224210476Y-88733333D01*
X224115238Y-88780952D01*
X223924761Y-88780952D01*
X223829523Y-88828571D01*
X223781904Y-88876190D01*
X223734285Y-88971428D01*
X223734285Y-89161904D01*
X223781904Y-89257142D01*
X223829523Y-89304761D01*
X223924761Y-89352380D01*
X224115238Y-89352380D01*
X224210476Y-89304761D01*
X224258095Y-89257142D01*
X224305714Y-89161904D01*
X224305714Y-88971428D01*
X224258095Y-88876190D01*
X224210476Y-88828571D01*
X224115238Y-88780952D01*
%TO.C,R6*%
X219047380Y-104306666D02*
X218571190Y-104640000D01*
X219047380Y-104878095D02*
X218047380Y-104878095D01*
X218047380Y-104497142D01*
X218095000Y-104401904D01*
X218142619Y-104354285D01*
X218237857Y-104306666D01*
X218380714Y-104306666D01*
X218475952Y-104354285D01*
X218523571Y-104401904D01*
X218571190Y-104497142D01*
X218571190Y-104878095D01*
X218047380Y-103449523D02*
X218047380Y-103640000D01*
X218095000Y-103735238D01*
X218142619Y-103782857D01*
X218285476Y-103878095D01*
X218475952Y-103925714D01*
X218856904Y-103925714D01*
X218952142Y-103878095D01*
X218999761Y-103830476D01*
X219047380Y-103735238D01*
X219047380Y-103544761D01*
X218999761Y-103449523D01*
X218952142Y-103401904D01*
X218856904Y-103354285D01*
X218618809Y-103354285D01*
X218523571Y-103401904D01*
X218475952Y-103449523D01*
X218428333Y-103544761D01*
X218428333Y-103735238D01*
X218475952Y-103830476D01*
X218523571Y-103878095D01*
X218618809Y-103925714D01*
%TO.C,R3*%
X163901333Y-67890380D02*
X163568000Y-67414190D01*
X163329904Y-67890380D02*
X163329904Y-66890380D01*
X163710857Y-66890380D01*
X163806095Y-66938000D01*
X163853714Y-66985619D01*
X163901333Y-67080857D01*
X163901333Y-67223714D01*
X163853714Y-67318952D01*
X163806095Y-67366571D01*
X163710857Y-67414190D01*
X163329904Y-67414190D01*
X164234666Y-66890380D02*
X164853714Y-66890380D01*
X164520380Y-67271333D01*
X164663238Y-67271333D01*
X164758476Y-67318952D01*
X164806095Y-67366571D01*
X164853714Y-67461809D01*
X164853714Y-67699904D01*
X164806095Y-67795142D01*
X164758476Y-67842761D01*
X164663238Y-67890380D01*
X164377523Y-67890380D01*
X164282285Y-67842761D01*
X164234666Y-67795142D01*
%TO.C,R13*%
X142692380Y-75572857D02*
X142216190Y-75906190D01*
X142692380Y-76144285D02*
X141692380Y-76144285D01*
X141692380Y-75763333D01*
X141740000Y-75668095D01*
X141787619Y-75620476D01*
X141882857Y-75572857D01*
X142025714Y-75572857D01*
X142120952Y-75620476D01*
X142168571Y-75668095D01*
X142216190Y-75763333D01*
X142216190Y-76144285D01*
X142692380Y-74620476D02*
X142692380Y-75191904D01*
X142692380Y-74906190D02*
X141692380Y-74906190D01*
X141835238Y-75001428D01*
X141930476Y-75096666D01*
X141978095Y-75191904D01*
X141692380Y-74287142D02*
X141692380Y-73668095D01*
X142073333Y-74001428D01*
X142073333Y-73858571D01*
X142120952Y-73763333D01*
X142168571Y-73715714D01*
X142263809Y-73668095D01*
X142501904Y-73668095D01*
X142597142Y-73715714D01*
X142644761Y-73763333D01*
X142692380Y-73858571D01*
X142692380Y-74144285D01*
X142644761Y-74239523D01*
X142597142Y-74287142D01*
%TO.C,R4*%
X145612380Y-95416666D02*
X145136190Y-95750000D01*
X145612380Y-95988095D02*
X144612380Y-95988095D01*
X144612380Y-95607142D01*
X144660000Y-95511904D01*
X144707619Y-95464285D01*
X144802857Y-95416666D01*
X144945714Y-95416666D01*
X145040952Y-95464285D01*
X145088571Y-95511904D01*
X145136190Y-95607142D01*
X145136190Y-95988095D01*
X144945714Y-94559523D02*
X145612380Y-94559523D01*
X144564761Y-94797619D02*
X145279047Y-95035714D01*
X145279047Y-94416666D01*
%TO.C,R19*%
X165981142Y-109546380D02*
X165647809Y-109070190D01*
X165409714Y-109546380D02*
X165409714Y-108546380D01*
X165790666Y-108546380D01*
X165885904Y-108594000D01*
X165933523Y-108641619D01*
X165981142Y-108736857D01*
X165981142Y-108879714D01*
X165933523Y-108974952D01*
X165885904Y-109022571D01*
X165790666Y-109070190D01*
X165409714Y-109070190D01*
X166933523Y-109546380D02*
X166362095Y-109546380D01*
X166647809Y-109546380D02*
X166647809Y-108546380D01*
X166552571Y-108689238D01*
X166457333Y-108784476D01*
X166362095Y-108832095D01*
X167409714Y-109546380D02*
X167600190Y-109546380D01*
X167695428Y-109498761D01*
X167743047Y-109451142D01*
X167838285Y-109308285D01*
X167885904Y-109117809D01*
X167885904Y-108736857D01*
X167838285Y-108641619D01*
X167790666Y-108594000D01*
X167695428Y-108546380D01*
X167504952Y-108546380D01*
X167409714Y-108594000D01*
X167362095Y-108641619D01*
X167314476Y-108736857D01*
X167314476Y-108974952D01*
X167362095Y-109070190D01*
X167409714Y-109117809D01*
X167504952Y-109165428D01*
X167695428Y-109165428D01*
X167790666Y-109117809D01*
X167838285Y-109070190D01*
X167885904Y-108974952D01*
%TO.C,JP4*%
X171967380Y-146248333D02*
X172681666Y-146248333D01*
X172824523Y-146295952D01*
X172919761Y-146391190D01*
X172967380Y-146534047D01*
X172967380Y-146629285D01*
X172967380Y-145772142D02*
X171967380Y-145772142D01*
X171967380Y-145391190D01*
X172015000Y-145295952D01*
X172062619Y-145248333D01*
X172157857Y-145200714D01*
X172300714Y-145200714D01*
X172395952Y-145248333D01*
X172443571Y-145295952D01*
X172491190Y-145391190D01*
X172491190Y-145772142D01*
X172300714Y-144343571D02*
X172967380Y-144343571D01*
X171919761Y-144581666D02*
X172634047Y-144819761D01*
X172634047Y-144200714D01*
%TO.C,TP7*%
X214638095Y-70572380D02*
X215209523Y-70572380D01*
X214923809Y-71572380D02*
X214923809Y-70572380D01*
X215542857Y-71572380D02*
X215542857Y-70572380D01*
X215923809Y-70572380D01*
X216019047Y-70620000D01*
X216066666Y-70667619D01*
X216114285Y-70762857D01*
X216114285Y-70905714D01*
X216066666Y-71000952D01*
X216019047Y-71048571D01*
X215923809Y-71096190D01*
X215542857Y-71096190D01*
X216447619Y-70572380D02*
X217114285Y-70572380D01*
X216685714Y-71572380D01*
%TO.C,C12*%
X173339890Y-101957142D02*
X173292271Y-102004761D01*
X173149414Y-102052380D01*
X173054176Y-102052380D01*
X172911319Y-102004761D01*
X172816081Y-101909523D01*
X172768462Y-101814285D01*
X172720843Y-101623809D01*
X172720843Y-101480952D01*
X172768462Y-101290476D01*
X172816081Y-101195238D01*
X172911319Y-101100000D01*
X173054176Y-101052380D01*
X173149414Y-101052380D01*
X173292271Y-101100000D01*
X173339890Y-101147619D01*
X174292271Y-102052380D02*
X173720843Y-102052380D01*
X174006557Y-102052380D02*
X174006557Y-101052380D01*
X173911319Y-101195238D01*
X173816081Y-101290476D01*
X173720843Y-101338095D01*
X174673224Y-101147619D02*
X174720843Y-101100000D01*
X174816081Y-101052380D01*
X175054176Y-101052380D01*
X175149414Y-101100000D01*
X175197033Y-101147619D01*
X175244652Y-101242857D01*
X175244652Y-101338095D01*
X175197033Y-101480952D01*
X174625605Y-102052380D01*
X175244652Y-102052380D01*
%TO.C,U4*%
X155448095Y-61682380D02*
X155448095Y-62491904D01*
X155495714Y-62587142D01*
X155543333Y-62634761D01*
X155638571Y-62682380D01*
X155829047Y-62682380D01*
X155924285Y-62634761D01*
X155971904Y-62587142D01*
X156019523Y-62491904D01*
X156019523Y-61682380D01*
X156924285Y-62015714D02*
X156924285Y-62682380D01*
X156686190Y-61634761D02*
X156448095Y-62349047D01*
X157067142Y-62349047D01*
%TO.C,C1*%
X209383333Y-97737142D02*
X209335714Y-97784761D01*
X209192857Y-97832380D01*
X209097619Y-97832380D01*
X208954761Y-97784761D01*
X208859523Y-97689523D01*
X208811904Y-97594285D01*
X208764285Y-97403809D01*
X208764285Y-97260952D01*
X208811904Y-97070476D01*
X208859523Y-96975238D01*
X208954761Y-96880000D01*
X209097619Y-96832380D01*
X209192857Y-96832380D01*
X209335714Y-96880000D01*
X209383333Y-96927619D01*
X210335714Y-97832380D02*
X209764285Y-97832380D01*
X210050000Y-97832380D02*
X210050000Y-96832380D01*
X209954761Y-96975238D01*
X209859523Y-97070476D01*
X209764285Y-97118095D01*
%TO.C,C7*%
X227163333Y-86307142D02*
X227115714Y-86354761D01*
X226972857Y-86402380D01*
X226877619Y-86402380D01*
X226734761Y-86354761D01*
X226639523Y-86259523D01*
X226591904Y-86164285D01*
X226544285Y-85973809D01*
X226544285Y-85830952D01*
X226591904Y-85640476D01*
X226639523Y-85545238D01*
X226734761Y-85450000D01*
X226877619Y-85402380D01*
X226972857Y-85402380D01*
X227115714Y-85450000D01*
X227163333Y-85497619D01*
X227496666Y-85402380D02*
X228163333Y-85402380D01*
X227734761Y-86402380D01*
%TO.C,U6*%
X226568095Y-78192380D02*
X226568095Y-79001904D01*
X226615714Y-79097142D01*
X226663333Y-79144761D01*
X226758571Y-79192380D01*
X226949047Y-79192380D01*
X227044285Y-79144761D01*
X227091904Y-79097142D01*
X227139523Y-79001904D01*
X227139523Y-78192380D01*
X228044285Y-78192380D02*
X227853809Y-78192380D01*
X227758571Y-78240000D01*
X227710952Y-78287619D01*
X227615714Y-78430476D01*
X227568095Y-78620952D01*
X227568095Y-79001904D01*
X227615714Y-79097142D01*
X227663333Y-79144761D01*
X227758571Y-79192380D01*
X227949047Y-79192380D01*
X228044285Y-79144761D01*
X228091904Y-79097142D01*
X228139523Y-79001904D01*
X228139523Y-78763809D01*
X228091904Y-78668571D01*
X228044285Y-78620952D01*
X227949047Y-78573333D01*
X227758571Y-78573333D01*
X227663333Y-78620952D01*
X227615714Y-78668571D01*
X227568095Y-78763809D01*
%TO.C,TP11*%
X206541904Y-76922380D02*
X207113333Y-76922380D01*
X206827619Y-77922380D02*
X206827619Y-76922380D01*
X207446666Y-77922380D02*
X207446666Y-76922380D01*
X207827619Y-76922380D01*
X207922857Y-76970000D01*
X207970476Y-77017619D01*
X208018095Y-77112857D01*
X208018095Y-77255714D01*
X207970476Y-77350952D01*
X207922857Y-77398571D01*
X207827619Y-77446190D01*
X207446666Y-77446190D01*
X208970476Y-77922380D02*
X208399047Y-77922380D01*
X208684761Y-77922380D02*
X208684761Y-76922380D01*
X208589523Y-77065238D01*
X208494285Y-77160476D01*
X208399047Y-77208095D01*
X209922857Y-77922380D02*
X209351428Y-77922380D01*
X209637142Y-77922380D02*
X209637142Y-76922380D01*
X209541904Y-77065238D01*
X209446666Y-77160476D01*
X209351428Y-77208095D01*
%TO.C,C10*%
X212082142Y-115517142D02*
X212034523Y-115564761D01*
X211891666Y-115612380D01*
X211796428Y-115612380D01*
X211653571Y-115564761D01*
X211558333Y-115469523D01*
X211510714Y-115374285D01*
X211463095Y-115183809D01*
X211463095Y-115040952D01*
X211510714Y-114850476D01*
X211558333Y-114755238D01*
X211653571Y-114660000D01*
X211796428Y-114612380D01*
X211891666Y-114612380D01*
X212034523Y-114660000D01*
X212082142Y-114707619D01*
X213034523Y-115612380D02*
X212463095Y-115612380D01*
X212748809Y-115612380D02*
X212748809Y-114612380D01*
X212653571Y-114755238D01*
X212558333Y-114850476D01*
X212463095Y-114898095D01*
X213653571Y-114612380D02*
X213748809Y-114612380D01*
X213844047Y-114660000D01*
X213891666Y-114707619D01*
X213939285Y-114802857D01*
X213986904Y-114993333D01*
X213986904Y-115231428D01*
X213939285Y-115421904D01*
X213891666Y-115517142D01*
X213844047Y-115564761D01*
X213748809Y-115612380D01*
X213653571Y-115612380D01*
X213558333Y-115564761D01*
X213510714Y-115517142D01*
X213463095Y-115421904D01*
X213415476Y-115231428D01*
X213415476Y-114993333D01*
X213463095Y-114802857D01*
X213510714Y-114707619D01*
X213558333Y-114660000D01*
X213653571Y-114612380D01*
%TO.C,R11*%
X223592380Y-77350857D02*
X223116190Y-77684190D01*
X223592380Y-77922285D02*
X222592380Y-77922285D01*
X222592380Y-77541333D01*
X222640000Y-77446095D01*
X222687619Y-77398476D01*
X222782857Y-77350857D01*
X222925714Y-77350857D01*
X223020952Y-77398476D01*
X223068571Y-77446095D01*
X223116190Y-77541333D01*
X223116190Y-77922285D01*
X223592380Y-76398476D02*
X223592380Y-76969904D01*
X223592380Y-76684190D02*
X222592380Y-76684190D01*
X222735238Y-76779428D01*
X222830476Y-76874666D01*
X222878095Y-76969904D01*
X223592380Y-75446095D02*
X223592380Y-76017523D01*
X223592380Y-75731809D02*
X222592380Y-75731809D01*
X222735238Y-75827047D01*
X222830476Y-75922285D01*
X222878095Y-76017523D01*
%TO.C,JP11*%
X184662380Y-149899523D02*
X185376666Y-149899523D01*
X185519523Y-149947142D01*
X185614761Y-150042380D01*
X185662380Y-150185238D01*
X185662380Y-150280476D01*
X185662380Y-149423333D02*
X184662380Y-149423333D01*
X184662380Y-149042380D01*
X184710000Y-148947142D01*
X184757619Y-148899523D01*
X184852857Y-148851904D01*
X184995714Y-148851904D01*
X185090952Y-148899523D01*
X185138571Y-148947142D01*
X185186190Y-149042380D01*
X185186190Y-149423333D01*
X185662380Y-147899523D02*
X185662380Y-148470952D01*
X185662380Y-148185238D02*
X184662380Y-148185238D01*
X184805238Y-148280476D01*
X184900476Y-148375714D01*
X184948095Y-148470952D01*
X185662380Y-146947142D02*
X185662380Y-147518571D01*
X185662380Y-147232857D02*
X184662380Y-147232857D01*
X184805238Y-147328095D01*
X184900476Y-147423333D01*
X184948095Y-147518571D01*
%TO.C,TP9*%
X199398095Y-142962380D02*
X199969523Y-142962380D01*
X199683809Y-143962380D02*
X199683809Y-142962380D01*
X200302857Y-143962380D02*
X200302857Y-142962380D01*
X200683809Y-142962380D01*
X200779047Y-143010000D01*
X200826666Y-143057619D01*
X200874285Y-143152857D01*
X200874285Y-143295714D01*
X200826666Y-143390952D01*
X200779047Y-143438571D01*
X200683809Y-143486190D01*
X200302857Y-143486190D01*
X201350476Y-143962380D02*
X201540952Y-143962380D01*
X201636190Y-143914761D01*
X201683809Y-143867142D01*
X201779047Y-143724285D01*
X201826666Y-143533809D01*
X201826666Y-143152857D01*
X201779047Y-143057619D01*
X201731428Y-143010000D01*
X201636190Y-142962380D01*
X201445714Y-142962380D01*
X201350476Y-143010000D01*
X201302857Y-143057619D01*
X201255238Y-143152857D01*
X201255238Y-143390952D01*
X201302857Y-143486190D01*
X201350476Y-143533809D01*
X201445714Y-143581428D01*
X201636190Y-143581428D01*
X201731428Y-143533809D01*
X201779047Y-143486190D01*
X201826666Y-143390952D01*
%TO.C,R12*%
X147201142Y-68142380D02*
X146867809Y-67666190D01*
X146629714Y-68142380D02*
X146629714Y-67142380D01*
X147010666Y-67142380D01*
X147105904Y-67190000D01*
X147153523Y-67237619D01*
X147201142Y-67332857D01*
X147201142Y-67475714D01*
X147153523Y-67570952D01*
X147105904Y-67618571D01*
X147010666Y-67666190D01*
X146629714Y-67666190D01*
X148153523Y-68142380D02*
X147582095Y-68142380D01*
X147867809Y-68142380D02*
X147867809Y-67142380D01*
X147772571Y-67285238D01*
X147677333Y-67380476D01*
X147582095Y-67428095D01*
X148534476Y-67237619D02*
X148582095Y-67190000D01*
X148677333Y-67142380D01*
X148915428Y-67142380D01*
X149010666Y-67190000D01*
X149058285Y-67237619D01*
X149105904Y-67332857D01*
X149105904Y-67428095D01*
X149058285Y-67570952D01*
X148486857Y-68142380D01*
X149105904Y-68142380D01*
%TO.C,R8*%
X212237580Y-104255866D02*
X211761390Y-104589200D01*
X212237580Y-104827295D02*
X211237580Y-104827295D01*
X211237580Y-104446342D01*
X211285200Y-104351104D01*
X211332819Y-104303485D01*
X211428057Y-104255866D01*
X211570914Y-104255866D01*
X211666152Y-104303485D01*
X211713771Y-104351104D01*
X211761390Y-104446342D01*
X211761390Y-104827295D01*
X211666152Y-103684438D02*
X211618533Y-103779676D01*
X211570914Y-103827295D01*
X211475676Y-103874914D01*
X211428057Y-103874914D01*
X211332819Y-103827295D01*
X211285200Y-103779676D01*
X211237580Y-103684438D01*
X211237580Y-103493961D01*
X211285200Y-103398723D01*
X211332819Y-103351104D01*
X211428057Y-103303485D01*
X211475676Y-103303485D01*
X211570914Y-103351104D01*
X211618533Y-103398723D01*
X211666152Y-103493961D01*
X211666152Y-103684438D01*
X211713771Y-103779676D01*
X211761390Y-103827295D01*
X211856628Y-103874914D01*
X212047104Y-103874914D01*
X212142342Y-103827295D01*
X212189961Y-103779676D01*
X212237580Y-103684438D01*
X212237580Y-103493961D01*
X212189961Y-103398723D01*
X212142342Y-103351104D01*
X212047104Y-103303485D01*
X211856628Y-103303485D01*
X211761390Y-103351104D01*
X211713771Y-103398723D01*
X211666152Y-103493961D01*
%TO.C,R7*%
X157313333Y-113102380D02*
X156980000Y-112626190D01*
X156741904Y-113102380D02*
X156741904Y-112102380D01*
X157122857Y-112102380D01*
X157218095Y-112150000D01*
X157265714Y-112197619D01*
X157313333Y-112292857D01*
X157313333Y-112435714D01*
X157265714Y-112530952D01*
X157218095Y-112578571D01*
X157122857Y-112626190D01*
X156741904Y-112626190D01*
X157646666Y-112102380D02*
X158313333Y-112102380D01*
X157884761Y-113102380D01*
%TO.C,JP9*%
X188396666Y-70572380D02*
X188396666Y-71286666D01*
X188349047Y-71429523D01*
X188253809Y-71524761D01*
X188110952Y-71572380D01*
X188015714Y-71572380D01*
X188872857Y-71572380D02*
X188872857Y-70572380D01*
X189253809Y-70572380D01*
X189349047Y-70620000D01*
X189396666Y-70667619D01*
X189444285Y-70762857D01*
X189444285Y-70905714D01*
X189396666Y-71000952D01*
X189349047Y-71048571D01*
X189253809Y-71096190D01*
X188872857Y-71096190D01*
X189920476Y-71572380D02*
X190110952Y-71572380D01*
X190206190Y-71524761D01*
X190253809Y-71477142D01*
X190349047Y-71334285D01*
X190396666Y-71143809D01*
X190396666Y-70762857D01*
X190349047Y-70667619D01*
X190301428Y-70620000D01*
X190206190Y-70572380D01*
X190015714Y-70572380D01*
X189920476Y-70620000D01*
X189872857Y-70667619D01*
X189825238Y-70762857D01*
X189825238Y-71000952D01*
X189872857Y-71096190D01*
X189920476Y-71143809D01*
X190015714Y-71191428D01*
X190206190Y-71191428D01*
X190301428Y-71143809D01*
X190349047Y-71096190D01*
X190396666Y-71000952D01*
%TO.C,D8*%
X136722380Y-97258095D02*
X135722380Y-97258095D01*
X135722380Y-97020000D01*
X135770000Y-96877142D01*
X135865238Y-96781904D01*
X135960476Y-96734285D01*
X136150952Y-96686666D01*
X136293809Y-96686666D01*
X136484285Y-96734285D01*
X136579523Y-96781904D01*
X136674761Y-96877142D01*
X136722380Y-97020000D01*
X136722380Y-97258095D01*
X136150952Y-96115238D02*
X136103333Y-96210476D01*
X136055714Y-96258095D01*
X135960476Y-96305714D01*
X135912857Y-96305714D01*
X135817619Y-96258095D01*
X135770000Y-96210476D01*
X135722380Y-96115238D01*
X135722380Y-95924761D01*
X135770000Y-95829523D01*
X135817619Y-95781904D01*
X135912857Y-95734285D01*
X135960476Y-95734285D01*
X136055714Y-95781904D01*
X136103333Y-95829523D01*
X136150952Y-95924761D01*
X136150952Y-96115238D01*
X136198571Y-96210476D01*
X136246190Y-96258095D01*
X136341428Y-96305714D01*
X136531904Y-96305714D01*
X136627142Y-96258095D01*
X136674761Y-96210476D01*
X136722380Y-96115238D01*
X136722380Y-95924761D01*
X136674761Y-95829523D01*
X136627142Y-95781904D01*
X136531904Y-95734285D01*
X136341428Y-95734285D01*
X136246190Y-95781904D01*
X136198571Y-95829523D01*
X136150952Y-95924761D01*
%TO.C,D6*%
X141501904Y-67762380D02*
X141501904Y-66762380D01*
X141740000Y-66762380D01*
X141882857Y-66810000D01*
X141978095Y-66905238D01*
X142025714Y-67000476D01*
X142073333Y-67190952D01*
X142073333Y-67333809D01*
X142025714Y-67524285D01*
X141978095Y-67619523D01*
X141882857Y-67714761D01*
X141740000Y-67762380D01*
X141501904Y-67762380D01*
X142930476Y-66762380D02*
X142740000Y-66762380D01*
X142644761Y-66810000D01*
X142597142Y-66857619D01*
X142501904Y-67000476D01*
X142454285Y-67190952D01*
X142454285Y-67571904D01*
X142501904Y-67667142D01*
X142549523Y-67714761D01*
X142644761Y-67762380D01*
X142835238Y-67762380D01*
X142930476Y-67714761D01*
X142978095Y-67667142D01*
X143025714Y-67571904D01*
X143025714Y-67333809D01*
X142978095Y-67238571D01*
X142930476Y-67190952D01*
X142835238Y-67143333D01*
X142644761Y-67143333D01*
X142549523Y-67190952D01*
X142501904Y-67238571D01*
X142454285Y-67333809D01*
%TO.C,U3*%
X133858095Y-82002380D02*
X133858095Y-82811904D01*
X133905714Y-82907142D01*
X133953333Y-82954761D01*
X134048571Y-83002380D01*
X134239047Y-83002380D01*
X134334285Y-82954761D01*
X134381904Y-82907142D01*
X134429523Y-82811904D01*
X134429523Y-82002380D01*
X134810476Y-82002380D02*
X135429523Y-82002380D01*
X135096190Y-82383333D01*
X135239047Y-82383333D01*
X135334285Y-82430952D01*
X135381904Y-82478571D01*
X135429523Y-82573809D01*
X135429523Y-82811904D01*
X135381904Y-82907142D01*
X135334285Y-82954761D01*
X135239047Y-83002380D01*
X134953333Y-83002380D01*
X134858095Y-82954761D01*
X134810476Y-82907142D01*
%TO.C,TP8*%
X207018095Y-144232380D02*
X207589523Y-144232380D01*
X207303809Y-145232380D02*
X207303809Y-144232380D01*
X207922857Y-145232380D02*
X207922857Y-144232380D01*
X208303809Y-144232380D01*
X208399047Y-144280000D01*
X208446666Y-144327619D01*
X208494285Y-144422857D01*
X208494285Y-144565714D01*
X208446666Y-144660952D01*
X208399047Y-144708571D01*
X208303809Y-144756190D01*
X207922857Y-144756190D01*
X209065714Y-144660952D02*
X208970476Y-144613333D01*
X208922857Y-144565714D01*
X208875238Y-144470476D01*
X208875238Y-144422857D01*
X208922857Y-144327619D01*
X208970476Y-144280000D01*
X209065714Y-144232380D01*
X209256190Y-144232380D01*
X209351428Y-144280000D01*
X209399047Y-144327619D01*
X209446666Y-144422857D01*
X209446666Y-144470476D01*
X209399047Y-144565714D01*
X209351428Y-144613333D01*
X209256190Y-144660952D01*
X209065714Y-144660952D01*
X208970476Y-144708571D01*
X208922857Y-144756190D01*
X208875238Y-144851428D01*
X208875238Y-145041904D01*
X208922857Y-145137142D01*
X208970476Y-145184761D01*
X209065714Y-145232380D01*
X209256190Y-145232380D01*
X209351428Y-145184761D01*
X209399047Y-145137142D01*
X209446666Y-145041904D01*
X209446666Y-144851428D01*
X209399047Y-144756190D01*
X209351428Y-144708571D01*
X209256190Y-144660952D01*
%TO.C,J2*%
X221932380Y-90503333D02*
X222646666Y-90503333D01*
X222789523Y-90550952D01*
X222884761Y-90646190D01*
X222932380Y-90789047D01*
X222932380Y-90884285D01*
X222027619Y-90074761D02*
X221980000Y-90027142D01*
X221932380Y-89931904D01*
X221932380Y-89693809D01*
X221980000Y-89598571D01*
X222027619Y-89550952D01*
X222122857Y-89503333D01*
X222218095Y-89503333D01*
X222360952Y-89550952D01*
X222932380Y-90122380D01*
X222932380Y-89503333D01*
%TO.C,R5*%
X133422380Y-91606666D02*
X132946190Y-91940000D01*
X133422380Y-92178095D02*
X132422380Y-92178095D01*
X132422380Y-91797142D01*
X132470000Y-91701904D01*
X132517619Y-91654285D01*
X132612857Y-91606666D01*
X132755714Y-91606666D01*
X132850952Y-91654285D01*
X132898571Y-91701904D01*
X132946190Y-91797142D01*
X132946190Y-92178095D01*
X132422380Y-90701904D02*
X132422380Y-91178095D01*
X132898571Y-91225714D01*
X132850952Y-91178095D01*
X132803333Y-91082857D01*
X132803333Y-90844761D01*
X132850952Y-90749523D01*
X132898571Y-90701904D01*
X132993809Y-90654285D01*
X133231904Y-90654285D01*
X133327142Y-90701904D01*
X133374761Y-90749523D01*
X133422380Y-90844761D01*
X133422380Y-91082857D01*
X133374761Y-91178095D01*
X133327142Y-91225714D01*
%TO.C,JP2*%
X214050666Y-142708380D02*
X214050666Y-143422666D01*
X214003047Y-143565523D01*
X213907809Y-143660761D01*
X213764952Y-143708380D01*
X213669714Y-143708380D01*
X214526857Y-143708380D02*
X214526857Y-142708380D01*
X214907809Y-142708380D01*
X215003047Y-142756000D01*
X215050666Y-142803619D01*
X215098285Y-142898857D01*
X215098285Y-143041714D01*
X215050666Y-143136952D01*
X215003047Y-143184571D01*
X214907809Y-143232190D01*
X214526857Y-143232190D01*
X215479238Y-142803619D02*
X215526857Y-142756000D01*
X215622095Y-142708380D01*
X215860190Y-142708380D01*
X215955428Y-142756000D01*
X216003047Y-142803619D01*
X216050666Y-142898857D01*
X216050666Y-142994095D01*
X216003047Y-143136952D01*
X215431619Y-143708380D01*
X216050666Y-143708380D01*
%TO.C,JP5*%
X220654666Y-119843380D02*
X220654666Y-120557666D01*
X220607047Y-120700523D01*
X220511809Y-120795761D01*
X220368952Y-120843380D01*
X220273714Y-120843380D01*
X221130857Y-120843380D02*
X221130857Y-119843380D01*
X221511809Y-119843380D01*
X221607047Y-119891000D01*
X221654666Y-119938619D01*
X221702285Y-120033857D01*
X221702285Y-120176714D01*
X221654666Y-120271952D01*
X221607047Y-120319571D01*
X221511809Y-120367190D01*
X221130857Y-120367190D01*
X222607047Y-119843380D02*
X222130857Y-119843380D01*
X222083238Y-120319571D01*
X222130857Y-120271952D01*
X222226095Y-120224333D01*
X222464190Y-120224333D01*
X222559428Y-120271952D01*
X222607047Y-120319571D01*
X222654666Y-120414809D01*
X222654666Y-120652904D01*
X222607047Y-120748142D01*
X222559428Y-120795761D01*
X222464190Y-120843380D01*
X222226095Y-120843380D01*
X222130857Y-120795761D01*
X222083238Y-120748142D01*
%TO.C,R22*%
X221001580Y-118736857D02*
X220525390Y-119070190D01*
X221001580Y-119308285D02*
X220001580Y-119308285D01*
X220001580Y-118927333D01*
X220049200Y-118832095D01*
X220096819Y-118784476D01*
X220192057Y-118736857D01*
X220334914Y-118736857D01*
X220430152Y-118784476D01*
X220477771Y-118832095D01*
X220525390Y-118927333D01*
X220525390Y-119308285D01*
X220096819Y-118355904D02*
X220049200Y-118308285D01*
X220001580Y-118213047D01*
X220001580Y-117974952D01*
X220049200Y-117879714D01*
X220096819Y-117832095D01*
X220192057Y-117784476D01*
X220287295Y-117784476D01*
X220430152Y-117832095D01*
X221001580Y-118403523D01*
X221001580Y-117784476D01*
X220096819Y-117403523D02*
X220049200Y-117355904D01*
X220001580Y-117260666D01*
X220001580Y-117022571D01*
X220049200Y-116927333D01*
X220096819Y-116879714D01*
X220192057Y-116832095D01*
X220287295Y-116832095D01*
X220430152Y-116879714D01*
X221001580Y-117451142D01*
X221001580Y-116832095D01*
%TO.C,C6*%
X149357142Y-109386666D02*
X149404761Y-109434285D01*
X149452380Y-109577142D01*
X149452380Y-109672380D01*
X149404761Y-109815238D01*
X149309523Y-109910476D01*
X149214285Y-109958095D01*
X149023809Y-110005714D01*
X148880952Y-110005714D01*
X148690476Y-109958095D01*
X148595238Y-109910476D01*
X148500000Y-109815238D01*
X148452380Y-109672380D01*
X148452380Y-109577142D01*
X148500000Y-109434285D01*
X148547619Y-109386666D01*
X148452380Y-108529523D02*
X148452380Y-108720000D01*
X148500000Y-108815238D01*
X148547619Y-108862857D01*
X148690476Y-108958095D01*
X148880952Y-109005714D01*
X149261904Y-109005714D01*
X149357142Y-108958095D01*
X149404761Y-108910476D01*
X149452380Y-108815238D01*
X149452380Y-108624761D01*
X149404761Y-108529523D01*
X149357142Y-108481904D01*
X149261904Y-108434285D01*
X149023809Y-108434285D01*
X148928571Y-108481904D01*
X148880952Y-108529523D01*
X148833333Y-108624761D01*
X148833333Y-108815238D01*
X148880952Y-108910476D01*
X148928571Y-108958095D01*
X149023809Y-109005714D01*
%TO.C,R1*%
X179665333Y-67382380D02*
X179332000Y-66906190D01*
X179093904Y-67382380D02*
X179093904Y-66382380D01*
X179474857Y-66382380D01*
X179570095Y-66430000D01*
X179617714Y-66477619D01*
X179665333Y-66572857D01*
X179665333Y-66715714D01*
X179617714Y-66810952D01*
X179570095Y-66858571D01*
X179474857Y-66906190D01*
X179093904Y-66906190D01*
X180617714Y-67382380D02*
X180046285Y-67382380D01*
X180332000Y-67382380D02*
X180332000Y-66382380D01*
X180236761Y-66525238D01*
X180141523Y-66620476D01*
X180046285Y-66668095D01*
%TO.C,R2*%
X195413333Y-68398380D02*
X195080000Y-67922190D01*
X194841904Y-68398380D02*
X194841904Y-67398380D01*
X195222857Y-67398380D01*
X195318095Y-67446000D01*
X195365714Y-67493619D01*
X195413333Y-67588857D01*
X195413333Y-67731714D01*
X195365714Y-67826952D01*
X195318095Y-67874571D01*
X195222857Y-67922190D01*
X194841904Y-67922190D01*
X195794285Y-67493619D02*
X195841904Y-67446000D01*
X195937142Y-67398380D01*
X196175238Y-67398380D01*
X196270476Y-67446000D01*
X196318095Y-67493619D01*
X196365714Y-67588857D01*
X196365714Y-67684095D01*
X196318095Y-67826952D01*
X195746666Y-68398380D01*
X196365714Y-68398380D01*
%TO.C,R9*%
X137232380Y-85256666D02*
X136756190Y-85590000D01*
X137232380Y-85828095D02*
X136232380Y-85828095D01*
X136232380Y-85447142D01*
X136280000Y-85351904D01*
X136327619Y-85304285D01*
X136422857Y-85256666D01*
X136565714Y-85256666D01*
X136660952Y-85304285D01*
X136708571Y-85351904D01*
X136756190Y-85447142D01*
X136756190Y-85828095D01*
X137232380Y-84780476D02*
X137232380Y-84590000D01*
X137184761Y-84494761D01*
X137137142Y-84447142D01*
X136994285Y-84351904D01*
X136803809Y-84304285D01*
X136422857Y-84304285D01*
X136327619Y-84351904D01*
X136280000Y-84399523D01*
X136232380Y-84494761D01*
X136232380Y-84685238D01*
X136280000Y-84780476D01*
X136327619Y-84828095D01*
X136422857Y-84875714D01*
X136660952Y-84875714D01*
X136756190Y-84828095D01*
X136803809Y-84780476D01*
X136851428Y-84685238D01*
X136851428Y-84494761D01*
X136803809Y-84399523D01*
X136756190Y-84351904D01*
X136660952Y-84304285D01*
%TO.C,R24*%
X142312380Y-112402857D02*
X141836190Y-112736190D01*
X142312380Y-112974285D02*
X141312380Y-112974285D01*
X141312380Y-112593333D01*
X141360000Y-112498095D01*
X141407619Y-112450476D01*
X141502857Y-112402857D01*
X141645714Y-112402857D01*
X141740952Y-112450476D01*
X141788571Y-112498095D01*
X141836190Y-112593333D01*
X141836190Y-112974285D01*
X141407619Y-112021904D02*
X141360000Y-111974285D01*
X141312380Y-111879047D01*
X141312380Y-111640952D01*
X141360000Y-111545714D01*
X141407619Y-111498095D01*
X141502857Y-111450476D01*
X141598095Y-111450476D01*
X141740952Y-111498095D01*
X142312380Y-112069523D01*
X142312380Y-111450476D01*
X141645714Y-110593333D02*
X142312380Y-110593333D01*
X141264761Y-110831428D02*
X141979047Y-111069523D01*
X141979047Y-110450476D01*
%TO.C,J5*%
X221002266Y-105116380D02*
X221002266Y-105830666D01*
X220954647Y-105973523D01*
X220859409Y-106068761D01*
X220716552Y-106116380D01*
X220621314Y-106116380D01*
X221954647Y-105116380D02*
X221478457Y-105116380D01*
X221430838Y-105592571D01*
X221478457Y-105544952D01*
X221573695Y-105497333D01*
X221811790Y-105497333D01*
X221907028Y-105544952D01*
X221954647Y-105592571D01*
X222002266Y-105687809D01*
X222002266Y-105925904D01*
X221954647Y-106021142D01*
X221907028Y-106068761D01*
X221811790Y-106116380D01*
X221573695Y-106116380D01*
X221478457Y-106068761D01*
X221430838Y-106021142D01*
%TO.C,R15*%
X146677142Y-103322380D02*
X146343809Y-102846190D01*
X146105714Y-103322380D02*
X146105714Y-102322380D01*
X146486666Y-102322380D01*
X146581904Y-102370000D01*
X146629523Y-102417619D01*
X146677142Y-102512857D01*
X146677142Y-102655714D01*
X146629523Y-102750952D01*
X146581904Y-102798571D01*
X146486666Y-102846190D01*
X146105714Y-102846190D01*
X147629523Y-103322380D02*
X147058095Y-103322380D01*
X147343809Y-103322380D02*
X147343809Y-102322380D01*
X147248571Y-102465238D01*
X147153333Y-102560476D01*
X147058095Y-102608095D01*
X148534285Y-102322380D02*
X148058095Y-102322380D01*
X148010476Y-102798571D01*
X148058095Y-102750952D01*
X148153333Y-102703333D01*
X148391428Y-102703333D01*
X148486666Y-102750952D01*
X148534285Y-102798571D01*
X148581904Y-102893809D01*
X148581904Y-103131904D01*
X148534285Y-103227142D01*
X148486666Y-103274761D01*
X148391428Y-103322380D01*
X148153333Y-103322380D01*
X148058095Y-103274761D01*
X148010476Y-103227142D01*
%TO.C,J1*%
X221492380Y-80343333D02*
X222206666Y-80343333D01*
X222349523Y-80390952D01*
X222444761Y-80486190D01*
X222492380Y-80629047D01*
X222492380Y-80724285D01*
X222492380Y-79343333D02*
X222492380Y-79914761D01*
X222492380Y-79629047D02*
X221492380Y-79629047D01*
X221635238Y-79724285D01*
X221730476Y-79819523D01*
X221778095Y-79914761D01*
%TO.C,R20*%
X223592380Y-73032857D02*
X223116190Y-73366190D01*
X223592380Y-73604285D02*
X222592380Y-73604285D01*
X222592380Y-73223333D01*
X222640000Y-73128095D01*
X222687619Y-73080476D01*
X222782857Y-73032857D01*
X222925714Y-73032857D01*
X223020952Y-73080476D01*
X223068571Y-73128095D01*
X223116190Y-73223333D01*
X223116190Y-73604285D01*
X222687619Y-72651904D02*
X222640000Y-72604285D01*
X222592380Y-72509047D01*
X222592380Y-72270952D01*
X222640000Y-72175714D01*
X222687619Y-72128095D01*
X222782857Y-72080476D01*
X222878095Y-72080476D01*
X223020952Y-72128095D01*
X223592380Y-72699523D01*
X223592380Y-72080476D01*
X222592380Y-71461428D02*
X222592380Y-71366190D01*
X222640000Y-71270952D01*
X222687619Y-71223333D01*
X222782857Y-71175714D01*
X222973333Y-71128095D01*
X223211428Y-71128095D01*
X223401904Y-71175714D01*
X223497142Y-71223333D01*
X223544761Y-71270952D01*
X223592380Y-71366190D01*
X223592380Y-71461428D01*
X223544761Y-71556666D01*
X223497142Y-71604285D01*
X223401904Y-71651904D01*
X223211428Y-71699523D01*
X222973333Y-71699523D01*
X222782857Y-71651904D01*
X222687619Y-71604285D01*
X222640000Y-71556666D01*
X222592380Y-71461428D01*
%TO.C,Q1*%
X183320619Y-74771238D02*
X183273000Y-74866476D01*
X183177761Y-74961714D01*
X183034904Y-75104571D01*
X182987285Y-75199809D01*
X182987285Y-75295047D01*
X183225380Y-75247428D02*
X183177761Y-75342666D01*
X183082523Y-75437904D01*
X182892047Y-75485523D01*
X182558714Y-75485523D01*
X182368238Y-75437904D01*
X182273000Y-75342666D01*
X182225380Y-75247428D01*
X182225380Y-75056952D01*
X182273000Y-74961714D01*
X182368238Y-74866476D01*
X182558714Y-74818857D01*
X182892047Y-74818857D01*
X183082523Y-74866476D01*
X183177761Y-74961714D01*
X183225380Y-75056952D01*
X183225380Y-75247428D01*
X183225380Y-73866476D02*
X183225380Y-74437904D01*
X183225380Y-74152190D02*
X182225380Y-74152190D01*
X182368238Y-74247428D01*
X182463476Y-74342666D01*
X182511095Y-74437904D01*
%TO.C,JP7*%
X225226666Y-141692380D02*
X225226666Y-142406666D01*
X225179047Y-142549523D01*
X225083809Y-142644761D01*
X224940952Y-142692380D01*
X224845714Y-142692380D01*
X225702857Y-142692380D02*
X225702857Y-141692380D01*
X226083809Y-141692380D01*
X226179047Y-141740000D01*
X226226666Y-141787619D01*
X226274285Y-141882857D01*
X226274285Y-142025714D01*
X226226666Y-142120952D01*
X226179047Y-142168571D01*
X226083809Y-142216190D01*
X225702857Y-142216190D01*
X226607619Y-141692380D02*
X227274285Y-141692380D01*
X226845714Y-142692380D01*
%TO.C,R23*%
X165552380Y-64142857D02*
X165076190Y-64476190D01*
X165552380Y-64714285D02*
X164552380Y-64714285D01*
X164552380Y-64333333D01*
X164600000Y-64238095D01*
X164647619Y-64190476D01*
X164742857Y-64142857D01*
X164885714Y-64142857D01*
X164980952Y-64190476D01*
X165028571Y-64238095D01*
X165076190Y-64333333D01*
X165076190Y-64714285D01*
X164647619Y-63761904D02*
X164600000Y-63714285D01*
X164552380Y-63619047D01*
X164552380Y-63380952D01*
X164600000Y-63285714D01*
X164647619Y-63238095D01*
X164742857Y-63190476D01*
X164838095Y-63190476D01*
X164980952Y-63238095D01*
X165552380Y-63809523D01*
X165552380Y-63190476D01*
X164552380Y-62857142D02*
X164552380Y-62238095D01*
X164933333Y-62571428D01*
X164933333Y-62428571D01*
X164980952Y-62333333D01*
X165028571Y-62285714D01*
X165123809Y-62238095D01*
X165361904Y-62238095D01*
X165457142Y-62285714D01*
X165504761Y-62333333D01*
X165552380Y-62428571D01*
X165552380Y-62714285D01*
X165504761Y-62809523D01*
X165457142Y-62857142D01*
%TO.C,JP6*%
X220654666Y-110445380D02*
X220654666Y-111159666D01*
X220607047Y-111302523D01*
X220511809Y-111397761D01*
X220368952Y-111445380D01*
X220273714Y-111445380D01*
X221130857Y-111445380D02*
X221130857Y-110445380D01*
X221511809Y-110445380D01*
X221607047Y-110493000D01*
X221654666Y-110540619D01*
X221702285Y-110635857D01*
X221702285Y-110778714D01*
X221654666Y-110873952D01*
X221607047Y-110921571D01*
X221511809Y-110969190D01*
X221130857Y-110969190D01*
X222559428Y-110445380D02*
X222368952Y-110445380D01*
X222273714Y-110493000D01*
X222226095Y-110540619D01*
X222130857Y-110683476D01*
X222083238Y-110873952D01*
X222083238Y-111254904D01*
X222130857Y-111350142D01*
X222178476Y-111397761D01*
X222273714Y-111445380D01*
X222464190Y-111445380D01*
X222559428Y-111397761D01*
X222607047Y-111350142D01*
X222654666Y-111254904D01*
X222654666Y-111016809D01*
X222607047Y-110921571D01*
X222559428Y-110873952D01*
X222464190Y-110826333D01*
X222273714Y-110826333D01*
X222178476Y-110873952D01*
X222130857Y-110921571D01*
X222083238Y-111016809D01*
%TO.C,D5*%
X133881904Y-64516380D02*
X133881904Y-63516380D01*
X134120000Y-63516380D01*
X134262857Y-63564000D01*
X134358095Y-63659238D01*
X134405714Y-63754476D01*
X134453333Y-63944952D01*
X134453333Y-64087809D01*
X134405714Y-64278285D01*
X134358095Y-64373523D01*
X134262857Y-64468761D01*
X134120000Y-64516380D01*
X133881904Y-64516380D01*
X135358095Y-63516380D02*
X134881904Y-63516380D01*
X134834285Y-63992571D01*
X134881904Y-63944952D01*
X134977142Y-63897333D01*
X135215238Y-63897333D01*
X135310476Y-63944952D01*
X135358095Y-63992571D01*
X135405714Y-64087809D01*
X135405714Y-64325904D01*
X135358095Y-64421142D01*
X135310476Y-64468761D01*
X135215238Y-64516380D01*
X134977142Y-64516380D01*
X134881904Y-64468761D01*
X134834285Y-64421142D01*
%TO.C,U7*%
X211082380Y-111886904D02*
X211891904Y-111886904D01*
X211987142Y-111839285D01*
X212034761Y-111791666D01*
X212082380Y-111696428D01*
X212082380Y-111505952D01*
X212034761Y-111410714D01*
X211987142Y-111363095D01*
X211891904Y-111315476D01*
X211082380Y-111315476D01*
X211082380Y-110934523D02*
X211082380Y-110267857D01*
X212082380Y-110696428D01*
%TO.C,R21*%
X222607142Y-69412380D02*
X222273809Y-68936190D01*
X222035714Y-69412380D02*
X222035714Y-68412380D01*
X222416666Y-68412380D01*
X222511904Y-68460000D01*
X222559523Y-68507619D01*
X222607142Y-68602857D01*
X222607142Y-68745714D01*
X222559523Y-68840952D01*
X222511904Y-68888571D01*
X222416666Y-68936190D01*
X222035714Y-68936190D01*
X222988095Y-68507619D02*
X223035714Y-68460000D01*
X223130952Y-68412380D01*
X223369047Y-68412380D01*
X223464285Y-68460000D01*
X223511904Y-68507619D01*
X223559523Y-68602857D01*
X223559523Y-68698095D01*
X223511904Y-68840952D01*
X222940476Y-69412380D01*
X223559523Y-69412380D01*
X224511904Y-69412380D02*
X223940476Y-69412380D01*
X224226190Y-69412380D02*
X224226190Y-68412380D01*
X224130952Y-68555238D01*
X224035714Y-68650476D01*
X223940476Y-68698095D01*
%TO.C,U1*%
X199502780Y-77469904D02*
X200312304Y-77469904D01*
X200407542Y-77422285D01*
X200455161Y-77374666D01*
X200502780Y-77279428D01*
X200502780Y-77088952D01*
X200455161Y-76993714D01*
X200407542Y-76946095D01*
X200312304Y-76898476D01*
X199502780Y-76898476D01*
X200502780Y-75898476D02*
X200502780Y-76469904D01*
X200502780Y-76184190D02*
X199502780Y-76184190D01*
X199645638Y-76279428D01*
X199740876Y-76374666D01*
X199788495Y-76469904D01*
%TO.C,Q3*%
X191674761Y-144907619D02*
X191579523Y-144860000D01*
X191484285Y-144764761D01*
X191341428Y-144621904D01*
X191246190Y-144574285D01*
X191150952Y-144574285D01*
X191198571Y-144812380D02*
X191103333Y-144764761D01*
X191008095Y-144669523D01*
X190960476Y-144479047D01*
X190960476Y-144145714D01*
X191008095Y-143955238D01*
X191103333Y-143860000D01*
X191198571Y-143812380D01*
X191389047Y-143812380D01*
X191484285Y-143860000D01*
X191579523Y-143955238D01*
X191627142Y-144145714D01*
X191627142Y-144479047D01*
X191579523Y-144669523D01*
X191484285Y-144764761D01*
X191389047Y-144812380D01*
X191198571Y-144812380D01*
X191960476Y-143812380D02*
X192579523Y-143812380D01*
X192246190Y-144193333D01*
X192389047Y-144193333D01*
X192484285Y-144240952D01*
X192531904Y-144288571D01*
X192579523Y-144383809D01*
X192579523Y-144621904D01*
X192531904Y-144717142D01*
X192484285Y-144764761D01*
X192389047Y-144812380D01*
X192103333Y-144812380D01*
X192008095Y-144764761D01*
X191960476Y-144717142D01*
%TO.C,D4*%
X166679619Y-73937904D02*
X167679619Y-73937904D01*
X167679619Y-74176000D01*
X167632000Y-74318857D01*
X167536761Y-74414095D01*
X167441523Y-74461714D01*
X167251047Y-74509333D01*
X167108190Y-74509333D01*
X166917714Y-74461714D01*
X166822476Y-74414095D01*
X166727238Y-74318857D01*
X166679619Y-74176000D01*
X166679619Y-73937904D01*
X167346285Y-75366476D02*
X166679619Y-75366476D01*
X167727238Y-75128380D02*
X167012952Y-74890285D01*
X167012952Y-75509333D01*
%TO.C,Q2*%
X201072761Y-64403619D02*
X200977523Y-64356000D01*
X200882285Y-64260761D01*
X200739428Y-64117904D01*
X200644190Y-64070285D01*
X200548952Y-64070285D01*
X200596571Y-64308380D02*
X200501333Y-64260761D01*
X200406095Y-64165523D01*
X200358476Y-63975047D01*
X200358476Y-63641714D01*
X200406095Y-63451238D01*
X200501333Y-63356000D01*
X200596571Y-63308380D01*
X200787047Y-63308380D01*
X200882285Y-63356000D01*
X200977523Y-63451238D01*
X201025142Y-63641714D01*
X201025142Y-63975047D01*
X200977523Y-64165523D01*
X200882285Y-64260761D01*
X200787047Y-64308380D01*
X200596571Y-64308380D01*
X201406095Y-63403619D02*
X201453714Y-63356000D01*
X201548952Y-63308380D01*
X201787047Y-63308380D01*
X201882285Y-63356000D01*
X201929904Y-63403619D01*
X201977523Y-63498857D01*
X201977523Y-63594095D01*
X201929904Y-63736952D01*
X201358476Y-64308380D01*
X201977523Y-64308380D01*
%TO.C,D13*%
X219511714Y-136342380D02*
X219511714Y-135342380D01*
X219749809Y-135342380D01*
X219892666Y-135390000D01*
X219987904Y-135485238D01*
X220035523Y-135580476D01*
X220083142Y-135770952D01*
X220083142Y-135913809D01*
X220035523Y-136104285D01*
X219987904Y-136199523D01*
X219892666Y-136294761D01*
X219749809Y-136342380D01*
X219511714Y-136342380D01*
X221035523Y-136342380D02*
X220464095Y-136342380D01*
X220749809Y-136342380D02*
X220749809Y-135342380D01*
X220654571Y-135485238D01*
X220559333Y-135580476D01*
X220464095Y-135628095D01*
X221368857Y-135342380D02*
X221987904Y-135342380D01*
X221654571Y-135723333D01*
X221797428Y-135723333D01*
X221892666Y-135770952D01*
X221940285Y-135818571D01*
X221987904Y-135913809D01*
X221987904Y-136151904D01*
X221940285Y-136247142D01*
X221892666Y-136294761D01*
X221797428Y-136342380D01*
X221511714Y-136342380D01*
X221416476Y-136294761D01*
X221368857Y-136247142D01*
%TO.C,J4*%
X221492380Y-141303333D02*
X222206666Y-141303333D01*
X222349523Y-141350952D01*
X222444761Y-141446190D01*
X222492380Y-141589047D01*
X222492380Y-141684285D01*
X221825714Y-140398571D02*
X222492380Y-140398571D01*
X221444761Y-140636666D02*
X222159047Y-140874761D01*
X222159047Y-140255714D01*
%TO.C,R14*%
X155567142Y-92782380D02*
X155233809Y-92306190D01*
X154995714Y-92782380D02*
X154995714Y-91782380D01*
X155376666Y-91782380D01*
X155471904Y-91830000D01*
X155519523Y-91877619D01*
X155567142Y-91972857D01*
X155567142Y-92115714D01*
X155519523Y-92210952D01*
X155471904Y-92258571D01*
X155376666Y-92306190D01*
X154995714Y-92306190D01*
X156519523Y-92782380D02*
X155948095Y-92782380D01*
X156233809Y-92782380D02*
X156233809Y-91782380D01*
X156138571Y-91925238D01*
X156043333Y-92020476D01*
X155948095Y-92068095D01*
X157376666Y-92115714D02*
X157376666Y-92782380D01*
X157138571Y-91734761D02*
X156900476Y-92449047D01*
X157519523Y-92449047D01*
%TO.C,C4*%
X132929333Y-78941142D02*
X132881714Y-78988761D01*
X132738857Y-79036380D01*
X132643619Y-79036380D01*
X132500761Y-78988761D01*
X132405523Y-78893523D01*
X132357904Y-78798285D01*
X132310285Y-78607809D01*
X132310285Y-78464952D01*
X132357904Y-78274476D01*
X132405523Y-78179238D01*
X132500761Y-78084000D01*
X132643619Y-78036380D01*
X132738857Y-78036380D01*
X132881714Y-78084000D01*
X132929333Y-78131619D01*
X133786476Y-78369714D02*
X133786476Y-79036380D01*
X133548380Y-77988761D02*
X133310285Y-78703047D01*
X133929333Y-78703047D01*
%TO.C,JP1*%
X212526666Y-70572380D02*
X212526666Y-71286666D01*
X212479047Y-71429523D01*
X212383809Y-71524761D01*
X212240952Y-71572380D01*
X212145714Y-71572380D01*
X213002857Y-71572380D02*
X213002857Y-70572380D01*
X213383809Y-70572380D01*
X213479047Y-70620000D01*
X213526666Y-70667619D01*
X213574285Y-70762857D01*
X213574285Y-70905714D01*
X213526666Y-71000952D01*
X213479047Y-71048571D01*
X213383809Y-71096190D01*
X213002857Y-71096190D01*
X214526666Y-71572380D02*
X213955238Y-71572380D01*
X214240952Y-71572380D02*
X214240952Y-70572380D01*
X214145714Y-70715238D01*
X214050476Y-70810476D01*
X213955238Y-70858095D01*
%TO.C,JP8*%
X136326666Y-73112380D02*
X136326666Y-73826666D01*
X136279047Y-73969523D01*
X136183809Y-74064761D01*
X136040952Y-74112380D01*
X135945714Y-74112380D01*
X136802857Y-74112380D02*
X136802857Y-73112380D01*
X137183809Y-73112380D01*
X137279047Y-73160000D01*
X137326666Y-73207619D01*
X137374285Y-73302857D01*
X137374285Y-73445714D01*
X137326666Y-73540952D01*
X137279047Y-73588571D01*
X137183809Y-73636190D01*
X136802857Y-73636190D01*
X137945714Y-73540952D02*
X137850476Y-73493333D01*
X137802857Y-73445714D01*
X137755238Y-73350476D01*
X137755238Y-73302857D01*
X137802857Y-73207619D01*
X137850476Y-73160000D01*
X137945714Y-73112380D01*
X138136190Y-73112380D01*
X138231428Y-73160000D01*
X138279047Y-73207619D01*
X138326666Y-73302857D01*
X138326666Y-73350476D01*
X138279047Y-73445714D01*
X138231428Y-73493333D01*
X138136190Y-73540952D01*
X137945714Y-73540952D01*
X137850476Y-73588571D01*
X137802857Y-73636190D01*
X137755238Y-73731428D01*
X137755238Y-73921904D01*
X137802857Y-74017142D01*
X137850476Y-74064761D01*
X137945714Y-74112380D01*
X138136190Y-74112380D01*
X138231428Y-74064761D01*
X138279047Y-74017142D01*
X138326666Y-73921904D01*
X138326666Y-73731428D01*
X138279047Y-73636190D01*
X138231428Y-73588571D01*
X138136190Y-73540952D01*
%TO.C,D1*%
X142771904Y-69572380D02*
X142771904Y-68572380D01*
X143010000Y-68572380D01*
X143152857Y-68620000D01*
X143248095Y-68715238D01*
X143295714Y-68810476D01*
X143343333Y-69000952D01*
X143343333Y-69143809D01*
X143295714Y-69334285D01*
X143248095Y-69429523D01*
X143152857Y-69524761D01*
X143010000Y-69572380D01*
X142771904Y-69572380D01*
X144295714Y-69572380D02*
X143724285Y-69572380D01*
X144010000Y-69572380D02*
X144010000Y-68572380D01*
X143914761Y-68715238D01*
X143819523Y-68810476D01*
X143724285Y-68858095D01*
%TO.C,JP3*%
X222686666Y-97302380D02*
X222686666Y-98016666D01*
X222639047Y-98159523D01*
X222543809Y-98254761D01*
X222400952Y-98302380D01*
X222305714Y-98302380D01*
X223162857Y-98302380D02*
X223162857Y-97302380D01*
X223543809Y-97302380D01*
X223639047Y-97350000D01*
X223686666Y-97397619D01*
X223734285Y-97492857D01*
X223734285Y-97635714D01*
X223686666Y-97730952D01*
X223639047Y-97778571D01*
X223543809Y-97826190D01*
X223162857Y-97826190D01*
X224067619Y-97302380D02*
X224686666Y-97302380D01*
X224353333Y-97683333D01*
X224496190Y-97683333D01*
X224591428Y-97730952D01*
X224639047Y-97778571D01*
X224686666Y-97873809D01*
X224686666Y-98111904D01*
X224639047Y-98207142D01*
X224591428Y-98254761D01*
X224496190Y-98302380D01*
X224210476Y-98302380D01*
X224115238Y-98254761D01*
X224067619Y-98207142D01*
%TO.C,J3*%
X221932380Y-131143333D02*
X222646666Y-131143333D01*
X222789523Y-131190952D01*
X222884761Y-131286190D01*
X222932380Y-131429047D01*
X222932380Y-131524285D01*
X221932380Y-130762380D02*
X221932380Y-130143333D01*
X222313333Y-130476666D01*
X222313333Y-130333809D01*
X222360952Y-130238571D01*
X222408571Y-130190952D01*
X222503809Y-130143333D01*
X222741904Y-130143333D01*
X222837142Y-130190952D01*
X222884761Y-130238571D01*
X222932380Y-130333809D01*
X222932380Y-130619523D01*
X222884761Y-130714761D01*
X222837142Y-130762380D01*
%TO.C,R10*%
X220542380Y-67952857D02*
X220066190Y-68286190D01*
X220542380Y-68524285D02*
X219542380Y-68524285D01*
X219542380Y-68143333D01*
X219590000Y-68048095D01*
X219637619Y-68000476D01*
X219732857Y-67952857D01*
X219875714Y-67952857D01*
X219970952Y-68000476D01*
X220018571Y-68048095D01*
X220066190Y-68143333D01*
X220066190Y-68524285D01*
X220542380Y-67000476D02*
X220542380Y-67571904D01*
X220542380Y-67286190D02*
X219542380Y-67286190D01*
X219685238Y-67381428D01*
X219780476Y-67476666D01*
X219828095Y-67571904D01*
X219542380Y-66381428D02*
X219542380Y-66286190D01*
X219590000Y-66190952D01*
X219637619Y-66143333D01*
X219732857Y-66095714D01*
X219923333Y-66048095D01*
X220161428Y-66048095D01*
X220351904Y-66095714D01*
X220447142Y-66143333D01*
X220494761Y-66190952D01*
X220542380Y-66286190D01*
X220542380Y-66381428D01*
X220494761Y-66476666D01*
X220447142Y-66524285D01*
X220351904Y-66571904D01*
X220161428Y-66619523D01*
X219923333Y-66619523D01*
X219732857Y-66571904D01*
X219637619Y-66524285D01*
X219590000Y-66476666D01*
X219542380Y-66381428D01*
%TO.C,D12*%
X187253714Y-78502380D02*
X187253714Y-77502380D01*
X187491809Y-77502380D01*
X187634666Y-77550000D01*
X187729904Y-77645238D01*
X187777523Y-77740476D01*
X187825142Y-77930952D01*
X187825142Y-78073809D01*
X187777523Y-78264285D01*
X187729904Y-78359523D01*
X187634666Y-78454761D01*
X187491809Y-78502380D01*
X187253714Y-78502380D01*
X188777523Y-78502380D02*
X188206095Y-78502380D01*
X188491809Y-78502380D02*
X188491809Y-77502380D01*
X188396571Y-77645238D01*
X188301333Y-77740476D01*
X188206095Y-77788095D01*
X189158476Y-77597619D02*
X189206095Y-77550000D01*
X189301333Y-77502380D01*
X189539428Y-77502380D01*
X189634666Y-77550000D01*
X189682285Y-77597619D01*
X189729904Y-77692857D01*
X189729904Y-77788095D01*
X189682285Y-77930952D01*
X189110857Y-78502380D01*
X189729904Y-78502380D01*
%TO.C,C2*%
X138495833Y-125677142D02*
X138448214Y-125724761D01*
X138305357Y-125772380D01*
X138210119Y-125772380D01*
X138067261Y-125724761D01*
X137972023Y-125629523D01*
X137924404Y-125534285D01*
X137876785Y-125343809D01*
X137876785Y-125200952D01*
X137924404Y-125010476D01*
X137972023Y-124915238D01*
X138067261Y-124820000D01*
X138210119Y-124772380D01*
X138305357Y-124772380D01*
X138448214Y-124820000D01*
X138495833Y-124867619D01*
X138876785Y-124867619D02*
X138924404Y-124820000D01*
X139019642Y-124772380D01*
X139257738Y-124772380D01*
X139352976Y-124820000D01*
X139400595Y-124867619D01*
X139448214Y-124962857D01*
X139448214Y-125058095D01*
X139400595Y-125200952D01*
X138829166Y-125772380D01*
X139448214Y-125772380D01*
%TO.C,D9*%
X135072380Y-106148095D02*
X134072380Y-106148095D01*
X134072380Y-105910000D01*
X134120000Y-105767142D01*
X134215238Y-105671904D01*
X134310476Y-105624285D01*
X134500952Y-105576666D01*
X134643809Y-105576666D01*
X134834285Y-105624285D01*
X134929523Y-105671904D01*
X135024761Y-105767142D01*
X135072380Y-105910000D01*
X135072380Y-106148095D01*
X135072380Y-105100476D02*
X135072380Y-104910000D01*
X135024761Y-104814761D01*
X134977142Y-104767142D01*
X134834285Y-104671904D01*
X134643809Y-104624285D01*
X134262857Y-104624285D01*
X134167619Y-104671904D01*
X134120000Y-104719523D01*
X134072380Y-104814761D01*
X134072380Y-105005238D01*
X134120000Y-105100476D01*
X134167619Y-105148095D01*
X134262857Y-105195714D01*
X134500952Y-105195714D01*
X134596190Y-105148095D01*
X134643809Y-105100476D01*
X134691428Y-105005238D01*
X134691428Y-104814761D01*
X134643809Y-104719523D01*
X134596190Y-104671904D01*
X134500952Y-104624285D01*
%TO.C,C3*%
X169018833Y-67765142D02*
X168971214Y-67812761D01*
X168828357Y-67860380D01*
X168733119Y-67860380D01*
X168590261Y-67812761D01*
X168495023Y-67717523D01*
X168447404Y-67622285D01*
X168399785Y-67431809D01*
X168399785Y-67288952D01*
X168447404Y-67098476D01*
X168495023Y-67003238D01*
X168590261Y-66908000D01*
X168733119Y-66860380D01*
X168828357Y-66860380D01*
X168971214Y-66908000D01*
X169018833Y-66955619D01*
X169352166Y-66860380D02*
X169971214Y-66860380D01*
X169637880Y-67241333D01*
X169780738Y-67241333D01*
X169875976Y-67288952D01*
X169923595Y-67336571D01*
X169971214Y-67431809D01*
X169971214Y-67669904D01*
X169923595Y-67765142D01*
X169875976Y-67812761D01*
X169780738Y-67860380D01*
X169495023Y-67860380D01*
X169399785Y-67812761D01*
X169352166Y-67765142D01*
%TO.C,U5*%
X169632380Y-103631904D02*
X170441904Y-103631904D01*
X170537142Y-103584285D01*
X170584761Y-103536666D01*
X170632380Y-103441428D01*
X170632380Y-103250952D01*
X170584761Y-103155714D01*
X170537142Y-103108095D01*
X170441904Y-103060476D01*
X169632380Y-103060476D01*
X169632380Y-102108095D02*
X169632380Y-102584285D01*
X170108571Y-102631904D01*
X170060952Y-102584285D01*
X170013333Y-102489047D01*
X170013333Y-102250952D01*
X170060952Y-102155714D01*
X170108571Y-102108095D01*
X170203809Y-102060476D01*
X170441904Y-102060476D01*
X170537142Y-102108095D01*
X170584761Y-102155714D01*
X170632380Y-102250952D01*
X170632380Y-102489047D01*
X170584761Y-102584285D01*
X170537142Y-102631904D01*
%TO.C,C9*%
X217003333Y-115517142D02*
X216955714Y-115564761D01*
X216812857Y-115612380D01*
X216717619Y-115612380D01*
X216574761Y-115564761D01*
X216479523Y-115469523D01*
X216431904Y-115374285D01*
X216384285Y-115183809D01*
X216384285Y-115040952D01*
X216431904Y-114850476D01*
X216479523Y-114755238D01*
X216574761Y-114660000D01*
X216717619Y-114612380D01*
X216812857Y-114612380D01*
X216955714Y-114660000D01*
X217003333Y-114707619D01*
X217479523Y-115612380D02*
X217670000Y-115612380D01*
X217765238Y-115564761D01*
X217812857Y-115517142D01*
X217908095Y-115374285D01*
X217955714Y-115183809D01*
X217955714Y-114802857D01*
X217908095Y-114707619D01*
X217860476Y-114660000D01*
X217765238Y-114612380D01*
X217574761Y-114612380D01*
X217479523Y-114660000D01*
X217431904Y-114707619D01*
X217384285Y-114802857D01*
X217384285Y-115040952D01*
X217431904Y-115136190D01*
X217479523Y-115183809D01*
X217574761Y-115231428D01*
X217765238Y-115231428D01*
X217860476Y-115183809D01*
X217908095Y-115136190D01*
X217955714Y-115040952D01*
%TO.C,JP10*%
X148550476Y-74382380D02*
X148550476Y-75096666D01*
X148502857Y-75239523D01*
X148407619Y-75334761D01*
X148264761Y-75382380D01*
X148169523Y-75382380D01*
X149026666Y-75382380D02*
X149026666Y-74382380D01*
X149407619Y-74382380D01*
X149502857Y-74430000D01*
X149550476Y-74477619D01*
X149598095Y-74572857D01*
X149598095Y-74715714D01*
X149550476Y-74810952D01*
X149502857Y-74858571D01*
X149407619Y-74906190D01*
X149026666Y-74906190D01*
X150550476Y-75382380D02*
X149979047Y-75382380D01*
X150264761Y-75382380D02*
X150264761Y-74382380D01*
X150169523Y-74525238D01*
X150074285Y-74620476D01*
X149979047Y-74668095D01*
X151169523Y-74382380D02*
X151264761Y-74382380D01*
X151360000Y-74430000D01*
X151407619Y-74477619D01*
X151455238Y-74572857D01*
X151502857Y-74763333D01*
X151502857Y-75001428D01*
X151455238Y-75191904D01*
X151407619Y-75287142D01*
X151360000Y-75334761D01*
X151264761Y-75382380D01*
X151169523Y-75382380D01*
X151074285Y-75334761D01*
X151026666Y-75287142D01*
X150979047Y-75191904D01*
X150931428Y-75001428D01*
X150931428Y-74763333D01*
X150979047Y-74572857D01*
X151026666Y-74477619D01*
X151074285Y-74430000D01*
X151169523Y-74382380D01*
%TO.C,U2*%
X202438095Y-97382380D02*
X202438095Y-98191904D01*
X202485714Y-98287142D01*
X202533333Y-98334761D01*
X202628571Y-98382380D01*
X202819047Y-98382380D01*
X202914285Y-98334761D01*
X202961904Y-98287142D01*
X203009523Y-98191904D01*
X203009523Y-97382380D01*
X203438095Y-97477619D02*
X203485714Y-97430000D01*
X203580952Y-97382380D01*
X203819047Y-97382380D01*
X203914285Y-97430000D01*
X203961904Y-97477619D01*
X204009523Y-97572857D01*
X204009523Y-97668095D01*
X203961904Y-97810952D01*
X203390476Y-98382380D01*
X204009523Y-98382380D01*
%TO.C,D7*%
X171063380Y-74398095D02*
X170063380Y-74398095D01*
X170063380Y-74160000D01*
X170111000Y-74017142D01*
X170206238Y-73921904D01*
X170301476Y-73874285D01*
X170491952Y-73826666D01*
X170634809Y-73826666D01*
X170825285Y-73874285D01*
X170920523Y-73921904D01*
X171015761Y-74017142D01*
X171063380Y-74160000D01*
X171063380Y-74398095D01*
X170063380Y-73493333D02*
X170063380Y-72826666D01*
X171063380Y-73255238D01*
%TO.C,C5*%
X137517142Y-106846666D02*
X137564761Y-106894285D01*
X137612380Y-107037142D01*
X137612380Y-107132380D01*
X137564761Y-107275238D01*
X137469523Y-107370476D01*
X137374285Y-107418095D01*
X137183809Y-107465714D01*
X137040952Y-107465714D01*
X136850476Y-107418095D01*
X136755238Y-107370476D01*
X136660000Y-107275238D01*
X136612380Y-107132380D01*
X136612380Y-107037142D01*
X136660000Y-106894285D01*
X136707619Y-106846666D01*
X136612380Y-105941904D02*
X136612380Y-106418095D01*
X137088571Y-106465714D01*
X137040952Y-106418095D01*
X136993333Y-106322857D01*
X136993333Y-106084761D01*
X137040952Y-105989523D01*
X137088571Y-105941904D01*
X137183809Y-105894285D01*
X137421904Y-105894285D01*
X137517142Y-105941904D01*
X137564761Y-105989523D01*
X137612380Y-106084761D01*
X137612380Y-106322857D01*
X137564761Y-106418095D01*
X137517142Y-106465714D01*
D11*
%TO.C,R18*%
X161824936Y-110009000D02*
X162279064Y-110009000D01*
X161824936Y-111479000D02*
X162279064Y-111479000D01*
%TO.C,C8*%
X227068748Y-89435000D02*
X227591252Y-89435000D01*
X227068748Y-90905000D02*
X227591252Y-90905000D01*
%TO.C,R6*%
X216210000Y-103912936D02*
X216210000Y-104367064D01*
X217680000Y-103912936D02*
X217680000Y-104367064D01*
%TO.C,R3*%
X163840936Y-68353000D02*
X164295064Y-68353000D01*
X163840936Y-69823000D02*
X164295064Y-69823000D01*
%TO.C,R13*%
X140943000Y-75464936D02*
X140943000Y-75919064D01*
X139473000Y-75464936D02*
X139473000Y-75919064D01*
%TO.C,R4*%
X144245000Y-95022936D02*
X144245000Y-95477064D01*
X142775000Y-95022936D02*
X142775000Y-95477064D01*
%TO.C,R19*%
X166396936Y-110009000D02*
X166851064Y-110009000D01*
X166396936Y-111479000D02*
X166851064Y-111479000D01*
%TO.C,JP4*%
X168915000Y-146745000D02*
X166315000Y-146745000D01*
X170185000Y-144085000D02*
X171515000Y-144085000D01*
X168915000Y-144085000D02*
X168915000Y-146745000D01*
X168915000Y-144085000D02*
X166315000Y-144085000D01*
X166315000Y-144085000D02*
X166315000Y-146745000D01*
X171515000Y-144085000D02*
X171515000Y-145415000D01*
%TO.C,TP7*%
X218500000Y-76962000D02*
X218500000Y-77022000D01*
X215840000Y-77022000D02*
X218500000Y-77022000D01*
X215840000Y-76962000D02*
X218500000Y-76962000D01*
X215840000Y-74362000D02*
X217170000Y-74362000D01*
X215840000Y-76962000D02*
X215840000Y-77022000D01*
X215840000Y-75692000D02*
X215840000Y-74362000D01*
%TO.C,C12*%
X174505252Y-104367000D02*
X173982748Y-104367000D01*
X174505252Y-102897000D02*
X173982748Y-102897000D01*
%TO.C,U4*%
X155448000Y-67092000D02*
X156248000Y-67092000D01*
X155448000Y-63972000D02*
X153648000Y-63972000D01*
X155448000Y-63972000D02*
X156248000Y-63972000D01*
X155448000Y-67092000D02*
X154648000Y-67092000D01*
%TO.C,C1*%
X209288748Y-99795000D02*
X209811252Y-99795000D01*
X209288748Y-98325000D02*
X209811252Y-98325000D01*
%TO.C,C7*%
X227068748Y-88365000D02*
X227591252Y-88365000D01*
X227068748Y-86895000D02*
X227591252Y-86895000D01*
%TO.C,U6*%
X228600000Y-80180000D02*
X228600000Y-84780000D01*
X228600000Y-84780000D02*
X225560000Y-84780000D01*
X225560000Y-84780000D02*
X225560000Y-80180000D01*
X225560000Y-80180000D02*
X228600000Y-80180000D01*
%TO.C,TP11*%
X210760000Y-76200000D02*
X213420000Y-76200000D01*
X210760000Y-74930000D02*
X210760000Y-73600000D01*
X210760000Y-76260000D02*
X213420000Y-76260000D01*
X210760000Y-73600000D02*
X212090000Y-73600000D01*
X213420000Y-76200000D02*
X213420000Y-76260000D01*
X210760000Y-76200000D02*
X210760000Y-76260000D01*
%TO.C,C10*%
X212463748Y-116105000D02*
X212986252Y-116105000D01*
X212463748Y-117575000D02*
X212986252Y-117575000D01*
%TO.C,R11*%
X224055000Y-76935064D02*
X224055000Y-76480936D01*
X225525000Y-76935064D02*
X225525000Y-76480936D01*
%TO.C,JP11*%
X181610000Y-149920000D02*
X179010000Y-149920000D01*
X184210000Y-147260000D02*
X184210000Y-148590000D01*
X182880000Y-147260000D02*
X184210000Y-147260000D01*
X181610000Y-147260000D02*
X181610000Y-149920000D01*
X179010000Y-147260000D02*
X179010000Y-149920000D01*
X181610000Y-147260000D02*
X179010000Y-147260000D01*
%TO.C,TP9*%
X199330000Y-148590000D02*
X199330000Y-147260000D01*
X199330000Y-149860000D02*
X199330000Y-149920000D01*
X199330000Y-147260000D02*
X200660000Y-147260000D01*
X199330000Y-149860000D02*
X201990000Y-149860000D01*
X201990000Y-149860000D02*
X201990000Y-149920000D01*
X199330000Y-149920000D02*
X201990000Y-149920000D01*
%TO.C,R12*%
X148071064Y-65305000D02*
X147616936Y-65305000D01*
X148071064Y-66775000D02*
X147616936Y-66775000D01*
%TO.C,R8*%
X214730000Y-103912936D02*
X214730000Y-104367064D01*
X213260000Y-103912936D02*
X213260000Y-104367064D01*
%TO.C,R7*%
X157252936Y-113565000D02*
X157707064Y-113565000D01*
X157252936Y-115035000D02*
X157707064Y-115035000D01*
%TO.C,JP9*%
X195585000Y-74362000D02*
X192985000Y-74362000D01*
X195585000Y-74362000D02*
X195585000Y-77022000D01*
X195585000Y-77022000D02*
X192985000Y-77022000D01*
X198185000Y-74362000D02*
X198185000Y-75692000D01*
X196855000Y-74362000D02*
X198185000Y-74362000D01*
X192985000Y-74362000D02*
X192985000Y-77022000D01*
%TO.C,D8*%
X135580000Y-97520000D02*
X135580000Y-94660000D01*
X135580000Y-94660000D02*
X133660000Y-94660000D01*
X133660000Y-94660000D02*
X133660000Y-97520000D01*
%TO.C,D6*%
X137684000Y-71064000D02*
X140544000Y-71064000D01*
X140544000Y-71064000D02*
X140544000Y-69144000D01*
X140544000Y-69144000D02*
X137684000Y-69144000D01*
%TO.C,U3*%
X132850000Y-83990000D02*
X135890000Y-83990000D01*
X132850000Y-88590000D02*
X132850000Y-83990000D01*
X135890000Y-83990000D02*
X135890000Y-88590000D01*
X135890000Y-88590000D02*
X132850000Y-88590000D01*
%TO.C,TP8*%
X208340000Y-148590000D02*
X208340000Y-148650000D01*
X205680000Y-145990000D02*
X207010000Y-145990000D01*
X205680000Y-147320000D02*
X205680000Y-145990000D01*
X205680000Y-148590000D02*
X205680000Y-148650000D01*
X205680000Y-148590000D02*
X208340000Y-148590000D01*
X205680000Y-148650000D02*
X208340000Y-148650000D01*
%TO.C,J2*%
X221040000Y-91500000D02*
X219710000Y-91500000D01*
X218440000Y-88840000D02*
X137100000Y-88840000D01*
X218440000Y-88840000D02*
X218440000Y-91500000D01*
X137100000Y-88840000D02*
X137100000Y-91500000D01*
X221040000Y-90170000D02*
X221040000Y-91500000D01*
X218440000Y-91500000D02*
X137100000Y-91500000D01*
%TO.C,R5*%
X135355000Y-91667064D02*
X135355000Y-91212936D01*
X133885000Y-91667064D02*
X133885000Y-91212936D01*
%TO.C,JP2*%
X215960000Y-145990000D02*
X215960000Y-147320000D01*
X213360000Y-148650000D02*
X210760000Y-148650000D01*
X210760000Y-145990000D02*
X210760000Y-148650000D01*
X214630000Y-145990000D02*
X215960000Y-145990000D01*
X213360000Y-145990000D02*
X213360000Y-148650000D01*
X213360000Y-145990000D02*
X210760000Y-145990000D01*
%TO.C,JP5*%
X227390000Y-120650000D02*
X227390000Y-121980000D01*
X227390000Y-119380000D02*
X224730000Y-119380000D01*
X227390000Y-121980000D02*
X226060000Y-121980000D01*
X227390000Y-119380000D02*
X227390000Y-116780000D01*
X224730000Y-119380000D02*
X224730000Y-116780000D01*
X227390000Y-116780000D02*
X224730000Y-116780000D01*
%TO.C,R22*%
X222934200Y-118321064D02*
X222934200Y-117866936D01*
X221464200Y-118321064D02*
X221464200Y-117866936D01*
%TO.C,C6*%
X146585000Y-108958748D02*
X146585000Y-109481252D01*
X148055000Y-108958748D02*
X148055000Y-109481252D01*
%TO.C,R1*%
X179604936Y-69315000D02*
X180059064Y-69315000D01*
X179604936Y-67845000D02*
X180059064Y-67845000D01*
%TO.C,R2*%
X195352936Y-70331000D02*
X195807064Y-70331000D01*
X195352936Y-68861000D02*
X195807064Y-68861000D01*
%TO.C,R9*%
X137695000Y-85317064D02*
X137695000Y-84862936D01*
X139165000Y-85317064D02*
X139165000Y-84862936D01*
%TO.C,R24*%
X142775000Y-111987064D02*
X142775000Y-111532936D01*
X144245000Y-111987064D02*
X144245000Y-111532936D01*
%TO.C,J5*%
X228925000Y-102815000D02*
X229375000Y-102415000D01*
X226125000Y-107965000D02*
X226125000Y-108265000D01*
X229375000Y-103215000D02*
X228925000Y-102815000D01*
X223325000Y-107965000D02*
X226125000Y-107965000D01*
X229375000Y-102415000D02*
X229375000Y-103215000D01*
X226125000Y-108265000D02*
X227675000Y-108265000D01*
X226125000Y-99965000D02*
X227675000Y-99965000D01*
X226125000Y-99965000D02*
X226125000Y-100265000D01*
X223325000Y-100265000D02*
X226125000Y-100265000D01*
%TO.C,R15*%
X148362936Y-104675000D02*
X148817064Y-104675000D01*
X148362936Y-106145000D02*
X148817064Y-106145000D01*
%TO.C,J1*%
X219710000Y-78680000D02*
X221040000Y-78680000D01*
X218440000Y-81340000D02*
X137100000Y-81340000D01*
X218440000Y-78680000D02*
X218440000Y-81340000D01*
X221040000Y-78680000D02*
X221040000Y-80010000D01*
X137100000Y-78680000D02*
X137100000Y-81340000D01*
X218440000Y-78680000D02*
X137100000Y-78680000D01*
%TO.C,R20*%
X224055000Y-72617064D02*
X224055000Y-72162936D01*
X225525000Y-72617064D02*
X225525000Y-72162936D01*
%TO.C,Q1*%
X177363000Y-72876000D02*
X177363000Y-76476000D01*
X177374522Y-76514478D02*
G75*
G03*
X181813000Y-74676000I1838478J1838478D01*
G01*
X181813001Y-74676000D02*
G75*
G03*
X177374522Y-72837522I-2600001J0D01*
G01*
%TO.C,JP7*%
X223460000Y-128270000D02*
X223460000Y-130870000D01*
X226120000Y-128270000D02*
X226120000Y-130870000D01*
X223460000Y-130870000D02*
X226120000Y-130870000D01*
X223460000Y-125670000D02*
X224790000Y-125670000D01*
X223460000Y-127000000D02*
X223460000Y-125670000D01*
X223460000Y-128270000D02*
X226120000Y-128270000D01*
%TO.C,R23*%
X162279000Y-64812936D02*
X162279000Y-65267064D01*
X160809000Y-64812936D02*
X160809000Y-65267064D01*
%TO.C,JP6*%
X227390000Y-111760000D02*
X224730000Y-111760000D01*
X227390000Y-109160000D02*
X224730000Y-109160000D01*
X227390000Y-111760000D02*
X227390000Y-109160000D01*
X227390000Y-113030000D02*
X227390000Y-114360000D01*
X227390000Y-114360000D02*
X226060000Y-114360000D01*
X224730000Y-111760000D02*
X224730000Y-109160000D01*
%TO.C,D5*%
X136316000Y-64064000D02*
X136316000Y-65984000D01*
X139176000Y-64064000D02*
X136316000Y-64064000D01*
X136316000Y-65984000D02*
X139176000Y-65984000D01*
%TO.C,U7*%
X212970000Y-109965000D02*
X212970000Y-109465000D01*
X212970000Y-112785000D02*
X212970000Y-112285000D01*
X216290000Y-112285000D02*
X216290000Y-112785000D01*
X216290000Y-109465000D02*
X215790000Y-109465000D01*
X216290000Y-112785000D02*
X215790000Y-112785000D01*
X216290000Y-109965000D02*
X216290000Y-109465000D01*
X212970000Y-109465000D02*
X213470000Y-109465000D01*
%TO.C,R21*%
X223477064Y-66575000D02*
X223022936Y-66575000D01*
X223477064Y-68045000D02*
X223022936Y-68045000D01*
%TO.C,U1*%
X199674000Y-73781500D02*
X199674000Y-72981500D01*
X202794000Y-73781500D02*
X202794000Y-72981500D01*
X202794000Y-73781500D02*
X202794000Y-74581500D01*
X199674000Y-73781500D02*
X199674000Y-75581500D01*
%TO.C,Q3*%
X190210000Y-146084000D02*
X190210000Y-146240000D01*
X190210000Y-148400000D02*
X190210000Y-148556000D01*
X190210000Y-148555516D02*
G75*
G03*
X193442335Y-148398608I1560000J1235516D01*
G01*
X192811130Y-146240163D02*
G75*
G03*
X190729039Y-146240000I-1041130J-1079837D01*
G01*
X193442335Y-146241392D02*
G75*
G03*
X190210000Y-146084484I-1672335J-1078608D01*
G01*
X190729039Y-148400000D02*
G75*
G03*
X192811130Y-148399837I1040961J1080000D01*
G01*
%TO.C,Q2*%
X199368000Y-69266000D02*
X202968000Y-69266000D01*
X203006478Y-69254478D02*
G75*
G03*
X201168000Y-64816000I-1838478J1838478D01*
G01*
X201168000Y-64815999D02*
G75*
G03*
X199329522Y-69254478I0J-2600001D01*
G01*
%TO.C,D13*%
X223790000Y-138140000D02*
X223790000Y-134240000D01*
X223790000Y-138140000D02*
X225790000Y-138140000D01*
X225790000Y-138140000D02*
X225790000Y-134240000D01*
%TO.C,J4*%
X219710000Y-139640000D02*
X221040000Y-139640000D01*
X218440000Y-139640000D02*
X218440000Y-142300000D01*
X137100000Y-139640000D02*
X137100000Y-142300000D01*
X221040000Y-139640000D02*
X221040000Y-140970000D01*
X218440000Y-142300000D02*
X137100000Y-142300000D01*
X218440000Y-139640000D02*
X137100000Y-139640000D01*
%TO.C,R14*%
X155982936Y-93245000D02*
X156437064Y-93245000D01*
X155982936Y-94715000D02*
X156437064Y-94715000D01*
%TO.C,C4*%
X132834748Y-80999000D02*
X133357252Y-80999000D01*
X132834748Y-79529000D02*
X133357252Y-79529000D01*
%TO.C,JP1*%
X208220000Y-65980000D02*
X209550000Y-65980000D01*
X208220000Y-68580000D02*
X208220000Y-71180000D01*
X208220000Y-71180000D02*
X210880000Y-71180000D01*
X210880000Y-68580000D02*
X210880000Y-71180000D01*
X208220000Y-68580000D02*
X210880000Y-68580000D01*
X208220000Y-67310000D02*
X208220000Y-65980000D01*
%TO.C,JP8*%
X133290000Y-72450000D02*
X135950000Y-72450000D01*
X133290000Y-67250000D02*
X134620000Y-67250000D01*
X133290000Y-69850000D02*
X133290000Y-72450000D01*
X133290000Y-69850000D02*
X135950000Y-69850000D01*
X133290000Y-68580000D02*
X133290000Y-67250000D01*
X135950000Y-69850000D02*
X135950000Y-72450000D01*
%TO.C,D1*%
X141260000Y-70120000D02*
X141260000Y-72120000D01*
X141260000Y-72120000D02*
X145160000Y-72120000D01*
X141260000Y-70120000D02*
X145160000Y-70120000D01*
%TO.C,JP3*%
X226000000Y-95250000D02*
X228660000Y-95250000D01*
X228660000Y-95250000D02*
X228660000Y-97850000D01*
X226000000Y-95250000D02*
X226000000Y-97850000D01*
X226000000Y-97850000D02*
X228660000Y-97850000D01*
X226000000Y-92650000D02*
X227330000Y-92650000D01*
X226000000Y-93980000D02*
X226000000Y-92650000D01*
%TO.C,J3*%
X218440000Y-129480000D02*
X218440000Y-132140000D01*
X221040000Y-132140000D02*
X219710000Y-132140000D01*
X137100000Y-129480000D02*
X137100000Y-132140000D01*
X218440000Y-129480000D02*
X137100000Y-129480000D01*
X221040000Y-130810000D02*
X221040000Y-132140000D01*
X218440000Y-132140000D02*
X137100000Y-132140000D01*
%TO.C,R10*%
X219175000Y-67082936D02*
X219175000Y-67537064D01*
X217705000Y-67082936D02*
X217705000Y-67537064D01*
%TO.C,D12*%
X189968000Y-77050000D02*
X189968000Y-75350000D01*
X189968000Y-77050000D02*
X187418000Y-77050000D01*
X189968000Y-75350000D02*
X187418000Y-75350000D01*
%TO.C,C2*%
X138401248Y-127735000D02*
X138923752Y-127735000D01*
X138401248Y-126265000D02*
X138923752Y-126265000D01*
%TO.C,D9*%
X135580000Y-103460000D02*
X135580000Y-100600000D01*
X133660000Y-103460000D02*
X135580000Y-103460000D01*
X133660000Y-100600000D02*
X133660000Y-103460000D01*
%TO.C,C3*%
X168924248Y-69823000D02*
X169446752Y-69823000D01*
X168924248Y-68353000D02*
X169446752Y-68353000D01*
%TO.C,U5*%
X163491000Y-102616000D02*
X163491000Y-100666000D01*
X168611000Y-102616000D02*
X168611000Y-99166000D01*
X163491000Y-102616000D02*
X163491000Y-104566000D01*
X168611000Y-102616000D02*
X168611000Y-104566000D01*
%TO.C,C9*%
X216908748Y-116105000D02*
X217431252Y-116105000D01*
X216908748Y-117575000D02*
X217431252Y-117575000D01*
%TO.C,JP10*%
X154118000Y-72639000D02*
X156778000Y-72639000D01*
X154118000Y-72639000D02*
X154118000Y-75239000D01*
X154118000Y-75239000D02*
X156778000Y-75239000D01*
X154118000Y-71369000D02*
X154118000Y-70039000D01*
X156778000Y-72639000D02*
X156778000Y-75239000D01*
X154118000Y-70039000D02*
X155448000Y-70039000D01*
%TO.C,U2*%
X203200000Y-101890000D02*
X203850000Y-101890000D01*
X203200000Y-98770000D02*
X203850000Y-98770000D01*
X203200000Y-101890000D02*
X202550000Y-101890000D01*
X203200000Y-98770000D02*
X201525000Y-98770000D01*
%TO.C,D7*%
X173311000Y-75160000D02*
X173311000Y-72610000D01*
X171611000Y-75160000D02*
X173311000Y-75160000D01*
X171611000Y-75160000D02*
X171611000Y-72610000D01*
%TO.C,C5*%
X138965000Y-105148748D02*
X138965000Y-105671252D01*
X140435000Y-105148748D02*
X140435000Y-105671252D01*
%TD*%
M02*
