%TF.GenerationSoftware,KiCad,Pcbnew,(6.0.4)*%
%TF.CreationDate,2022-04-22T00:13:30+02:00*%
%TF.ProjectId,main,6d61696e-2e6b-4696-9361-645f70636258,rev?*%
%TF.SameCoordinates,Original*%
%TF.FileFunction,Paste,Top*%
%TF.FilePolarity,Positive*%
%FSLAX46Y46*%
G04 Gerber Fmt 4.6, Leading zero omitted, Abs format (unit mm)*
G04 Created by KiCad (PCBNEW (6.0.4)) date 2022-04-22 00:13:30*
%MOMM*%
%LPD*%
G01*
G04 APERTURE LIST*
G04 Aperture macros list*
%AMRoundRect*
0 Rectangle with rounded corners*
0 $1 Rounding radius*
0 $2 $3 $4 $5 $6 $7 $8 $9 X,Y pos of 4 corners*
0 Add a 4 corners polygon primitive as box body*
4,1,4,$2,$3,$4,$5,$6,$7,$8,$9,$2,$3,0*
0 Add four circle primitives for the rounded corners*
1,1,$1+$1,$2,$3*
1,1,$1+$1,$4,$5*
1,1,$1+$1,$6,$7*
1,1,$1+$1,$8,$9*
0 Add four rect primitives between the rounded corners*
20,1,$1+$1,$2,$3,$4,$5,0*
20,1,$1+$1,$4,$5,$6,$7,0*
20,1,$1+$1,$6,$7,$8,$9,0*
20,1,$1+$1,$8,$9,$2,$3,0*%
G04 Aperture macros list end*
%ADD10RoundRect,0.250000X-0.350000X-0.450000X0.350000X-0.450000X0.350000X0.450000X-0.350000X0.450000X0*%
%ADD11RoundRect,0.250000X-0.337500X-0.475000X0.337500X-0.475000X0.337500X0.475000X-0.337500X0.475000X0*%
%ADD12RoundRect,0.250000X-0.450000X0.350000X-0.450000X-0.350000X0.450000X-0.350000X0.450000X0.350000X0*%
%ADD13RoundRect,0.250000X0.337500X0.475000X-0.337500X0.475000X-0.337500X-0.475000X0.337500X-0.475000X0*%
%ADD14RoundRect,0.150000X-0.512500X-0.150000X0.512500X-0.150000X0.512500X0.150000X-0.512500X0.150000X0*%
%ADD15R,0.600000X0.550000*%
%ADD16RoundRect,0.250000X0.450000X-0.350000X0.450000X0.350000X-0.450000X0.350000X-0.450000X-0.350000X0*%
%ADD17RoundRect,0.250000X0.350000X0.450000X-0.350000X0.450000X-0.350000X-0.450000X0.350000X-0.450000X0*%
%ADD18RoundRect,0.250000X-0.450000X0.325000X-0.450000X-0.325000X0.450000X-0.325000X0.450000X0.325000X0*%
%ADD19RoundRect,0.250000X0.325000X0.450000X-0.325000X0.450000X-0.325000X-0.450000X0.325000X-0.450000X0*%
%ADD20RoundRect,0.250000X-0.475000X0.337500X-0.475000X-0.337500X0.475000X-0.337500X0.475000X0.337500X0*%
%ADD21R,1.650000X0.400000*%
%ADD22R,2.500000X1.430000*%
%ADD23R,2.000000X1.350000*%
%ADD24R,0.700000X1.825000*%
%ADD25R,1.500000X2.000000*%
%ADD26RoundRect,0.250000X-0.325000X-0.450000X0.325000X-0.450000X0.325000X0.450000X-0.325000X0.450000X0*%
%ADD27R,0.540000X0.540000*%
%ADD28R,0.300000X0.300000*%
%ADD29R,0.300000X0.900000*%
%ADD30R,0.900000X0.300000*%
%ADD31RoundRect,0.150000X0.150000X-0.512500X0.150000X0.512500X-0.150000X0.512500X-0.150000X-0.512500X0*%
%ADD32R,1.500000X0.500000*%
%ADD33R,1.200000X0.900000*%
%ADD34R,0.900000X1.200000*%
%ADD35R,0.600000X0.450000*%
%ADD36RoundRect,0.250000X0.450000X-0.325000X0.450000X0.325000X-0.450000X0.325000X-0.450000X-0.325000X0*%
%ADD37RoundRect,0.150000X-0.150000X0.825000X-0.150000X-0.825000X0.150000X-0.825000X0.150000X0.825000X0*%
%ADD38RoundRect,0.150000X-0.587500X-0.150000X0.587500X-0.150000X0.587500X0.150000X-0.587500X0.150000X0*%
%ADD39R,0.450000X0.600000*%
G04 APERTURE END LIST*
D10*
%TO.C,R18*%
X161052000Y-110744000D03*
X163052000Y-110744000D03*
%TD*%
D11*
%TO.C,C8*%
X226292500Y-90170000D03*
X228367500Y-90170000D03*
%TD*%
D12*
%TO.C,R6*%
X216945000Y-103140000D03*
X216945000Y-105140000D03*
%TD*%
D10*
%TO.C,R3*%
X163068000Y-69088000D03*
X165068000Y-69088000D03*
%TD*%
D12*
%TO.C,R13*%
X140208000Y-74692000D03*
X140208000Y-76692000D03*
%TD*%
%TO.C,R4*%
X143510000Y-94250000D03*
X143510000Y-96250000D03*
%TD*%
D10*
%TO.C,R19*%
X165624000Y-110744000D03*
X167624000Y-110744000D03*
%TD*%
D13*
%TO.C,C12*%
X175281500Y-103632000D03*
X173206500Y-103632000D03*
%TD*%
D14*
%TO.C,U4*%
X154310500Y-64582000D03*
X154310500Y-65532000D03*
X154310500Y-66482000D03*
X156585500Y-66482000D03*
X156585500Y-64582000D03*
%TD*%
D11*
%TO.C,C1*%
X208512500Y-99060000D03*
X210587500Y-99060000D03*
%TD*%
%TO.C,C7*%
X226292500Y-87630000D03*
X228367500Y-87630000D03*
%TD*%
D15*
%TO.C,U6*%
X226060000Y-80530000D03*
X226060000Y-81280000D03*
X226060000Y-82030000D03*
X226060000Y-82780000D03*
X226060000Y-83530000D03*
X226060000Y-84280000D03*
X228060000Y-84280000D03*
X228060000Y-83530000D03*
X228060000Y-82780000D03*
X228060000Y-82030000D03*
X228060000Y-81280000D03*
X228060000Y-80530000D03*
%TD*%
D11*
%TO.C,C10*%
X211687500Y-116840000D03*
X213762500Y-116840000D03*
%TD*%
D16*
%TO.C,R11*%
X224790000Y-77708000D03*
X224790000Y-75708000D03*
%TD*%
D17*
%TO.C,R12*%
X148844000Y-66040000D03*
X146844000Y-66040000D03*
%TD*%
D12*
%TO.C,R8*%
X213995000Y-103140000D03*
X213995000Y-105140000D03*
%TD*%
D10*
%TO.C,R7*%
X156480000Y-114300000D03*
X158480000Y-114300000D03*
%TD*%
D18*
%TO.C,D8*%
X134620000Y-95495000D03*
X134620000Y-97545000D03*
%TD*%
D19*
%TO.C,D6*%
X139709000Y-70104000D03*
X137659000Y-70104000D03*
%TD*%
D15*
%TO.C,U3*%
X133350000Y-84340000D03*
X133350000Y-85090000D03*
X133350000Y-85840000D03*
X133350000Y-86590000D03*
X133350000Y-87340000D03*
X133350000Y-88090000D03*
X135350000Y-88090000D03*
X135350000Y-87340000D03*
X135350000Y-86590000D03*
X135350000Y-85840000D03*
X135350000Y-85090000D03*
X135350000Y-84340000D03*
%TD*%
D16*
%TO.C,R5*%
X134620000Y-92440000D03*
X134620000Y-90440000D03*
%TD*%
%TO.C,R22*%
X222199200Y-119094000D03*
X222199200Y-117094000D03*
%TD*%
D20*
%TO.C,C6*%
X147320000Y-108182500D03*
X147320000Y-110257500D03*
%TD*%
D10*
%TO.C,R1*%
X178832000Y-68580000D03*
X180832000Y-68580000D03*
%TD*%
%TO.C,R2*%
X194580000Y-69596000D03*
X196580000Y-69596000D03*
%TD*%
D16*
%TO.C,R9*%
X138430000Y-86090000D03*
X138430000Y-84090000D03*
%TD*%
%TO.C,R24*%
X143510000Y-112760000D03*
X143510000Y-110760000D03*
%TD*%
D21*
%TO.C,J5*%
X227825000Y-102815000D03*
X227825000Y-103465000D03*
X227825000Y-104115000D03*
X227825000Y-104765000D03*
X227825000Y-105415000D03*
D22*
X224675000Y-103155000D03*
D23*
X225875000Y-106865000D03*
D24*
X226625000Y-101165000D03*
D22*
X224675000Y-105075000D03*
D25*
X227925000Y-101265000D03*
D23*
X225875000Y-101385000D03*
D24*
X226625000Y-107115000D03*
D25*
X227945000Y-107015000D03*
%TD*%
D10*
%TO.C,R15*%
X147590000Y-105410000D03*
X149590000Y-105410000D03*
%TD*%
D16*
%TO.C,R20*%
X224790000Y-73390000D03*
X224790000Y-71390000D03*
%TD*%
D12*
%TO.C,R23*%
X161544000Y-64040000D03*
X161544000Y-66040000D03*
%TD*%
D26*
%TO.C,D5*%
X137151000Y-65024000D03*
X139201000Y-65024000D03*
%TD*%
D27*
%TO.C,U7*%
X214180000Y-110675000D03*
X214180000Y-111575000D03*
X215080000Y-110675000D03*
X215080000Y-111575000D03*
D28*
X213380000Y-112375000D03*
D29*
X213880000Y-112675000D03*
X214380000Y-112675000D03*
X214880000Y-112675000D03*
X215380000Y-112675000D03*
D28*
X215880000Y-112375000D03*
D30*
X216180000Y-111875000D03*
X216180000Y-111375000D03*
X216180000Y-110875000D03*
X216180000Y-110375000D03*
D28*
X215880000Y-109875000D03*
D29*
X215380000Y-109575000D03*
X214880000Y-109575000D03*
X214380000Y-109575000D03*
X213880000Y-109575000D03*
D28*
X213380000Y-109875000D03*
D30*
X213080000Y-110375000D03*
X213080000Y-110875000D03*
X213080000Y-111375000D03*
X213080000Y-111875000D03*
%TD*%
D17*
%TO.C,R21*%
X224250000Y-67310000D03*
X222250000Y-67310000D03*
%TD*%
D31*
%TO.C,U1*%
X200284000Y-74919000D03*
X201234000Y-74919000D03*
X202184000Y-74919000D03*
X202184000Y-72644000D03*
X201234000Y-72644000D03*
X200284000Y-72644000D03*
%TD*%
D32*
%TO.C,D4*%
X164084000Y-73176000D03*
X164084000Y-76176000D03*
%TD*%
D33*
%TO.C,D13*%
X224790000Y-137540000D03*
X224790000Y-134240000D03*
%TD*%
D10*
%TO.C,R14*%
X155210000Y-93980000D03*
X157210000Y-93980000D03*
%TD*%
D11*
%TO.C,C4*%
X132058500Y-80264000D03*
X134133500Y-80264000D03*
%TD*%
D34*
%TO.C,D1*%
X141860000Y-71120000D03*
X145160000Y-71120000D03*
%TD*%
D12*
%TO.C,R10*%
X218440000Y-66310000D03*
X218440000Y-68310000D03*
%TD*%
D35*
%TO.C,D12*%
X189518000Y-76200000D03*
X187418000Y-76200000D03*
%TD*%
D11*
%TO.C,C2*%
X137625000Y-127000000D03*
X139700000Y-127000000D03*
%TD*%
D36*
%TO.C,D9*%
X134620000Y-102625000D03*
X134620000Y-100575000D03*
%TD*%
D11*
%TO.C,C3*%
X168148000Y-69088000D03*
X170223000Y-69088000D03*
%TD*%
D37*
%TO.C,U5*%
X167956000Y-100141000D03*
X166686000Y-100141000D03*
X165416000Y-100141000D03*
X164146000Y-100141000D03*
X164146000Y-105091000D03*
X165416000Y-105091000D03*
X166686000Y-105091000D03*
X167956000Y-105091000D03*
%TD*%
D11*
%TO.C,C9*%
X216132500Y-116840000D03*
X218207500Y-116840000D03*
%TD*%
D38*
%TO.C,U2*%
X202262500Y-99380000D03*
X202262500Y-101280000D03*
X204137500Y-100330000D03*
%TD*%
D39*
%TO.C,D7*%
X172461000Y-74710000D03*
X172461000Y-72610000D03*
%TD*%
D20*
%TO.C,C5*%
X139700000Y-104372500D03*
X139700000Y-106447500D03*
%TD*%
M02*
