M48
; DRILL file {KiCad (6.0.4)} date Fri Apr 22 00:13:30 2022
; FORMAT={-:-/ absolute / inch / decimal}
; #@! TF.CreationDate,2022-04-22T00:13:30+02:00
; #@! TF.GenerationSoftware,Kicad,Pcbnew,(6.0.4)
; #@! TF.FileFunction,Plated,1,2,PTH
FMAT,2
INCH
; #@! TA.AperFunction,Plated,PTH,ViaDrill
T1C0.0157
; #@! TA.AperFunction,Plated,PTH,ComponentDrill
T2C0.0256
; #@! TA.AperFunction,Plated,PTH,ComponentDrill
T3C0.0276
; #@! TA.AperFunction,Plated,PTH,ComponentDrill
T4C0.0295
; #@! TA.AperFunction,Plated,PTH,ComponentDrill
T5C0.0354
; #@! TA.AperFunction,Plated,PTH,ComponentDrill
T6C0.0394
%
G90
G05
T1
X5.36Y-4.78
X5.3711Y-2.66
X5.38Y-3.32
X5.3988Y-3.4081
X5.42Y-3.24
X5.42Y-3.76
X5.46Y-2.66
X5.4602Y-3.2402
X5.48Y-2.42
X5.5Y-3.6108
X5.5102Y-3.2902
X5.52Y-3.24
X5.52Y-4.86
X5.58Y-3.84
X5.58Y-4.8
X5.599Y-4.019
X5.6Y-3.92
X5.64Y-4.94
X5.66Y-4.04
X5.74Y-4.94
X5.8Y-2.68
X5.8Y-4.8
X5.88Y-3.22
X5.9Y-2.46
X6.0Y-3.26
X6.0Y-3.84
X6.02Y-2.48
X6.02Y-3.64
X6.02Y-3.92
X6.08Y-2.44
X6.1Y-4.0
X6.1Y-4.08
X6.12Y-3.7515
X6.1202Y-3.8198
X6.16Y-2.7
X6.16Y-3.78
X6.24Y-3.86
X6.56Y-2.56
X6.66Y-2.56
X6.7Y-2.84
X6.8Y-2.8
X6.82Y-3.964
X6.86Y-5.02
X6.9Y-5.62
X6.94Y-5.02
X7.18Y-2.9
X7.214Y-2.7
X7.316Y-3.83
X7.32Y-4.36
X7.36Y-2.9
X7.36Y-4.2905
X7.4Y-4.32
X7.44Y-2.94
X7.48Y-4.5585
X7.56Y-4.36
X7.58Y-3.6915
X7.6Y-2.86
X7.6Y-3.64
X7.62Y-4.98
X7.686Y-4.488
X7.686Y-4.648
X7.7Y-2.86
X7.7Y-3.64
X7.72Y-5.78
X7.75Y-4.0
X7.76Y-2.86
X7.8Y-5.65
X7.84Y-2.78
X7.9Y-4.0
X7.94Y-3.02
X7.9998Y-5.0479
X8.0Y-5.85
X8.02Y-2.84
X8.0315Y-2.94
X8.036Y-5.682
X8.0515Y-2.612
X8.118Y-2.872
X8.12Y-3.0
X8.122Y-2.518
X8.138Y-4.658
X8.16Y-2.96
X8.214Y-3.99
X8.225Y-4.525
X8.284Y-4.74
X8.3Y-3.1
X8.38Y-3.84
X8.38Y-4.68
X8.386Y-5.67
X8.4Y-2.7
X8.404Y-4.742
X8.46Y-4.52
X8.5Y-2.62
X8.5Y-4.5
X8.55Y-2.85
X8.562Y-4.256
X8.562Y-4.354
X8.566Y-4.452
X8.594Y-4.388
X8.62Y-3.06
X8.63Y-4.812
X8.632Y-4.662
X8.642Y-2.906
X8.65Y-2.75
X8.652Y-2.978
X8.67Y-4.456
X8.68Y-3.7715
X8.68Y-4.664
X8.684Y-4.754
X8.686Y-4.538
X8.7Y-3.84
X8.7058Y-3.2538
X8.716Y-4.088
X8.7202Y-3.6602
X8.736Y-4.534
X8.738Y-3.0315
X8.74Y-3.5
X8.75Y-2.746
X8.75Y-3.16
X8.7602Y-3.7402
X8.78Y-3.4
X8.78Y-4.36
X8.8085Y-4.5
X8.8285Y-4.7
X8.836Y-3.122
X8.84Y-3.3
X8.84Y-3.4
X8.85Y-5.415
X8.856Y-3.164
X8.87Y-3.368
X8.897Y-3.7788
X8.92Y-3.4979
X8.92Y-4.0424
X8.93Y-2.98
X8.94Y-3.38
X8.96Y-3.08
X8.98Y-4.68
X8.996Y-2.862
X9.0Y-3.5021
X9.0115Y-4.3798
T4
X7.0556Y-2.89
X7.0556Y-2.94
X7.0556Y-2.99
X7.87Y-2.6542
X7.92Y-2.6542
X7.97Y-2.6542
T5
X7.5Y-5.8
X7.6Y-5.8
T6
X5.3Y-2.7
X5.3Y-2.8
X5.45Y-3.15
X5.45Y-3.55
X5.45Y-5.15
X5.45Y-5.55
X5.55Y-3.15
X5.55Y-3.55
X5.55Y-5.15
X5.55Y-5.55
X5.65Y-3.15
X5.65Y-3.55
X5.65Y-5.15
X5.65Y-5.55
X5.75Y-3.15
X5.75Y-3.55
X5.75Y-5.15
X5.75Y-5.55
X5.85Y-3.15
X5.85Y-3.55
X5.85Y-5.15
X5.85Y-5.55
X5.95Y-3.15
X5.95Y-3.55
X5.95Y-5.15
X5.95Y-5.55
X6.05Y-3.15
X6.05Y-3.55
X6.05Y-5.15
X6.05Y-5.55
X6.12Y-2.8098
X6.12Y-2.9098
X6.15Y-3.15
X6.15Y-3.55
X6.15Y-5.15
X6.15Y-5.55
X6.25Y-3.15
X6.25Y-3.55
X6.25Y-5.15
X6.25Y-5.55
X6.35Y-3.15
X6.35Y-3.55
X6.35Y-5.15
X6.35Y-5.55
X6.45Y-3.15
X6.45Y-3.55
X6.45Y-5.15
X6.45Y-5.55
X6.55Y-3.15
X6.55Y-3.55
X6.55Y-5.15
X6.55Y-5.55
X6.6002Y-5.725
X6.65Y-3.15
X6.65Y-3.55
X6.65Y-5.15
X6.65Y-5.55
X6.7002Y-5.725
X6.75Y-3.15
X6.75Y-3.55
X6.75Y-5.15
X6.75Y-5.55
X6.85Y-3.15
X6.85Y-3.55
X6.85Y-5.15
X6.85Y-5.55
X6.95Y-3.15
X6.95Y-3.55
X6.95Y-5.15
X6.95Y-5.55
X7.05Y-3.15
X7.05Y-3.55
X7.05Y-5.15
X7.05Y-5.55
X7.1Y-5.85
X7.15Y-3.15
X7.15Y-3.55
X7.15Y-5.15
X7.15Y-5.55
X7.2Y-5.85
X7.25Y-3.15
X7.25Y-3.55
X7.25Y-5.15
X7.25Y-5.55
X7.35Y-3.15
X7.35Y-3.55
X7.35Y-5.15
X7.35Y-5.55
X7.45Y-3.15
X7.45Y-3.55
X7.45Y-5.15
X7.45Y-5.55
X7.55Y-3.15
X7.55Y-3.55
X7.55Y-5.15
X7.55Y-5.55
X7.65Y-3.15
X7.65Y-3.55
X7.65Y-5.15
X7.65Y-5.55
X7.6502Y-2.98
X7.75Y-3.15
X7.75Y-3.55
X7.75Y-5.15
X7.75Y-5.55
X7.7502Y-2.98
X7.85Y-3.15
X7.85Y-3.55
X7.85Y-5.15
X7.85Y-5.55
X7.9Y-5.85
X7.95Y-3.15
X7.95Y-3.55
X7.95Y-5.15
X7.95Y-5.55
X8.05Y-3.15
X8.05Y-3.55
X8.05Y-5.15
X8.05Y-5.55
X8.15Y-3.15
X8.15Y-3.55
X8.15Y-5.15
X8.15Y-5.55
X8.15Y-5.8
X8.25Y-2.65
X8.25Y-2.75
X8.25Y-3.15
X8.25Y-3.55
X8.25Y-5.15
X8.25Y-5.55
X8.35Y-2.95
X8.35Y-3.15
X8.35Y-3.55
X8.35Y-5.15
X8.35Y-5.55
X8.35Y-5.8
X8.45Y-3.15
X8.45Y-3.55
X8.45Y-5.15
X8.45Y-5.55
X8.45Y-5.8
X8.55Y-2.98
X8.55Y-3.15
X8.55Y-3.55
X8.55Y-5.15
X8.55Y-5.55
X8.65Y-3.15
X8.65Y-3.55
X8.65Y-5.15
X8.65Y-5.55
X8.85Y-5.0
X8.85Y-5.1
X8.9Y-4.35
X8.9Y-4.45
X8.9Y-4.65
X8.9Y-4.75
X8.95Y-3.7
X8.95Y-3.8
T2
G00X8.9663Y-4.0037
M15
G01X8.9821Y-4.0037
M16
G05
G00X8.9663Y-4.1943
M15
G01X8.9821Y-4.1943
M16
G05
T3
G00X8.8463Y-3.9915
M15
G01X8.8659Y-3.9915
M16
G05
G00X8.8463Y-4.2065
M15
G01X8.8659Y-4.2065
M16
G05
T0
M30
