%TF.GenerationSoftware,KiCad,Pcbnew,(6.0.2)*%
%TF.CreationDate,2022-03-20T20:15:49+02:00*%
%TF.ProjectId,main,6d61696e-2e6b-4696-9361-645f70636258,rev?*%
%TF.SameCoordinates,Original*%
%TF.FileFunction,Copper,L2,Bot*%
%TF.FilePolarity,Positive*%
%FSLAX46Y46*%
G04 Gerber Fmt 4.6, Leading zero omitted, Abs format (unit mm)*
G04 Created by KiCad (PCBNEW (6.0.2)) date 2022-03-20 20:15:49*
%MOMM*%
%LPD*%
G01*
G04 APERTURE LIST*
%TA.AperFunction,Profile*%
%ADD10C,0.200000*%
%TD*%
%TA.AperFunction,ComponentPad*%
%ADD11R,1.700000X1.700000*%
%TD*%
%TA.AperFunction,ComponentPad*%
%ADD12O,1.050000X1.500000*%
%TD*%
%TA.AperFunction,ComponentPad*%
%ADD13R,1.050000X1.500000*%
%TD*%
%TA.AperFunction,ComponentPad*%
%ADD14O,1.700000X1.700000*%
%TD*%
%TA.AperFunction,ComponentPad*%
%ADD15R,2.000000X1.905000*%
%TD*%
%TA.AperFunction,ComponentPad*%
%ADD16O,2.000000X1.905000*%
%TD*%
%TA.AperFunction,ComponentPad*%
%ADD17O,1.700000X1.350000*%
%TD*%
%TA.AperFunction,ComponentPad*%
%ADD18O,1.500000X1.100000*%
%TD*%
%TA.AperFunction,ComponentPad*%
%ADD19O,1.200000X1.200000*%
%TD*%
%TA.AperFunction,ComponentPad*%
%ADD20O,1.600000X1.200000*%
%TD*%
%TA.AperFunction,ComponentPad*%
%ADD21R,2.200000X2.200000*%
%TD*%
%TA.AperFunction,ComponentPad*%
%ADD22O,2.200000X2.200000*%
%TD*%
%TA.AperFunction,ViaPad*%
%ADD23C,0.800000*%
%TD*%
%TA.AperFunction,Conductor*%
%ADD24C,0.250000*%
%TD*%
G04 APERTURE END LIST*
D10*
X210820000Y-15748000D02*
X59944000Y-15748000D01*
X59944000Y-15748000D02*
X59944000Y-144272000D01*
X59944000Y-144272000D02*
X210820000Y-144272000D01*
X210820000Y-144272000D02*
X210820000Y-15748000D01*
D11*
%TO.P,TP10,1,1*%
%TO.N,/PC0*%
X203200000Y-23876000D03*
%TD*%
%TO.P,TP3,1,1*%
%TO.N,/Power/VoutUnderCut*%
X78216000Y-28956000D03*
%TD*%
%TO.P,TP2,1,1*%
%TO.N,+5V*%
X130372000Y-61472000D03*
%TD*%
%TO.P,TP1,1,1*%
%TO.N,/Power/VoutPol*%
X98028000Y-28448000D03*
%TD*%
D12*
%TO.P,U4,3,VI*%
%TO.N,+5V*%
X169488000Y-62996000D03*
%TO.P,U4,2,VO*%
X168218000Y-62996000D03*
D13*
%TO.P,U4,1,ADJ*%
%TO.N,Net-(Q4-Pad3)*%
X166948000Y-62996000D03*
%TD*%
D11*
%TO.P,TP4,1,1*%
%TO.N,+5V*%
X167964000Y-68584000D03*
%TD*%
%TO.P,J2,1,Pin_1*%
%TO.N,+3V0*%
X174568000Y-56925000D03*
D14*
%TO.P,J2,2,Pin_2*%
%TO.N,GND*%
X172028000Y-56925000D03*
%TO.P,J2,3,Pin_3*%
%TO.N,/VBAT*%
X169488000Y-56925000D03*
%TO.P,J2,4,Pin_4*%
%TO.N,/PC13*%
X166948000Y-56925000D03*
%TO.P,J2,5,Pin_5*%
%TO.N,/PC14*%
X164408000Y-56925000D03*
%TO.P,J2,6,Pin_6*%
%TO.N,/PC15*%
X161868000Y-56925000D03*
%TO.P,J2,7,Pin_7*%
%TO.N,/PF0*%
X159328000Y-56925000D03*
%TO.P,J2,8,Pin_8*%
%TO.N,/PF1*%
X156788000Y-56925000D03*
%TO.P,J2,9,Pin_9*%
%TO.N,GND*%
X154248000Y-56925000D03*
%TO.P,J2,10,Pin_10*%
%TO.N,/NRST*%
X151708000Y-56925000D03*
%TO.P,J2,11,Pin_11*%
%TO.N,/PC0*%
X149168000Y-56925000D03*
%TO.P,J2,12,Pin_12*%
%TO.N,/PC1*%
X146628000Y-56925000D03*
%TO.P,J2,13,Pin_13*%
%TO.N,/PC2*%
X144088000Y-56925000D03*
%TO.P,J2,14,Pin_14*%
%TO.N,/PC3*%
X141548000Y-56925000D03*
%TO.P,J2,15,Pin_15*%
%TO.N,/PA0*%
X139008000Y-56925000D03*
%TO.P,J2,16,Pin_16*%
%TO.N,/PA1*%
X136468000Y-56925000D03*
%TO.P,J2,17,Pin_17*%
%TO.N,/PA2*%
X133928000Y-56925000D03*
%TO.P,J2,18,Pin_18*%
%TO.N,/PA3*%
X131388000Y-56925000D03*
%TO.P,J2,19,Pin_19*%
%TO.N,/PF4*%
X128848000Y-56925000D03*
%TO.P,J2,20,Pin_20*%
%TO.N,/PF5*%
X126308000Y-56925000D03*
%TO.P,J2,21,Pin_21*%
%TO.N,/PA4*%
X123768000Y-56925000D03*
%TO.P,J2,22,Pin_22*%
%TO.N,/PA5*%
X121228000Y-56925000D03*
%TO.P,J2,23,Pin_23*%
%TO.N,/PA6*%
X118688000Y-56925000D03*
%TO.P,J2,24,Pin_24*%
%TO.N,/PA7*%
X116148000Y-56925000D03*
%TO.P,J2,25,Pin_25*%
%TO.N,/PC4*%
X113608000Y-56925000D03*
%TO.P,J2,26,Pin_26*%
%TO.N,/PC5*%
X111068000Y-56925000D03*
%TO.P,J2,27,Pin_27*%
%TO.N,/PB0*%
X108528000Y-56925000D03*
%TO.P,J2,28,Pin_28*%
%TO.N,/PB1*%
X105988000Y-56925000D03*
%TO.P,J2,29,Pin_29*%
%TO.N,/PB2*%
X103448000Y-56925000D03*
%TO.P,J2,30,Pin_30*%
%TO.N,/PB10*%
X100908000Y-56925000D03*
%TO.P,J2,31,Pin_31*%
%TO.N,/PB11*%
X98368000Y-56925000D03*
%TO.P,J2,32,Pin_32*%
%TO.N,/PB12*%
X95828000Y-56925000D03*
%TO.P,J2,33,Pin_33*%
%TO.N,GND*%
X93288000Y-56925000D03*
%TD*%
D15*
%TO.P,Q1,1,G*%
%TO.N,Net-(Q1-Pad1)*%
X84312000Y-34544000D03*
D16*
%TO.P,Q1,2,D*%
%TO.N,/Power/VoutPol*%
X84312000Y-32004000D03*
%TO.P,Q1,3,S*%
%TO.N,/Power/VoutUnderCut*%
X84312000Y-29464000D03*
%TD*%
D17*
%TO.P,J5,6,Shield*%
%TO.N,GND*%
X175683000Y-74515000D03*
D18*
X172683000Y-74825000D03*
D17*
X175683000Y-79975000D03*
D18*
X172683000Y-79665000D03*
%TD*%
D11*
%TO.P,TP9,1,1*%
%TO.N,/PB6*%
X200152000Y-72644000D03*
%TD*%
%TO.P,J1,1,Pin_1*%
%TO.N,+3V0*%
X174568000Y-46740000D03*
D14*
%TO.P,J1,2,Pin_2*%
%TO.N,GND*%
X172028000Y-46740000D03*
%TO.P,J1,3,Pin_3*%
%TO.N,/VBAT*%
X169488000Y-46740000D03*
%TO.P,J1,4,Pin_4*%
%TO.N,/PC13*%
X166948000Y-46740000D03*
%TO.P,J1,5,Pin_5*%
%TO.N,/PC14*%
X164408000Y-46740000D03*
%TO.P,J1,6,Pin_6*%
%TO.N,/PC15*%
X161868000Y-46740000D03*
%TO.P,J1,7,Pin_7*%
%TO.N,/PF0*%
X159328000Y-46740000D03*
%TO.P,J1,8,Pin_8*%
%TO.N,/PF1*%
X156788000Y-46740000D03*
%TO.P,J1,9,Pin_9*%
%TO.N,GND*%
X154248000Y-46740000D03*
%TO.P,J1,10,Pin_10*%
%TO.N,/NRST*%
X151708000Y-46740000D03*
%TO.P,J1,11,Pin_11*%
%TO.N,/PC0*%
X149168000Y-46740000D03*
%TO.P,J1,12,Pin_12*%
%TO.N,/PC1*%
X146628000Y-46740000D03*
%TO.P,J1,13,Pin_13*%
%TO.N,/PC2*%
X144088000Y-46740000D03*
%TO.P,J1,14,Pin_14*%
%TO.N,/PC3*%
X141548000Y-46740000D03*
%TO.P,J1,15,Pin_15*%
%TO.N,/PA0*%
X139008000Y-46740000D03*
%TO.P,J1,16,Pin_16*%
%TO.N,/PA1*%
X136468000Y-46740000D03*
%TO.P,J1,17,Pin_17*%
%TO.N,/PA2*%
X133928000Y-46740000D03*
%TO.P,J1,18,Pin_18*%
%TO.N,/PA3*%
X131388000Y-46740000D03*
%TO.P,J1,19,Pin_19*%
%TO.N,/PF4*%
X128848000Y-46740000D03*
%TO.P,J1,20,Pin_20*%
%TO.N,/PF5*%
X126308000Y-46740000D03*
%TO.P,J1,21,Pin_21*%
%TO.N,/PA4*%
X123768000Y-46740000D03*
%TO.P,J1,22,Pin_22*%
%TO.N,/PA5*%
X121228000Y-46740000D03*
%TO.P,J1,23,Pin_23*%
%TO.N,/PA6*%
X118688000Y-46740000D03*
%TO.P,J1,24,Pin_24*%
%TO.N,/PA7*%
X116148000Y-46740000D03*
%TO.P,J1,25,Pin_25*%
%TO.N,/PC4*%
X113608000Y-46740000D03*
%TO.P,J1,26,Pin_26*%
%TO.N,/PC5*%
X111068000Y-46740000D03*
%TO.P,J1,27,Pin_27*%
%TO.N,/PB0*%
X108528000Y-46740000D03*
%TO.P,J1,28,Pin_28*%
%TO.N,/PB1*%
X105988000Y-46740000D03*
%TO.P,J1,29,Pin_29*%
%TO.N,/PB2*%
X103448000Y-46740000D03*
%TO.P,J1,30,Pin_30*%
%TO.N,/PB10*%
X100908000Y-46740000D03*
%TO.P,J1,31,Pin_31*%
%TO.N,/PB11*%
X98368000Y-46740000D03*
%TO.P,J1,32,Pin_32*%
%TO.N,/PB12*%
X95828000Y-46740000D03*
%TO.P,J1,33,Pin_33*%
%TO.N,GND*%
X93288000Y-46740000D03*
%TD*%
D19*
%TO.P,Q5,3,C*%
%TO.N,Net-(BZ1-Pad2)*%
X152400000Y-132080000D03*
%TO.P,Q5,2,B*%
%TO.N,Net-(Q5-Pad2)*%
X154940000Y-129540000D03*
D20*
%TO.P,Q5,1,E*%
%TO.N,GND*%
X157480000Y-132080000D03*
%TD*%
D19*
%TO.P,Q6,3,C*%
%TO.N,Net-(BZ2-Pad2)*%
X131572000Y-119888000D03*
%TO.P,Q6,2,B*%
%TO.N,Net-(Q6-Pad2)*%
X129032000Y-122428000D03*
D20*
%TO.P,Q6,1,E*%
%TO.N,GND*%
X126492000Y-119888000D03*
%TD*%
D11*
%TO.P,J4,1,Pin_1*%
%TO.N,+5V*%
X174568000Y-107700000D03*
D14*
%TO.P,J4,2,Pin_2*%
%TO.N,GND*%
X172028000Y-107700000D03*
%TO.P,J4,3,Pin_3*%
%TO.N,/PB9*%
X169488000Y-107700000D03*
%TO.P,J4,4,Pin_4*%
%TO.N,/PB8*%
X166948000Y-107700000D03*
%TO.P,J4,5,Pin_5*%
%TO.N,+3V3*%
X164408000Y-107700000D03*
%TO.P,J4,6,Pin_6*%
%TO.N,/BOOT*%
X161868000Y-107700000D03*
%TO.P,J4,7,Pin_7*%
%TO.N,/PB7*%
X159328000Y-107700000D03*
%TO.P,J4,8,Pin_8*%
%TO.N,/PB6*%
X156788000Y-107700000D03*
%TO.P,J4,9,Pin_9*%
%TO.N,/PB5*%
X154248000Y-107700000D03*
%TO.P,J4,10,Pin_10*%
%TO.N,/PB4*%
X151708000Y-107700000D03*
%TO.P,J4,11,Pin_11*%
%TO.N,/PB3*%
X149168000Y-107700000D03*
%TO.P,J4,12,Pin_12*%
%TO.N,/PD2*%
X146628000Y-107700000D03*
%TO.P,J4,13,Pin_13*%
%TO.N,/PC12*%
X144088000Y-107700000D03*
%TO.P,J4,14,Pin_14*%
%TO.N,/PC11*%
X141548000Y-107700000D03*
%TO.P,J4,15,Pin_15*%
%TO.N,/PC10*%
X139008000Y-107700000D03*
%TO.P,J4,16,Pin_16*%
%TO.N,/PA15*%
X136468000Y-107700000D03*
%TO.P,J4,17,Pin_17*%
%TO.N,/PA14*%
X133928000Y-107700000D03*
%TO.P,J4,18,Pin_18*%
%TO.N,/PF7*%
X131388000Y-107700000D03*
%TO.P,J4,19,Pin_19*%
%TO.N,/PF6*%
X128848000Y-107700000D03*
%TO.P,J4,20,Pin_20*%
%TO.N,/PA13*%
X126308000Y-107700000D03*
%TO.P,J4,21,Pin_21*%
%TO.N,/PA12*%
X123768000Y-107700000D03*
%TO.P,J4,22,Pin_22*%
%TO.N,/PA11*%
X121228000Y-107700000D03*
%TO.P,J4,23,Pin_23*%
%TO.N,/PA10*%
X118688000Y-107700000D03*
%TO.P,J4,24,Pin_24*%
%TO.N,/PA9*%
X116148000Y-107700000D03*
%TO.P,J4,25,Pin_25*%
%TO.N,/PA8*%
X113608000Y-107700000D03*
%TO.P,J4,26,Pin_26*%
%TO.N,/PC9*%
X111068000Y-107700000D03*
%TO.P,J4,27,Pin_27*%
%TO.N,/PC8*%
X108528000Y-107700000D03*
%TO.P,J4,28,Pin_28*%
%TO.N,/PC7*%
X105988000Y-107700000D03*
%TO.P,J4,29,Pin_29*%
%TO.N,/PC6*%
X103448000Y-107700000D03*
%TO.P,J4,30,Pin_30*%
%TO.N,/PB15*%
X100908000Y-107700000D03*
%TO.P,J4,31,Pin_31*%
%TO.N,/PB14*%
X98368000Y-107700000D03*
%TO.P,J4,32,Pin_32*%
%TO.N,/PB13*%
X95828000Y-107700000D03*
%TO.P,J4,33,Pin_33*%
%TO.N,GND*%
X93288000Y-107700000D03*
%TD*%
D11*
%TO.P,TP8,1,1*%
%TO.N,/PB7*%
X197612000Y-67564000D03*
%TD*%
%TO.P,TP6,1,1*%
%TO.N,+5V*%
X175584000Y-68584000D03*
%TD*%
%TO.P,J3,1,Pin_1*%
%TO.N,+5V*%
X174568000Y-97540000D03*
D14*
%TO.P,J3,2,Pin_2*%
%TO.N,GND*%
X172028000Y-97540000D03*
%TO.P,J3,3,Pin_3*%
%TO.N,/PB9*%
X169488000Y-97540000D03*
%TO.P,J3,4,Pin_4*%
%TO.N,/PB8*%
X166948000Y-97540000D03*
%TO.P,J3,5,Pin_5*%
%TO.N,+3V3*%
X164408000Y-97540000D03*
%TO.P,J3,6,Pin_6*%
%TO.N,/BOOT*%
X161868000Y-97540000D03*
%TO.P,J3,7,Pin_7*%
%TO.N,/PB7*%
X159328000Y-97540000D03*
%TO.P,J3,8,Pin_8*%
%TO.N,/PB6*%
X156788000Y-97540000D03*
%TO.P,J3,9,Pin_9*%
%TO.N,/PB5*%
X154248000Y-97540000D03*
%TO.P,J3,10,Pin_10*%
%TO.N,/PB4*%
X151708000Y-97540000D03*
%TO.P,J3,11,Pin_11*%
%TO.N,/PB3*%
X149168000Y-97540000D03*
%TO.P,J3,12,Pin_12*%
%TO.N,/PD2*%
X146628000Y-97540000D03*
%TO.P,J3,13,Pin_13*%
%TO.N,/PC12*%
X144088000Y-97540000D03*
%TO.P,J3,14,Pin_14*%
%TO.N,/PC11*%
X141548000Y-97540000D03*
%TO.P,J3,15,Pin_15*%
%TO.N,/PC10*%
X139008000Y-97540000D03*
%TO.P,J3,16,Pin_16*%
%TO.N,/PA15*%
X136468000Y-97540000D03*
%TO.P,J3,17,Pin_17*%
%TO.N,/PA14*%
X133928000Y-97540000D03*
%TO.P,J3,18,Pin_18*%
%TO.N,/PF7*%
X131388000Y-97540000D03*
%TO.P,J3,19,Pin_19*%
%TO.N,/PF6*%
X128848000Y-97540000D03*
%TO.P,J3,20,Pin_20*%
%TO.N,/PA13*%
X126308000Y-97540000D03*
%TO.P,J3,21,Pin_21*%
%TO.N,/PA12*%
X123768000Y-97540000D03*
%TO.P,J3,22,Pin_22*%
%TO.N,/PA11*%
X121228000Y-97540000D03*
%TO.P,J3,23,Pin_23*%
%TO.N,/PA10*%
X118688000Y-97540000D03*
%TO.P,J3,24,Pin_24*%
%TO.N,/PA9*%
X116148000Y-97540000D03*
%TO.P,J3,25,Pin_25*%
%TO.N,/PA8*%
X113608000Y-97540000D03*
%TO.P,J3,26,Pin_26*%
%TO.N,/PC9*%
X111068000Y-97540000D03*
%TO.P,J3,27,Pin_27*%
%TO.N,/PC8*%
X108528000Y-97540000D03*
%TO.P,J3,28,Pin_28*%
%TO.N,/PC7*%
X105988000Y-97540000D03*
%TO.P,J3,29,Pin_29*%
%TO.N,/PC6*%
X103448000Y-97540000D03*
%TO.P,J3,30,Pin_30*%
%TO.N,/PB15*%
X100908000Y-97540000D03*
%TO.P,J3,31,Pin_31*%
%TO.N,/PB14*%
X98368000Y-97540000D03*
%TO.P,J3,32,Pin_32*%
%TO.N,/PB13*%
X95828000Y-97540000D03*
%TO.P,J3,33,Pin_33*%
%TO.N,GND*%
X93288000Y-97540000D03*
%TD*%
D20*
%TO.P,Q4,1,E*%
%TO.N,GND*%
X157296000Y-64012000D03*
D19*
%TO.P,Q4,2,B*%
%TO.N,Net-(D7-Pad1)*%
X159836000Y-66552000D03*
%TO.P,Q4,3,C*%
%TO.N,Net-(Q4-Pad3)*%
X162376000Y-64012000D03*
%TD*%
D11*
%TO.P,TP7,1,1*%
%TO.N,/PB8*%
X159758000Y-89920000D03*
%TD*%
D21*
%TO.P,D7,1,K*%
%TO.N,Net-(D7-Pad1)*%
X134436000Y-61472000D03*
D22*
%TO.P,D7,2,A*%
%TO.N,Net-(D7-Pad2)*%
X144596000Y-61472000D03*
%TD*%
D11*
%TO.P,TP11,1,1*%
%TO.N,/PB9*%
X164158000Y-85270000D03*
%TD*%
D23*
%TO.N,/PC0*%
X203200000Y-33528000D03*
%TO.N,GND*%
X139192000Y-65532000D03*
X142748000Y-64516000D03*
X144780000Y-68072000D03*
X189992000Y-86868000D03*
X197104000Y-81280000D03*
X72136000Y-77724000D03*
X75692000Y-80772000D03*
%TO.N,/Power/USB_DN*%
X170688000Y-76200000D03*
X166624000Y-76708000D03*
%TO.N,/Power/USB_DP*%
X170688000Y-74676000D03*
X167132000Y-75184000D03*
%TO.N,/PB0*%
X198628000Y-81788000D03*
X149352000Y-44196000D03*
%TO.N,/PC0*%
X184912000Y-124968000D03*
X176784000Y-38100000D03*
%TO.N,/PB1*%
X172720000Y-43180000D03*
%TO.N,GND*%
X147828000Y-71120000D03*
X142743701Y-71632299D03*
X146812000Y-76708000D03*
X149860000Y-76708000D03*
%TO.N,/PB6*%
X198120000Y-83312000D03*
X157988000Y-103124000D03*
%TO.N,/PB7*%
X160020000Y-96012000D03*
X186944000Y-85344000D03*
%TO.N,+3V3*%
X145288000Y-84328000D03*
X155448000Y-94488000D03*
%TO.N,/PB1*%
X200660000Y-76200000D03*
X199136000Y-84328000D03*
%TO.N,/PB6*%
X195072000Y-78744000D03*
X196088000Y-82804000D03*
%TO.N,/PB7*%
X191008000Y-78232000D03*
X187960000Y-81280000D03*
%TO.N,Net-(C5-Pad1)*%
X182880000Y-79756000D03*
X93472000Y-74168000D03*
X84836000Y-73660000D03*
X73152000Y-76200000D03*
%TO.N,/PB9*%
X86360000Y-81788000D03*
X96012000Y-84836000D03*
%TO.N,/PB8*%
X110236000Y-89916000D03*
X88392000Y-79248000D03*
%TO.N,/PB14*%
X80264000Y-77216000D03*
X89916000Y-89408000D03*
%TO.N,/PB8*%
X79248000Y-80772000D03*
X76955412Y-80799192D03*
%TO.N,/PB14*%
X79248000Y-78740000D03*
X80264000Y-74676000D03*
%TO.N,/PB15*%
X74676000Y-90932000D03*
X100584000Y-91948000D03*
%TO.N,Net-(C5-Pad1)*%
X74676000Y-81280000D03*
X74750158Y-78856498D03*
%TO.N,+3V3*%
X159512000Y-112268000D03*
X144272000Y-126492000D03*
%TO.N,Net-(BZ2-Pad2)*%
X117348000Y-135128000D03*
X112268000Y-136144000D03*
%TO.N,PB10*%
X103124000Y-114718500D03*
X102616000Y-116840000D03*
%TD*%
D24*
%TO.N,/PC0*%
X203200000Y-33528000D02*
X203200000Y-34544000D01*
X203200000Y-34544000D02*
X199644000Y-38100000D01*
%TO.N,GND*%
X140716000Y-64516000D02*
X139700000Y-65532000D01*
X139700000Y-65532000D02*
X139192000Y-65532000D01*
X142748000Y-64516000D02*
X140716000Y-64516000D01*
X144780000Y-68072000D02*
X144780000Y-70612000D01*
X145288000Y-71120000D02*
X147828000Y-71120000D01*
X144780000Y-70612000D02*
X145288000Y-71120000D01*
X143256000Y-71120000D02*
X145288000Y-71120000D01*
%TO.N,/PB6*%
X196088000Y-82296000D02*
X196088000Y-82804000D01*
X195072000Y-81280000D02*
X196088000Y-82296000D01*
X195072000Y-78744000D02*
X195072000Y-81280000D01*
%TO.N,GND*%
X193048614Y-86868000D02*
X189992000Y-86868000D01*
X197104000Y-82812614D02*
X193048614Y-86868000D01*
X197104000Y-81280000D02*
X197104000Y-82812614D01*
X73152000Y-77724000D02*
X72136000Y-77724000D01*
X74168000Y-76708000D02*
X73152000Y-77724000D01*
X75692000Y-76708000D02*
X74168000Y-76708000D01*
X76200000Y-77216000D02*
X75692000Y-76708000D01*
X76200000Y-78740000D02*
X76200000Y-77216000D01*
X75692000Y-79248000D02*
X76200000Y-78740000D01*
X75692000Y-80772000D02*
X75692000Y-79248000D01*
%TO.N,Net-(C5-Pad1)*%
X77715386Y-76200000D02*
X80255386Y-73660000D01*
X80255386Y-73660000D02*
X84836000Y-73660000D01*
X73152000Y-76200000D02*
X77715386Y-76200000D01*
%TO.N,/Power/USB_DN*%
X167132000Y-76200000D02*
X170688000Y-76200000D01*
X166624000Y-76708000D02*
X167132000Y-76200000D01*
%TO.N,/Power/USB_DP*%
X167640000Y-74676000D02*
X170688000Y-74676000D01*
X167132000Y-75184000D02*
X167640000Y-74676000D01*
%TO.N,/PB0*%
X199644000Y-82296000D02*
X199136000Y-82296000D01*
X199136000Y-82296000D02*
X198628000Y-81788000D01*
X199644000Y-77724000D02*
X199644000Y-82296000D01*
X197104000Y-75184000D02*
X199644000Y-77724000D01*
X191008000Y-69088000D02*
X197104000Y-75184000D01*
X191008000Y-46736000D02*
X191008000Y-69088000D01*
X189484000Y-45212000D02*
X191008000Y-46736000D01*
X149352000Y-44196000D02*
X188468000Y-44196000D01*
X188468000Y-44196000D02*
X189484000Y-45212000D01*
%TO.N,/PC0*%
X202692000Y-124968000D02*
X184912000Y-124968000D01*
X205232000Y-122428000D02*
X202692000Y-124968000D01*
X207264000Y-120396000D02*
X205232000Y-122428000D01*
X207264000Y-83820000D02*
X207264000Y-120396000D01*
X207264000Y-45720000D02*
X207264000Y-83820000D01*
X199644000Y-38100000D02*
X207264000Y-45720000D01*
X176784000Y-38100000D02*
X199644000Y-38100000D01*
%TO.N,/PB1*%
X204216000Y-76200000D02*
X200660000Y-76200000D01*
X205740000Y-74676000D02*
X204216000Y-76200000D01*
X205740000Y-54864000D02*
X205740000Y-74676000D01*
X194056000Y-43180000D02*
X205740000Y-54864000D01*
X172720000Y-43180000D02*
X194056000Y-43180000D01*
%TO.N,GND*%
X142743701Y-71632299D02*
X143256000Y-71120000D01*
X149860000Y-76708000D02*
X146812000Y-76708000D01*
%TO.N,/PB6*%
X178308000Y-103124000D02*
X198120000Y-83312000D01*
X157988000Y-103124000D02*
X178308000Y-103124000D01*
%TO.N,/PB7*%
X170688000Y-85344000D02*
X186944000Y-85344000D01*
X160020000Y-96012000D02*
X170688000Y-85344000D01*
%TO.N,+3V3*%
X155448000Y-94488000D02*
X145288000Y-84328000D01*
%TO.N,/PB1*%
X200660000Y-82804000D02*
X199136000Y-84328000D01*
X200660000Y-76200000D02*
X200660000Y-82804000D01*
%TO.N,/PB7*%
X191008000Y-78232000D02*
X187960000Y-81280000D01*
%TO.N,Net-(C5-Pad1)*%
X181864000Y-78740000D02*
X182880000Y-79756000D01*
X93472000Y-74168000D02*
X98044000Y-78740000D01*
X98044000Y-78740000D02*
X181864000Y-78740000D01*
%TO.N,/PB9*%
X89408000Y-84836000D02*
X86360000Y-81788000D01*
X96012000Y-84836000D02*
X89408000Y-84836000D01*
%TO.N,/PB8*%
X88392000Y-79248000D02*
X99568000Y-79248000D01*
X99568000Y-79248000D02*
X110236000Y-89916000D01*
%TO.N,/PB14*%
X80264000Y-79756000D02*
X80264000Y-77216000D01*
X89916000Y-89408000D02*
X80264000Y-79756000D01*
%TO.N,/PB8*%
X79220808Y-80799192D02*
X79248000Y-80772000D01*
X76955412Y-80799192D02*
X79220808Y-80799192D01*
%TO.N,/PB14*%
X79248000Y-75692000D02*
X79248000Y-78740000D01*
X80264000Y-74676000D02*
X79248000Y-75692000D01*
%TO.N,/PB15*%
X75692000Y-91948000D02*
X100584000Y-91948000D01*
X74676000Y-90932000D02*
X75692000Y-91948000D01*
%TO.N,Net-(C5-Pad1)*%
X74676000Y-78930656D02*
X74750158Y-78856498D01*
X74676000Y-81280000D02*
X74676000Y-78930656D01*
%TO.N,+3V3*%
X159512000Y-112383522D02*
X159512000Y-112268000D01*
X145403522Y-126492000D02*
X159512000Y-112383522D01*
X144272000Y-126492000D02*
X145403522Y-126492000D01*
%TO.N,Net-(BZ2-Pad2)*%
X115824000Y-136144000D02*
X116332000Y-136144000D01*
X112268000Y-136144000D02*
X115824000Y-136144000D01*
X116332000Y-136144000D02*
X117348000Y-135128000D01*
%TO.N,PB10*%
X103124000Y-116332000D02*
X102616000Y-116840000D01*
X103124000Y-114718500D02*
X103124000Y-116332000D01*
%TD*%
M02*
