%TF.GenerationSoftware,KiCad,Pcbnew,(6.0.2)*%
%TF.CreationDate,2022-03-20T20:15:49+02:00*%
%TF.ProjectId,main,6d61696e-2e6b-4696-9361-645f70636258,rev?*%
%TF.SameCoordinates,Original*%
%TF.FileFunction,Soldermask,Bot*%
%TF.FilePolarity,Negative*%
%FSLAX46Y46*%
G04 Gerber Fmt 4.6, Leading zero omitted, Abs format (unit mm)*
G04 Created by KiCad (PCBNEW (6.0.2)) date 2022-03-20 20:15:49*
%MOMM*%
%LPD*%
G01*
G04 APERTURE LIST*
%TA.AperFunction,Profile*%
%ADD10C,0.200000*%
%TD*%
%ADD11R,1.700000X1.700000*%
%ADD12O,1.050000X1.500000*%
%ADD13R,1.050000X1.500000*%
%ADD14O,1.700000X1.700000*%
%ADD15R,2.000000X1.905000*%
%ADD16O,2.000000X1.905000*%
%ADD17C,2.390000*%
%ADD18C,3.450000*%
%ADD19O,1.700000X1.350000*%
%ADD20O,1.500000X1.100000*%
%ADD21O,1.200000X1.200000*%
%ADD22O,1.600000X1.200000*%
%ADD23R,2.200000X2.200000*%
%ADD24O,2.200000X2.200000*%
G04 APERTURE END LIST*
D10*
X210820000Y-15748000D02*
X59944000Y-15748000D01*
X59944000Y-15748000D02*
X59944000Y-144272000D01*
X59944000Y-144272000D02*
X210820000Y-144272000D01*
X210820000Y-144272000D02*
X210820000Y-15748000D01*
D11*
%TO.C,TP10*%
X203200000Y-23876000D03*
%TD*%
%TO.C,TP3*%
X78216000Y-28956000D03*
%TD*%
%TO.C,TP2*%
X130372000Y-61472000D03*
%TD*%
%TO.C,TP1*%
X98028000Y-28448000D03*
%TD*%
D12*
%TO.C,U4*%
X169488000Y-62996000D03*
X168218000Y-62996000D03*
D13*
X166948000Y-62996000D03*
%TD*%
D11*
%TO.C,TP4*%
X167964000Y-68584000D03*
%TD*%
%TO.C,J2*%
X174568000Y-56925000D03*
D14*
X172028000Y-56925000D03*
X169488000Y-56925000D03*
X166948000Y-56925000D03*
X164408000Y-56925000D03*
X161868000Y-56925000D03*
X159328000Y-56925000D03*
X156788000Y-56925000D03*
X154248000Y-56925000D03*
X151708000Y-56925000D03*
X149168000Y-56925000D03*
X146628000Y-56925000D03*
X144088000Y-56925000D03*
X141548000Y-56925000D03*
X139008000Y-56925000D03*
X136468000Y-56925000D03*
X133928000Y-56925000D03*
X131388000Y-56925000D03*
X128848000Y-56925000D03*
X126308000Y-56925000D03*
X123768000Y-56925000D03*
X121228000Y-56925000D03*
X118688000Y-56925000D03*
X116148000Y-56925000D03*
X113608000Y-56925000D03*
X111068000Y-56925000D03*
X108528000Y-56925000D03*
X105988000Y-56925000D03*
X103448000Y-56925000D03*
X100908000Y-56925000D03*
X98368000Y-56925000D03*
X95828000Y-56925000D03*
X93288000Y-56925000D03*
%TD*%
D15*
%TO.C,Q1*%
X84312000Y-34544000D03*
D16*
X84312000Y-32004000D03*
X84312000Y-29464000D03*
%TD*%
D17*
%TO.C,BT1*%
X117994000Y-22988000D03*
D18*
X126324000Y-38988000D03*
X181524000Y-22988000D03*
%TD*%
D19*
%TO.C,J5*%
X175683000Y-74515000D03*
D20*
X172683000Y-74825000D03*
D19*
X175683000Y-79975000D03*
D20*
X172683000Y-79665000D03*
%TD*%
D11*
%TO.C,TP9*%
X200152000Y-72644000D03*
%TD*%
%TO.C,J1*%
X174568000Y-46740000D03*
D14*
X172028000Y-46740000D03*
X169488000Y-46740000D03*
X166948000Y-46740000D03*
X164408000Y-46740000D03*
X161868000Y-46740000D03*
X159328000Y-46740000D03*
X156788000Y-46740000D03*
X154248000Y-46740000D03*
X151708000Y-46740000D03*
X149168000Y-46740000D03*
X146628000Y-46740000D03*
X144088000Y-46740000D03*
X141548000Y-46740000D03*
X139008000Y-46740000D03*
X136468000Y-46740000D03*
X133928000Y-46740000D03*
X131388000Y-46740000D03*
X128848000Y-46740000D03*
X126308000Y-46740000D03*
X123768000Y-46740000D03*
X121228000Y-46740000D03*
X118688000Y-46740000D03*
X116148000Y-46740000D03*
X113608000Y-46740000D03*
X111068000Y-46740000D03*
X108528000Y-46740000D03*
X105988000Y-46740000D03*
X103448000Y-46740000D03*
X100908000Y-46740000D03*
X98368000Y-46740000D03*
X95828000Y-46740000D03*
X93288000Y-46740000D03*
%TD*%
D21*
%TO.C,Q5*%
X152400000Y-132080000D03*
X154940000Y-129540000D03*
D22*
X157480000Y-132080000D03*
%TD*%
D21*
%TO.C,Q6*%
X131572000Y-119888000D03*
X129032000Y-122428000D03*
D22*
X126492000Y-119888000D03*
%TD*%
D11*
%TO.C,J4*%
X174568000Y-107700000D03*
D14*
X172028000Y-107700000D03*
X169488000Y-107700000D03*
X166948000Y-107700000D03*
X164408000Y-107700000D03*
X161868000Y-107700000D03*
X159328000Y-107700000D03*
X156788000Y-107700000D03*
X154248000Y-107700000D03*
X151708000Y-107700000D03*
X149168000Y-107700000D03*
X146628000Y-107700000D03*
X144088000Y-107700000D03*
X141548000Y-107700000D03*
X139008000Y-107700000D03*
X136468000Y-107700000D03*
X133928000Y-107700000D03*
X131388000Y-107700000D03*
X128848000Y-107700000D03*
X126308000Y-107700000D03*
X123768000Y-107700000D03*
X121228000Y-107700000D03*
X118688000Y-107700000D03*
X116148000Y-107700000D03*
X113608000Y-107700000D03*
X111068000Y-107700000D03*
X108528000Y-107700000D03*
X105988000Y-107700000D03*
X103448000Y-107700000D03*
X100908000Y-107700000D03*
X98368000Y-107700000D03*
X95828000Y-107700000D03*
X93288000Y-107700000D03*
%TD*%
D11*
%TO.C,TP8*%
X197612000Y-67564000D03*
%TD*%
%TO.C,TP6*%
X175584000Y-68584000D03*
%TD*%
%TO.C,J3*%
X174568000Y-97540000D03*
D14*
X172028000Y-97540000D03*
X169488000Y-97540000D03*
X166948000Y-97540000D03*
X164408000Y-97540000D03*
X161868000Y-97540000D03*
X159328000Y-97540000D03*
X156788000Y-97540000D03*
X154248000Y-97540000D03*
X151708000Y-97540000D03*
X149168000Y-97540000D03*
X146628000Y-97540000D03*
X144088000Y-97540000D03*
X141548000Y-97540000D03*
X139008000Y-97540000D03*
X136468000Y-97540000D03*
X133928000Y-97540000D03*
X131388000Y-97540000D03*
X128848000Y-97540000D03*
X126308000Y-97540000D03*
X123768000Y-97540000D03*
X121228000Y-97540000D03*
X118688000Y-97540000D03*
X116148000Y-97540000D03*
X113608000Y-97540000D03*
X111068000Y-97540000D03*
X108528000Y-97540000D03*
X105988000Y-97540000D03*
X103448000Y-97540000D03*
X100908000Y-97540000D03*
X98368000Y-97540000D03*
X95828000Y-97540000D03*
X93288000Y-97540000D03*
%TD*%
D22*
%TO.C,Q4*%
X157296000Y-64012000D03*
D21*
X159836000Y-66552000D03*
X162376000Y-64012000D03*
%TD*%
D11*
%TO.C,TP7*%
X159758000Y-89920000D03*
%TD*%
D23*
%TO.C,D7*%
X134436000Y-61472000D03*
D24*
X144596000Y-61472000D03*
%TD*%
D11*
%TO.C,TP11*%
X164158000Y-85270000D03*
%TD*%
M02*
