%TF.GenerationSoftware,KiCad,Pcbnew,(6.0.2)*%
%TF.CreationDate,2022-03-20T20:15:49+02:00*%
%TF.ProjectId,main,6d61696e-2e6b-4696-9361-645f70636258,rev?*%
%TF.SameCoordinates,Original*%
%TF.FileFunction,AssemblyDrawing,Top*%
%FSLAX46Y46*%
G04 Gerber Fmt 4.6, Leading zero omitted, Abs format (unit mm)*
G04 Created by KiCad (PCBNEW (6.0.2)) date 2022-03-20 20:15:49*
%MOMM*%
%LPD*%
G01*
G04 APERTURE LIST*
%TA.AperFunction,Profile*%
%ADD10C,0.200000*%
%TD*%
%ADD11C,0.100000*%
%ADD12C,0.300000*%
%ADD13C,0.150000*%
%ADD14C,0.080000*%
%ADD15C,0.050000*%
%ADD16C,0.120000*%
G04 APERTURE END LIST*
D10*
X210820000Y-15748000D02*
X59944000Y-15748000D01*
X59944000Y-15748000D02*
X59944000Y-144272000D01*
X59944000Y-144272000D02*
X210820000Y-144272000D01*
X210820000Y-144272000D02*
X210820000Y-15748000D01*
D11*
X178378000Y-50550000D02*
X178378000Y-103890000D01*
X89478000Y-103890000D02*
X89478000Y-50550000D01*
X89478000Y-50550000D02*
X178378000Y-50550000D01*
X178378000Y-103890000D02*
X89478000Y-103890000D01*
X168218000Y-72140000D02*
X178378000Y-72140000D01*
X178378000Y-72140000D02*
X178378000Y-82300000D01*
X178378000Y-82300000D02*
X168218000Y-82300000D01*
X168218000Y-82300000D02*
X168218000Y-72140000D01*
D12*
X170774190Y-76124761D02*
X170774190Y-77743809D01*
X170869428Y-77934285D01*
X170964666Y-78029523D01*
X171155142Y-78124761D01*
X171536095Y-78124761D01*
X171726571Y-78029523D01*
X171821809Y-77934285D01*
X171917047Y-77743809D01*
X171917047Y-76124761D01*
X172774190Y-78029523D02*
X173059904Y-78124761D01*
X173536095Y-78124761D01*
X173726571Y-78029523D01*
X173821809Y-77934285D01*
X173917047Y-77743809D01*
X173917047Y-77553333D01*
X173821809Y-77362857D01*
X173726571Y-77267619D01*
X173536095Y-77172380D01*
X173155142Y-77077142D01*
X172964666Y-76981904D01*
X172869428Y-76886666D01*
X172774190Y-76696190D01*
X172774190Y-76505714D01*
X172869428Y-76315238D01*
X172964666Y-76220000D01*
X173155142Y-76124761D01*
X173631333Y-76124761D01*
X173917047Y-76220000D01*
X175440857Y-77077142D02*
X175726571Y-77172380D01*
X175821809Y-77267619D01*
X175917047Y-77458095D01*
X175917047Y-77743809D01*
X175821809Y-77934285D01*
X175726571Y-78029523D01*
X175536095Y-78124761D01*
X174774190Y-78124761D01*
X174774190Y-76124761D01*
X175440857Y-76124761D01*
X175631333Y-76220000D01*
X175726571Y-76315238D01*
X175821809Y-76505714D01*
X175821809Y-76696190D01*
X175726571Y-76886666D01*
X175631333Y-76981904D01*
X175440857Y-77077142D01*
X174774190Y-77077142D01*
D13*
%TO.C,TP10*%
X199866666Y-25658380D02*
X200438095Y-25658380D01*
X200152380Y-26658380D02*
X200152380Y-25658380D01*
X201152380Y-26610761D02*
X201057142Y-26658380D01*
X200866666Y-26658380D01*
X200771428Y-26610761D01*
X200723809Y-26515523D01*
X200723809Y-26134571D01*
X200771428Y-26039333D01*
X200866666Y-25991714D01*
X201057142Y-25991714D01*
X201152380Y-26039333D01*
X201200000Y-26134571D01*
X201200000Y-26229809D01*
X200723809Y-26325047D01*
X201580952Y-26610761D02*
X201676190Y-26658380D01*
X201866666Y-26658380D01*
X201961904Y-26610761D01*
X202009523Y-26515523D01*
X202009523Y-26467904D01*
X201961904Y-26372666D01*
X201866666Y-26325047D01*
X201723809Y-26325047D01*
X201628571Y-26277428D01*
X201580952Y-26182190D01*
X201580952Y-26134571D01*
X201628571Y-26039333D01*
X201723809Y-25991714D01*
X201866666Y-25991714D01*
X201961904Y-26039333D01*
X202295238Y-25991714D02*
X202676190Y-25991714D01*
X202438095Y-25658380D02*
X202438095Y-26515523D01*
X202485714Y-26610761D01*
X202580952Y-26658380D01*
X202676190Y-26658380D01*
X203009523Y-26658380D02*
X203009523Y-25658380D01*
X203390476Y-25658380D01*
X203485714Y-25706000D01*
X203533333Y-25753619D01*
X203580952Y-25848857D01*
X203580952Y-25991714D01*
X203533333Y-26086952D01*
X203485714Y-26134571D01*
X203390476Y-26182190D01*
X203009523Y-26182190D01*
X204152380Y-26658380D02*
X204057142Y-26610761D01*
X204009523Y-26563142D01*
X203961904Y-26467904D01*
X203961904Y-26182190D01*
X204009523Y-26086952D01*
X204057142Y-26039333D01*
X204152380Y-25991714D01*
X204295238Y-25991714D01*
X204390476Y-26039333D01*
X204438095Y-26086952D01*
X204485714Y-26182190D01*
X204485714Y-26467904D01*
X204438095Y-26563142D01*
X204390476Y-26610761D01*
X204295238Y-26658380D01*
X204152380Y-26658380D01*
X204914285Y-26658380D02*
X204914285Y-25991714D01*
X204914285Y-25658380D02*
X204866666Y-25706000D01*
X204914285Y-25753619D01*
X204961904Y-25706000D01*
X204914285Y-25658380D01*
X204914285Y-25753619D01*
X205390476Y-25991714D02*
X205390476Y-26658380D01*
X205390476Y-26086952D02*
X205438095Y-26039333D01*
X205533333Y-25991714D01*
X205676190Y-25991714D01*
X205771428Y-26039333D01*
X205819047Y-26134571D01*
X205819047Y-26658380D01*
X206152380Y-25991714D02*
X206533333Y-25991714D01*
X206295238Y-25658380D02*
X206295238Y-26515523D01*
X206342857Y-26610761D01*
X206438095Y-26658380D01*
X206533333Y-26658380D01*
X202652380Y-25614095D02*
X202652380Y-25042666D01*
X203652380Y-25328380D02*
X202652380Y-25328380D01*
X203652380Y-24709333D02*
X202652380Y-24709333D01*
X202652380Y-24328380D01*
X202700000Y-24233142D01*
X202747619Y-24185523D01*
X202842857Y-24137904D01*
X202985714Y-24137904D01*
X203080952Y-24185523D01*
X203128571Y-24233142D01*
X203176190Y-24328380D01*
X203176190Y-24709333D01*
X203652380Y-23185523D02*
X203652380Y-23756952D01*
X203652380Y-23471238D02*
X202652380Y-23471238D01*
X202795238Y-23566476D01*
X202890476Y-23661714D01*
X202938095Y-23756952D01*
X202652380Y-22566476D02*
X202652380Y-22471238D01*
X202700000Y-22376000D01*
X202747619Y-22328380D01*
X202842857Y-22280761D01*
X203033333Y-22233142D01*
X203271428Y-22233142D01*
X203461904Y-22280761D01*
X203557142Y-22328380D01*
X203604761Y-22376000D01*
X203652380Y-22471238D01*
X203652380Y-22566476D01*
X203604761Y-22661714D01*
X203557142Y-22709333D01*
X203461904Y-22756952D01*
X203271428Y-22804571D01*
X203033333Y-22804571D01*
X202842857Y-22756952D01*
X202747619Y-22709333D01*
X202700000Y-22661714D01*
X202652380Y-22566476D01*
%TO.C,D10*%
X130421142Y-137738380D02*
X129944952Y-137738380D01*
X129944952Y-136738380D01*
X130754476Y-137214571D02*
X131087809Y-137214571D01*
X131230666Y-137738380D02*
X130754476Y-137738380D01*
X130754476Y-136738380D01*
X131230666Y-136738380D01*
X131659238Y-137738380D02*
X131659238Y-136738380D01*
X131897333Y-136738380D01*
X132040190Y-136786000D01*
X132135428Y-136881238D01*
X132183047Y-136976476D01*
X132230666Y-137166952D01*
X132230666Y-137309809D01*
X132183047Y-137500285D01*
X132135428Y-137595523D01*
X132040190Y-137690761D01*
X131897333Y-137738380D01*
X131659238Y-137738380D01*
D14*
X130456857Y-135862190D02*
X130456857Y-135362190D01*
X130575904Y-135362190D01*
X130647333Y-135386000D01*
X130694952Y-135433619D01*
X130718761Y-135481238D01*
X130742571Y-135576476D01*
X130742571Y-135647904D01*
X130718761Y-135743142D01*
X130694952Y-135790761D01*
X130647333Y-135838380D01*
X130575904Y-135862190D01*
X130456857Y-135862190D01*
X131218761Y-135862190D02*
X130933047Y-135862190D01*
X131075904Y-135862190D02*
X131075904Y-135362190D01*
X131028285Y-135433619D01*
X130980666Y-135481238D01*
X130933047Y-135505047D01*
X131528285Y-135362190D02*
X131575904Y-135362190D01*
X131623523Y-135386000D01*
X131647333Y-135409809D01*
X131671142Y-135457428D01*
X131694952Y-135552666D01*
X131694952Y-135671714D01*
X131671142Y-135766952D01*
X131647333Y-135814571D01*
X131623523Y-135838380D01*
X131575904Y-135862190D01*
X131528285Y-135862190D01*
X131480666Y-135838380D01*
X131456857Y-135814571D01*
X131433047Y-135766952D01*
X131409238Y-135671714D01*
X131409238Y-135552666D01*
X131433047Y-135457428D01*
X131456857Y-135409809D01*
X131480666Y-135386000D01*
X131528285Y-135362190D01*
D13*
%TO.C,C9*%
X75484380Y-98666857D02*
X75484380Y-98571619D01*
X75532000Y-98476380D01*
X75579619Y-98428761D01*
X75674857Y-98381142D01*
X75865333Y-98333523D01*
X76103428Y-98333523D01*
X76293904Y-98381142D01*
X76389142Y-98428761D01*
X76436761Y-98476380D01*
X76484380Y-98571619D01*
X76484380Y-98666857D01*
X76436761Y-98762095D01*
X76389142Y-98809714D01*
X76293904Y-98857333D01*
X76103428Y-98904952D01*
X75865333Y-98904952D01*
X75674857Y-98857333D01*
X75579619Y-98809714D01*
X75532000Y-98762095D01*
X75484380Y-98666857D01*
X76389142Y-97904952D02*
X76436761Y-97857333D01*
X76484380Y-97904952D01*
X76436761Y-97952571D01*
X76389142Y-97904952D01*
X76484380Y-97904952D01*
X76484380Y-96904952D02*
X76484380Y-97476380D01*
X76484380Y-97190666D02*
X75484380Y-97190666D01*
X75627238Y-97285904D01*
X75722476Y-97381142D01*
X75770095Y-97476380D01*
X75817714Y-96047809D02*
X76484380Y-96047809D01*
X75817714Y-96476380D02*
X76341523Y-96476380D01*
X76436761Y-96428761D01*
X76484380Y-96333523D01*
X76484380Y-96190666D01*
X76436761Y-96095428D01*
X76389142Y-96047809D01*
X75960571Y-95238285D02*
X75960571Y-95571619D01*
X76484380Y-95571619D02*
X75484380Y-95571619D01*
X75484380Y-95095428D01*
D14*
X74530571Y-97107333D02*
X74554380Y-97131142D01*
X74578190Y-97202571D01*
X74578190Y-97250190D01*
X74554380Y-97321619D01*
X74506761Y-97369238D01*
X74459142Y-97393047D01*
X74363904Y-97416857D01*
X74292476Y-97416857D01*
X74197238Y-97393047D01*
X74149619Y-97369238D01*
X74102000Y-97321619D01*
X74078190Y-97250190D01*
X74078190Y-97202571D01*
X74102000Y-97131142D01*
X74125809Y-97107333D01*
X74578190Y-96869238D02*
X74578190Y-96774000D01*
X74554380Y-96726380D01*
X74530571Y-96702571D01*
X74459142Y-96654952D01*
X74363904Y-96631142D01*
X74173428Y-96631142D01*
X74125809Y-96654952D01*
X74102000Y-96678761D01*
X74078190Y-96726380D01*
X74078190Y-96821619D01*
X74102000Y-96869238D01*
X74125809Y-96893047D01*
X74173428Y-96916857D01*
X74292476Y-96916857D01*
X74340095Y-96893047D01*
X74363904Y-96869238D01*
X74387714Y-96821619D01*
X74387714Y-96726380D01*
X74363904Y-96678761D01*
X74340095Y-96654952D01*
X74292476Y-96631142D01*
D13*
%TO.C,C7*%
X76023023Y-76713142D02*
X75975404Y-76760761D01*
X75832547Y-76808380D01*
X75737309Y-76808380D01*
X75594452Y-76760761D01*
X75499214Y-76665523D01*
X75451595Y-76570285D01*
X75403976Y-76379809D01*
X75403976Y-76236952D01*
X75451595Y-76046476D01*
X75499214Y-75951238D01*
X75594452Y-75856000D01*
X75737309Y-75808380D01*
X75832547Y-75808380D01*
X75975404Y-75856000D01*
X76023023Y-75903619D01*
D14*
X75630166Y-74854571D02*
X75606357Y-74878380D01*
X75534928Y-74902190D01*
X75487309Y-74902190D01*
X75415880Y-74878380D01*
X75368261Y-74830761D01*
X75344452Y-74783142D01*
X75320642Y-74687904D01*
X75320642Y-74616476D01*
X75344452Y-74521238D01*
X75368261Y-74473619D01*
X75415880Y-74426000D01*
X75487309Y-74402190D01*
X75534928Y-74402190D01*
X75606357Y-74426000D01*
X75630166Y-74449809D01*
X75796833Y-74402190D02*
X76130166Y-74402190D01*
X75915880Y-74902190D01*
D13*
%TO.C,C1*%
X175459452Y-117960380D02*
X174888023Y-117960380D01*
X175173738Y-117960380D02*
X175173738Y-116960380D01*
X175078500Y-117103238D01*
X174983261Y-117198476D01*
X174888023Y-117246095D01*
X176078500Y-116960380D02*
X176173738Y-116960380D01*
X176268976Y-117008000D01*
X176316595Y-117055619D01*
X176364214Y-117150857D01*
X176411833Y-117341333D01*
X176411833Y-117579428D01*
X176364214Y-117769904D01*
X176316595Y-117865142D01*
X176268976Y-117912761D01*
X176173738Y-117960380D01*
X176078500Y-117960380D01*
X175983261Y-117912761D01*
X175935642Y-117865142D01*
X175888023Y-117769904D01*
X175840404Y-117579428D01*
X175840404Y-117341333D01*
X175888023Y-117150857D01*
X175935642Y-117055619D01*
X175983261Y-117008000D01*
X176078500Y-116960380D01*
X177030880Y-116960380D02*
X177126119Y-116960380D01*
X177221357Y-117008000D01*
X177268976Y-117055619D01*
X177316595Y-117150857D01*
X177364214Y-117341333D01*
X177364214Y-117579428D01*
X177316595Y-117769904D01*
X177268976Y-117865142D01*
X177221357Y-117912761D01*
X177126119Y-117960380D01*
X177030880Y-117960380D01*
X176935642Y-117912761D01*
X176888023Y-117865142D01*
X176840404Y-117769904D01*
X176792785Y-117579428D01*
X176792785Y-117341333D01*
X176840404Y-117150857D01*
X176888023Y-117055619D01*
X176935642Y-117008000D01*
X177030880Y-116960380D01*
X177792785Y-117293714D02*
X177792785Y-117960380D01*
X177792785Y-117388952D02*
X177840404Y-117341333D01*
X177935642Y-117293714D01*
X178078500Y-117293714D01*
X178173738Y-117341333D01*
X178221357Y-117436571D01*
X178221357Y-117960380D01*
D14*
X176495166Y-116006571D02*
X176471357Y-116030380D01*
X176399928Y-116054190D01*
X176352309Y-116054190D01*
X176280880Y-116030380D01*
X176233261Y-115982761D01*
X176209452Y-115935142D01*
X176185642Y-115839904D01*
X176185642Y-115768476D01*
X176209452Y-115673238D01*
X176233261Y-115625619D01*
X176280880Y-115578000D01*
X176352309Y-115554190D01*
X176399928Y-115554190D01*
X176471357Y-115578000D01*
X176495166Y-115601809D01*
X176971357Y-116054190D02*
X176685642Y-116054190D01*
X176828500Y-116054190D02*
X176828500Y-115554190D01*
X176780880Y-115625619D01*
X176733261Y-115673238D01*
X176685642Y-115697047D01*
D13*
%TO.C,C3*%
X135380761Y-69192380D02*
X134809333Y-69192380D01*
X135095047Y-69192380D02*
X135095047Y-68192380D01*
X134999809Y-68335238D01*
X134904571Y-68430476D01*
X134809333Y-68478095D01*
X135999809Y-68192380D02*
X136095047Y-68192380D01*
X136190285Y-68240000D01*
X136237904Y-68287619D01*
X136285523Y-68382857D01*
X136333142Y-68573333D01*
X136333142Y-68811428D01*
X136285523Y-69001904D01*
X136237904Y-69097142D01*
X136190285Y-69144761D01*
X136095047Y-69192380D01*
X135999809Y-69192380D01*
X135904571Y-69144761D01*
X135856952Y-69097142D01*
X135809333Y-69001904D01*
X135761714Y-68811428D01*
X135761714Y-68573333D01*
X135809333Y-68382857D01*
X135856952Y-68287619D01*
X135904571Y-68240000D01*
X135999809Y-68192380D01*
X136952190Y-68192380D02*
X137047428Y-68192380D01*
X137142666Y-68240000D01*
X137190285Y-68287619D01*
X137237904Y-68382857D01*
X137285523Y-68573333D01*
X137285523Y-68811428D01*
X137237904Y-69001904D01*
X137190285Y-69097142D01*
X137142666Y-69144761D01*
X137047428Y-69192380D01*
X136952190Y-69192380D01*
X136856952Y-69144761D01*
X136809333Y-69097142D01*
X136761714Y-69001904D01*
X136714095Y-68811428D01*
X136714095Y-68573333D01*
X136761714Y-68382857D01*
X136809333Y-68287619D01*
X136856952Y-68240000D01*
X136952190Y-68192380D01*
X137904571Y-68192380D02*
X137999809Y-68192380D01*
X138095047Y-68240000D01*
X138142666Y-68287619D01*
X138190285Y-68382857D01*
X138237904Y-68573333D01*
X138237904Y-68811428D01*
X138190285Y-69001904D01*
X138142666Y-69097142D01*
X138095047Y-69144761D01*
X137999809Y-69192380D01*
X137904571Y-69192380D01*
X137809333Y-69144761D01*
X137761714Y-69097142D01*
X137714095Y-69001904D01*
X137666476Y-68811428D01*
X137666476Y-68573333D01*
X137714095Y-68382857D01*
X137761714Y-68287619D01*
X137809333Y-68240000D01*
X137904571Y-68192380D01*
X139095047Y-68525714D02*
X139095047Y-69192380D01*
X138666476Y-68525714D02*
X138666476Y-69049523D01*
X138714095Y-69144761D01*
X138809333Y-69192380D01*
X138952190Y-69192380D01*
X139047428Y-69144761D01*
X139095047Y-69097142D01*
D14*
X136892666Y-67238571D02*
X136868857Y-67262380D01*
X136797428Y-67286190D01*
X136749809Y-67286190D01*
X136678380Y-67262380D01*
X136630761Y-67214761D01*
X136606952Y-67167142D01*
X136583142Y-67071904D01*
X136583142Y-67000476D01*
X136606952Y-66905238D01*
X136630761Y-66857619D01*
X136678380Y-66810000D01*
X136749809Y-66786190D01*
X136797428Y-66786190D01*
X136868857Y-66810000D01*
X136892666Y-66833809D01*
X137059333Y-66786190D02*
X137368857Y-66786190D01*
X137202190Y-66976666D01*
X137273619Y-66976666D01*
X137321238Y-67000476D01*
X137345047Y-67024285D01*
X137368857Y-67071904D01*
X137368857Y-67190952D01*
X137345047Y-67238571D01*
X137321238Y-67262380D01*
X137273619Y-67286190D01*
X137130761Y-67286190D01*
X137083142Y-67262380D01*
X137059333Y-67238571D01*
D13*
%TO.C,R3*%
X88702380Y-30551238D02*
X88702380Y-31122666D01*
X88702380Y-30836952D02*
X87702380Y-30836952D01*
X87845238Y-30932190D01*
X87940476Y-31027428D01*
X87988095Y-31122666D01*
X87702380Y-29932190D02*
X87702380Y-29836952D01*
X87750000Y-29741714D01*
X87797619Y-29694095D01*
X87892857Y-29646476D01*
X88083333Y-29598857D01*
X88321428Y-29598857D01*
X88511904Y-29646476D01*
X88607142Y-29694095D01*
X88654761Y-29741714D01*
X88702380Y-29836952D01*
X88702380Y-29932190D01*
X88654761Y-30027428D01*
X88607142Y-30075047D01*
X88511904Y-30122666D01*
X88321428Y-30170285D01*
X88083333Y-30170285D01*
X87892857Y-30122666D01*
X87797619Y-30075047D01*
X87750000Y-30027428D01*
X87702380Y-29932190D01*
X88702380Y-29170285D02*
X87702380Y-29170285D01*
X88321428Y-29075047D02*
X88702380Y-28789333D01*
X88035714Y-28789333D02*
X88416666Y-29170285D01*
D14*
X90126190Y-30039333D02*
X89888095Y-30206000D01*
X90126190Y-30325047D02*
X89626190Y-30325047D01*
X89626190Y-30134571D01*
X89650000Y-30086952D01*
X89673809Y-30063142D01*
X89721428Y-30039333D01*
X89792857Y-30039333D01*
X89840476Y-30063142D01*
X89864285Y-30086952D01*
X89888095Y-30134571D01*
X89888095Y-30325047D01*
X89626190Y-29872666D02*
X89626190Y-29563142D01*
X89816666Y-29729809D01*
X89816666Y-29658380D01*
X89840476Y-29610761D01*
X89864285Y-29586952D01*
X89911904Y-29563142D01*
X90030952Y-29563142D01*
X90078571Y-29586952D01*
X90102380Y-29610761D01*
X90126190Y-29658380D01*
X90126190Y-29801238D01*
X90102380Y-29848857D01*
X90078571Y-29872666D01*
D13*
%TO.C,C5*%
X203001523Y-89921142D02*
X202953904Y-89968761D01*
X202811047Y-90016380D01*
X202715809Y-90016380D01*
X202572952Y-89968761D01*
X202477714Y-89873523D01*
X202430095Y-89778285D01*
X202382476Y-89587809D01*
X202382476Y-89444952D01*
X202430095Y-89254476D01*
X202477714Y-89159238D01*
X202572952Y-89064000D01*
X202715809Y-89016380D01*
X202811047Y-89016380D01*
X202953904Y-89064000D01*
X203001523Y-89111619D01*
D14*
X202608666Y-88062571D02*
X202584857Y-88086380D01*
X202513428Y-88110190D01*
X202465809Y-88110190D01*
X202394380Y-88086380D01*
X202346761Y-88038761D01*
X202322952Y-87991142D01*
X202299142Y-87895904D01*
X202299142Y-87824476D01*
X202322952Y-87729238D01*
X202346761Y-87681619D01*
X202394380Y-87634000D01*
X202465809Y-87610190D01*
X202513428Y-87610190D01*
X202584857Y-87634000D01*
X202608666Y-87657809D01*
X203061047Y-87610190D02*
X202822952Y-87610190D01*
X202799142Y-87848285D01*
X202822952Y-87824476D01*
X202870571Y-87800666D01*
X202989619Y-87800666D01*
X203037238Y-87824476D01*
X203061047Y-87848285D01*
X203084857Y-87895904D01*
X203084857Y-88014952D01*
X203061047Y-88062571D01*
X203037238Y-88086380D01*
X202989619Y-88110190D01*
X202870571Y-88110190D01*
X202822952Y-88086380D01*
X202799142Y-88062571D01*
D13*
%TO.C,TP3*%
X74882666Y-30738380D02*
X75454095Y-30738380D01*
X75168380Y-31738380D02*
X75168380Y-30738380D01*
X76168380Y-31690761D02*
X76073142Y-31738380D01*
X75882666Y-31738380D01*
X75787428Y-31690761D01*
X75739809Y-31595523D01*
X75739809Y-31214571D01*
X75787428Y-31119333D01*
X75882666Y-31071714D01*
X76073142Y-31071714D01*
X76168380Y-31119333D01*
X76216000Y-31214571D01*
X76216000Y-31309809D01*
X75739809Y-31405047D01*
X76596952Y-31690761D02*
X76692190Y-31738380D01*
X76882666Y-31738380D01*
X76977904Y-31690761D01*
X77025523Y-31595523D01*
X77025523Y-31547904D01*
X76977904Y-31452666D01*
X76882666Y-31405047D01*
X76739809Y-31405047D01*
X76644571Y-31357428D01*
X76596952Y-31262190D01*
X76596952Y-31214571D01*
X76644571Y-31119333D01*
X76739809Y-31071714D01*
X76882666Y-31071714D01*
X76977904Y-31119333D01*
X77311238Y-31071714D02*
X77692190Y-31071714D01*
X77454095Y-30738380D02*
X77454095Y-31595523D01*
X77501714Y-31690761D01*
X77596952Y-31738380D01*
X77692190Y-31738380D01*
X78025523Y-31738380D02*
X78025523Y-30738380D01*
X78406476Y-30738380D01*
X78501714Y-30786000D01*
X78549333Y-30833619D01*
X78596952Y-30928857D01*
X78596952Y-31071714D01*
X78549333Y-31166952D01*
X78501714Y-31214571D01*
X78406476Y-31262190D01*
X78025523Y-31262190D01*
X79168380Y-31738380D02*
X79073142Y-31690761D01*
X79025523Y-31643142D01*
X78977904Y-31547904D01*
X78977904Y-31262190D01*
X79025523Y-31166952D01*
X79073142Y-31119333D01*
X79168380Y-31071714D01*
X79311238Y-31071714D01*
X79406476Y-31119333D01*
X79454095Y-31166952D01*
X79501714Y-31262190D01*
X79501714Y-31547904D01*
X79454095Y-31643142D01*
X79406476Y-31690761D01*
X79311238Y-31738380D01*
X79168380Y-31738380D01*
X79930285Y-31738380D02*
X79930285Y-31071714D01*
X79930285Y-30738380D02*
X79882666Y-30786000D01*
X79930285Y-30833619D01*
X79977904Y-30786000D01*
X79930285Y-30738380D01*
X79930285Y-30833619D01*
X80406476Y-31071714D02*
X80406476Y-31738380D01*
X80406476Y-31166952D02*
X80454095Y-31119333D01*
X80549333Y-31071714D01*
X80692190Y-31071714D01*
X80787428Y-31119333D01*
X80835047Y-31214571D01*
X80835047Y-31738380D01*
X81168380Y-31071714D02*
X81549333Y-31071714D01*
X81311238Y-30738380D02*
X81311238Y-31595523D01*
X81358857Y-31690761D01*
X81454095Y-31738380D01*
X81549333Y-31738380D01*
X77668380Y-30217904D02*
X77668380Y-29646476D01*
X78668380Y-29932190D02*
X77668380Y-29932190D01*
X78668380Y-29313142D02*
X77668380Y-29313142D01*
X77668380Y-28932190D01*
X77716000Y-28836952D01*
X77763619Y-28789333D01*
X77858857Y-28741714D01*
X78001714Y-28741714D01*
X78096952Y-28789333D01*
X78144571Y-28836952D01*
X78192190Y-28932190D01*
X78192190Y-29313142D01*
X77668380Y-28408380D02*
X77668380Y-27789333D01*
X78049333Y-28122666D01*
X78049333Y-27979809D01*
X78096952Y-27884571D01*
X78144571Y-27836952D01*
X78239809Y-27789333D01*
X78477904Y-27789333D01*
X78573142Y-27836952D01*
X78620761Y-27884571D01*
X78668380Y-27979809D01*
X78668380Y-28265523D01*
X78620761Y-28360761D01*
X78573142Y-28408380D01*
%TO.C,U2*%
X171635047Y-124710380D02*
X171635047Y-123710380D01*
X171968380Y-124424666D01*
X172301714Y-123710380D01*
X172301714Y-124710380D01*
X173349333Y-124615142D02*
X173301714Y-124662761D01*
X173158857Y-124710380D01*
X173063619Y-124710380D01*
X172920761Y-124662761D01*
X172825523Y-124567523D01*
X172777904Y-124472285D01*
X172730285Y-124281809D01*
X172730285Y-124138952D01*
X172777904Y-123948476D01*
X172825523Y-123853238D01*
X172920761Y-123758000D01*
X173063619Y-123710380D01*
X173158857Y-123710380D01*
X173301714Y-123758000D01*
X173349333Y-123805619D01*
X173777904Y-124710380D02*
X173777904Y-123710380D01*
X174158857Y-123710380D01*
X174254095Y-123758000D01*
X174301714Y-123805619D01*
X174349333Y-123900857D01*
X174349333Y-124043714D01*
X174301714Y-124138952D01*
X174254095Y-124186571D01*
X174158857Y-124234190D01*
X173777904Y-124234190D01*
X174825523Y-124710380D02*
X175016000Y-124710380D01*
X175111238Y-124662761D01*
X175158857Y-124615142D01*
X175254095Y-124472285D01*
X175301714Y-124281809D01*
X175301714Y-123900857D01*
X175254095Y-123805619D01*
X175206476Y-123758000D01*
X175111238Y-123710380D01*
X174920761Y-123710380D01*
X174825523Y-123758000D01*
X174777904Y-123805619D01*
X174730285Y-123900857D01*
X174730285Y-124138952D01*
X174777904Y-124234190D01*
X174825523Y-124281809D01*
X174920761Y-124329428D01*
X175111238Y-124329428D01*
X175206476Y-124281809D01*
X175254095Y-124234190D01*
X175301714Y-124138952D01*
X175635047Y-123710380D02*
X176301714Y-123710380D01*
X175873142Y-124710380D01*
X176873142Y-123710380D02*
X176968380Y-123710380D01*
X177063619Y-123758000D01*
X177111238Y-123805619D01*
X177158857Y-123900857D01*
X177206476Y-124091333D01*
X177206476Y-124329428D01*
X177158857Y-124519904D01*
X177111238Y-124615142D01*
X177063619Y-124662761D01*
X176968380Y-124710380D01*
X176873142Y-124710380D01*
X176777904Y-124662761D01*
X176730285Y-124615142D01*
X176682666Y-124519904D01*
X176635047Y-124329428D01*
X176635047Y-124091333D01*
X176682666Y-123900857D01*
X176730285Y-123805619D01*
X176777904Y-123758000D01*
X176873142Y-123710380D01*
X177825523Y-123710380D02*
X177920761Y-123710380D01*
X178016000Y-123758000D01*
X178063619Y-123805619D01*
X178111238Y-123900857D01*
X178158857Y-124091333D01*
X178158857Y-124329428D01*
X178111238Y-124519904D01*
X178063619Y-124615142D01*
X178016000Y-124662761D01*
X177920761Y-124710380D01*
X177825523Y-124710380D01*
X177730285Y-124662761D01*
X177682666Y-124615142D01*
X177635047Y-124519904D01*
X177587428Y-124329428D01*
X177587428Y-124091333D01*
X177635047Y-123900857D01*
X177682666Y-123805619D01*
X177730285Y-123758000D01*
X177825523Y-123710380D01*
X178539809Y-124424666D02*
X179016000Y-124424666D01*
X178444571Y-124710380D02*
X178777904Y-123710380D01*
X179111238Y-124710380D01*
X179301714Y-123710380D02*
X179873142Y-123710380D01*
X179587428Y-124710380D02*
X179587428Y-123710380D01*
X180206476Y-124329428D02*
X180968380Y-124329428D01*
X181444571Y-124186571D02*
X181777904Y-124186571D01*
X181920761Y-124710380D02*
X181444571Y-124710380D01*
X181444571Y-123710380D01*
X181920761Y-123710380D01*
X182206476Y-123710380D02*
X182777904Y-123710380D01*
X182492190Y-124710380D02*
X182492190Y-123710380D01*
X182968380Y-123710380D02*
X183539809Y-123710380D01*
X183254095Y-124710380D02*
X183254095Y-123710380D01*
D15*
X177272190Y-121682761D02*
X177272190Y-121941809D01*
X177287428Y-121972285D01*
X177302666Y-121987523D01*
X177333142Y-122002761D01*
X177394095Y-122002761D01*
X177424571Y-121987523D01*
X177439809Y-121972285D01*
X177455047Y-121941809D01*
X177455047Y-121682761D01*
X177592190Y-121713238D02*
X177607428Y-121698000D01*
X177637904Y-121682761D01*
X177714095Y-121682761D01*
X177744571Y-121698000D01*
X177759809Y-121713238D01*
X177775047Y-121743714D01*
X177775047Y-121774190D01*
X177759809Y-121819904D01*
X177576952Y-122002761D01*
X177775047Y-122002761D01*
D13*
%TO.C,U8*%
X152298571Y-80299428D02*
X152298571Y-80632761D01*
X152822380Y-80632761D02*
X151822380Y-80632761D01*
X151822380Y-80156571D01*
X151822380Y-79918476D02*
X151822380Y-79347047D01*
X152822380Y-79632761D02*
X151822380Y-79632761D01*
X151917619Y-79061333D02*
X151870000Y-79013714D01*
X151822380Y-78918476D01*
X151822380Y-78680380D01*
X151870000Y-78585142D01*
X151917619Y-78537523D01*
X152012857Y-78489904D01*
X152108095Y-78489904D01*
X152250952Y-78537523D01*
X152822380Y-79108952D01*
X152822380Y-78489904D01*
X151822380Y-78156571D02*
X151822380Y-77537523D01*
X152203333Y-77870857D01*
X152203333Y-77728000D01*
X152250952Y-77632761D01*
X152298571Y-77585142D01*
X152393809Y-77537523D01*
X152631904Y-77537523D01*
X152727142Y-77585142D01*
X152774761Y-77632761D01*
X152822380Y-77728000D01*
X152822380Y-78013714D01*
X152774761Y-78108952D01*
X152727142Y-78156571D01*
X151917619Y-77156571D02*
X151870000Y-77108952D01*
X151822380Y-77013714D01*
X151822380Y-76775619D01*
X151870000Y-76680380D01*
X151917619Y-76632761D01*
X152012857Y-76585142D01*
X152108095Y-76585142D01*
X152250952Y-76632761D01*
X152822380Y-77204190D01*
X152822380Y-76585142D01*
X152822380Y-75585142D02*
X152346190Y-75918476D01*
X152822380Y-76156571D02*
X151822380Y-76156571D01*
X151822380Y-75775619D01*
X151870000Y-75680380D01*
X151917619Y-75632761D01*
X152012857Y-75585142D01*
X152155714Y-75585142D01*
X152250952Y-75632761D01*
X152298571Y-75680380D01*
X152346190Y-75775619D01*
X152346190Y-76156571D01*
X152822380Y-74680380D02*
X152822380Y-75156571D01*
X151822380Y-75156571D01*
X145681904Y-78337523D02*
X146329523Y-78337523D01*
X146405714Y-78299428D01*
X146443809Y-78261333D01*
X146481904Y-78185142D01*
X146481904Y-78032761D01*
X146443809Y-77956571D01*
X146405714Y-77918476D01*
X146329523Y-77880380D01*
X145681904Y-77880380D01*
X146024761Y-77385142D02*
X145986666Y-77461333D01*
X145948571Y-77499428D01*
X145872380Y-77537523D01*
X145834285Y-77537523D01*
X145758095Y-77499428D01*
X145720000Y-77461333D01*
X145681904Y-77385142D01*
X145681904Y-77232761D01*
X145720000Y-77156571D01*
X145758095Y-77118476D01*
X145834285Y-77080380D01*
X145872380Y-77080380D01*
X145948571Y-77118476D01*
X145986666Y-77156571D01*
X146024761Y-77232761D01*
X146024761Y-77385142D01*
X146062857Y-77461333D01*
X146100952Y-77499428D01*
X146177142Y-77537523D01*
X146329523Y-77537523D01*
X146405714Y-77499428D01*
X146443809Y-77461333D01*
X146481904Y-77385142D01*
X146481904Y-77232761D01*
X146443809Y-77156571D01*
X146405714Y-77118476D01*
X146329523Y-77080380D01*
X146177142Y-77080380D01*
X146100952Y-77118476D01*
X146062857Y-77156571D01*
X146024761Y-77232761D01*
%TO.C,R12*%
X145731238Y-68257619D02*
X145778857Y-68210000D01*
X145874095Y-68162380D01*
X146112190Y-68162380D01*
X146207428Y-68210000D01*
X146255047Y-68257619D01*
X146302666Y-68352857D01*
X146302666Y-68448095D01*
X146255047Y-68590952D01*
X145683619Y-69162380D01*
X146302666Y-69162380D01*
X146731238Y-69067142D02*
X146778857Y-69114761D01*
X146731238Y-69162380D01*
X146683619Y-69114761D01*
X146731238Y-69067142D01*
X146731238Y-69162380D01*
X147159809Y-68257619D02*
X147207428Y-68210000D01*
X147302666Y-68162380D01*
X147540761Y-68162380D01*
X147636000Y-68210000D01*
X147683619Y-68257619D01*
X147731238Y-68352857D01*
X147731238Y-68448095D01*
X147683619Y-68590952D01*
X147112190Y-69162380D01*
X147731238Y-69162380D01*
X148159809Y-69162380D02*
X148159809Y-68162380D01*
X148255047Y-68781428D02*
X148540761Y-69162380D01*
X148540761Y-68495714D02*
X148159809Y-68876666D01*
D14*
X146814571Y-67286190D02*
X146647904Y-67048095D01*
X146528857Y-67286190D02*
X146528857Y-66786190D01*
X146719333Y-66786190D01*
X146766952Y-66810000D01*
X146790761Y-66833809D01*
X146814571Y-66881428D01*
X146814571Y-66952857D01*
X146790761Y-67000476D01*
X146766952Y-67024285D01*
X146719333Y-67048095D01*
X146528857Y-67048095D01*
X147290761Y-67286190D02*
X147005047Y-67286190D01*
X147147904Y-67286190D02*
X147147904Y-66786190D01*
X147100285Y-66857619D01*
X147052666Y-66905238D01*
X147005047Y-66929047D01*
X147481238Y-66833809D02*
X147505047Y-66810000D01*
X147552666Y-66786190D01*
X147671714Y-66786190D01*
X147719333Y-66810000D01*
X147743142Y-66833809D01*
X147766952Y-66881428D01*
X147766952Y-66929047D01*
X147743142Y-67000476D01*
X147457428Y-67286190D01*
X147766952Y-67286190D01*
D13*
%TO.C,R9*%
X199461523Y-91859714D02*
X199461523Y-92526380D01*
X199223428Y-91478761D02*
X198985333Y-92193047D01*
X199604380Y-92193047D01*
X199890095Y-91526380D02*
X200556761Y-91526380D01*
X200128190Y-92526380D01*
X200937714Y-92526380D02*
X200937714Y-91526380D01*
X201032952Y-92145428D02*
X201318666Y-92526380D01*
X201318666Y-91859714D02*
X200937714Y-92240666D01*
D14*
X200068666Y-90650190D02*
X199902000Y-90412095D01*
X199782952Y-90650190D02*
X199782952Y-90150190D01*
X199973428Y-90150190D01*
X200021047Y-90174000D01*
X200044857Y-90197809D01*
X200068666Y-90245428D01*
X200068666Y-90316857D01*
X200044857Y-90364476D01*
X200021047Y-90388285D01*
X199973428Y-90412095D01*
X199782952Y-90412095D01*
X200306761Y-90650190D02*
X200402000Y-90650190D01*
X200449619Y-90626380D01*
X200473428Y-90602571D01*
X200521047Y-90531142D01*
X200544857Y-90435904D01*
X200544857Y-90245428D01*
X200521047Y-90197809D01*
X200497238Y-90174000D01*
X200449619Y-90150190D01*
X200354380Y-90150190D01*
X200306761Y-90174000D01*
X200282952Y-90197809D01*
X200259142Y-90245428D01*
X200259142Y-90364476D01*
X200282952Y-90412095D01*
X200306761Y-90435904D01*
X200354380Y-90459714D01*
X200449619Y-90459714D01*
X200497238Y-90435904D01*
X200521047Y-90412095D01*
X200544857Y-90364476D01*
D13*
%TO.C,R10*%
X77525523Y-88811714D02*
X77525523Y-89478380D01*
X77287428Y-88430761D02*
X77049333Y-89145047D01*
X77668380Y-89145047D01*
X77954095Y-88478380D02*
X78620761Y-88478380D01*
X78192190Y-89478380D01*
X79001714Y-89478380D02*
X79001714Y-88478380D01*
X79096952Y-89097428D02*
X79382666Y-89478380D01*
X79382666Y-88811714D02*
X79001714Y-89192666D01*
D14*
X77894571Y-87602190D02*
X77727904Y-87364095D01*
X77608857Y-87602190D02*
X77608857Y-87102190D01*
X77799333Y-87102190D01*
X77846952Y-87126000D01*
X77870761Y-87149809D01*
X77894571Y-87197428D01*
X77894571Y-87268857D01*
X77870761Y-87316476D01*
X77846952Y-87340285D01*
X77799333Y-87364095D01*
X77608857Y-87364095D01*
X78370761Y-87602190D02*
X78085047Y-87602190D01*
X78227904Y-87602190D02*
X78227904Y-87102190D01*
X78180285Y-87173619D01*
X78132666Y-87221238D01*
X78085047Y-87245047D01*
X78680285Y-87102190D02*
X78727904Y-87102190D01*
X78775523Y-87126000D01*
X78799333Y-87149809D01*
X78823142Y-87197428D01*
X78846952Y-87292666D01*
X78846952Y-87411714D01*
X78823142Y-87506952D01*
X78799333Y-87554571D01*
X78775523Y-87578380D01*
X78727904Y-87602190D01*
X78680285Y-87602190D01*
X78632666Y-87578380D01*
X78608857Y-87554571D01*
X78585047Y-87506952D01*
X78561238Y-87411714D01*
X78561238Y-87292666D01*
X78585047Y-87197428D01*
X78608857Y-87149809D01*
X78632666Y-87126000D01*
X78680285Y-87102190D01*
D13*
%TO.C,TP2*%
X127038666Y-63254380D02*
X127610095Y-63254380D01*
X127324380Y-64254380D02*
X127324380Y-63254380D01*
X128324380Y-64206761D02*
X128229142Y-64254380D01*
X128038666Y-64254380D01*
X127943428Y-64206761D01*
X127895809Y-64111523D01*
X127895809Y-63730571D01*
X127943428Y-63635333D01*
X128038666Y-63587714D01*
X128229142Y-63587714D01*
X128324380Y-63635333D01*
X128372000Y-63730571D01*
X128372000Y-63825809D01*
X127895809Y-63921047D01*
X128752952Y-64206761D02*
X128848190Y-64254380D01*
X129038666Y-64254380D01*
X129133904Y-64206761D01*
X129181523Y-64111523D01*
X129181523Y-64063904D01*
X129133904Y-63968666D01*
X129038666Y-63921047D01*
X128895809Y-63921047D01*
X128800571Y-63873428D01*
X128752952Y-63778190D01*
X128752952Y-63730571D01*
X128800571Y-63635333D01*
X128895809Y-63587714D01*
X129038666Y-63587714D01*
X129133904Y-63635333D01*
X129467238Y-63587714D02*
X129848190Y-63587714D01*
X129610095Y-63254380D02*
X129610095Y-64111523D01*
X129657714Y-64206761D01*
X129752952Y-64254380D01*
X129848190Y-64254380D01*
X130181523Y-64254380D02*
X130181523Y-63254380D01*
X130562476Y-63254380D01*
X130657714Y-63302000D01*
X130705333Y-63349619D01*
X130752952Y-63444857D01*
X130752952Y-63587714D01*
X130705333Y-63682952D01*
X130657714Y-63730571D01*
X130562476Y-63778190D01*
X130181523Y-63778190D01*
X131324380Y-64254380D02*
X131229142Y-64206761D01*
X131181523Y-64159142D01*
X131133904Y-64063904D01*
X131133904Y-63778190D01*
X131181523Y-63682952D01*
X131229142Y-63635333D01*
X131324380Y-63587714D01*
X131467238Y-63587714D01*
X131562476Y-63635333D01*
X131610095Y-63682952D01*
X131657714Y-63778190D01*
X131657714Y-64063904D01*
X131610095Y-64159142D01*
X131562476Y-64206761D01*
X131467238Y-64254380D01*
X131324380Y-64254380D01*
X132086285Y-64254380D02*
X132086285Y-63587714D01*
X132086285Y-63254380D02*
X132038666Y-63302000D01*
X132086285Y-63349619D01*
X132133904Y-63302000D01*
X132086285Y-63254380D01*
X132086285Y-63349619D01*
X132562476Y-63587714D02*
X132562476Y-64254380D01*
X132562476Y-63682952D02*
X132610095Y-63635333D01*
X132705333Y-63587714D01*
X132848190Y-63587714D01*
X132943428Y-63635333D01*
X132991047Y-63730571D01*
X132991047Y-64254380D01*
X133324380Y-63587714D02*
X133705333Y-63587714D01*
X133467238Y-63254380D02*
X133467238Y-64111523D01*
X133514857Y-64206761D01*
X133610095Y-64254380D01*
X133705333Y-64254380D01*
X129824380Y-62733904D02*
X129824380Y-62162476D01*
X130824380Y-62448190D02*
X129824380Y-62448190D01*
X130824380Y-61829142D02*
X129824380Y-61829142D01*
X129824380Y-61448190D01*
X129872000Y-61352952D01*
X129919619Y-61305333D01*
X130014857Y-61257714D01*
X130157714Y-61257714D01*
X130252952Y-61305333D01*
X130300571Y-61352952D01*
X130348190Y-61448190D01*
X130348190Y-61829142D01*
X129919619Y-60876761D02*
X129872000Y-60829142D01*
X129824380Y-60733904D01*
X129824380Y-60495809D01*
X129872000Y-60400571D01*
X129919619Y-60352952D01*
X130014857Y-60305333D01*
X130110095Y-60305333D01*
X130252952Y-60352952D01*
X130824380Y-60924380D01*
X130824380Y-60305333D01*
%TO.C,TP1*%
X94694666Y-30230380D02*
X95266095Y-30230380D01*
X94980380Y-31230380D02*
X94980380Y-30230380D01*
X95980380Y-31182761D02*
X95885142Y-31230380D01*
X95694666Y-31230380D01*
X95599428Y-31182761D01*
X95551809Y-31087523D01*
X95551809Y-30706571D01*
X95599428Y-30611333D01*
X95694666Y-30563714D01*
X95885142Y-30563714D01*
X95980380Y-30611333D01*
X96028000Y-30706571D01*
X96028000Y-30801809D01*
X95551809Y-30897047D01*
X96408952Y-31182761D02*
X96504190Y-31230380D01*
X96694666Y-31230380D01*
X96789904Y-31182761D01*
X96837523Y-31087523D01*
X96837523Y-31039904D01*
X96789904Y-30944666D01*
X96694666Y-30897047D01*
X96551809Y-30897047D01*
X96456571Y-30849428D01*
X96408952Y-30754190D01*
X96408952Y-30706571D01*
X96456571Y-30611333D01*
X96551809Y-30563714D01*
X96694666Y-30563714D01*
X96789904Y-30611333D01*
X97123238Y-30563714D02*
X97504190Y-30563714D01*
X97266095Y-30230380D02*
X97266095Y-31087523D01*
X97313714Y-31182761D01*
X97408952Y-31230380D01*
X97504190Y-31230380D01*
X97837523Y-31230380D02*
X97837523Y-30230380D01*
X98218476Y-30230380D01*
X98313714Y-30278000D01*
X98361333Y-30325619D01*
X98408952Y-30420857D01*
X98408952Y-30563714D01*
X98361333Y-30658952D01*
X98313714Y-30706571D01*
X98218476Y-30754190D01*
X97837523Y-30754190D01*
X98980380Y-31230380D02*
X98885142Y-31182761D01*
X98837523Y-31135142D01*
X98789904Y-31039904D01*
X98789904Y-30754190D01*
X98837523Y-30658952D01*
X98885142Y-30611333D01*
X98980380Y-30563714D01*
X99123238Y-30563714D01*
X99218476Y-30611333D01*
X99266095Y-30658952D01*
X99313714Y-30754190D01*
X99313714Y-31039904D01*
X99266095Y-31135142D01*
X99218476Y-31182761D01*
X99123238Y-31230380D01*
X98980380Y-31230380D01*
X99742285Y-31230380D02*
X99742285Y-30563714D01*
X99742285Y-30230380D02*
X99694666Y-30278000D01*
X99742285Y-30325619D01*
X99789904Y-30278000D01*
X99742285Y-30230380D01*
X99742285Y-30325619D01*
X100218476Y-30563714D02*
X100218476Y-31230380D01*
X100218476Y-30658952D02*
X100266095Y-30611333D01*
X100361333Y-30563714D01*
X100504190Y-30563714D01*
X100599428Y-30611333D01*
X100647047Y-30706571D01*
X100647047Y-31230380D01*
X100980380Y-30563714D02*
X101361333Y-30563714D01*
X101123238Y-30230380D02*
X101123238Y-31087523D01*
X101170857Y-31182761D01*
X101266095Y-31230380D01*
X101361333Y-31230380D01*
X97480380Y-29709904D02*
X97480380Y-29138476D01*
X98480380Y-29424190D02*
X97480380Y-29424190D01*
X98480380Y-28805142D02*
X97480380Y-28805142D01*
X97480380Y-28424190D01*
X97528000Y-28328952D01*
X97575619Y-28281333D01*
X97670857Y-28233714D01*
X97813714Y-28233714D01*
X97908952Y-28281333D01*
X97956571Y-28328952D01*
X98004190Y-28424190D01*
X98004190Y-28805142D01*
X98480380Y-27281333D02*
X98480380Y-27852761D01*
X98480380Y-27567047D02*
X97480380Y-27567047D01*
X97623238Y-27662285D01*
X97718476Y-27757523D01*
X97766095Y-27852761D01*
%TO.C,R22*%
X82733619Y-58808761D02*
X82686000Y-58761142D01*
X82638380Y-58665904D01*
X82638380Y-58427809D01*
X82686000Y-58332571D01*
X82733619Y-58284952D01*
X82828857Y-58237333D01*
X82924095Y-58237333D01*
X83066952Y-58284952D01*
X83638380Y-58856380D01*
X83638380Y-58237333D01*
X83543142Y-57808761D02*
X83590761Y-57761142D01*
X83638380Y-57808761D01*
X83590761Y-57856380D01*
X83543142Y-57808761D01*
X83638380Y-57808761D01*
X82638380Y-57427809D02*
X82638380Y-56761142D01*
X83638380Y-57189714D01*
X83638380Y-56380190D02*
X82638380Y-56380190D01*
X83257428Y-56284952D02*
X83638380Y-55999238D01*
X82971714Y-55999238D02*
X83352666Y-56380190D01*
D14*
X85062190Y-57725428D02*
X84824095Y-57892095D01*
X85062190Y-58011142D02*
X84562190Y-58011142D01*
X84562190Y-57820666D01*
X84586000Y-57773047D01*
X84609809Y-57749238D01*
X84657428Y-57725428D01*
X84728857Y-57725428D01*
X84776476Y-57749238D01*
X84800285Y-57773047D01*
X84824095Y-57820666D01*
X84824095Y-58011142D01*
X84609809Y-57534952D02*
X84586000Y-57511142D01*
X84562190Y-57463523D01*
X84562190Y-57344476D01*
X84586000Y-57296857D01*
X84609809Y-57273047D01*
X84657428Y-57249238D01*
X84705047Y-57249238D01*
X84776476Y-57273047D01*
X85062190Y-57558761D01*
X85062190Y-57249238D01*
X84609809Y-57058761D02*
X84586000Y-57034952D01*
X84562190Y-56987333D01*
X84562190Y-56868285D01*
X84586000Y-56820666D01*
X84609809Y-56796857D01*
X84657428Y-56773047D01*
X84705047Y-56773047D01*
X84776476Y-56796857D01*
X85062190Y-57082571D01*
X85062190Y-56773047D01*
D13*
%TO.C,R16*%
X157806380Y-125055238D02*
X157806380Y-125626666D01*
X157806380Y-125340952D02*
X156806380Y-125340952D01*
X156949238Y-125436190D01*
X157044476Y-125531428D01*
X157092095Y-125626666D01*
X156806380Y-124436190D02*
X156806380Y-124340952D01*
X156854000Y-124245714D01*
X156901619Y-124198095D01*
X156996857Y-124150476D01*
X157187333Y-124102857D01*
X157425428Y-124102857D01*
X157615904Y-124150476D01*
X157711142Y-124198095D01*
X157758761Y-124245714D01*
X157806380Y-124340952D01*
X157806380Y-124436190D01*
X157758761Y-124531428D01*
X157711142Y-124579047D01*
X157615904Y-124626666D01*
X157425428Y-124674285D01*
X157187333Y-124674285D01*
X156996857Y-124626666D01*
X156901619Y-124579047D01*
X156854000Y-124531428D01*
X156806380Y-124436190D01*
X157806380Y-123674285D02*
X156806380Y-123674285D01*
X157425428Y-123579047D02*
X157806380Y-123293333D01*
X157139714Y-123293333D02*
X157520666Y-123674285D01*
D14*
X159230190Y-124781428D02*
X158992095Y-124948095D01*
X159230190Y-125067142D02*
X158730190Y-125067142D01*
X158730190Y-124876666D01*
X158754000Y-124829047D01*
X158777809Y-124805238D01*
X158825428Y-124781428D01*
X158896857Y-124781428D01*
X158944476Y-124805238D01*
X158968285Y-124829047D01*
X158992095Y-124876666D01*
X158992095Y-125067142D01*
X159230190Y-124305238D02*
X159230190Y-124590952D01*
X159230190Y-124448095D02*
X158730190Y-124448095D01*
X158801619Y-124495714D01*
X158849238Y-124543333D01*
X158873047Y-124590952D01*
X158730190Y-123876666D02*
X158730190Y-123971904D01*
X158754000Y-124019523D01*
X158777809Y-124043333D01*
X158849238Y-124090952D01*
X158944476Y-124114761D01*
X159134952Y-124114761D01*
X159182571Y-124090952D01*
X159206380Y-124067142D01*
X159230190Y-124019523D01*
X159230190Y-123924285D01*
X159206380Y-123876666D01*
X159182571Y-123852857D01*
X159134952Y-123829047D01*
X159015904Y-123829047D01*
X158968285Y-123852857D01*
X158944476Y-123876666D01*
X158920666Y-123924285D01*
X158920666Y-124019523D01*
X158944476Y-124067142D01*
X158968285Y-124090952D01*
X159015904Y-124114761D01*
D13*
%TO.C,R4*%
X190841523Y-80939714D02*
X190841523Y-81606380D01*
X190603428Y-80558761D02*
X190365333Y-81273047D01*
X190984380Y-81273047D01*
X191270095Y-80606380D02*
X191936761Y-80606380D01*
X191508190Y-81606380D01*
X192317714Y-81606380D02*
X192317714Y-80606380D01*
X192412952Y-81225428D02*
X192698666Y-81606380D01*
X192698666Y-80939714D02*
X192317714Y-81320666D01*
D14*
X191448666Y-83030190D02*
X191282000Y-82792095D01*
X191162952Y-83030190D02*
X191162952Y-82530190D01*
X191353428Y-82530190D01*
X191401047Y-82554000D01*
X191424857Y-82577809D01*
X191448666Y-82625428D01*
X191448666Y-82696857D01*
X191424857Y-82744476D01*
X191401047Y-82768285D01*
X191353428Y-82792095D01*
X191162952Y-82792095D01*
X191877238Y-82696857D02*
X191877238Y-83030190D01*
X191758190Y-82506380D02*
X191639142Y-82863523D01*
X191948666Y-82863523D01*
D13*
%TO.C,R15*%
X160090380Y-121173714D02*
X160090380Y-120554666D01*
X160471333Y-120888000D01*
X160471333Y-120745142D01*
X160518952Y-120649904D01*
X160566571Y-120602285D01*
X160661809Y-120554666D01*
X160899904Y-120554666D01*
X160995142Y-120602285D01*
X161042761Y-120649904D01*
X161090380Y-120745142D01*
X161090380Y-121030857D01*
X161042761Y-121126095D01*
X160995142Y-121173714D01*
X160090380Y-120221333D02*
X160090380Y-119602285D01*
X160471333Y-119935619D01*
X160471333Y-119792761D01*
X160518952Y-119697523D01*
X160566571Y-119649904D01*
X160661809Y-119602285D01*
X160899904Y-119602285D01*
X160995142Y-119649904D01*
X161042761Y-119697523D01*
X161090380Y-119792761D01*
X161090380Y-120078476D01*
X161042761Y-120173714D01*
X160995142Y-120221333D01*
X160090380Y-118983238D02*
X160090380Y-118888000D01*
X160138000Y-118792761D01*
X160185619Y-118745142D01*
X160280857Y-118697523D01*
X160471333Y-118649904D01*
X160709428Y-118649904D01*
X160899904Y-118697523D01*
X160995142Y-118745142D01*
X161042761Y-118792761D01*
X161090380Y-118888000D01*
X161090380Y-118983238D01*
X161042761Y-119078476D01*
X160995142Y-119126095D01*
X160899904Y-119173714D01*
X160709428Y-119221333D01*
X160471333Y-119221333D01*
X160280857Y-119173714D01*
X160185619Y-119126095D01*
X160138000Y-119078476D01*
X160090380Y-118983238D01*
D14*
X159214190Y-120209428D02*
X158976095Y-120376095D01*
X159214190Y-120495142D02*
X158714190Y-120495142D01*
X158714190Y-120304666D01*
X158738000Y-120257047D01*
X158761809Y-120233238D01*
X158809428Y-120209428D01*
X158880857Y-120209428D01*
X158928476Y-120233238D01*
X158952285Y-120257047D01*
X158976095Y-120304666D01*
X158976095Y-120495142D01*
X159214190Y-119733238D02*
X159214190Y-120018952D01*
X159214190Y-119876095D02*
X158714190Y-119876095D01*
X158785619Y-119923714D01*
X158833238Y-119971333D01*
X158857047Y-120018952D01*
X158714190Y-119280857D02*
X158714190Y-119518952D01*
X158952285Y-119542761D01*
X158928476Y-119518952D01*
X158904666Y-119471333D01*
X158904666Y-119352285D01*
X158928476Y-119304666D01*
X158952285Y-119280857D01*
X158999904Y-119257047D01*
X159118952Y-119257047D01*
X159166571Y-119280857D01*
X159190380Y-119304666D01*
X159214190Y-119352285D01*
X159214190Y-119471333D01*
X159190380Y-119518952D01*
X159166571Y-119542761D01*
D13*
%TO.C,C6*%
X204504023Y-84841142D02*
X204456404Y-84888761D01*
X204313547Y-84936380D01*
X204218309Y-84936380D01*
X204075452Y-84888761D01*
X203980214Y-84793523D01*
X203932595Y-84698285D01*
X203884976Y-84507809D01*
X203884976Y-84364952D01*
X203932595Y-84174476D01*
X203980214Y-84079238D01*
X204075452Y-83984000D01*
X204218309Y-83936380D01*
X204313547Y-83936380D01*
X204456404Y-83984000D01*
X204504023Y-84031619D01*
D14*
X204111166Y-82982571D02*
X204087357Y-83006380D01*
X204015928Y-83030190D01*
X203968309Y-83030190D01*
X203896880Y-83006380D01*
X203849261Y-82958761D01*
X203825452Y-82911142D01*
X203801642Y-82815904D01*
X203801642Y-82744476D01*
X203825452Y-82649238D01*
X203849261Y-82601619D01*
X203896880Y-82554000D01*
X203968309Y-82530190D01*
X204015928Y-82530190D01*
X204087357Y-82554000D01*
X204111166Y-82577809D01*
X204539738Y-82530190D02*
X204444500Y-82530190D01*
X204396880Y-82554000D01*
X204373071Y-82577809D01*
X204325452Y-82649238D01*
X204301642Y-82744476D01*
X204301642Y-82934952D01*
X204325452Y-82982571D01*
X204349261Y-83006380D01*
X204396880Y-83030190D01*
X204492119Y-83030190D01*
X204539738Y-83006380D01*
X204563547Y-82982571D01*
X204587357Y-82934952D01*
X204587357Y-82815904D01*
X204563547Y-82768285D01*
X204539738Y-82744476D01*
X204492119Y-82720666D01*
X204396880Y-82720666D01*
X204349261Y-82744476D01*
X204325452Y-82768285D01*
X204301642Y-82815904D01*
D13*
%TO.C,C8*%
X76023023Y-84333142D02*
X75975404Y-84380761D01*
X75832547Y-84428380D01*
X75737309Y-84428380D01*
X75594452Y-84380761D01*
X75499214Y-84285523D01*
X75451595Y-84190285D01*
X75403976Y-83999809D01*
X75403976Y-83856952D01*
X75451595Y-83666476D01*
X75499214Y-83571238D01*
X75594452Y-83476000D01*
X75737309Y-83428380D01*
X75832547Y-83428380D01*
X75975404Y-83476000D01*
X76023023Y-83523619D01*
D14*
X75630166Y-82474571D02*
X75606357Y-82498380D01*
X75534928Y-82522190D01*
X75487309Y-82522190D01*
X75415880Y-82498380D01*
X75368261Y-82450761D01*
X75344452Y-82403142D01*
X75320642Y-82307904D01*
X75320642Y-82236476D01*
X75344452Y-82141238D01*
X75368261Y-82093619D01*
X75415880Y-82046000D01*
X75487309Y-82022190D01*
X75534928Y-82022190D01*
X75606357Y-82046000D01*
X75630166Y-82069809D01*
X75915880Y-82236476D02*
X75868261Y-82212666D01*
X75844452Y-82188857D01*
X75820642Y-82141238D01*
X75820642Y-82117428D01*
X75844452Y-82069809D01*
X75868261Y-82046000D01*
X75915880Y-82022190D01*
X76011119Y-82022190D01*
X76058738Y-82046000D01*
X76082547Y-82069809D01*
X76106357Y-82117428D01*
X76106357Y-82141238D01*
X76082547Y-82188857D01*
X76058738Y-82212666D01*
X76011119Y-82236476D01*
X75915880Y-82236476D01*
X75868261Y-82260285D01*
X75844452Y-82284095D01*
X75820642Y-82331714D01*
X75820642Y-82426952D01*
X75844452Y-82474571D01*
X75868261Y-82498380D01*
X75915880Y-82522190D01*
X76011119Y-82522190D01*
X76058738Y-82498380D01*
X76082547Y-82474571D01*
X76106357Y-82426952D01*
X76106357Y-82331714D01*
X76082547Y-82284095D01*
X76058738Y-82260285D01*
X76011119Y-82236476D01*
D13*
%TO.C,RV2*%
X150572952Y-66082380D02*
X150001523Y-66082380D01*
X150287238Y-66082380D02*
X150287238Y-65082380D01*
X150192000Y-65225238D01*
X150096761Y-65320476D01*
X150001523Y-65368095D01*
X151001523Y-66082380D02*
X151001523Y-65082380D01*
X151096761Y-65701428D02*
X151382476Y-66082380D01*
X151382476Y-65415714D02*
X151001523Y-65796666D01*
X150096761Y-62432380D02*
X149763428Y-61956190D01*
X149525333Y-62432380D02*
X149525333Y-61432380D01*
X149906285Y-61432380D01*
X150001523Y-61480000D01*
X150049142Y-61527619D01*
X150096761Y-61622857D01*
X150096761Y-61765714D01*
X150049142Y-61860952D01*
X150001523Y-61908571D01*
X149906285Y-61956190D01*
X149525333Y-61956190D01*
X150382476Y-61432380D02*
X150715809Y-62432380D01*
X151049142Y-61432380D01*
X151334857Y-61527619D02*
X151382476Y-61480000D01*
X151477714Y-61432380D01*
X151715809Y-61432380D01*
X151811047Y-61480000D01*
X151858666Y-61527619D01*
X151906285Y-61622857D01*
X151906285Y-61718095D01*
X151858666Y-61860952D01*
X151287238Y-62432380D01*
X151906285Y-62432380D01*
%TO.C,U7*%
X41664761Y-36592380D02*
X41188571Y-36592380D01*
X41188571Y-35592380D01*
X41998095Y-36592380D02*
X41998095Y-35592380D01*
X42236190Y-35592380D01*
X42379047Y-35640000D01*
X42474285Y-35735238D01*
X42521904Y-35830476D01*
X42569523Y-36020952D01*
X42569523Y-36163809D01*
X42521904Y-36354285D01*
X42474285Y-36449523D01*
X42379047Y-36544761D01*
X42236190Y-36592380D01*
X41998095Y-36592380D01*
X43521904Y-36592380D02*
X42950476Y-36592380D01*
X43236190Y-36592380D02*
X43236190Y-35592380D01*
X43140952Y-35735238D01*
X43045714Y-35830476D01*
X42950476Y-35878095D01*
X44474285Y-36592380D02*
X43902857Y-36592380D01*
X44188571Y-36592380D02*
X44188571Y-35592380D01*
X44093333Y-35735238D01*
X43998095Y-35830476D01*
X43902857Y-35878095D01*
X45426666Y-36592380D02*
X44855238Y-36592380D01*
X45140952Y-36592380D02*
X45140952Y-35592380D01*
X45045714Y-35735238D01*
X44950476Y-35830476D01*
X44855238Y-35878095D01*
X45760000Y-35592380D02*
X46426666Y-35592380D01*
X45998095Y-36592380D01*
X46760000Y-36544761D02*
X46902857Y-36592380D01*
X47140952Y-36592380D01*
X47236190Y-36544761D01*
X47283809Y-36497142D01*
X47331428Y-36401904D01*
X47331428Y-36306666D01*
X47283809Y-36211428D01*
X47236190Y-36163809D01*
X47140952Y-36116190D01*
X46950476Y-36068571D01*
X46855238Y-36020952D01*
X46807619Y-35973333D01*
X46760000Y-35878095D01*
X46760000Y-35782857D01*
X46807619Y-35687619D01*
X46855238Y-35640000D01*
X46950476Y-35592380D01*
X47188571Y-35592380D01*
X47331428Y-35640000D01*
X48236190Y-35592380D02*
X47760000Y-35592380D01*
X47712380Y-36068571D01*
X47760000Y-36020952D01*
X47855238Y-35973333D01*
X48093333Y-35973333D01*
X48188571Y-36020952D01*
X48236190Y-36068571D01*
X48283809Y-36163809D01*
X48283809Y-36401904D01*
X48236190Y-36497142D01*
X48188571Y-36544761D01*
X48093333Y-36592380D01*
X47855238Y-36592380D01*
X47760000Y-36544761D01*
X47712380Y-36497142D01*
X48902857Y-35592380D02*
X48998095Y-35592380D01*
X49093333Y-35640000D01*
X49140952Y-35687619D01*
X49188571Y-35782857D01*
X49236190Y-35973333D01*
X49236190Y-36211428D01*
X49188571Y-36401904D01*
X49140952Y-36497142D01*
X49093333Y-36544761D01*
X48998095Y-36592380D01*
X48902857Y-36592380D01*
X48807619Y-36544761D01*
X48760000Y-36497142D01*
X48712380Y-36401904D01*
X48664761Y-36211428D01*
X48664761Y-35973333D01*
X48712380Y-35782857D01*
X48760000Y-35687619D01*
X48807619Y-35640000D01*
X48902857Y-35592380D01*
X49521904Y-35592380D02*
X50093333Y-35592380D01*
X49807619Y-36592380D02*
X49807619Y-35592380D01*
X50998095Y-36592380D02*
X50664761Y-36116190D01*
X50426666Y-36592380D02*
X50426666Y-35592380D01*
X50807619Y-35592380D01*
X50902857Y-35640000D01*
X50950476Y-35687619D01*
X50998095Y-35782857D01*
X50998095Y-35925714D01*
X50950476Y-36020952D01*
X50902857Y-36068571D01*
X50807619Y-36116190D01*
X50426666Y-36116190D01*
X51188571Y-36687619D02*
X51950476Y-36687619D01*
X52140952Y-36544761D02*
X52283809Y-36592380D01*
X52521904Y-36592380D01*
X52617142Y-36544761D01*
X52664761Y-36497142D01*
X52712380Y-36401904D01*
X52712380Y-36306666D01*
X52664761Y-36211428D01*
X52617142Y-36163809D01*
X52521904Y-36116190D01*
X52331428Y-36068571D01*
X52236190Y-36020952D01*
X52188571Y-35973333D01*
X52140952Y-35878095D01*
X52140952Y-35782857D01*
X52188571Y-35687619D01*
X52236190Y-35640000D01*
X52331428Y-35592380D01*
X52569523Y-35592380D01*
X52712380Y-35640000D01*
X53331428Y-35592380D02*
X53521904Y-35592380D01*
X53617142Y-35640000D01*
X53712380Y-35735238D01*
X53760000Y-35925714D01*
X53760000Y-36259047D01*
X53712380Y-36449523D01*
X53617142Y-36544761D01*
X53521904Y-36592380D01*
X53331428Y-36592380D01*
X53236190Y-36544761D01*
X53140952Y-36449523D01*
X53093333Y-36259047D01*
X53093333Y-35925714D01*
X53140952Y-35735238D01*
X53236190Y-35640000D01*
X53331428Y-35592380D01*
X54045714Y-35592380D02*
X54617142Y-35592380D01*
X54331428Y-36592380D02*
X54331428Y-35592380D01*
X54902857Y-35687619D02*
X54950476Y-35640000D01*
X55045714Y-35592380D01*
X55283809Y-35592380D01*
X55379047Y-35640000D01*
X55426666Y-35687619D01*
X55474285Y-35782857D01*
X55474285Y-35878095D01*
X55426666Y-36020952D01*
X54855238Y-36592380D01*
X55474285Y-36592380D01*
X55855238Y-35687619D02*
X55902857Y-35640000D01*
X55998095Y-35592380D01*
X56236190Y-35592380D01*
X56331428Y-35640000D01*
X56379047Y-35687619D01*
X56426666Y-35782857D01*
X56426666Y-35878095D01*
X56379047Y-36020952D01*
X55807619Y-36592380D01*
X56426666Y-36592380D01*
X56760000Y-35592380D02*
X57379047Y-35592380D01*
X57045714Y-35973333D01*
X57188571Y-35973333D01*
X57283809Y-36020952D01*
X57331428Y-36068571D01*
X57379047Y-36163809D01*
X57379047Y-36401904D01*
X57331428Y-36497142D01*
X57283809Y-36544761D01*
X57188571Y-36592380D01*
X56902857Y-36592380D01*
X56807619Y-36544761D01*
X56760000Y-36497142D01*
D16*
X48821904Y-41249523D02*
X49469523Y-41249523D01*
X49545714Y-41211428D01*
X49583809Y-41173333D01*
X49621904Y-41097142D01*
X49621904Y-40944761D01*
X49583809Y-40868571D01*
X49545714Y-40830476D01*
X49469523Y-40792380D01*
X48821904Y-40792380D01*
X48821904Y-40487619D02*
X48821904Y-39954285D01*
X49621904Y-40297142D01*
D13*
%TO.C,U4*%
X163884666Y-66238380D02*
X163408476Y-66238380D01*
X163408476Y-65238380D01*
X164218000Y-66238380D02*
X164218000Y-65238380D01*
X164551333Y-65952666D01*
X164884666Y-65238380D01*
X164884666Y-66238380D01*
X165265619Y-65238380D02*
X165884666Y-65238380D01*
X165551333Y-65619333D01*
X165694190Y-65619333D01*
X165789428Y-65666952D01*
X165837047Y-65714571D01*
X165884666Y-65809809D01*
X165884666Y-66047904D01*
X165837047Y-66143142D01*
X165789428Y-66190761D01*
X165694190Y-66238380D01*
X165408476Y-66238380D01*
X165313238Y-66190761D01*
X165265619Y-66143142D01*
X166837047Y-66238380D02*
X166265619Y-66238380D01*
X166551333Y-66238380D02*
X166551333Y-65238380D01*
X166456095Y-65381238D01*
X166360857Y-65476476D01*
X166265619Y-65524095D01*
X167170380Y-65238380D02*
X167837047Y-65238380D01*
X167408476Y-66238380D01*
X168694190Y-66238380D02*
X168218000Y-66238380D01*
X168218000Y-65238380D01*
X168789428Y-66333619D02*
X169551333Y-66333619D01*
X169646571Y-65238380D02*
X170218000Y-65238380D01*
X169932285Y-66238380D02*
X169932285Y-65238380D01*
X170741809Y-65238380D02*
X170932285Y-65238380D01*
X171027523Y-65286000D01*
X171122761Y-65381238D01*
X171170380Y-65571714D01*
X171170380Y-65905047D01*
X171122761Y-66095523D01*
X171027523Y-66190761D01*
X170932285Y-66238380D01*
X170741809Y-66238380D01*
X170646571Y-66190761D01*
X170551333Y-66095523D01*
X170503714Y-65905047D01*
X170503714Y-65571714D01*
X170551333Y-65381238D01*
X170646571Y-65286000D01*
X170741809Y-65238380D01*
X171646571Y-66238380D02*
X171837047Y-66238380D01*
X171932285Y-66190761D01*
X171979904Y-66143142D01*
X172075142Y-66000285D01*
X172122761Y-65809809D01*
X172122761Y-65428857D01*
X172075142Y-65333619D01*
X172027523Y-65286000D01*
X171932285Y-65238380D01*
X171741809Y-65238380D01*
X171646571Y-65286000D01*
X171598952Y-65333619D01*
X171551333Y-65428857D01*
X171551333Y-65666952D01*
X171598952Y-65762190D01*
X171646571Y-65809809D01*
X171741809Y-65857428D01*
X171932285Y-65857428D01*
X172027523Y-65809809D01*
X172075142Y-65762190D01*
X172122761Y-65666952D01*
X172503714Y-65333619D02*
X172551333Y-65286000D01*
X172646571Y-65238380D01*
X172884666Y-65238380D01*
X172979904Y-65286000D01*
X173027523Y-65333619D01*
X173075142Y-65428857D01*
X173075142Y-65524095D01*
X173027523Y-65666952D01*
X172456095Y-66238380D01*
X173075142Y-66238380D01*
X167456095Y-62448380D02*
X167456095Y-63257904D01*
X167503714Y-63353142D01*
X167551333Y-63400761D01*
X167646571Y-63448380D01*
X167837047Y-63448380D01*
X167932285Y-63400761D01*
X167979904Y-63353142D01*
X168027523Y-63257904D01*
X168027523Y-62448380D01*
X168932285Y-62781714D02*
X168932285Y-63448380D01*
X168694190Y-62400761D02*
X168456095Y-63115047D01*
X169075142Y-63115047D01*
%TO.C,TP4*%
X164630666Y-70366380D02*
X165202095Y-70366380D01*
X164916380Y-71366380D02*
X164916380Y-70366380D01*
X165916380Y-71318761D02*
X165821142Y-71366380D01*
X165630666Y-71366380D01*
X165535428Y-71318761D01*
X165487809Y-71223523D01*
X165487809Y-70842571D01*
X165535428Y-70747333D01*
X165630666Y-70699714D01*
X165821142Y-70699714D01*
X165916380Y-70747333D01*
X165964000Y-70842571D01*
X165964000Y-70937809D01*
X165487809Y-71033047D01*
X166344952Y-71318761D02*
X166440190Y-71366380D01*
X166630666Y-71366380D01*
X166725904Y-71318761D01*
X166773523Y-71223523D01*
X166773523Y-71175904D01*
X166725904Y-71080666D01*
X166630666Y-71033047D01*
X166487809Y-71033047D01*
X166392571Y-70985428D01*
X166344952Y-70890190D01*
X166344952Y-70842571D01*
X166392571Y-70747333D01*
X166487809Y-70699714D01*
X166630666Y-70699714D01*
X166725904Y-70747333D01*
X167059238Y-70699714D02*
X167440190Y-70699714D01*
X167202095Y-70366380D02*
X167202095Y-71223523D01*
X167249714Y-71318761D01*
X167344952Y-71366380D01*
X167440190Y-71366380D01*
X167773523Y-71366380D02*
X167773523Y-70366380D01*
X168154476Y-70366380D01*
X168249714Y-70414000D01*
X168297333Y-70461619D01*
X168344952Y-70556857D01*
X168344952Y-70699714D01*
X168297333Y-70794952D01*
X168249714Y-70842571D01*
X168154476Y-70890190D01*
X167773523Y-70890190D01*
X168916380Y-71366380D02*
X168821142Y-71318761D01*
X168773523Y-71271142D01*
X168725904Y-71175904D01*
X168725904Y-70890190D01*
X168773523Y-70794952D01*
X168821142Y-70747333D01*
X168916380Y-70699714D01*
X169059238Y-70699714D01*
X169154476Y-70747333D01*
X169202095Y-70794952D01*
X169249714Y-70890190D01*
X169249714Y-71175904D01*
X169202095Y-71271142D01*
X169154476Y-71318761D01*
X169059238Y-71366380D01*
X168916380Y-71366380D01*
X169678285Y-71366380D02*
X169678285Y-70699714D01*
X169678285Y-70366380D02*
X169630666Y-70414000D01*
X169678285Y-70461619D01*
X169725904Y-70414000D01*
X169678285Y-70366380D01*
X169678285Y-70461619D01*
X170154476Y-70699714D02*
X170154476Y-71366380D01*
X170154476Y-70794952D02*
X170202095Y-70747333D01*
X170297333Y-70699714D01*
X170440190Y-70699714D01*
X170535428Y-70747333D01*
X170583047Y-70842571D01*
X170583047Y-71366380D01*
X170916380Y-70699714D02*
X171297333Y-70699714D01*
X171059238Y-70366380D02*
X171059238Y-71223523D01*
X171106857Y-71318761D01*
X171202095Y-71366380D01*
X171297333Y-71366380D01*
X167416380Y-69845904D02*
X167416380Y-69274476D01*
X168416380Y-69560190D02*
X167416380Y-69560190D01*
X168416380Y-68941142D02*
X167416380Y-68941142D01*
X167416380Y-68560190D01*
X167464000Y-68464952D01*
X167511619Y-68417333D01*
X167606857Y-68369714D01*
X167749714Y-68369714D01*
X167844952Y-68417333D01*
X167892571Y-68464952D01*
X167940190Y-68560190D01*
X167940190Y-68941142D01*
X167749714Y-67512571D02*
X168416380Y-67512571D01*
X167368761Y-67750666D02*
X168083047Y-67988761D01*
X168083047Y-67369714D01*
%TO.C,R17*%
X142152761Y-121230380D02*
X141581333Y-121230380D01*
X141867047Y-121230380D02*
X141867047Y-120230380D01*
X141771809Y-120373238D01*
X141676571Y-120468476D01*
X141581333Y-120516095D01*
X142771809Y-120230380D02*
X142867047Y-120230380D01*
X142962285Y-120278000D01*
X143009904Y-120325619D01*
X143057523Y-120420857D01*
X143105142Y-120611333D01*
X143105142Y-120849428D01*
X143057523Y-121039904D01*
X143009904Y-121135142D01*
X142962285Y-121182761D01*
X142867047Y-121230380D01*
X142771809Y-121230380D01*
X142676571Y-121182761D01*
X142628952Y-121135142D01*
X142581333Y-121039904D01*
X142533714Y-120849428D01*
X142533714Y-120611333D01*
X142581333Y-120420857D01*
X142628952Y-120325619D01*
X142676571Y-120278000D01*
X142771809Y-120230380D01*
X143533714Y-121230380D02*
X143533714Y-120230380D01*
X143628952Y-120849428D02*
X143914666Y-121230380D01*
X143914666Y-120563714D02*
X143533714Y-120944666D01*
D14*
X142426571Y-122654190D02*
X142259904Y-122416095D01*
X142140857Y-122654190D02*
X142140857Y-122154190D01*
X142331333Y-122154190D01*
X142378952Y-122178000D01*
X142402761Y-122201809D01*
X142426571Y-122249428D01*
X142426571Y-122320857D01*
X142402761Y-122368476D01*
X142378952Y-122392285D01*
X142331333Y-122416095D01*
X142140857Y-122416095D01*
X142902761Y-122654190D02*
X142617047Y-122654190D01*
X142759904Y-122654190D02*
X142759904Y-122154190D01*
X142712285Y-122225619D01*
X142664666Y-122273238D01*
X142617047Y-122297047D01*
X143069428Y-122154190D02*
X143402761Y-122154190D01*
X143188476Y-122654190D01*
D13*
%TO.C,J2*%
X156570142Y-90610714D02*
X156617761Y-90658333D01*
X156665380Y-90801190D01*
X156665380Y-90896428D01*
X156617761Y-91039285D01*
X156522523Y-91134523D01*
X156427285Y-91182142D01*
X156236809Y-91229761D01*
X156093952Y-91229761D01*
X155903476Y-91182142D01*
X155808238Y-91134523D01*
X155713000Y-91039285D01*
X155665380Y-90896428D01*
X155665380Y-90801190D01*
X155713000Y-90658333D01*
X155760619Y-90610714D01*
X156665380Y-90039285D02*
X156617761Y-90134523D01*
X156570142Y-90182142D01*
X156474904Y-90229761D01*
X156189190Y-90229761D01*
X156093952Y-90182142D01*
X156046333Y-90134523D01*
X155998714Y-90039285D01*
X155998714Y-89896428D01*
X156046333Y-89801190D01*
X156093952Y-89753571D01*
X156189190Y-89705952D01*
X156474904Y-89705952D01*
X156570142Y-89753571D01*
X156617761Y-89801190D01*
X156665380Y-89896428D01*
X156665380Y-90039285D01*
X155998714Y-89277380D02*
X156665380Y-89277380D01*
X156093952Y-89277380D02*
X156046333Y-89229761D01*
X155998714Y-89134523D01*
X155998714Y-88991666D01*
X156046333Y-88896428D01*
X156141571Y-88848809D01*
X156665380Y-88848809D01*
X155998714Y-88372619D02*
X156665380Y-88372619D01*
X156093952Y-88372619D02*
X156046333Y-88325000D01*
X155998714Y-88229761D01*
X155998714Y-88086904D01*
X156046333Y-87991666D01*
X156141571Y-87944047D01*
X156665380Y-87944047D01*
X156760619Y-87705952D02*
X156760619Y-86944047D01*
X155665380Y-86515476D02*
X155665380Y-86420238D01*
X155713000Y-86325000D01*
X155760619Y-86277380D01*
X155855857Y-86229761D01*
X156046333Y-86182142D01*
X156284428Y-86182142D01*
X156474904Y-86229761D01*
X156570142Y-86277380D01*
X156617761Y-86325000D01*
X156665380Y-86420238D01*
X156665380Y-86515476D01*
X156617761Y-86610714D01*
X156570142Y-86658333D01*
X156474904Y-86705952D01*
X156284428Y-86753571D01*
X156046333Y-86753571D01*
X155855857Y-86705952D01*
X155760619Y-86658333D01*
X155713000Y-86610714D01*
X155665380Y-86515476D01*
X156665380Y-85229761D02*
X156665380Y-85801190D01*
X156665380Y-85515476D02*
X155665380Y-85515476D01*
X155808238Y-85610714D01*
X155903476Y-85705952D01*
X155951095Y-85801190D01*
X156665380Y-84896428D02*
X155998714Y-84372619D01*
X155998714Y-84896428D02*
X156665380Y-84372619D01*
X155665380Y-84086904D02*
X155665380Y-83467857D01*
X156046333Y-83801190D01*
X156046333Y-83658333D01*
X156093952Y-83563095D01*
X156141571Y-83515476D01*
X156236809Y-83467857D01*
X156474904Y-83467857D01*
X156570142Y-83515476D01*
X156617761Y-83563095D01*
X156665380Y-83658333D01*
X156665380Y-83944047D01*
X156617761Y-84039285D01*
X156570142Y-84086904D01*
X155665380Y-83134523D02*
X155665380Y-82515476D01*
X156046333Y-82848809D01*
X156046333Y-82705952D01*
X156093952Y-82610714D01*
X156141571Y-82563095D01*
X156236809Y-82515476D01*
X156474904Y-82515476D01*
X156570142Y-82563095D01*
X156617761Y-82610714D01*
X156665380Y-82705952D01*
X156665380Y-82991666D01*
X156617761Y-83086904D01*
X156570142Y-83134523D01*
X156760619Y-82325000D02*
X156760619Y-81563095D01*
X156141571Y-80991666D02*
X156141571Y-81325000D01*
X156665380Y-81325000D02*
X155665380Y-81325000D01*
X155665380Y-80848809D01*
X156617761Y-80086904D02*
X156665380Y-80182142D01*
X156665380Y-80372619D01*
X156617761Y-80467857D01*
X156522523Y-80515476D01*
X156141571Y-80515476D01*
X156046333Y-80467857D01*
X155998714Y-80372619D01*
X155998714Y-80182142D01*
X156046333Y-80086904D01*
X156141571Y-80039285D01*
X156236809Y-80039285D01*
X156332047Y-80515476D01*
X156665380Y-79610714D02*
X155998714Y-79610714D01*
X156093952Y-79610714D02*
X156046333Y-79563095D01*
X155998714Y-79467857D01*
X155998714Y-79325000D01*
X156046333Y-79229761D01*
X156141571Y-79182142D01*
X156665380Y-79182142D01*
X156141571Y-79182142D02*
X156046333Y-79134523D01*
X155998714Y-79039285D01*
X155998714Y-78896428D01*
X156046333Y-78801190D01*
X156141571Y-78753571D01*
X156665380Y-78753571D01*
X156665380Y-77848809D02*
X156141571Y-77848809D01*
X156046333Y-77896428D01*
X155998714Y-77991666D01*
X155998714Y-78182142D01*
X156046333Y-78277380D01*
X156617761Y-77848809D02*
X156665380Y-77944047D01*
X156665380Y-78182142D01*
X156617761Y-78277380D01*
X156522523Y-78325000D01*
X156427285Y-78325000D01*
X156332047Y-78277380D01*
X156284428Y-78182142D01*
X156284428Y-77944047D01*
X156236809Y-77848809D01*
X156665380Y-77229761D02*
X156617761Y-77325000D01*
X156522523Y-77372619D01*
X155665380Y-77372619D01*
X156617761Y-76467857D02*
X156665380Y-76563095D01*
X156665380Y-76753571D01*
X156617761Y-76848809D01*
X156522523Y-76896428D01*
X156141571Y-76896428D01*
X156046333Y-76848809D01*
X155998714Y-76753571D01*
X155998714Y-76563095D01*
X156046333Y-76467857D01*
X156141571Y-76420238D01*
X156236809Y-76420238D01*
X156332047Y-76896428D01*
X133594666Y-56377380D02*
X133594666Y-57091666D01*
X133547047Y-57234523D01*
X133451809Y-57329761D01*
X133308952Y-57377380D01*
X133213714Y-57377380D01*
X134023238Y-56472619D02*
X134070857Y-56425000D01*
X134166095Y-56377380D01*
X134404190Y-56377380D01*
X134499428Y-56425000D01*
X134547047Y-56472619D01*
X134594666Y-56567857D01*
X134594666Y-56663095D01*
X134547047Y-56805952D01*
X133975619Y-57377380D01*
X134594666Y-57377380D01*
%TO.C,D11*%
X108530380Y-135262857D02*
X108530380Y-135739047D01*
X107530380Y-135739047D01*
X108006571Y-134929523D02*
X108006571Y-134596190D01*
X108530380Y-134453333D02*
X108530380Y-134929523D01*
X107530380Y-134929523D01*
X107530380Y-134453333D01*
X108530380Y-134024761D02*
X107530380Y-134024761D01*
X107530380Y-133786666D01*
X107578000Y-133643809D01*
X107673238Y-133548571D01*
X107768476Y-133500952D01*
X107958952Y-133453333D01*
X108101809Y-133453333D01*
X108292285Y-133500952D01*
X108387523Y-133548571D01*
X108482761Y-133643809D01*
X108530380Y-133786666D01*
X108530380Y-134024761D01*
D14*
X109954190Y-135227142D02*
X109454190Y-135227142D01*
X109454190Y-135108095D01*
X109478000Y-135036666D01*
X109525619Y-134989047D01*
X109573238Y-134965238D01*
X109668476Y-134941428D01*
X109739904Y-134941428D01*
X109835142Y-134965238D01*
X109882761Y-134989047D01*
X109930380Y-135036666D01*
X109954190Y-135108095D01*
X109954190Y-135227142D01*
X109954190Y-134465238D02*
X109954190Y-134750952D01*
X109954190Y-134608095D02*
X109454190Y-134608095D01*
X109525619Y-134655714D01*
X109573238Y-134703333D01*
X109597047Y-134750952D01*
X109954190Y-133989047D02*
X109954190Y-134274761D01*
X109954190Y-134131904D02*
X109454190Y-134131904D01*
X109525619Y-134179523D01*
X109573238Y-134227142D01*
X109597047Y-134274761D01*
D13*
%TO.C,Q1*%
X87264380Y-34837333D02*
X86264380Y-34837333D01*
X87264380Y-33789714D02*
X86788190Y-34123047D01*
X87264380Y-34361142D02*
X86264380Y-34361142D01*
X86264380Y-33980190D01*
X86312000Y-33884952D01*
X86359619Y-33837333D01*
X86454857Y-33789714D01*
X86597714Y-33789714D01*
X86692952Y-33837333D01*
X86740571Y-33884952D01*
X86788190Y-33980190D01*
X86788190Y-34361142D01*
X86740571Y-33027809D02*
X86740571Y-33361142D01*
X87264380Y-33361142D02*
X86264380Y-33361142D01*
X86264380Y-32884952D01*
X86597714Y-32075428D02*
X87264380Y-32075428D01*
X86216761Y-32313523D02*
X86931047Y-32551619D01*
X86931047Y-31932571D01*
X87264380Y-31504000D02*
X87264380Y-31313523D01*
X87216761Y-31218285D01*
X87169142Y-31170666D01*
X87026285Y-31075428D01*
X86835809Y-31027809D01*
X86454857Y-31027809D01*
X86359619Y-31075428D01*
X86312000Y-31123047D01*
X86264380Y-31218285D01*
X86264380Y-31408761D01*
X86312000Y-31504000D01*
X86359619Y-31551619D01*
X86454857Y-31599238D01*
X86692952Y-31599238D01*
X86788190Y-31551619D01*
X86835809Y-31504000D01*
X86883428Y-31408761D01*
X86883428Y-31218285D01*
X86835809Y-31123047D01*
X86788190Y-31075428D01*
X86692952Y-31027809D01*
X86264380Y-30408761D02*
X86264380Y-30313523D01*
X86312000Y-30218285D01*
X86359619Y-30170666D01*
X86454857Y-30123047D01*
X86645333Y-30075428D01*
X86883428Y-30075428D01*
X87073904Y-30123047D01*
X87169142Y-30170666D01*
X87216761Y-30218285D01*
X87264380Y-30313523D01*
X87264380Y-30408761D01*
X87216761Y-30504000D01*
X87169142Y-30551619D01*
X87073904Y-30599238D01*
X86883428Y-30646857D01*
X86645333Y-30646857D01*
X86454857Y-30599238D01*
X86359619Y-30551619D01*
X86312000Y-30504000D01*
X86264380Y-30408761D01*
X86264380Y-29170666D02*
X86264380Y-29646857D01*
X86740571Y-29694476D01*
X86692952Y-29646857D01*
X86645333Y-29551619D01*
X86645333Y-29313523D01*
X86692952Y-29218285D01*
X86740571Y-29170666D01*
X86835809Y-29123047D01*
X87073904Y-29123047D01*
X87169142Y-29170666D01*
X87216761Y-29218285D01*
X87264380Y-29313523D01*
X87264380Y-29551619D01*
X87216761Y-29646857D01*
X87169142Y-29694476D01*
X80589619Y-32099238D02*
X80542000Y-32194476D01*
X80446761Y-32289714D01*
X80303904Y-32432571D01*
X80256285Y-32527809D01*
X80256285Y-32623047D01*
X80494380Y-32575428D02*
X80446761Y-32670666D01*
X80351523Y-32765904D01*
X80161047Y-32813523D01*
X79827714Y-32813523D01*
X79637238Y-32765904D01*
X79542000Y-32670666D01*
X79494380Y-32575428D01*
X79494380Y-32384952D01*
X79542000Y-32289714D01*
X79637238Y-32194476D01*
X79827714Y-32146857D01*
X80161047Y-32146857D01*
X80351523Y-32194476D01*
X80446761Y-32289714D01*
X80494380Y-32384952D01*
X80494380Y-32575428D01*
X80494380Y-31194476D02*
X80494380Y-31765904D01*
X80494380Y-31480190D02*
X79494380Y-31480190D01*
X79637238Y-31575428D01*
X79732476Y-31670666D01*
X79780095Y-31765904D01*
%TO.C,BT1*%
X124787238Y-40180571D02*
X124930095Y-40228190D01*
X124977714Y-40275809D01*
X125025333Y-40371047D01*
X125025333Y-40513904D01*
X124977714Y-40609142D01*
X124930095Y-40656761D01*
X124834857Y-40704380D01*
X124453904Y-40704380D01*
X124453904Y-39704380D01*
X124787238Y-39704380D01*
X124882476Y-39752000D01*
X124930095Y-39799619D01*
X124977714Y-39894857D01*
X124977714Y-39990095D01*
X124930095Y-40085333D01*
X124882476Y-40132952D01*
X124787238Y-40180571D01*
X124453904Y-40180571D01*
X125882476Y-40704380D02*
X125882476Y-40180571D01*
X125834857Y-40085333D01*
X125739619Y-40037714D01*
X125549142Y-40037714D01*
X125453904Y-40085333D01*
X125882476Y-40656761D02*
X125787238Y-40704380D01*
X125549142Y-40704380D01*
X125453904Y-40656761D01*
X125406285Y-40561523D01*
X125406285Y-40466285D01*
X125453904Y-40371047D01*
X125549142Y-40323428D01*
X125787238Y-40323428D01*
X125882476Y-40275809D01*
X126215809Y-40037714D02*
X126596761Y-40037714D01*
X126358666Y-39704380D02*
X126358666Y-40561523D01*
X126406285Y-40656761D01*
X126501523Y-40704380D01*
X126596761Y-40704380D01*
X126787238Y-40037714D02*
X127168190Y-40037714D01*
X126930095Y-39704380D02*
X126930095Y-40561523D01*
X126977714Y-40656761D01*
X127072952Y-40704380D01*
X127168190Y-40704380D01*
X127882476Y-40656761D02*
X127787238Y-40704380D01*
X127596761Y-40704380D01*
X127501523Y-40656761D01*
X127453904Y-40561523D01*
X127453904Y-40180571D01*
X127501523Y-40085333D01*
X127596761Y-40037714D01*
X127787238Y-40037714D01*
X127882476Y-40085333D01*
X127930095Y-40180571D01*
X127930095Y-40275809D01*
X127453904Y-40371047D01*
X128358666Y-40704380D02*
X128358666Y-40037714D01*
X128358666Y-40228190D02*
X128406285Y-40132952D01*
X128453904Y-40085333D01*
X128549142Y-40037714D01*
X128644380Y-40037714D01*
X128882476Y-40037714D02*
X129120571Y-40704380D01*
X129358666Y-40037714D02*
X129120571Y-40704380D01*
X129025333Y-40942476D01*
X128977714Y-40990095D01*
X128882476Y-41037714D01*
X129501523Y-40799619D02*
X130263428Y-40799619D01*
X131072952Y-40609142D02*
X131025333Y-40656761D01*
X130882476Y-40704380D01*
X130787238Y-40704380D01*
X130644380Y-40656761D01*
X130549142Y-40561523D01*
X130501523Y-40466285D01*
X130453904Y-40275809D01*
X130453904Y-40132952D01*
X130501523Y-39942476D01*
X130549142Y-39847238D01*
X130644380Y-39752000D01*
X130787238Y-39704380D01*
X130882476Y-39704380D01*
X131025333Y-39752000D01*
X131072952Y-39799619D01*
X131882476Y-40656761D02*
X131787238Y-40704380D01*
X131596761Y-40704380D01*
X131501523Y-40656761D01*
X131453904Y-40561523D01*
X131453904Y-40180571D01*
X131501523Y-40085333D01*
X131596761Y-40037714D01*
X131787238Y-40037714D01*
X131882476Y-40085333D01*
X131930095Y-40180571D01*
X131930095Y-40275809D01*
X131453904Y-40371047D01*
X132501523Y-40704380D02*
X132406285Y-40656761D01*
X132358666Y-40561523D01*
X132358666Y-39704380D01*
X133025333Y-40704380D02*
X132930095Y-40656761D01*
X132882476Y-40561523D01*
X132882476Y-39704380D01*
X127906285Y-28880571D02*
X128049142Y-28928190D01*
X128096761Y-28975809D01*
X128144380Y-29071047D01*
X128144380Y-29213904D01*
X128096761Y-29309142D01*
X128049142Y-29356761D01*
X127953904Y-29404380D01*
X127572952Y-29404380D01*
X127572952Y-28404380D01*
X127906285Y-28404380D01*
X128001523Y-28452000D01*
X128049142Y-28499619D01*
X128096761Y-28594857D01*
X128096761Y-28690095D01*
X128049142Y-28785333D01*
X128001523Y-28832952D01*
X127906285Y-28880571D01*
X127572952Y-28880571D01*
X128430095Y-28404380D02*
X129001523Y-28404380D01*
X128715809Y-29404380D02*
X128715809Y-28404380D01*
X129858666Y-29404380D02*
X129287238Y-29404380D01*
X129572952Y-29404380D02*
X129572952Y-28404380D01*
X129477714Y-28547238D01*
X129382476Y-28642476D01*
X129287238Y-28690095D01*
%TO.C,R6*%
X129610285Y-74766380D02*
X130229333Y-74766380D01*
X129896000Y-75147333D01*
X130038857Y-75147333D01*
X130134095Y-75194952D01*
X130181714Y-75242571D01*
X130229333Y-75337809D01*
X130229333Y-75575904D01*
X130181714Y-75671142D01*
X130134095Y-75718761D01*
X130038857Y-75766380D01*
X129753142Y-75766380D01*
X129657904Y-75718761D01*
X129610285Y-75671142D01*
X130848380Y-74766380D02*
X130943619Y-74766380D01*
X131038857Y-74814000D01*
X131086476Y-74861619D01*
X131134095Y-74956857D01*
X131181714Y-75147333D01*
X131181714Y-75385428D01*
X131134095Y-75575904D01*
X131086476Y-75671142D01*
X131038857Y-75718761D01*
X130943619Y-75766380D01*
X130848380Y-75766380D01*
X130753142Y-75718761D01*
X130705523Y-75671142D01*
X130657904Y-75575904D01*
X130610285Y-75385428D01*
X130610285Y-75147333D01*
X130657904Y-74956857D01*
X130705523Y-74861619D01*
X130753142Y-74814000D01*
X130848380Y-74766380D01*
X131800761Y-74766380D02*
X131896000Y-74766380D01*
X131991238Y-74814000D01*
X132038857Y-74861619D01*
X132086476Y-74956857D01*
X132134095Y-75147333D01*
X132134095Y-75385428D01*
X132086476Y-75575904D01*
X132038857Y-75671142D01*
X131991238Y-75718761D01*
X131896000Y-75766380D01*
X131800761Y-75766380D01*
X131705523Y-75718761D01*
X131657904Y-75671142D01*
X131610285Y-75575904D01*
X131562666Y-75385428D01*
X131562666Y-75147333D01*
X131610285Y-74956857D01*
X131657904Y-74861619D01*
X131705523Y-74814000D01*
X131800761Y-74766380D01*
D14*
X130812666Y-73890190D02*
X130646000Y-73652095D01*
X130526952Y-73890190D02*
X130526952Y-73390190D01*
X130717428Y-73390190D01*
X130765047Y-73414000D01*
X130788857Y-73437809D01*
X130812666Y-73485428D01*
X130812666Y-73556857D01*
X130788857Y-73604476D01*
X130765047Y-73628285D01*
X130717428Y-73652095D01*
X130526952Y-73652095D01*
X131241238Y-73390190D02*
X131146000Y-73390190D01*
X131098380Y-73414000D01*
X131074571Y-73437809D01*
X131026952Y-73509238D01*
X131003142Y-73604476D01*
X131003142Y-73794952D01*
X131026952Y-73842571D01*
X131050761Y-73866380D01*
X131098380Y-73890190D01*
X131193619Y-73890190D01*
X131241238Y-73866380D01*
X131265047Y-73842571D01*
X131288857Y-73794952D01*
X131288857Y-73675904D01*
X131265047Y-73628285D01*
X131241238Y-73604476D01*
X131193619Y-73580666D01*
X131098380Y-73580666D01*
X131050761Y-73604476D01*
X131026952Y-73628285D01*
X131003142Y-73675904D01*
D13*
%TO.C,J5*%
X178455380Y-81768809D02*
X179264904Y-81768809D01*
X179360142Y-81721190D01*
X179407761Y-81673571D01*
X179455380Y-81578333D01*
X179455380Y-81387857D01*
X179407761Y-81292619D01*
X179360142Y-81245000D01*
X179264904Y-81197380D01*
X178455380Y-81197380D01*
X179407761Y-80768809D02*
X179455380Y-80625952D01*
X179455380Y-80387857D01*
X179407761Y-80292619D01*
X179360142Y-80245000D01*
X179264904Y-80197380D01*
X179169666Y-80197380D01*
X179074428Y-80245000D01*
X179026809Y-80292619D01*
X178979190Y-80387857D01*
X178931571Y-80578333D01*
X178883952Y-80673571D01*
X178836333Y-80721190D01*
X178741095Y-80768809D01*
X178645857Y-80768809D01*
X178550619Y-80721190D01*
X178503000Y-80673571D01*
X178455380Y-80578333D01*
X178455380Y-80340238D01*
X178503000Y-80197380D01*
X178931571Y-79435476D02*
X178979190Y-79292619D01*
X179026809Y-79245000D01*
X179122047Y-79197380D01*
X179264904Y-79197380D01*
X179360142Y-79245000D01*
X179407761Y-79292619D01*
X179455380Y-79387857D01*
X179455380Y-79768809D01*
X178455380Y-79768809D01*
X178455380Y-79435476D01*
X178503000Y-79340238D01*
X178550619Y-79292619D01*
X178645857Y-79245000D01*
X178741095Y-79245000D01*
X178836333Y-79292619D01*
X178883952Y-79340238D01*
X178931571Y-79435476D01*
X178931571Y-79768809D01*
X179550619Y-79006904D02*
X179550619Y-78245000D01*
X178931571Y-77673571D02*
X178979190Y-77530714D01*
X179026809Y-77483095D01*
X179122047Y-77435476D01*
X179264904Y-77435476D01*
X179360142Y-77483095D01*
X179407761Y-77530714D01*
X179455380Y-77625952D01*
X179455380Y-78006904D01*
X178455380Y-78006904D01*
X178455380Y-77673571D01*
X178503000Y-77578333D01*
X178550619Y-77530714D01*
X178645857Y-77483095D01*
X178741095Y-77483095D01*
X178836333Y-77530714D01*
X178883952Y-77578333D01*
X178931571Y-77673571D01*
X178931571Y-78006904D01*
X179550619Y-77245000D02*
X179550619Y-76483095D01*
X179455380Y-76245000D02*
X178455380Y-76245000D01*
X179169666Y-75911666D01*
X178455380Y-75578333D01*
X179455380Y-75578333D01*
X179455380Y-75102142D02*
X178788714Y-75102142D01*
X178455380Y-75102142D02*
X178503000Y-75149761D01*
X178550619Y-75102142D01*
X178503000Y-75054523D01*
X178455380Y-75102142D01*
X178550619Y-75102142D01*
X179407761Y-74197380D02*
X179455380Y-74292619D01*
X179455380Y-74483095D01*
X179407761Y-74578333D01*
X179360142Y-74625952D01*
X179264904Y-74673571D01*
X178979190Y-74673571D01*
X178883952Y-74625952D01*
X178836333Y-74578333D01*
X178788714Y-74483095D01*
X178788714Y-74292619D01*
X178836333Y-74197380D01*
X179455380Y-73768809D02*
X178788714Y-73768809D01*
X178979190Y-73768809D02*
X178883952Y-73721190D01*
X178836333Y-73673571D01*
X178788714Y-73578333D01*
X178788714Y-73483095D01*
X179455380Y-73006904D02*
X179407761Y-73102142D01*
X179360142Y-73149761D01*
X179264904Y-73197380D01*
X178979190Y-73197380D01*
X178883952Y-73149761D01*
X178836333Y-73102142D01*
X178788714Y-73006904D01*
X178788714Y-72864047D01*
X178836333Y-72768809D01*
X178883952Y-72721190D01*
X178979190Y-72673571D01*
X179264904Y-72673571D01*
X179360142Y-72721190D01*
X179407761Y-72768809D01*
X179455380Y-72864047D01*
X179455380Y-73006904D01*
X174005380Y-77578333D02*
X174719666Y-77578333D01*
X174862523Y-77625952D01*
X174957761Y-77721190D01*
X175005380Y-77864047D01*
X175005380Y-77959285D01*
X174005380Y-76625952D02*
X174005380Y-77102142D01*
X174481571Y-77149761D01*
X174433952Y-77102142D01*
X174386333Y-77006904D01*
X174386333Y-76768809D01*
X174433952Y-76673571D01*
X174481571Y-76625952D01*
X174576809Y-76578333D01*
X174814904Y-76578333D01*
X174910142Y-76625952D01*
X174957761Y-76673571D01*
X175005380Y-76768809D01*
X175005380Y-77006904D01*
X174957761Y-77102142D01*
X174910142Y-77149761D01*
%TO.C,R18*%
X106750380Y-117975047D02*
X106750380Y-118546476D01*
X106750380Y-118260761D02*
X105750380Y-118260761D01*
X105893238Y-118356000D01*
X105988476Y-118451238D01*
X106036095Y-118546476D01*
X106750380Y-117546476D02*
X105750380Y-117546476D01*
X106369428Y-117451238D02*
X106750380Y-117165523D01*
X106083714Y-117165523D02*
X106464666Y-117546476D01*
D14*
X104874190Y-118177428D02*
X104636095Y-118344095D01*
X104874190Y-118463142D02*
X104374190Y-118463142D01*
X104374190Y-118272666D01*
X104398000Y-118225047D01*
X104421809Y-118201238D01*
X104469428Y-118177428D01*
X104540857Y-118177428D01*
X104588476Y-118201238D01*
X104612285Y-118225047D01*
X104636095Y-118272666D01*
X104636095Y-118463142D01*
X104874190Y-117701238D02*
X104874190Y-117986952D01*
X104874190Y-117844095D02*
X104374190Y-117844095D01*
X104445619Y-117891714D01*
X104493238Y-117939333D01*
X104517047Y-117986952D01*
X104588476Y-117415523D02*
X104564666Y-117463142D01*
X104540857Y-117486952D01*
X104493238Y-117510761D01*
X104469428Y-117510761D01*
X104421809Y-117486952D01*
X104398000Y-117463142D01*
X104374190Y-117415523D01*
X104374190Y-117320285D01*
X104398000Y-117272666D01*
X104421809Y-117248857D01*
X104469428Y-117225047D01*
X104493238Y-117225047D01*
X104540857Y-117248857D01*
X104564666Y-117272666D01*
X104588476Y-117320285D01*
X104588476Y-117415523D01*
X104612285Y-117463142D01*
X104636095Y-117486952D01*
X104683714Y-117510761D01*
X104778952Y-117510761D01*
X104826571Y-117486952D01*
X104850380Y-117463142D01*
X104874190Y-117415523D01*
X104874190Y-117320285D01*
X104850380Y-117272666D01*
X104826571Y-117248857D01*
X104778952Y-117225047D01*
X104683714Y-117225047D01*
X104636095Y-117248857D01*
X104612285Y-117272666D01*
X104588476Y-117320285D01*
D13*
%TO.C,U1*%
X90328952Y-37904380D02*
X90900380Y-37904380D01*
X90614666Y-38904380D02*
X90614666Y-37904380D01*
X91709904Y-38904380D02*
X91233714Y-38904380D01*
X91233714Y-37904380D01*
X92471809Y-38237714D02*
X92471809Y-38904380D01*
X92233714Y-37856761D02*
X91995619Y-38571047D01*
X92614666Y-38571047D01*
X92900380Y-37904380D02*
X93519428Y-37904380D01*
X93186095Y-38285333D01*
X93328952Y-38285333D01*
X93424190Y-38332952D01*
X93471809Y-38380571D01*
X93519428Y-38475809D01*
X93519428Y-38713904D01*
X93471809Y-38809142D01*
X93424190Y-38856761D01*
X93328952Y-38904380D01*
X93043238Y-38904380D01*
X92948000Y-38856761D01*
X92900380Y-38809142D01*
X94471809Y-38904380D02*
X93900380Y-38904380D01*
X94186095Y-38904380D02*
X94186095Y-37904380D01*
X94090857Y-38047238D01*
X93995619Y-38142476D01*
X93900380Y-38190095D01*
X94900380Y-38904380D02*
X94900380Y-37904380D01*
X95138476Y-37904380D01*
X95281333Y-37952000D01*
X95376571Y-38047238D01*
X95424190Y-38142476D01*
X95471809Y-38332952D01*
X95471809Y-38475809D01*
X95424190Y-38666285D01*
X95376571Y-38761523D01*
X95281333Y-38856761D01*
X95138476Y-38904380D01*
X94900380Y-38904380D01*
X92201333Y-34515333D02*
X92201333Y-35308666D01*
X92248000Y-35402000D01*
X92294666Y-35448666D01*
X92388000Y-35495333D01*
X92574666Y-35495333D01*
X92668000Y-35448666D01*
X92714666Y-35402000D01*
X92761333Y-35308666D01*
X92761333Y-34515333D01*
X93741333Y-35495333D02*
X93181333Y-35495333D01*
X93461333Y-35495333D02*
X93461333Y-34515333D01*
X93368000Y-34655333D01*
X93274666Y-34748666D01*
X93181333Y-34795333D01*
%TO.C,D1*%
X99298476Y-31000380D02*
X99298476Y-30000380D01*
X99536571Y-30000380D01*
X99679428Y-30048000D01*
X99774666Y-30143238D01*
X99822285Y-30238476D01*
X99869904Y-30428952D01*
X99869904Y-30571809D01*
X99822285Y-30762285D01*
X99774666Y-30857523D01*
X99679428Y-30952761D01*
X99536571Y-31000380D01*
X99298476Y-31000380D01*
X100060380Y-31095619D02*
X100822285Y-31095619D01*
X101012761Y-30952761D02*
X101155619Y-31000380D01*
X101393714Y-31000380D01*
X101488952Y-30952761D01*
X101536571Y-30905142D01*
X101584190Y-30809904D01*
X101584190Y-30714666D01*
X101536571Y-30619428D01*
X101488952Y-30571809D01*
X101393714Y-30524190D01*
X101203238Y-30476571D01*
X101108000Y-30428952D01*
X101060380Y-30381333D01*
X101012761Y-30286095D01*
X101012761Y-30190857D01*
X101060380Y-30095619D01*
X101108000Y-30048000D01*
X101203238Y-30000380D01*
X101441333Y-30000380D01*
X101584190Y-30048000D01*
X102441333Y-30952761D02*
X102346095Y-31000380D01*
X102155619Y-31000380D01*
X102060380Y-30952761D01*
X102012761Y-30905142D01*
X101965142Y-30809904D01*
X101965142Y-30524190D01*
X102012761Y-30428952D01*
X102060380Y-30381333D01*
X102155619Y-30333714D01*
X102346095Y-30333714D01*
X102441333Y-30381333D01*
X102869904Y-31000380D02*
X102869904Y-30000380D01*
X103298476Y-31000380D02*
X103298476Y-30476571D01*
X103250857Y-30381333D01*
X103155619Y-30333714D01*
X103012761Y-30333714D01*
X102917523Y-30381333D01*
X102869904Y-30428952D01*
X103917523Y-31000380D02*
X103822285Y-30952761D01*
X103774666Y-30905142D01*
X103727047Y-30809904D01*
X103727047Y-30524190D01*
X103774666Y-30428952D01*
X103822285Y-30381333D01*
X103917523Y-30333714D01*
X104060380Y-30333714D01*
X104155619Y-30381333D01*
X104203238Y-30428952D01*
X104250857Y-30524190D01*
X104250857Y-30809904D01*
X104203238Y-30905142D01*
X104155619Y-30952761D01*
X104060380Y-31000380D01*
X103917523Y-31000380D01*
X104536571Y-30333714D02*
X104917523Y-30333714D01*
X104679428Y-30000380D02*
X104679428Y-30857523D01*
X104727047Y-30952761D01*
X104822285Y-31000380D01*
X104917523Y-31000380D01*
X105108000Y-30333714D02*
X105488952Y-30333714D01*
X105250857Y-30000380D02*
X105250857Y-30857523D01*
X105298476Y-30952761D01*
X105393714Y-31000380D01*
X105488952Y-31000380D01*
X105822285Y-31000380D02*
X105822285Y-30000380D01*
X105917523Y-30619428D02*
X106203238Y-31000380D01*
X106203238Y-30333714D02*
X105822285Y-30714666D01*
X106536571Y-30333714D02*
X106774666Y-31000380D01*
X107012761Y-30333714D02*
X106774666Y-31000380D01*
X106679428Y-31238476D01*
X106631809Y-31286095D01*
X106536571Y-31333714D01*
X102369904Y-26900380D02*
X102369904Y-25900380D01*
X102608000Y-25900380D01*
X102750857Y-25948000D01*
X102846095Y-26043238D01*
X102893714Y-26138476D01*
X102941333Y-26328952D01*
X102941333Y-26471809D01*
X102893714Y-26662285D01*
X102846095Y-26757523D01*
X102750857Y-26852761D01*
X102608000Y-26900380D01*
X102369904Y-26900380D01*
X103893714Y-26900380D02*
X103322285Y-26900380D01*
X103608000Y-26900380D02*
X103608000Y-25900380D01*
X103512761Y-26043238D01*
X103417523Y-26138476D01*
X103322285Y-26186095D01*
%TO.C,U5*%
X94155047Y-121105142D02*
X94107428Y-121152761D01*
X93964571Y-121200380D01*
X93869333Y-121200380D01*
X93726476Y-121152761D01*
X93631238Y-121057523D01*
X93583619Y-120962285D01*
X93536000Y-120771809D01*
X93536000Y-120628952D01*
X93583619Y-120438476D01*
X93631238Y-120343238D01*
X93726476Y-120248000D01*
X93869333Y-120200380D01*
X93964571Y-120200380D01*
X94107428Y-120248000D01*
X94155047Y-120295619D01*
X94536000Y-120914666D02*
X95012190Y-120914666D01*
X94440761Y-121200380D02*
X94774095Y-120200380D01*
X95107428Y-121200380D01*
X95297904Y-120200380D02*
X95869333Y-120200380D01*
X95583619Y-121200380D02*
X95583619Y-120200380D01*
X96155047Y-120295619D02*
X96202666Y-120248000D01*
X96297904Y-120200380D01*
X96536000Y-120200380D01*
X96631238Y-120248000D01*
X96678857Y-120295619D01*
X96726476Y-120390857D01*
X96726476Y-120486095D01*
X96678857Y-120628952D01*
X96107428Y-121200380D01*
X96726476Y-121200380D01*
X97583619Y-120533714D02*
X97583619Y-121200380D01*
X97345523Y-120152761D02*
X97107428Y-120867047D01*
X97726476Y-120867047D01*
X98678857Y-121105142D02*
X98631238Y-121152761D01*
X98488380Y-121200380D01*
X98393142Y-121200380D01*
X98250285Y-121152761D01*
X98155047Y-121057523D01*
X98107428Y-120962285D01*
X98059809Y-120771809D01*
X98059809Y-120628952D01*
X98107428Y-120438476D01*
X98155047Y-120343238D01*
X98250285Y-120248000D01*
X98393142Y-120200380D01*
X98488380Y-120200380D01*
X98631238Y-120248000D01*
X98678857Y-120295619D01*
X99059809Y-120295619D02*
X99107428Y-120248000D01*
X99202666Y-120200380D01*
X99440761Y-120200380D01*
X99536000Y-120248000D01*
X99583619Y-120295619D01*
X99631238Y-120390857D01*
X99631238Y-120486095D01*
X99583619Y-120628952D01*
X99012190Y-121200380D01*
X99631238Y-121200380D01*
X100536000Y-120200380D02*
X100059809Y-120200380D01*
X100012190Y-120676571D01*
X100059809Y-120628952D01*
X100155047Y-120581333D01*
X100393142Y-120581333D01*
X100488380Y-120628952D01*
X100536000Y-120676571D01*
X100583619Y-120771809D01*
X100583619Y-121009904D01*
X100536000Y-121105142D01*
X100488380Y-121152761D01*
X100393142Y-121200380D01*
X100155047Y-121200380D01*
X100059809Y-121152761D01*
X100012190Y-121105142D01*
X101440761Y-120200380D02*
X101250285Y-120200380D01*
X101155047Y-120248000D01*
X101107428Y-120295619D01*
X101012190Y-120438476D01*
X100964571Y-120628952D01*
X100964571Y-121009904D01*
X101012190Y-121105142D01*
X101059809Y-121152761D01*
X101155047Y-121200380D01*
X101345523Y-121200380D01*
X101440761Y-121152761D01*
X101488380Y-121105142D01*
X101536000Y-121009904D01*
X101536000Y-120771809D01*
X101488380Y-120676571D01*
X101440761Y-120628952D01*
X101345523Y-120581333D01*
X101155047Y-120581333D01*
X101059809Y-120628952D01*
X101012190Y-120676571D01*
X100964571Y-120771809D01*
X96789333Y-116811333D02*
X96789333Y-117604666D01*
X96836000Y-117698000D01*
X96882666Y-117744666D01*
X96976000Y-117791333D01*
X97162666Y-117791333D01*
X97256000Y-117744666D01*
X97302666Y-117698000D01*
X97349333Y-117604666D01*
X97349333Y-116811333D01*
X98282666Y-116811333D02*
X97816000Y-116811333D01*
X97769333Y-117278000D01*
X97816000Y-117231333D01*
X97909333Y-117184666D01*
X98142666Y-117184666D01*
X98236000Y-117231333D01*
X98282666Y-117278000D01*
X98329333Y-117371333D01*
X98329333Y-117604666D01*
X98282666Y-117698000D01*
X98236000Y-117744666D01*
X98142666Y-117791333D01*
X97909333Y-117791333D01*
X97816000Y-117744666D01*
X97769333Y-117698000D01*
%TO.C,TP9*%
X196818666Y-74426380D02*
X197390095Y-74426380D01*
X197104380Y-75426380D02*
X197104380Y-74426380D01*
X198104380Y-75378761D02*
X198009142Y-75426380D01*
X197818666Y-75426380D01*
X197723428Y-75378761D01*
X197675809Y-75283523D01*
X197675809Y-74902571D01*
X197723428Y-74807333D01*
X197818666Y-74759714D01*
X198009142Y-74759714D01*
X198104380Y-74807333D01*
X198152000Y-74902571D01*
X198152000Y-74997809D01*
X197675809Y-75093047D01*
X198532952Y-75378761D02*
X198628190Y-75426380D01*
X198818666Y-75426380D01*
X198913904Y-75378761D01*
X198961523Y-75283523D01*
X198961523Y-75235904D01*
X198913904Y-75140666D01*
X198818666Y-75093047D01*
X198675809Y-75093047D01*
X198580571Y-75045428D01*
X198532952Y-74950190D01*
X198532952Y-74902571D01*
X198580571Y-74807333D01*
X198675809Y-74759714D01*
X198818666Y-74759714D01*
X198913904Y-74807333D01*
X199247238Y-74759714D02*
X199628190Y-74759714D01*
X199390095Y-74426380D02*
X199390095Y-75283523D01*
X199437714Y-75378761D01*
X199532952Y-75426380D01*
X199628190Y-75426380D01*
X199961523Y-75426380D02*
X199961523Y-74426380D01*
X200342476Y-74426380D01*
X200437714Y-74474000D01*
X200485333Y-74521619D01*
X200532952Y-74616857D01*
X200532952Y-74759714D01*
X200485333Y-74854952D01*
X200437714Y-74902571D01*
X200342476Y-74950190D01*
X199961523Y-74950190D01*
X201104380Y-75426380D02*
X201009142Y-75378761D01*
X200961523Y-75331142D01*
X200913904Y-75235904D01*
X200913904Y-74950190D01*
X200961523Y-74854952D01*
X201009142Y-74807333D01*
X201104380Y-74759714D01*
X201247238Y-74759714D01*
X201342476Y-74807333D01*
X201390095Y-74854952D01*
X201437714Y-74950190D01*
X201437714Y-75235904D01*
X201390095Y-75331142D01*
X201342476Y-75378761D01*
X201247238Y-75426380D01*
X201104380Y-75426380D01*
X201866285Y-75426380D02*
X201866285Y-74759714D01*
X201866285Y-74426380D02*
X201818666Y-74474000D01*
X201866285Y-74521619D01*
X201913904Y-74474000D01*
X201866285Y-74426380D01*
X201866285Y-74521619D01*
X202342476Y-74759714D02*
X202342476Y-75426380D01*
X202342476Y-74854952D02*
X202390095Y-74807333D01*
X202485333Y-74759714D01*
X202628190Y-74759714D01*
X202723428Y-74807333D01*
X202771047Y-74902571D01*
X202771047Y-75426380D01*
X203104380Y-74759714D02*
X203485333Y-74759714D01*
X203247238Y-74426380D02*
X203247238Y-75283523D01*
X203294857Y-75378761D01*
X203390095Y-75426380D01*
X203485333Y-75426380D01*
X199604380Y-73905904D02*
X199604380Y-73334476D01*
X200604380Y-73620190D02*
X199604380Y-73620190D01*
X200604380Y-73001142D02*
X199604380Y-73001142D01*
X199604380Y-72620190D01*
X199652000Y-72524952D01*
X199699619Y-72477333D01*
X199794857Y-72429714D01*
X199937714Y-72429714D01*
X200032952Y-72477333D01*
X200080571Y-72524952D01*
X200128190Y-72620190D01*
X200128190Y-73001142D01*
X200604380Y-71953523D02*
X200604380Y-71763047D01*
X200556761Y-71667809D01*
X200509142Y-71620190D01*
X200366285Y-71524952D01*
X200175809Y-71477333D01*
X199794857Y-71477333D01*
X199699619Y-71524952D01*
X199652000Y-71572571D01*
X199604380Y-71667809D01*
X199604380Y-71858285D01*
X199652000Y-71953523D01*
X199699619Y-72001142D01*
X199794857Y-72048761D01*
X200032952Y-72048761D01*
X200128190Y-72001142D01*
X200175809Y-71953523D01*
X200223428Y-71858285D01*
X200223428Y-71667809D01*
X200175809Y-71572571D01*
X200128190Y-71524952D01*
X200032952Y-71477333D01*
%TO.C,R5*%
X194381523Y-86779714D02*
X194381523Y-87446380D01*
X194143428Y-86398761D02*
X193905333Y-87113047D01*
X194524380Y-87113047D01*
X194810095Y-86446380D02*
X195476761Y-86446380D01*
X195048190Y-87446380D01*
X195857714Y-87446380D02*
X195857714Y-86446380D01*
X195952952Y-87065428D02*
X196238666Y-87446380D01*
X196238666Y-86779714D02*
X195857714Y-87160666D01*
D14*
X194988666Y-85570190D02*
X194822000Y-85332095D01*
X194702952Y-85570190D02*
X194702952Y-85070190D01*
X194893428Y-85070190D01*
X194941047Y-85094000D01*
X194964857Y-85117809D01*
X194988666Y-85165428D01*
X194988666Y-85236857D01*
X194964857Y-85284476D01*
X194941047Y-85308285D01*
X194893428Y-85332095D01*
X194702952Y-85332095D01*
X195441047Y-85070190D02*
X195202952Y-85070190D01*
X195179142Y-85308285D01*
X195202952Y-85284476D01*
X195250571Y-85260666D01*
X195369619Y-85260666D01*
X195417238Y-85284476D01*
X195441047Y-85308285D01*
X195464857Y-85355904D01*
X195464857Y-85474952D01*
X195441047Y-85522571D01*
X195417238Y-85546380D01*
X195369619Y-85570190D01*
X195250571Y-85570190D01*
X195202952Y-85546380D01*
X195179142Y-85522571D01*
D13*
%TO.C,J1*%
X91315142Y-53525714D02*
X91362761Y-53573333D01*
X91410380Y-53716190D01*
X91410380Y-53811428D01*
X91362761Y-53954285D01*
X91267523Y-54049523D01*
X91172285Y-54097142D01*
X90981809Y-54144761D01*
X90838952Y-54144761D01*
X90648476Y-54097142D01*
X90553238Y-54049523D01*
X90458000Y-53954285D01*
X90410380Y-53811428D01*
X90410380Y-53716190D01*
X90458000Y-53573333D01*
X90505619Y-53525714D01*
X91410380Y-52954285D02*
X91362761Y-53049523D01*
X91315142Y-53097142D01*
X91219904Y-53144761D01*
X90934190Y-53144761D01*
X90838952Y-53097142D01*
X90791333Y-53049523D01*
X90743714Y-52954285D01*
X90743714Y-52811428D01*
X90791333Y-52716190D01*
X90838952Y-52668571D01*
X90934190Y-52620952D01*
X91219904Y-52620952D01*
X91315142Y-52668571D01*
X91362761Y-52716190D01*
X91410380Y-52811428D01*
X91410380Y-52954285D01*
X90743714Y-52192380D02*
X91410380Y-52192380D01*
X90838952Y-52192380D02*
X90791333Y-52144761D01*
X90743714Y-52049523D01*
X90743714Y-51906666D01*
X90791333Y-51811428D01*
X90886571Y-51763809D01*
X91410380Y-51763809D01*
X90743714Y-51287619D02*
X91410380Y-51287619D01*
X90838952Y-51287619D02*
X90791333Y-51240000D01*
X90743714Y-51144761D01*
X90743714Y-51001904D01*
X90791333Y-50906666D01*
X90886571Y-50859047D01*
X91410380Y-50859047D01*
X91505619Y-50620952D02*
X91505619Y-49859047D01*
X90410380Y-49430476D02*
X90410380Y-49335238D01*
X90458000Y-49240000D01*
X90505619Y-49192380D01*
X90600857Y-49144761D01*
X90791333Y-49097142D01*
X91029428Y-49097142D01*
X91219904Y-49144761D01*
X91315142Y-49192380D01*
X91362761Y-49240000D01*
X91410380Y-49335238D01*
X91410380Y-49430476D01*
X91362761Y-49525714D01*
X91315142Y-49573333D01*
X91219904Y-49620952D01*
X91029428Y-49668571D01*
X90791333Y-49668571D01*
X90600857Y-49620952D01*
X90505619Y-49573333D01*
X90458000Y-49525714D01*
X90410380Y-49430476D01*
X91410380Y-48144761D02*
X91410380Y-48716190D01*
X91410380Y-48430476D02*
X90410380Y-48430476D01*
X90553238Y-48525714D01*
X90648476Y-48620952D01*
X90696095Y-48716190D01*
X91410380Y-47811428D02*
X90743714Y-47287619D01*
X90743714Y-47811428D02*
X91410380Y-47287619D01*
X90410380Y-47001904D02*
X90410380Y-46382857D01*
X90791333Y-46716190D01*
X90791333Y-46573333D01*
X90838952Y-46478095D01*
X90886571Y-46430476D01*
X90981809Y-46382857D01*
X91219904Y-46382857D01*
X91315142Y-46430476D01*
X91362761Y-46478095D01*
X91410380Y-46573333D01*
X91410380Y-46859047D01*
X91362761Y-46954285D01*
X91315142Y-47001904D01*
X90410380Y-46049523D02*
X90410380Y-45430476D01*
X90791333Y-45763809D01*
X90791333Y-45620952D01*
X90838952Y-45525714D01*
X90886571Y-45478095D01*
X90981809Y-45430476D01*
X91219904Y-45430476D01*
X91315142Y-45478095D01*
X91362761Y-45525714D01*
X91410380Y-45620952D01*
X91410380Y-45906666D01*
X91362761Y-46001904D01*
X91315142Y-46049523D01*
X91505619Y-45240000D02*
X91505619Y-44478095D01*
X90886571Y-43906666D02*
X90886571Y-44240000D01*
X91410380Y-44240000D02*
X90410380Y-44240000D01*
X90410380Y-43763809D01*
X91362761Y-43001904D02*
X91410380Y-43097142D01*
X91410380Y-43287619D01*
X91362761Y-43382857D01*
X91267523Y-43430476D01*
X90886571Y-43430476D01*
X90791333Y-43382857D01*
X90743714Y-43287619D01*
X90743714Y-43097142D01*
X90791333Y-43001904D01*
X90886571Y-42954285D01*
X90981809Y-42954285D01*
X91077047Y-43430476D01*
X91410380Y-42525714D02*
X90743714Y-42525714D01*
X90838952Y-42525714D02*
X90791333Y-42478095D01*
X90743714Y-42382857D01*
X90743714Y-42240000D01*
X90791333Y-42144761D01*
X90886571Y-42097142D01*
X91410380Y-42097142D01*
X90886571Y-42097142D02*
X90791333Y-42049523D01*
X90743714Y-41954285D01*
X90743714Y-41811428D01*
X90791333Y-41716190D01*
X90886571Y-41668571D01*
X91410380Y-41668571D01*
X91410380Y-40763809D02*
X90886571Y-40763809D01*
X90791333Y-40811428D01*
X90743714Y-40906666D01*
X90743714Y-41097142D01*
X90791333Y-41192380D01*
X91362761Y-40763809D02*
X91410380Y-40859047D01*
X91410380Y-41097142D01*
X91362761Y-41192380D01*
X91267523Y-41240000D01*
X91172285Y-41240000D01*
X91077047Y-41192380D01*
X91029428Y-41097142D01*
X91029428Y-40859047D01*
X90981809Y-40763809D01*
X91410380Y-40144761D02*
X91362761Y-40240000D01*
X91267523Y-40287619D01*
X90410380Y-40287619D01*
X91362761Y-39382857D02*
X91410380Y-39478095D01*
X91410380Y-39668571D01*
X91362761Y-39763809D01*
X91267523Y-39811428D01*
X90886571Y-39811428D01*
X90791333Y-39763809D01*
X90743714Y-39668571D01*
X90743714Y-39478095D01*
X90791333Y-39382857D01*
X90886571Y-39335238D01*
X90981809Y-39335238D01*
X91077047Y-39811428D01*
X133594666Y-46192380D02*
X133594666Y-46906666D01*
X133547047Y-47049523D01*
X133451809Y-47144761D01*
X133308952Y-47192380D01*
X133213714Y-47192380D01*
X134594666Y-47192380D02*
X134023238Y-47192380D01*
X134308952Y-47192380D02*
X134308952Y-46192380D01*
X134213714Y-46335238D01*
X134118476Y-46430476D01*
X134023238Y-46478095D01*
%TO.C,D8*%
X152978380Y-125102857D02*
X152978380Y-125579047D01*
X151978380Y-125579047D01*
X152454571Y-124769523D02*
X152454571Y-124436190D01*
X152978380Y-124293333D02*
X152978380Y-124769523D01*
X151978380Y-124769523D01*
X151978380Y-124293333D01*
X152978380Y-123864761D02*
X151978380Y-123864761D01*
X151978380Y-123626666D01*
X152026000Y-123483809D01*
X152121238Y-123388571D01*
X152216476Y-123340952D01*
X152406952Y-123293333D01*
X152549809Y-123293333D01*
X152740285Y-123340952D01*
X152835523Y-123388571D01*
X152930761Y-123483809D01*
X152978380Y-123626666D01*
X152978380Y-123864761D01*
D14*
X151102190Y-124829047D02*
X150602190Y-124829047D01*
X150602190Y-124710000D01*
X150626000Y-124638571D01*
X150673619Y-124590952D01*
X150721238Y-124567142D01*
X150816476Y-124543333D01*
X150887904Y-124543333D01*
X150983142Y-124567142D01*
X151030761Y-124590952D01*
X151078380Y-124638571D01*
X151102190Y-124710000D01*
X151102190Y-124829047D01*
X150816476Y-124257619D02*
X150792666Y-124305238D01*
X150768857Y-124329047D01*
X150721238Y-124352857D01*
X150697428Y-124352857D01*
X150649809Y-124329047D01*
X150626000Y-124305238D01*
X150602190Y-124257619D01*
X150602190Y-124162380D01*
X150626000Y-124114761D01*
X150649809Y-124090952D01*
X150697428Y-124067142D01*
X150721238Y-124067142D01*
X150768857Y-124090952D01*
X150792666Y-124114761D01*
X150816476Y-124162380D01*
X150816476Y-124257619D01*
X150840285Y-124305238D01*
X150864095Y-124329047D01*
X150911714Y-124352857D01*
X151006952Y-124352857D01*
X151054571Y-124329047D01*
X151078380Y-124305238D01*
X151102190Y-124257619D01*
X151102190Y-124162380D01*
X151078380Y-124114761D01*
X151054571Y-124090952D01*
X151006952Y-124067142D01*
X150911714Y-124067142D01*
X150864095Y-124090952D01*
X150840285Y-124114761D01*
X150816476Y-124162380D01*
D13*
%TO.C,Q5*%
X152225714Y-125807619D02*
X152273333Y-125760000D01*
X152368571Y-125712380D01*
X152606666Y-125712380D01*
X152701904Y-125760000D01*
X152749523Y-125807619D01*
X152797142Y-125902857D01*
X152797142Y-125998095D01*
X152749523Y-126140952D01*
X152178095Y-126712380D01*
X152797142Y-126712380D01*
X153225714Y-126712380D02*
X153225714Y-125712380D01*
X153797142Y-126712380D01*
X153797142Y-125712380D01*
X154225714Y-125807619D02*
X154273333Y-125760000D01*
X154368571Y-125712380D01*
X154606666Y-125712380D01*
X154701904Y-125760000D01*
X154749523Y-125807619D01*
X154797142Y-125902857D01*
X154797142Y-125998095D01*
X154749523Y-126140952D01*
X154178095Y-126712380D01*
X154797142Y-126712380D01*
X155178095Y-125807619D02*
X155225714Y-125760000D01*
X155320952Y-125712380D01*
X155559047Y-125712380D01*
X155654285Y-125760000D01*
X155701904Y-125807619D01*
X155749523Y-125902857D01*
X155749523Y-125998095D01*
X155701904Y-126140952D01*
X155130476Y-126712380D01*
X155749523Y-126712380D01*
X156701904Y-126712380D02*
X156130476Y-126712380D01*
X156416190Y-126712380D02*
X156416190Y-125712380D01*
X156320952Y-125855238D01*
X156225714Y-125950476D01*
X156130476Y-125998095D01*
X157178095Y-126712380D02*
X157368571Y-126712380D01*
X157463809Y-126664761D01*
X157511428Y-126617142D01*
X157606666Y-126474285D01*
X157654285Y-126283809D01*
X157654285Y-125902857D01*
X157606666Y-125807619D01*
X157559047Y-125760000D01*
X157463809Y-125712380D01*
X157273333Y-125712380D01*
X157178095Y-125760000D01*
X157130476Y-125807619D01*
X157082857Y-125902857D01*
X157082857Y-126140952D01*
X157130476Y-126236190D01*
X157178095Y-126283809D01*
X157273333Y-126331428D01*
X157463809Y-126331428D01*
X157559047Y-126283809D01*
X157606666Y-126236190D01*
X157654285Y-126140952D01*
X154844761Y-138447619D02*
X154749523Y-138400000D01*
X154654285Y-138304761D01*
X154511428Y-138161904D01*
X154416190Y-138114285D01*
X154320952Y-138114285D01*
X154368571Y-138352380D02*
X154273333Y-138304761D01*
X154178095Y-138209523D01*
X154130476Y-138019047D01*
X154130476Y-137685714D01*
X154178095Y-137495238D01*
X154273333Y-137400000D01*
X154368571Y-137352380D01*
X154559047Y-137352380D01*
X154654285Y-137400000D01*
X154749523Y-137495238D01*
X154797142Y-137685714D01*
X154797142Y-138019047D01*
X154749523Y-138209523D01*
X154654285Y-138304761D01*
X154559047Y-138352380D01*
X154368571Y-138352380D01*
X155701904Y-137352380D02*
X155225714Y-137352380D01*
X155178095Y-137828571D01*
X155225714Y-137780952D01*
X155320952Y-137733333D01*
X155559047Y-137733333D01*
X155654285Y-137780952D01*
X155701904Y-137828571D01*
X155749523Y-137923809D01*
X155749523Y-138161904D01*
X155701904Y-138257142D01*
X155654285Y-138304761D01*
X155559047Y-138352380D01*
X155320952Y-138352380D01*
X155225714Y-138304761D01*
X155178095Y-138257142D01*
%TO.C,R7*%
X196921523Y-89319714D02*
X196921523Y-89986380D01*
X196683428Y-88938761D02*
X196445333Y-89653047D01*
X197064380Y-89653047D01*
X197350095Y-88986380D02*
X198016761Y-88986380D01*
X197588190Y-89986380D01*
X198397714Y-89986380D02*
X198397714Y-88986380D01*
X198492952Y-89605428D02*
X198778666Y-89986380D01*
X198778666Y-89319714D02*
X198397714Y-89700666D01*
D14*
X197528666Y-88110190D02*
X197362000Y-87872095D01*
X197242952Y-88110190D02*
X197242952Y-87610190D01*
X197433428Y-87610190D01*
X197481047Y-87634000D01*
X197504857Y-87657809D01*
X197528666Y-87705428D01*
X197528666Y-87776857D01*
X197504857Y-87824476D01*
X197481047Y-87848285D01*
X197433428Y-87872095D01*
X197242952Y-87872095D01*
X197695333Y-87610190D02*
X198028666Y-87610190D01*
X197814380Y-88110190D01*
D13*
%TO.C,C4*%
X140915452Y-69192380D02*
X140344023Y-69192380D01*
X140629738Y-69192380D02*
X140629738Y-68192380D01*
X140534500Y-68335238D01*
X140439261Y-68430476D01*
X140344023Y-68478095D01*
X141534500Y-68192380D02*
X141629738Y-68192380D01*
X141724976Y-68240000D01*
X141772595Y-68287619D01*
X141820214Y-68382857D01*
X141867833Y-68573333D01*
X141867833Y-68811428D01*
X141820214Y-69001904D01*
X141772595Y-69097142D01*
X141724976Y-69144761D01*
X141629738Y-69192380D01*
X141534500Y-69192380D01*
X141439261Y-69144761D01*
X141391642Y-69097142D01*
X141344023Y-69001904D01*
X141296404Y-68811428D01*
X141296404Y-68573333D01*
X141344023Y-68382857D01*
X141391642Y-68287619D01*
X141439261Y-68240000D01*
X141534500Y-68192380D01*
X142486880Y-68192380D02*
X142582119Y-68192380D01*
X142677357Y-68240000D01*
X142724976Y-68287619D01*
X142772595Y-68382857D01*
X142820214Y-68573333D01*
X142820214Y-68811428D01*
X142772595Y-69001904D01*
X142724976Y-69097142D01*
X142677357Y-69144761D01*
X142582119Y-69192380D01*
X142486880Y-69192380D01*
X142391642Y-69144761D01*
X142344023Y-69097142D01*
X142296404Y-69001904D01*
X142248785Y-68811428D01*
X142248785Y-68573333D01*
X142296404Y-68382857D01*
X142344023Y-68287619D01*
X142391642Y-68240000D01*
X142486880Y-68192380D01*
X143248785Y-68525714D02*
X143248785Y-69192380D01*
X143248785Y-68620952D02*
X143296404Y-68573333D01*
X143391642Y-68525714D01*
X143534500Y-68525714D01*
X143629738Y-68573333D01*
X143677357Y-68668571D01*
X143677357Y-69192380D01*
D14*
X141951166Y-67238571D02*
X141927357Y-67262380D01*
X141855928Y-67286190D01*
X141808309Y-67286190D01*
X141736880Y-67262380D01*
X141689261Y-67214761D01*
X141665452Y-67167142D01*
X141641642Y-67071904D01*
X141641642Y-67000476D01*
X141665452Y-66905238D01*
X141689261Y-66857619D01*
X141736880Y-66810000D01*
X141808309Y-66786190D01*
X141855928Y-66786190D01*
X141927357Y-66810000D01*
X141951166Y-66833809D01*
X142379738Y-66952857D02*
X142379738Y-67286190D01*
X142260690Y-66762380D02*
X142141642Y-67119523D01*
X142451166Y-67119523D01*
D13*
%TO.C,Q6*%
X126317714Y-125255619D02*
X126365333Y-125208000D01*
X126460571Y-125160380D01*
X126698666Y-125160380D01*
X126793904Y-125208000D01*
X126841523Y-125255619D01*
X126889142Y-125350857D01*
X126889142Y-125446095D01*
X126841523Y-125588952D01*
X126270095Y-126160380D01*
X126889142Y-126160380D01*
X127317714Y-126160380D02*
X127317714Y-125160380D01*
X127889142Y-126160380D01*
X127889142Y-125160380D01*
X128317714Y-125255619D02*
X128365333Y-125208000D01*
X128460571Y-125160380D01*
X128698666Y-125160380D01*
X128793904Y-125208000D01*
X128841523Y-125255619D01*
X128889142Y-125350857D01*
X128889142Y-125446095D01*
X128841523Y-125588952D01*
X128270095Y-126160380D01*
X128889142Y-126160380D01*
X129270095Y-125255619D02*
X129317714Y-125208000D01*
X129412952Y-125160380D01*
X129651047Y-125160380D01*
X129746285Y-125208000D01*
X129793904Y-125255619D01*
X129841523Y-125350857D01*
X129841523Y-125446095D01*
X129793904Y-125588952D01*
X129222476Y-126160380D01*
X129841523Y-126160380D01*
X130793904Y-126160380D02*
X130222476Y-126160380D01*
X130508190Y-126160380D02*
X130508190Y-125160380D01*
X130412952Y-125303238D01*
X130317714Y-125398476D01*
X130222476Y-125446095D01*
X131270095Y-126160380D02*
X131460571Y-126160380D01*
X131555809Y-126112761D01*
X131603428Y-126065142D01*
X131698666Y-125922285D01*
X131746285Y-125731809D01*
X131746285Y-125350857D01*
X131698666Y-125255619D01*
X131651047Y-125208000D01*
X131555809Y-125160380D01*
X131365333Y-125160380D01*
X131270095Y-125208000D01*
X131222476Y-125255619D01*
X131174857Y-125350857D01*
X131174857Y-125588952D01*
X131222476Y-125684190D01*
X131270095Y-125731809D01*
X131365333Y-125779428D01*
X131555809Y-125779428D01*
X131651047Y-125731809D01*
X131698666Y-125684190D01*
X131746285Y-125588952D01*
X128936761Y-114615619D02*
X128841523Y-114568000D01*
X128746285Y-114472761D01*
X128603428Y-114329904D01*
X128508190Y-114282285D01*
X128412952Y-114282285D01*
X128460571Y-114520380D02*
X128365333Y-114472761D01*
X128270095Y-114377523D01*
X128222476Y-114187047D01*
X128222476Y-113853714D01*
X128270095Y-113663238D01*
X128365333Y-113568000D01*
X128460571Y-113520380D01*
X128651047Y-113520380D01*
X128746285Y-113568000D01*
X128841523Y-113663238D01*
X128889142Y-113853714D01*
X128889142Y-114187047D01*
X128841523Y-114377523D01*
X128746285Y-114472761D01*
X128651047Y-114520380D01*
X128460571Y-114520380D01*
X129746285Y-113520380D02*
X129555809Y-113520380D01*
X129460571Y-113568000D01*
X129412952Y-113615619D01*
X129317714Y-113758476D01*
X129270095Y-113948952D01*
X129270095Y-114329904D01*
X129317714Y-114425142D01*
X129365333Y-114472761D01*
X129460571Y-114520380D01*
X129651047Y-114520380D01*
X129746285Y-114472761D01*
X129793904Y-114425142D01*
X129841523Y-114329904D01*
X129841523Y-114091809D01*
X129793904Y-113996571D01*
X129746285Y-113948952D01*
X129651047Y-113901333D01*
X129460571Y-113901333D01*
X129365333Y-113948952D01*
X129317714Y-113996571D01*
X129270095Y-114091809D01*
%TO.C,D2*%
X135825142Y-75766380D02*
X135348952Y-75766380D01*
X135348952Y-74766380D01*
X136158476Y-75242571D02*
X136491809Y-75242571D01*
X136634666Y-75766380D02*
X136158476Y-75766380D01*
X136158476Y-74766380D01*
X136634666Y-74766380D01*
X137063238Y-75766380D02*
X137063238Y-74766380D01*
X137301333Y-74766380D01*
X137444190Y-74814000D01*
X137539428Y-74909238D01*
X137587047Y-75004476D01*
X137634666Y-75194952D01*
X137634666Y-75337809D01*
X137587047Y-75528285D01*
X137539428Y-75623523D01*
X137444190Y-75718761D01*
X137301333Y-75766380D01*
X137063238Y-75766380D01*
D14*
X136098952Y-73890190D02*
X136098952Y-73390190D01*
X136218000Y-73390190D01*
X136289428Y-73414000D01*
X136337047Y-73461619D01*
X136360857Y-73509238D01*
X136384666Y-73604476D01*
X136384666Y-73675904D01*
X136360857Y-73771142D01*
X136337047Y-73818761D01*
X136289428Y-73866380D01*
X136218000Y-73890190D01*
X136098952Y-73890190D01*
X136575142Y-73437809D02*
X136598952Y-73414000D01*
X136646571Y-73390190D01*
X136765619Y-73390190D01*
X136813238Y-73414000D01*
X136837047Y-73437809D01*
X136860857Y-73485428D01*
X136860857Y-73533047D01*
X136837047Y-73604476D01*
X136551333Y-73890190D01*
X136860857Y-73890190D01*
D13*
%TO.C,R20*%
X81605523Y-70271714D02*
X81605523Y-70938380D01*
X81367428Y-69890761D02*
X81129333Y-70605047D01*
X81748380Y-70605047D01*
X82034095Y-69938380D02*
X82700761Y-69938380D01*
X82272190Y-70938380D01*
X83081714Y-70938380D02*
X83081714Y-69938380D01*
X83176952Y-70557428D02*
X83462666Y-70938380D01*
X83462666Y-70271714D02*
X83081714Y-70652666D01*
D14*
X81974571Y-72362190D02*
X81807904Y-72124095D01*
X81688857Y-72362190D02*
X81688857Y-71862190D01*
X81879333Y-71862190D01*
X81926952Y-71886000D01*
X81950761Y-71909809D01*
X81974571Y-71957428D01*
X81974571Y-72028857D01*
X81950761Y-72076476D01*
X81926952Y-72100285D01*
X81879333Y-72124095D01*
X81688857Y-72124095D01*
X82165047Y-71909809D02*
X82188857Y-71886000D01*
X82236476Y-71862190D01*
X82355523Y-71862190D01*
X82403142Y-71886000D01*
X82426952Y-71909809D01*
X82450761Y-71957428D01*
X82450761Y-72005047D01*
X82426952Y-72076476D01*
X82141238Y-72362190D01*
X82450761Y-72362190D01*
X82760285Y-71862190D02*
X82807904Y-71862190D01*
X82855523Y-71886000D01*
X82879333Y-71909809D01*
X82903142Y-71957428D01*
X82926952Y-72052666D01*
X82926952Y-72171714D01*
X82903142Y-72266952D01*
X82879333Y-72314571D01*
X82855523Y-72338380D01*
X82807904Y-72362190D01*
X82760285Y-72362190D01*
X82712666Y-72338380D01*
X82688857Y-72314571D01*
X82665047Y-72266952D01*
X82641238Y-72171714D01*
X82641238Y-72052666D01*
X82665047Y-71957428D01*
X82688857Y-71909809D01*
X82712666Y-71886000D01*
X82760285Y-71862190D01*
D13*
%TO.C,D9*%
X153281142Y-121482380D02*
X152804952Y-121482380D01*
X152804952Y-120482380D01*
X153614476Y-120958571D02*
X153947809Y-120958571D01*
X154090666Y-121482380D02*
X153614476Y-121482380D01*
X153614476Y-120482380D01*
X154090666Y-120482380D01*
X154519238Y-121482380D02*
X154519238Y-120482380D01*
X154757333Y-120482380D01*
X154900190Y-120530000D01*
X154995428Y-120625238D01*
X155043047Y-120720476D01*
X155090666Y-120910952D01*
X155090666Y-121053809D01*
X155043047Y-121244285D01*
X154995428Y-121339523D01*
X154900190Y-121434761D01*
X154757333Y-121482380D01*
X154519238Y-121482380D01*
D14*
X153554952Y-119606190D02*
X153554952Y-119106190D01*
X153674000Y-119106190D01*
X153745428Y-119130000D01*
X153793047Y-119177619D01*
X153816857Y-119225238D01*
X153840666Y-119320476D01*
X153840666Y-119391904D01*
X153816857Y-119487142D01*
X153793047Y-119534761D01*
X153745428Y-119582380D01*
X153674000Y-119606190D01*
X153554952Y-119606190D01*
X154078761Y-119606190D02*
X154174000Y-119606190D01*
X154221619Y-119582380D01*
X154245428Y-119558571D01*
X154293047Y-119487142D01*
X154316857Y-119391904D01*
X154316857Y-119201428D01*
X154293047Y-119153809D01*
X154269238Y-119130000D01*
X154221619Y-119106190D01*
X154126380Y-119106190D01*
X154078761Y-119130000D01*
X154054952Y-119153809D01*
X154031142Y-119201428D01*
X154031142Y-119320476D01*
X154054952Y-119368095D01*
X154078761Y-119391904D01*
X154126380Y-119415714D01*
X154221619Y-119415714D01*
X154269238Y-119391904D01*
X154293047Y-119368095D01*
X154316857Y-119320476D01*
D13*
%TO.C,J4*%
X91315142Y-114485714D02*
X91362761Y-114533333D01*
X91410380Y-114676190D01*
X91410380Y-114771428D01*
X91362761Y-114914285D01*
X91267523Y-115009523D01*
X91172285Y-115057142D01*
X90981809Y-115104761D01*
X90838952Y-115104761D01*
X90648476Y-115057142D01*
X90553238Y-115009523D01*
X90458000Y-114914285D01*
X90410380Y-114771428D01*
X90410380Y-114676190D01*
X90458000Y-114533333D01*
X90505619Y-114485714D01*
X91410380Y-113914285D02*
X91362761Y-114009523D01*
X91315142Y-114057142D01*
X91219904Y-114104761D01*
X90934190Y-114104761D01*
X90838952Y-114057142D01*
X90791333Y-114009523D01*
X90743714Y-113914285D01*
X90743714Y-113771428D01*
X90791333Y-113676190D01*
X90838952Y-113628571D01*
X90934190Y-113580952D01*
X91219904Y-113580952D01*
X91315142Y-113628571D01*
X91362761Y-113676190D01*
X91410380Y-113771428D01*
X91410380Y-113914285D01*
X90743714Y-113152380D02*
X91410380Y-113152380D01*
X90838952Y-113152380D02*
X90791333Y-113104761D01*
X90743714Y-113009523D01*
X90743714Y-112866666D01*
X90791333Y-112771428D01*
X90886571Y-112723809D01*
X91410380Y-112723809D01*
X90743714Y-112247619D02*
X91410380Y-112247619D01*
X90838952Y-112247619D02*
X90791333Y-112200000D01*
X90743714Y-112104761D01*
X90743714Y-111961904D01*
X90791333Y-111866666D01*
X90886571Y-111819047D01*
X91410380Y-111819047D01*
X91505619Y-111580952D02*
X91505619Y-110819047D01*
X90410380Y-110390476D02*
X90410380Y-110295238D01*
X90458000Y-110200000D01*
X90505619Y-110152380D01*
X90600857Y-110104761D01*
X90791333Y-110057142D01*
X91029428Y-110057142D01*
X91219904Y-110104761D01*
X91315142Y-110152380D01*
X91362761Y-110200000D01*
X91410380Y-110295238D01*
X91410380Y-110390476D01*
X91362761Y-110485714D01*
X91315142Y-110533333D01*
X91219904Y-110580952D01*
X91029428Y-110628571D01*
X90791333Y-110628571D01*
X90600857Y-110580952D01*
X90505619Y-110533333D01*
X90458000Y-110485714D01*
X90410380Y-110390476D01*
X91410380Y-109104761D02*
X91410380Y-109676190D01*
X91410380Y-109390476D02*
X90410380Y-109390476D01*
X90553238Y-109485714D01*
X90648476Y-109580952D01*
X90696095Y-109676190D01*
X91410380Y-108771428D02*
X90743714Y-108247619D01*
X90743714Y-108771428D02*
X91410380Y-108247619D01*
X90410380Y-107961904D02*
X90410380Y-107342857D01*
X90791333Y-107676190D01*
X90791333Y-107533333D01*
X90838952Y-107438095D01*
X90886571Y-107390476D01*
X90981809Y-107342857D01*
X91219904Y-107342857D01*
X91315142Y-107390476D01*
X91362761Y-107438095D01*
X91410380Y-107533333D01*
X91410380Y-107819047D01*
X91362761Y-107914285D01*
X91315142Y-107961904D01*
X90410380Y-107009523D02*
X90410380Y-106390476D01*
X90791333Y-106723809D01*
X90791333Y-106580952D01*
X90838952Y-106485714D01*
X90886571Y-106438095D01*
X90981809Y-106390476D01*
X91219904Y-106390476D01*
X91315142Y-106438095D01*
X91362761Y-106485714D01*
X91410380Y-106580952D01*
X91410380Y-106866666D01*
X91362761Y-106961904D01*
X91315142Y-107009523D01*
X91505619Y-106200000D02*
X91505619Y-105438095D01*
X90886571Y-104866666D02*
X90886571Y-105200000D01*
X91410380Y-105200000D02*
X90410380Y-105200000D01*
X90410380Y-104723809D01*
X91362761Y-103961904D02*
X91410380Y-104057142D01*
X91410380Y-104247619D01*
X91362761Y-104342857D01*
X91267523Y-104390476D01*
X90886571Y-104390476D01*
X90791333Y-104342857D01*
X90743714Y-104247619D01*
X90743714Y-104057142D01*
X90791333Y-103961904D01*
X90886571Y-103914285D01*
X90981809Y-103914285D01*
X91077047Y-104390476D01*
X91410380Y-103485714D02*
X90743714Y-103485714D01*
X90838952Y-103485714D02*
X90791333Y-103438095D01*
X90743714Y-103342857D01*
X90743714Y-103200000D01*
X90791333Y-103104761D01*
X90886571Y-103057142D01*
X91410380Y-103057142D01*
X90886571Y-103057142D02*
X90791333Y-103009523D01*
X90743714Y-102914285D01*
X90743714Y-102771428D01*
X90791333Y-102676190D01*
X90886571Y-102628571D01*
X91410380Y-102628571D01*
X91410380Y-101723809D02*
X90886571Y-101723809D01*
X90791333Y-101771428D01*
X90743714Y-101866666D01*
X90743714Y-102057142D01*
X90791333Y-102152380D01*
X91362761Y-101723809D02*
X91410380Y-101819047D01*
X91410380Y-102057142D01*
X91362761Y-102152380D01*
X91267523Y-102200000D01*
X91172285Y-102200000D01*
X91077047Y-102152380D01*
X91029428Y-102057142D01*
X91029428Y-101819047D01*
X90981809Y-101723809D01*
X91410380Y-101104761D02*
X91362761Y-101200000D01*
X91267523Y-101247619D01*
X90410380Y-101247619D01*
X91362761Y-100342857D02*
X91410380Y-100438095D01*
X91410380Y-100628571D01*
X91362761Y-100723809D01*
X91267523Y-100771428D01*
X90886571Y-100771428D01*
X90791333Y-100723809D01*
X90743714Y-100628571D01*
X90743714Y-100438095D01*
X90791333Y-100342857D01*
X90886571Y-100295238D01*
X90981809Y-100295238D01*
X91077047Y-100771428D01*
X133594666Y-107152380D02*
X133594666Y-107866666D01*
X133547047Y-108009523D01*
X133451809Y-108104761D01*
X133308952Y-108152380D01*
X133213714Y-108152380D01*
X134499428Y-107485714D02*
X134499428Y-108152380D01*
X134261333Y-107104761D02*
X134023238Y-107819047D01*
X134642285Y-107819047D01*
%TO.C,R2*%
X103036761Y-35122380D02*
X102465333Y-35122380D01*
X102751047Y-35122380D02*
X102751047Y-34122380D01*
X102655809Y-34265238D01*
X102560571Y-34360476D01*
X102465333Y-34408095D01*
X103655809Y-34122380D02*
X103751047Y-34122380D01*
X103846285Y-34170000D01*
X103893904Y-34217619D01*
X103941523Y-34312857D01*
X103989142Y-34503333D01*
X103989142Y-34741428D01*
X103941523Y-34931904D01*
X103893904Y-35027142D01*
X103846285Y-35074761D01*
X103751047Y-35122380D01*
X103655809Y-35122380D01*
X103560571Y-35074761D01*
X103512952Y-35027142D01*
X103465333Y-34931904D01*
X103417714Y-34741428D01*
X103417714Y-34503333D01*
X103465333Y-34312857D01*
X103512952Y-34217619D01*
X103560571Y-34170000D01*
X103655809Y-34122380D01*
X104417714Y-35122380D02*
X104417714Y-34122380D01*
X104512952Y-34741428D02*
X104798666Y-35122380D01*
X104798666Y-34455714D02*
X104417714Y-34836666D01*
D14*
X103548666Y-33246190D02*
X103382000Y-33008095D01*
X103262952Y-33246190D02*
X103262952Y-32746190D01*
X103453428Y-32746190D01*
X103501047Y-32770000D01*
X103524857Y-32793809D01*
X103548666Y-32841428D01*
X103548666Y-32912857D01*
X103524857Y-32960476D01*
X103501047Y-32984285D01*
X103453428Y-33008095D01*
X103262952Y-33008095D01*
X103739142Y-32793809D02*
X103762952Y-32770000D01*
X103810571Y-32746190D01*
X103929619Y-32746190D01*
X103977238Y-32770000D01*
X104001047Y-32793809D01*
X104024857Y-32841428D01*
X104024857Y-32889047D01*
X104001047Y-32960476D01*
X103715333Y-33246190D01*
X104024857Y-33246190D01*
D13*
%TO.C,R14*%
X152742380Y-125729714D02*
X152742380Y-125110666D01*
X153123333Y-125444000D01*
X153123333Y-125301142D01*
X153170952Y-125205904D01*
X153218571Y-125158285D01*
X153313809Y-125110666D01*
X153551904Y-125110666D01*
X153647142Y-125158285D01*
X153694761Y-125205904D01*
X153742380Y-125301142D01*
X153742380Y-125586857D01*
X153694761Y-125682095D01*
X153647142Y-125729714D01*
X152742380Y-124777333D02*
X152742380Y-124158285D01*
X153123333Y-124491619D01*
X153123333Y-124348761D01*
X153170952Y-124253523D01*
X153218571Y-124205904D01*
X153313809Y-124158285D01*
X153551904Y-124158285D01*
X153647142Y-124205904D01*
X153694761Y-124253523D01*
X153742380Y-124348761D01*
X153742380Y-124634476D01*
X153694761Y-124729714D01*
X153647142Y-124777333D01*
X152742380Y-123539238D02*
X152742380Y-123444000D01*
X152790000Y-123348761D01*
X152837619Y-123301142D01*
X152932857Y-123253523D01*
X153123333Y-123205904D01*
X153361428Y-123205904D01*
X153551904Y-123253523D01*
X153647142Y-123301142D01*
X153694761Y-123348761D01*
X153742380Y-123444000D01*
X153742380Y-123539238D01*
X153694761Y-123634476D01*
X153647142Y-123682095D01*
X153551904Y-123729714D01*
X153361428Y-123777333D01*
X153123333Y-123777333D01*
X152932857Y-123729714D01*
X152837619Y-123682095D01*
X152790000Y-123634476D01*
X152742380Y-123539238D01*
D14*
X155166190Y-124765428D02*
X154928095Y-124932095D01*
X155166190Y-125051142D02*
X154666190Y-125051142D01*
X154666190Y-124860666D01*
X154690000Y-124813047D01*
X154713809Y-124789238D01*
X154761428Y-124765428D01*
X154832857Y-124765428D01*
X154880476Y-124789238D01*
X154904285Y-124813047D01*
X154928095Y-124860666D01*
X154928095Y-125051142D01*
X155166190Y-124289238D02*
X155166190Y-124574952D01*
X155166190Y-124432095D02*
X154666190Y-124432095D01*
X154737619Y-124479714D01*
X154785238Y-124527333D01*
X154809047Y-124574952D01*
X154832857Y-123860666D02*
X155166190Y-123860666D01*
X154642380Y-123979714D02*
X154999523Y-124098761D01*
X154999523Y-123789238D01*
D13*
%TO.C,TP8*%
X194278666Y-69346380D02*
X194850095Y-69346380D01*
X194564380Y-70346380D02*
X194564380Y-69346380D01*
X195564380Y-70298761D02*
X195469142Y-70346380D01*
X195278666Y-70346380D01*
X195183428Y-70298761D01*
X195135809Y-70203523D01*
X195135809Y-69822571D01*
X195183428Y-69727333D01*
X195278666Y-69679714D01*
X195469142Y-69679714D01*
X195564380Y-69727333D01*
X195612000Y-69822571D01*
X195612000Y-69917809D01*
X195135809Y-70013047D01*
X195992952Y-70298761D02*
X196088190Y-70346380D01*
X196278666Y-70346380D01*
X196373904Y-70298761D01*
X196421523Y-70203523D01*
X196421523Y-70155904D01*
X196373904Y-70060666D01*
X196278666Y-70013047D01*
X196135809Y-70013047D01*
X196040571Y-69965428D01*
X195992952Y-69870190D01*
X195992952Y-69822571D01*
X196040571Y-69727333D01*
X196135809Y-69679714D01*
X196278666Y-69679714D01*
X196373904Y-69727333D01*
X196707238Y-69679714D02*
X197088190Y-69679714D01*
X196850095Y-69346380D02*
X196850095Y-70203523D01*
X196897714Y-70298761D01*
X196992952Y-70346380D01*
X197088190Y-70346380D01*
X197421523Y-70346380D02*
X197421523Y-69346380D01*
X197802476Y-69346380D01*
X197897714Y-69394000D01*
X197945333Y-69441619D01*
X197992952Y-69536857D01*
X197992952Y-69679714D01*
X197945333Y-69774952D01*
X197897714Y-69822571D01*
X197802476Y-69870190D01*
X197421523Y-69870190D01*
X198564380Y-70346380D02*
X198469142Y-70298761D01*
X198421523Y-70251142D01*
X198373904Y-70155904D01*
X198373904Y-69870190D01*
X198421523Y-69774952D01*
X198469142Y-69727333D01*
X198564380Y-69679714D01*
X198707238Y-69679714D01*
X198802476Y-69727333D01*
X198850095Y-69774952D01*
X198897714Y-69870190D01*
X198897714Y-70155904D01*
X198850095Y-70251142D01*
X198802476Y-70298761D01*
X198707238Y-70346380D01*
X198564380Y-70346380D01*
X199326285Y-70346380D02*
X199326285Y-69679714D01*
X199326285Y-69346380D02*
X199278666Y-69394000D01*
X199326285Y-69441619D01*
X199373904Y-69394000D01*
X199326285Y-69346380D01*
X199326285Y-69441619D01*
X199802476Y-69679714D02*
X199802476Y-70346380D01*
X199802476Y-69774952D02*
X199850095Y-69727333D01*
X199945333Y-69679714D01*
X200088190Y-69679714D01*
X200183428Y-69727333D01*
X200231047Y-69822571D01*
X200231047Y-70346380D01*
X200564380Y-69679714D02*
X200945333Y-69679714D01*
X200707238Y-69346380D02*
X200707238Y-70203523D01*
X200754857Y-70298761D01*
X200850095Y-70346380D01*
X200945333Y-70346380D01*
X197064380Y-68825904D02*
X197064380Y-68254476D01*
X198064380Y-68540190D02*
X197064380Y-68540190D01*
X198064380Y-67921142D02*
X197064380Y-67921142D01*
X197064380Y-67540190D01*
X197112000Y-67444952D01*
X197159619Y-67397333D01*
X197254857Y-67349714D01*
X197397714Y-67349714D01*
X197492952Y-67397333D01*
X197540571Y-67444952D01*
X197588190Y-67540190D01*
X197588190Y-67921142D01*
X197492952Y-66778285D02*
X197445333Y-66873523D01*
X197397714Y-66921142D01*
X197302476Y-66968761D01*
X197254857Y-66968761D01*
X197159619Y-66921142D01*
X197112000Y-66873523D01*
X197064380Y-66778285D01*
X197064380Y-66587809D01*
X197112000Y-66492571D01*
X197159619Y-66444952D01*
X197254857Y-66397333D01*
X197302476Y-66397333D01*
X197397714Y-66444952D01*
X197445333Y-66492571D01*
X197492952Y-66587809D01*
X197492952Y-66778285D01*
X197540571Y-66873523D01*
X197588190Y-66921142D01*
X197683428Y-66968761D01*
X197873904Y-66968761D01*
X197969142Y-66921142D01*
X198016761Y-66873523D01*
X198064380Y-66778285D01*
X198064380Y-66587809D01*
X198016761Y-66492571D01*
X197969142Y-66444952D01*
X197873904Y-66397333D01*
X197683428Y-66397333D01*
X197588190Y-66444952D01*
X197540571Y-66492571D01*
X197492952Y-66587809D01*
%TO.C,C10*%
X72264571Y-102400380D02*
X71693142Y-102400380D01*
X71978857Y-102400380D02*
X71978857Y-101400380D01*
X71883619Y-101543238D01*
X71788380Y-101638476D01*
X71693142Y-101686095D01*
X72883619Y-101400380D02*
X72978857Y-101400380D01*
X73074095Y-101448000D01*
X73121714Y-101495619D01*
X73169333Y-101590857D01*
X73216952Y-101781333D01*
X73216952Y-102019428D01*
X73169333Y-102209904D01*
X73121714Y-102305142D01*
X73074095Y-102352761D01*
X72978857Y-102400380D01*
X72883619Y-102400380D01*
X72788380Y-102352761D01*
X72740761Y-102305142D01*
X72693142Y-102209904D01*
X72645523Y-102019428D01*
X72645523Y-101781333D01*
X72693142Y-101590857D01*
X72740761Y-101495619D01*
X72788380Y-101448000D01*
X72883619Y-101400380D01*
X74074095Y-101733714D02*
X74074095Y-102400380D01*
X73645523Y-101733714D02*
X73645523Y-102257523D01*
X73693142Y-102352761D01*
X73788380Y-102400380D01*
X73931238Y-102400380D01*
X74026476Y-102352761D01*
X74074095Y-102305142D01*
X74883619Y-101876571D02*
X74550285Y-101876571D01*
X74550285Y-102400380D02*
X74550285Y-101400380D01*
X75026476Y-101400380D01*
D14*
X73014571Y-103806571D02*
X72990761Y-103830380D01*
X72919333Y-103854190D01*
X72871714Y-103854190D01*
X72800285Y-103830380D01*
X72752666Y-103782761D01*
X72728857Y-103735142D01*
X72705047Y-103639904D01*
X72705047Y-103568476D01*
X72728857Y-103473238D01*
X72752666Y-103425619D01*
X72800285Y-103378000D01*
X72871714Y-103354190D01*
X72919333Y-103354190D01*
X72990761Y-103378000D01*
X73014571Y-103401809D01*
X73490761Y-103854190D02*
X73205047Y-103854190D01*
X73347904Y-103854190D02*
X73347904Y-103354190D01*
X73300285Y-103425619D01*
X73252666Y-103473238D01*
X73205047Y-103497047D01*
X73800285Y-103354190D02*
X73847904Y-103354190D01*
X73895523Y-103378000D01*
X73919333Y-103401809D01*
X73943142Y-103449428D01*
X73966952Y-103544666D01*
X73966952Y-103663714D01*
X73943142Y-103758952D01*
X73919333Y-103806571D01*
X73895523Y-103830380D01*
X73847904Y-103854190D01*
X73800285Y-103854190D01*
X73752666Y-103830380D01*
X73728857Y-103806571D01*
X73705047Y-103758952D01*
X73681238Y-103663714D01*
X73681238Y-103544666D01*
X73705047Y-103449428D01*
X73728857Y-103401809D01*
X73752666Y-103378000D01*
X73800285Y-103354190D01*
D13*
%TO.C,BZ2*%
X118467428Y-140532571D02*
X118610285Y-140580190D01*
X118657904Y-140627809D01*
X118705523Y-140723047D01*
X118705523Y-140865904D01*
X118657904Y-140961142D01*
X118610285Y-141008761D01*
X118515047Y-141056380D01*
X118134095Y-141056380D01*
X118134095Y-140056380D01*
X118467428Y-140056380D01*
X118562666Y-140104000D01*
X118610285Y-140151619D01*
X118657904Y-140246857D01*
X118657904Y-140342095D01*
X118610285Y-140437333D01*
X118562666Y-140484952D01*
X118467428Y-140532571D01*
X118134095Y-140532571D01*
X119562666Y-140389714D02*
X119562666Y-141056380D01*
X119134095Y-140389714D02*
X119134095Y-140913523D01*
X119181714Y-141008761D01*
X119276952Y-141056380D01*
X119419809Y-141056380D01*
X119515047Y-141008761D01*
X119562666Y-140961142D01*
X119943619Y-140389714D02*
X120467428Y-140389714D01*
X119943619Y-141056380D01*
X120467428Y-141056380D01*
X120753142Y-140389714D02*
X121276952Y-140389714D01*
X120753142Y-141056380D01*
X121276952Y-141056380D01*
X122038857Y-141008761D02*
X121943619Y-141056380D01*
X121753142Y-141056380D01*
X121657904Y-141008761D01*
X121610285Y-140913523D01*
X121610285Y-140532571D01*
X121657904Y-140437333D01*
X121753142Y-140389714D01*
X121943619Y-140389714D01*
X122038857Y-140437333D01*
X122086476Y-140532571D01*
X122086476Y-140627809D01*
X121610285Y-140723047D01*
X122515047Y-141056380D02*
X122515047Y-140389714D01*
X122515047Y-140580190D02*
X122562666Y-140484952D01*
X122610285Y-140437333D01*
X122705523Y-140389714D01*
X122800761Y-140389714D01*
X119515047Y-133532571D02*
X119657904Y-133580190D01*
X119705523Y-133627809D01*
X119753142Y-133723047D01*
X119753142Y-133865904D01*
X119705523Y-133961142D01*
X119657904Y-134008761D01*
X119562666Y-134056380D01*
X119181714Y-134056380D01*
X119181714Y-133056380D01*
X119515047Y-133056380D01*
X119610285Y-133104000D01*
X119657904Y-133151619D01*
X119705523Y-133246857D01*
X119705523Y-133342095D01*
X119657904Y-133437333D01*
X119610285Y-133484952D01*
X119515047Y-133532571D01*
X119181714Y-133532571D01*
X120086476Y-133056380D02*
X120753142Y-133056380D01*
X120086476Y-134056380D01*
X120753142Y-134056380D01*
X121086476Y-133151619D02*
X121134095Y-133104000D01*
X121229333Y-133056380D01*
X121467428Y-133056380D01*
X121562666Y-133104000D01*
X121610285Y-133151619D01*
X121657904Y-133246857D01*
X121657904Y-133342095D01*
X121610285Y-133484952D01*
X121038857Y-134056380D01*
X121657904Y-134056380D01*
%TO.C,U6*%
X56348380Y-84946476D02*
X57348380Y-84613142D01*
X56348380Y-84279809D01*
X57348380Y-83470285D02*
X57348380Y-83946476D01*
X56348380Y-83946476D01*
X56348380Y-82708380D02*
X56348380Y-82898857D01*
X56396000Y-82994095D01*
X56443619Y-83041714D01*
X56586476Y-83136952D01*
X56776952Y-83184571D01*
X57157904Y-83184571D01*
X57253142Y-83136952D01*
X57300761Y-83089333D01*
X57348380Y-82994095D01*
X57348380Y-82803619D01*
X57300761Y-82708380D01*
X57253142Y-82660761D01*
X57157904Y-82613142D01*
X56919809Y-82613142D01*
X56824571Y-82660761D01*
X56776952Y-82708380D01*
X56729333Y-82803619D01*
X56729333Y-82994095D01*
X56776952Y-83089333D01*
X56824571Y-83136952D01*
X56919809Y-83184571D01*
X57348380Y-81660761D02*
X57348380Y-82232190D01*
X57348380Y-81946476D02*
X56348380Y-81946476D01*
X56491238Y-82041714D01*
X56586476Y-82136952D01*
X56634095Y-82232190D01*
X56776952Y-81089333D02*
X56729333Y-81184571D01*
X56681714Y-81232190D01*
X56586476Y-81279809D01*
X56538857Y-81279809D01*
X56443619Y-81232190D01*
X56396000Y-81184571D01*
X56348380Y-81089333D01*
X56348380Y-80898857D01*
X56396000Y-80803619D01*
X56443619Y-80756000D01*
X56538857Y-80708380D01*
X56586476Y-80708380D01*
X56681714Y-80756000D01*
X56729333Y-80803619D01*
X56776952Y-80898857D01*
X56776952Y-81089333D01*
X56824571Y-81184571D01*
X56872190Y-81232190D01*
X56967428Y-81279809D01*
X57157904Y-81279809D01*
X57253142Y-81232190D01*
X57300761Y-81184571D01*
X57348380Y-81089333D01*
X57348380Y-80898857D01*
X57300761Y-80803619D01*
X57253142Y-80756000D01*
X57157904Y-80708380D01*
X56967428Y-80708380D01*
X56872190Y-80756000D01*
X56824571Y-80803619D01*
X56776952Y-80898857D01*
X56348380Y-80422666D02*
X57348380Y-80089333D01*
X56348380Y-79756000D01*
X57348380Y-78898857D02*
X57348380Y-79470285D01*
X57348380Y-79184571D02*
X56348380Y-79184571D01*
X56491238Y-79279809D01*
X56586476Y-79375047D01*
X56634095Y-79470285D01*
X57348380Y-78470285D02*
X56348380Y-78470285D01*
X57348380Y-77898857D01*
X56348380Y-77898857D01*
X57348380Y-76851238D02*
X56872190Y-77184571D01*
X57348380Y-77422666D02*
X56348380Y-77422666D01*
X56348380Y-77041714D01*
X56396000Y-76946476D01*
X56443619Y-76898857D01*
X56538857Y-76851238D01*
X56681714Y-76851238D01*
X56776952Y-76898857D01*
X56824571Y-76946476D01*
X56872190Y-77041714D01*
X56872190Y-77422666D01*
X56967428Y-76422666D02*
X56967428Y-75660761D01*
X57348380Y-74660761D02*
X57348380Y-75232190D01*
X57348380Y-74946476D02*
X56348380Y-74946476D01*
X56491238Y-75041714D01*
X56586476Y-75136952D01*
X56634095Y-75232190D01*
X63968380Y-80517904D02*
X64777904Y-80517904D01*
X64873142Y-80470285D01*
X64920761Y-80422666D01*
X64968380Y-80327428D01*
X64968380Y-80136952D01*
X64920761Y-80041714D01*
X64873142Y-79994095D01*
X64777904Y-79946476D01*
X63968380Y-79946476D01*
X63968380Y-79041714D02*
X63968380Y-79232190D01*
X64016000Y-79327428D01*
X64063619Y-79375047D01*
X64206476Y-79470285D01*
X64396952Y-79517904D01*
X64777904Y-79517904D01*
X64873142Y-79470285D01*
X64920761Y-79422666D01*
X64968380Y-79327428D01*
X64968380Y-79136952D01*
X64920761Y-79041714D01*
X64873142Y-78994095D01*
X64777904Y-78946476D01*
X64539809Y-78946476D01*
X64444571Y-78994095D01*
X64396952Y-79041714D01*
X64349333Y-79136952D01*
X64349333Y-79327428D01*
X64396952Y-79422666D01*
X64444571Y-79470285D01*
X64539809Y-79517904D01*
%TO.C,TP6*%
X172250666Y-70366380D02*
X172822095Y-70366380D01*
X172536380Y-71366380D02*
X172536380Y-70366380D01*
X173536380Y-71318761D02*
X173441142Y-71366380D01*
X173250666Y-71366380D01*
X173155428Y-71318761D01*
X173107809Y-71223523D01*
X173107809Y-70842571D01*
X173155428Y-70747333D01*
X173250666Y-70699714D01*
X173441142Y-70699714D01*
X173536380Y-70747333D01*
X173584000Y-70842571D01*
X173584000Y-70937809D01*
X173107809Y-71033047D01*
X173964952Y-71318761D02*
X174060190Y-71366380D01*
X174250666Y-71366380D01*
X174345904Y-71318761D01*
X174393523Y-71223523D01*
X174393523Y-71175904D01*
X174345904Y-71080666D01*
X174250666Y-71033047D01*
X174107809Y-71033047D01*
X174012571Y-70985428D01*
X173964952Y-70890190D01*
X173964952Y-70842571D01*
X174012571Y-70747333D01*
X174107809Y-70699714D01*
X174250666Y-70699714D01*
X174345904Y-70747333D01*
X174679238Y-70699714D02*
X175060190Y-70699714D01*
X174822095Y-70366380D02*
X174822095Y-71223523D01*
X174869714Y-71318761D01*
X174964952Y-71366380D01*
X175060190Y-71366380D01*
X175393523Y-71366380D02*
X175393523Y-70366380D01*
X175774476Y-70366380D01*
X175869714Y-70414000D01*
X175917333Y-70461619D01*
X175964952Y-70556857D01*
X175964952Y-70699714D01*
X175917333Y-70794952D01*
X175869714Y-70842571D01*
X175774476Y-70890190D01*
X175393523Y-70890190D01*
X176536380Y-71366380D02*
X176441142Y-71318761D01*
X176393523Y-71271142D01*
X176345904Y-71175904D01*
X176345904Y-70890190D01*
X176393523Y-70794952D01*
X176441142Y-70747333D01*
X176536380Y-70699714D01*
X176679238Y-70699714D01*
X176774476Y-70747333D01*
X176822095Y-70794952D01*
X176869714Y-70890190D01*
X176869714Y-71175904D01*
X176822095Y-71271142D01*
X176774476Y-71318761D01*
X176679238Y-71366380D01*
X176536380Y-71366380D01*
X177298285Y-71366380D02*
X177298285Y-70699714D01*
X177298285Y-70366380D02*
X177250666Y-70414000D01*
X177298285Y-70461619D01*
X177345904Y-70414000D01*
X177298285Y-70366380D01*
X177298285Y-70461619D01*
X177774476Y-70699714D02*
X177774476Y-71366380D01*
X177774476Y-70794952D02*
X177822095Y-70747333D01*
X177917333Y-70699714D01*
X178060190Y-70699714D01*
X178155428Y-70747333D01*
X178203047Y-70842571D01*
X178203047Y-71366380D01*
X178536380Y-70699714D02*
X178917333Y-70699714D01*
X178679238Y-70366380D02*
X178679238Y-71223523D01*
X178726857Y-71318761D01*
X178822095Y-71366380D01*
X178917333Y-71366380D01*
X175036380Y-69845904D02*
X175036380Y-69274476D01*
X176036380Y-69560190D02*
X175036380Y-69560190D01*
X176036380Y-68941142D02*
X175036380Y-68941142D01*
X175036380Y-68560190D01*
X175084000Y-68464952D01*
X175131619Y-68417333D01*
X175226857Y-68369714D01*
X175369714Y-68369714D01*
X175464952Y-68417333D01*
X175512571Y-68464952D01*
X175560190Y-68560190D01*
X175560190Y-68941142D01*
X175036380Y-67512571D02*
X175036380Y-67703047D01*
X175084000Y-67798285D01*
X175131619Y-67845904D01*
X175274476Y-67941142D01*
X175464952Y-67988761D01*
X175845904Y-67988761D01*
X175941142Y-67941142D01*
X175988761Y-67893523D01*
X176036380Y-67798285D01*
X176036380Y-67607809D01*
X175988761Y-67512571D01*
X175941142Y-67464952D01*
X175845904Y-67417333D01*
X175607809Y-67417333D01*
X175512571Y-67464952D01*
X175464952Y-67512571D01*
X175417333Y-67607809D01*
X175417333Y-67798285D01*
X175464952Y-67893523D01*
X175512571Y-67941142D01*
X175607809Y-67988761D01*
%TO.C,U3*%
X187999619Y-72533523D02*
X186999619Y-72866857D01*
X187999619Y-73200190D01*
X186999619Y-74009714D02*
X186999619Y-73533523D01*
X187999619Y-73533523D01*
X187999619Y-74771619D02*
X187999619Y-74581142D01*
X187952000Y-74485904D01*
X187904380Y-74438285D01*
X187761523Y-74343047D01*
X187571047Y-74295428D01*
X187190095Y-74295428D01*
X187094857Y-74343047D01*
X187047238Y-74390666D01*
X186999619Y-74485904D01*
X186999619Y-74676380D01*
X187047238Y-74771619D01*
X187094857Y-74819238D01*
X187190095Y-74866857D01*
X187428190Y-74866857D01*
X187523428Y-74819238D01*
X187571047Y-74771619D01*
X187618666Y-74676380D01*
X187618666Y-74485904D01*
X187571047Y-74390666D01*
X187523428Y-74343047D01*
X187428190Y-74295428D01*
X186999619Y-75819238D02*
X186999619Y-75247809D01*
X186999619Y-75533523D02*
X187999619Y-75533523D01*
X187856761Y-75438285D01*
X187761523Y-75343047D01*
X187713904Y-75247809D01*
X187571047Y-76390666D02*
X187618666Y-76295428D01*
X187666285Y-76247809D01*
X187761523Y-76200190D01*
X187809142Y-76200190D01*
X187904380Y-76247809D01*
X187952000Y-76295428D01*
X187999619Y-76390666D01*
X187999619Y-76581142D01*
X187952000Y-76676380D01*
X187904380Y-76724000D01*
X187809142Y-76771619D01*
X187761523Y-76771619D01*
X187666285Y-76724000D01*
X187618666Y-76676380D01*
X187571047Y-76581142D01*
X187571047Y-76390666D01*
X187523428Y-76295428D01*
X187475809Y-76247809D01*
X187380571Y-76200190D01*
X187190095Y-76200190D01*
X187094857Y-76247809D01*
X187047238Y-76295428D01*
X186999619Y-76390666D01*
X186999619Y-76581142D01*
X187047238Y-76676380D01*
X187094857Y-76724000D01*
X187190095Y-76771619D01*
X187380571Y-76771619D01*
X187475809Y-76724000D01*
X187523428Y-76676380D01*
X187571047Y-76581142D01*
X187999619Y-77057333D02*
X186999619Y-77390666D01*
X187999619Y-77724000D01*
X186999619Y-78581142D02*
X186999619Y-78009714D01*
X186999619Y-78295428D02*
X187999619Y-78295428D01*
X187856761Y-78200190D01*
X187761523Y-78104952D01*
X187713904Y-78009714D01*
X186999619Y-79009714D02*
X187999619Y-79009714D01*
X186999619Y-79581142D01*
X187999619Y-79581142D01*
X186999619Y-80628761D02*
X187475809Y-80295428D01*
X186999619Y-80057333D02*
X187999619Y-80057333D01*
X187999619Y-80438285D01*
X187952000Y-80533523D01*
X187904380Y-80581142D01*
X187809142Y-80628761D01*
X187666285Y-80628761D01*
X187571047Y-80581142D01*
X187523428Y-80533523D01*
X187475809Y-80438285D01*
X187475809Y-80057333D01*
X187380571Y-81057333D02*
X187380571Y-81819238D01*
X186999619Y-82819238D02*
X186999619Y-82247809D01*
X186999619Y-82533523D02*
X187999619Y-82533523D01*
X187856761Y-82438285D01*
X187761523Y-82343047D01*
X187713904Y-82247809D01*
X208319619Y-76962095D02*
X207510095Y-76962095D01*
X207414857Y-77009714D01*
X207367238Y-77057333D01*
X207319619Y-77152571D01*
X207319619Y-77343047D01*
X207367238Y-77438285D01*
X207414857Y-77485904D01*
X207510095Y-77533523D01*
X208319619Y-77533523D01*
X208319619Y-77914476D02*
X208319619Y-78533523D01*
X207938666Y-78200190D01*
X207938666Y-78343047D01*
X207891047Y-78438285D01*
X207843428Y-78485904D01*
X207748190Y-78533523D01*
X207510095Y-78533523D01*
X207414857Y-78485904D01*
X207367238Y-78438285D01*
X207319619Y-78343047D01*
X207319619Y-78057333D01*
X207367238Y-77962095D01*
X207414857Y-77914476D01*
%TO.C,BZ1*%
X140311428Y-139008571D02*
X140454285Y-139056190D01*
X140501904Y-139103809D01*
X140549523Y-139199047D01*
X140549523Y-139341904D01*
X140501904Y-139437142D01*
X140454285Y-139484761D01*
X140359047Y-139532380D01*
X139978095Y-139532380D01*
X139978095Y-138532380D01*
X140311428Y-138532380D01*
X140406666Y-138580000D01*
X140454285Y-138627619D01*
X140501904Y-138722857D01*
X140501904Y-138818095D01*
X140454285Y-138913333D01*
X140406666Y-138960952D01*
X140311428Y-139008571D01*
X139978095Y-139008571D01*
X141406666Y-138865714D02*
X141406666Y-139532380D01*
X140978095Y-138865714D02*
X140978095Y-139389523D01*
X141025714Y-139484761D01*
X141120952Y-139532380D01*
X141263809Y-139532380D01*
X141359047Y-139484761D01*
X141406666Y-139437142D01*
X141787619Y-138865714D02*
X142311428Y-138865714D01*
X141787619Y-139532380D01*
X142311428Y-139532380D01*
X142597142Y-138865714D02*
X143120952Y-138865714D01*
X142597142Y-139532380D01*
X143120952Y-139532380D01*
X143882857Y-139484761D02*
X143787619Y-139532380D01*
X143597142Y-139532380D01*
X143501904Y-139484761D01*
X143454285Y-139389523D01*
X143454285Y-139008571D01*
X143501904Y-138913333D01*
X143597142Y-138865714D01*
X143787619Y-138865714D01*
X143882857Y-138913333D01*
X143930476Y-139008571D01*
X143930476Y-139103809D01*
X143454285Y-139199047D01*
X144359047Y-139532380D02*
X144359047Y-138865714D01*
X144359047Y-139056190D02*
X144406666Y-138960952D01*
X144454285Y-138913333D01*
X144549523Y-138865714D01*
X144644761Y-138865714D01*
X141359047Y-132008571D02*
X141501904Y-132056190D01*
X141549523Y-132103809D01*
X141597142Y-132199047D01*
X141597142Y-132341904D01*
X141549523Y-132437142D01*
X141501904Y-132484761D01*
X141406666Y-132532380D01*
X141025714Y-132532380D01*
X141025714Y-131532380D01*
X141359047Y-131532380D01*
X141454285Y-131580000D01*
X141501904Y-131627619D01*
X141549523Y-131722857D01*
X141549523Y-131818095D01*
X141501904Y-131913333D01*
X141454285Y-131960952D01*
X141359047Y-132008571D01*
X141025714Y-132008571D01*
X141930476Y-131532380D02*
X142597142Y-131532380D01*
X141930476Y-132532380D01*
X142597142Y-132532380D01*
X143501904Y-132532380D02*
X142930476Y-132532380D01*
X143216190Y-132532380D02*
X143216190Y-131532380D01*
X143120952Y-131675238D01*
X143025714Y-131770476D01*
X142930476Y-131818095D01*
%TO.C,J3*%
X90875142Y-104325714D02*
X90922761Y-104373333D01*
X90970380Y-104516190D01*
X90970380Y-104611428D01*
X90922761Y-104754285D01*
X90827523Y-104849523D01*
X90732285Y-104897142D01*
X90541809Y-104944761D01*
X90398952Y-104944761D01*
X90208476Y-104897142D01*
X90113238Y-104849523D01*
X90018000Y-104754285D01*
X89970380Y-104611428D01*
X89970380Y-104516190D01*
X90018000Y-104373333D01*
X90065619Y-104325714D01*
X90970380Y-103754285D02*
X90922761Y-103849523D01*
X90875142Y-103897142D01*
X90779904Y-103944761D01*
X90494190Y-103944761D01*
X90398952Y-103897142D01*
X90351333Y-103849523D01*
X90303714Y-103754285D01*
X90303714Y-103611428D01*
X90351333Y-103516190D01*
X90398952Y-103468571D01*
X90494190Y-103420952D01*
X90779904Y-103420952D01*
X90875142Y-103468571D01*
X90922761Y-103516190D01*
X90970380Y-103611428D01*
X90970380Y-103754285D01*
X90303714Y-102992380D02*
X90970380Y-102992380D01*
X90398952Y-102992380D02*
X90351333Y-102944761D01*
X90303714Y-102849523D01*
X90303714Y-102706666D01*
X90351333Y-102611428D01*
X90446571Y-102563809D01*
X90970380Y-102563809D01*
X90303714Y-102087619D02*
X90970380Y-102087619D01*
X90398952Y-102087619D02*
X90351333Y-102040000D01*
X90303714Y-101944761D01*
X90303714Y-101801904D01*
X90351333Y-101706666D01*
X90446571Y-101659047D01*
X90970380Y-101659047D01*
X91065619Y-101420952D02*
X91065619Y-100659047D01*
X89970380Y-100230476D02*
X89970380Y-100135238D01*
X90018000Y-100040000D01*
X90065619Y-99992380D01*
X90160857Y-99944761D01*
X90351333Y-99897142D01*
X90589428Y-99897142D01*
X90779904Y-99944761D01*
X90875142Y-99992380D01*
X90922761Y-100040000D01*
X90970380Y-100135238D01*
X90970380Y-100230476D01*
X90922761Y-100325714D01*
X90875142Y-100373333D01*
X90779904Y-100420952D01*
X90589428Y-100468571D01*
X90351333Y-100468571D01*
X90160857Y-100420952D01*
X90065619Y-100373333D01*
X90018000Y-100325714D01*
X89970380Y-100230476D01*
X90970380Y-98944761D02*
X90970380Y-99516190D01*
X90970380Y-99230476D02*
X89970380Y-99230476D01*
X90113238Y-99325714D01*
X90208476Y-99420952D01*
X90256095Y-99516190D01*
X90970380Y-98611428D02*
X90303714Y-98087619D01*
X90303714Y-98611428D02*
X90970380Y-98087619D01*
X89970380Y-97801904D02*
X89970380Y-97182857D01*
X90351333Y-97516190D01*
X90351333Y-97373333D01*
X90398952Y-97278095D01*
X90446571Y-97230476D01*
X90541809Y-97182857D01*
X90779904Y-97182857D01*
X90875142Y-97230476D01*
X90922761Y-97278095D01*
X90970380Y-97373333D01*
X90970380Y-97659047D01*
X90922761Y-97754285D01*
X90875142Y-97801904D01*
X89970380Y-96849523D02*
X89970380Y-96230476D01*
X90351333Y-96563809D01*
X90351333Y-96420952D01*
X90398952Y-96325714D01*
X90446571Y-96278095D01*
X90541809Y-96230476D01*
X90779904Y-96230476D01*
X90875142Y-96278095D01*
X90922761Y-96325714D01*
X90970380Y-96420952D01*
X90970380Y-96706666D01*
X90922761Y-96801904D01*
X90875142Y-96849523D01*
X91065619Y-96040000D02*
X91065619Y-95278095D01*
X90446571Y-94706666D02*
X90446571Y-95040000D01*
X90970380Y-95040000D02*
X89970380Y-95040000D01*
X89970380Y-94563809D01*
X90922761Y-93801904D02*
X90970380Y-93897142D01*
X90970380Y-94087619D01*
X90922761Y-94182857D01*
X90827523Y-94230476D01*
X90446571Y-94230476D01*
X90351333Y-94182857D01*
X90303714Y-94087619D01*
X90303714Y-93897142D01*
X90351333Y-93801904D01*
X90446571Y-93754285D01*
X90541809Y-93754285D01*
X90637047Y-94230476D01*
X90970380Y-93325714D02*
X90303714Y-93325714D01*
X90398952Y-93325714D02*
X90351333Y-93278095D01*
X90303714Y-93182857D01*
X90303714Y-93040000D01*
X90351333Y-92944761D01*
X90446571Y-92897142D01*
X90970380Y-92897142D01*
X90446571Y-92897142D02*
X90351333Y-92849523D01*
X90303714Y-92754285D01*
X90303714Y-92611428D01*
X90351333Y-92516190D01*
X90446571Y-92468571D01*
X90970380Y-92468571D01*
X90970380Y-91563809D02*
X90446571Y-91563809D01*
X90351333Y-91611428D01*
X90303714Y-91706666D01*
X90303714Y-91897142D01*
X90351333Y-91992380D01*
X90922761Y-91563809D02*
X90970380Y-91659047D01*
X90970380Y-91897142D01*
X90922761Y-91992380D01*
X90827523Y-92040000D01*
X90732285Y-92040000D01*
X90637047Y-91992380D01*
X90589428Y-91897142D01*
X90589428Y-91659047D01*
X90541809Y-91563809D01*
X90970380Y-90944761D02*
X90922761Y-91040000D01*
X90827523Y-91087619D01*
X89970380Y-91087619D01*
X90922761Y-90182857D02*
X90970380Y-90278095D01*
X90970380Y-90468571D01*
X90922761Y-90563809D01*
X90827523Y-90611428D01*
X90446571Y-90611428D01*
X90351333Y-90563809D01*
X90303714Y-90468571D01*
X90303714Y-90278095D01*
X90351333Y-90182857D01*
X90446571Y-90135238D01*
X90541809Y-90135238D01*
X90637047Y-90611428D01*
X133594666Y-96992380D02*
X133594666Y-97706666D01*
X133547047Y-97849523D01*
X133451809Y-97944761D01*
X133308952Y-97992380D01*
X133213714Y-97992380D01*
X133975619Y-96992380D02*
X134594666Y-96992380D01*
X134261333Y-97373333D01*
X134404190Y-97373333D01*
X134499428Y-97420952D01*
X134547047Y-97468571D01*
X134594666Y-97563809D01*
X134594666Y-97801904D01*
X134547047Y-97897142D01*
X134499428Y-97944761D01*
X134404190Y-97992380D01*
X134118476Y-97992380D01*
X134023238Y-97944761D01*
X133975619Y-97897142D01*
%TO.C,R11*%
X80431714Y-77906476D02*
X81098380Y-77906476D01*
X80050761Y-78144571D02*
X80765047Y-78382666D01*
X80765047Y-77763619D01*
X80098380Y-77477904D02*
X80098380Y-76811238D01*
X81098380Y-77239809D01*
X81098380Y-76430285D02*
X80098380Y-76430285D01*
X80717428Y-76335047D02*
X81098380Y-76049333D01*
X80431714Y-76049333D02*
X80812666Y-76430285D01*
D14*
X82522190Y-77537428D02*
X82284095Y-77704095D01*
X82522190Y-77823142D02*
X82022190Y-77823142D01*
X82022190Y-77632666D01*
X82046000Y-77585047D01*
X82069809Y-77561238D01*
X82117428Y-77537428D01*
X82188857Y-77537428D01*
X82236476Y-77561238D01*
X82260285Y-77585047D01*
X82284095Y-77632666D01*
X82284095Y-77823142D01*
X82522190Y-77061238D02*
X82522190Y-77346952D01*
X82522190Y-77204095D02*
X82022190Y-77204095D01*
X82093619Y-77251714D01*
X82141238Y-77299333D01*
X82165047Y-77346952D01*
X82522190Y-76585047D02*
X82522190Y-76870761D01*
X82522190Y-76727904D02*
X82022190Y-76727904D01*
X82093619Y-76775523D01*
X82141238Y-76823142D01*
X82165047Y-76870761D01*
D13*
%TO.C,Q4*%
X157121714Y-69379619D02*
X157169333Y-69332000D01*
X157264571Y-69284380D01*
X157502666Y-69284380D01*
X157597904Y-69332000D01*
X157645523Y-69379619D01*
X157693142Y-69474857D01*
X157693142Y-69570095D01*
X157645523Y-69712952D01*
X157074095Y-70284380D01*
X157693142Y-70284380D01*
X158121714Y-70284380D02*
X158121714Y-69284380D01*
X158693142Y-70284380D01*
X158693142Y-69284380D01*
X159074095Y-69284380D02*
X159693142Y-69284380D01*
X159359809Y-69665333D01*
X159502666Y-69665333D01*
X159597904Y-69712952D01*
X159645523Y-69760571D01*
X159693142Y-69855809D01*
X159693142Y-70093904D01*
X159645523Y-70189142D01*
X159597904Y-70236761D01*
X159502666Y-70284380D01*
X159216952Y-70284380D01*
X159121714Y-70236761D01*
X159074095Y-70189142D01*
X160169333Y-70284380D02*
X160359809Y-70284380D01*
X160455047Y-70236761D01*
X160502666Y-70189142D01*
X160597904Y-70046285D01*
X160645523Y-69855809D01*
X160645523Y-69474857D01*
X160597904Y-69379619D01*
X160550285Y-69332000D01*
X160455047Y-69284380D01*
X160264571Y-69284380D01*
X160169333Y-69332000D01*
X160121714Y-69379619D01*
X160074095Y-69474857D01*
X160074095Y-69712952D01*
X160121714Y-69808190D01*
X160169333Y-69855809D01*
X160264571Y-69903428D01*
X160455047Y-69903428D01*
X160550285Y-69855809D01*
X160597904Y-69808190D01*
X160645523Y-69712952D01*
X161264571Y-69284380D02*
X161359809Y-69284380D01*
X161455047Y-69332000D01*
X161502666Y-69379619D01*
X161550285Y-69474857D01*
X161597904Y-69665333D01*
X161597904Y-69903428D01*
X161550285Y-70093904D01*
X161502666Y-70189142D01*
X161455047Y-70236761D01*
X161359809Y-70284380D01*
X161264571Y-70284380D01*
X161169333Y-70236761D01*
X161121714Y-70189142D01*
X161074095Y-70093904D01*
X161026476Y-69903428D01*
X161026476Y-69665333D01*
X161074095Y-69474857D01*
X161121714Y-69379619D01*
X161169333Y-69332000D01*
X161264571Y-69284380D01*
X162455047Y-69617714D02*
X162455047Y-70284380D01*
X162216952Y-69236761D02*
X161978857Y-69951047D01*
X162597904Y-69951047D01*
X159740761Y-58739619D02*
X159645523Y-58692000D01*
X159550285Y-58596761D01*
X159407428Y-58453904D01*
X159312190Y-58406285D01*
X159216952Y-58406285D01*
X159264571Y-58644380D02*
X159169333Y-58596761D01*
X159074095Y-58501523D01*
X159026476Y-58311047D01*
X159026476Y-57977714D01*
X159074095Y-57787238D01*
X159169333Y-57692000D01*
X159264571Y-57644380D01*
X159455047Y-57644380D01*
X159550285Y-57692000D01*
X159645523Y-57787238D01*
X159693142Y-57977714D01*
X159693142Y-58311047D01*
X159645523Y-58501523D01*
X159550285Y-58596761D01*
X159455047Y-58644380D01*
X159264571Y-58644380D01*
X160550285Y-57977714D02*
X160550285Y-58644380D01*
X160312190Y-57596761D02*
X160074095Y-58311047D01*
X160693142Y-58311047D01*
%TO.C,R1*%
X92575047Y-30058380D02*
X92098857Y-30058380D01*
X92051238Y-30534571D01*
X92098857Y-30486952D01*
X92194095Y-30439333D01*
X92432190Y-30439333D01*
X92527428Y-30486952D01*
X92575047Y-30534571D01*
X92622666Y-30629809D01*
X92622666Y-30867904D01*
X92575047Y-30963142D01*
X92527428Y-31010761D01*
X92432190Y-31058380D01*
X92194095Y-31058380D01*
X92098857Y-31010761D01*
X92051238Y-30963142D01*
X93051238Y-30963142D02*
X93098857Y-31010761D01*
X93051238Y-31058380D01*
X93003619Y-31010761D01*
X93051238Y-30963142D01*
X93051238Y-31058380D01*
X93956000Y-30058380D02*
X93765523Y-30058380D01*
X93670285Y-30106000D01*
X93622666Y-30153619D01*
X93527428Y-30296476D01*
X93479809Y-30486952D01*
X93479809Y-30867904D01*
X93527428Y-30963142D01*
X93575047Y-31010761D01*
X93670285Y-31058380D01*
X93860761Y-31058380D01*
X93956000Y-31010761D01*
X94003619Y-30963142D01*
X94051238Y-30867904D01*
X94051238Y-30629809D01*
X94003619Y-30534571D01*
X93956000Y-30486952D01*
X93860761Y-30439333D01*
X93670285Y-30439333D01*
X93575047Y-30486952D01*
X93527428Y-30534571D01*
X93479809Y-30629809D01*
X94479809Y-31058380D02*
X94479809Y-30058380D01*
X94575047Y-30677428D02*
X94860761Y-31058380D01*
X94860761Y-30391714D02*
X94479809Y-30772666D01*
D14*
X93372666Y-29182190D02*
X93206000Y-28944095D01*
X93086952Y-29182190D02*
X93086952Y-28682190D01*
X93277428Y-28682190D01*
X93325047Y-28706000D01*
X93348857Y-28729809D01*
X93372666Y-28777428D01*
X93372666Y-28848857D01*
X93348857Y-28896476D01*
X93325047Y-28920285D01*
X93277428Y-28944095D01*
X93086952Y-28944095D01*
X93848857Y-29182190D02*
X93563142Y-29182190D01*
X93706000Y-29182190D02*
X93706000Y-28682190D01*
X93658380Y-28753619D01*
X93610761Y-28801238D01*
X93563142Y-28825047D01*
D13*
%TO.C,R8*%
X78549714Y-52410380D02*
X78073523Y-52410380D01*
X78025904Y-52886571D01*
X78073523Y-52838952D01*
X78168761Y-52791333D01*
X78406857Y-52791333D01*
X78502095Y-52838952D01*
X78549714Y-52886571D01*
X78597333Y-52981809D01*
X78597333Y-53219904D01*
X78549714Y-53315142D01*
X78502095Y-53362761D01*
X78406857Y-53410380D01*
X78168761Y-53410380D01*
X78073523Y-53362761D01*
X78025904Y-53315142D01*
X79454476Y-52410380D02*
X79264000Y-52410380D01*
X79168761Y-52458000D01*
X79121142Y-52505619D01*
X79025904Y-52648476D01*
X78978285Y-52838952D01*
X78978285Y-53219904D01*
X79025904Y-53315142D01*
X79073523Y-53362761D01*
X79168761Y-53410380D01*
X79359238Y-53410380D01*
X79454476Y-53362761D01*
X79502095Y-53315142D01*
X79549714Y-53219904D01*
X79549714Y-52981809D01*
X79502095Y-52886571D01*
X79454476Y-52838952D01*
X79359238Y-52791333D01*
X79168761Y-52791333D01*
X79073523Y-52838952D01*
X79025904Y-52886571D01*
X78978285Y-52981809D01*
X80168761Y-52410380D02*
X80264000Y-52410380D01*
X80359238Y-52458000D01*
X80406857Y-52505619D01*
X80454476Y-52600857D01*
X80502095Y-52791333D01*
X80502095Y-53029428D01*
X80454476Y-53219904D01*
X80406857Y-53315142D01*
X80359238Y-53362761D01*
X80264000Y-53410380D01*
X80168761Y-53410380D01*
X80073523Y-53362761D01*
X80025904Y-53315142D01*
X79978285Y-53219904D01*
X79930666Y-53029428D01*
X79930666Y-52791333D01*
X79978285Y-52600857D01*
X80025904Y-52505619D01*
X80073523Y-52458000D01*
X80168761Y-52410380D01*
D14*
X79180666Y-51534190D02*
X79014000Y-51296095D01*
X78894952Y-51534190D02*
X78894952Y-51034190D01*
X79085428Y-51034190D01*
X79133047Y-51058000D01*
X79156857Y-51081809D01*
X79180666Y-51129428D01*
X79180666Y-51200857D01*
X79156857Y-51248476D01*
X79133047Y-51272285D01*
X79085428Y-51296095D01*
X78894952Y-51296095D01*
X79466380Y-51248476D02*
X79418761Y-51224666D01*
X79394952Y-51200857D01*
X79371142Y-51153238D01*
X79371142Y-51129428D01*
X79394952Y-51081809D01*
X79418761Y-51058000D01*
X79466380Y-51034190D01*
X79561619Y-51034190D01*
X79609238Y-51058000D01*
X79633047Y-51081809D01*
X79656857Y-51129428D01*
X79656857Y-51153238D01*
X79633047Y-51200857D01*
X79609238Y-51224666D01*
X79561619Y-51248476D01*
X79466380Y-51248476D01*
X79418761Y-51272285D01*
X79394952Y-51296095D01*
X79371142Y-51343714D01*
X79371142Y-51438952D01*
X79394952Y-51486571D01*
X79418761Y-51510380D01*
X79466380Y-51534190D01*
X79561619Y-51534190D01*
X79609238Y-51510380D01*
X79633047Y-51486571D01*
X79656857Y-51438952D01*
X79656857Y-51343714D01*
X79633047Y-51296095D01*
X79609238Y-51272285D01*
X79561619Y-51248476D01*
D13*
%TO.C,TP7*%
X156424666Y-91702380D02*
X156996095Y-91702380D01*
X156710380Y-92702380D02*
X156710380Y-91702380D01*
X157710380Y-92654761D02*
X157615142Y-92702380D01*
X157424666Y-92702380D01*
X157329428Y-92654761D01*
X157281809Y-92559523D01*
X157281809Y-92178571D01*
X157329428Y-92083333D01*
X157424666Y-92035714D01*
X157615142Y-92035714D01*
X157710380Y-92083333D01*
X157758000Y-92178571D01*
X157758000Y-92273809D01*
X157281809Y-92369047D01*
X158138952Y-92654761D02*
X158234190Y-92702380D01*
X158424666Y-92702380D01*
X158519904Y-92654761D01*
X158567523Y-92559523D01*
X158567523Y-92511904D01*
X158519904Y-92416666D01*
X158424666Y-92369047D01*
X158281809Y-92369047D01*
X158186571Y-92321428D01*
X158138952Y-92226190D01*
X158138952Y-92178571D01*
X158186571Y-92083333D01*
X158281809Y-92035714D01*
X158424666Y-92035714D01*
X158519904Y-92083333D01*
X158853238Y-92035714D02*
X159234190Y-92035714D01*
X158996095Y-91702380D02*
X158996095Y-92559523D01*
X159043714Y-92654761D01*
X159138952Y-92702380D01*
X159234190Y-92702380D01*
X159567523Y-92702380D02*
X159567523Y-91702380D01*
X159948476Y-91702380D01*
X160043714Y-91750000D01*
X160091333Y-91797619D01*
X160138952Y-91892857D01*
X160138952Y-92035714D01*
X160091333Y-92130952D01*
X160043714Y-92178571D01*
X159948476Y-92226190D01*
X159567523Y-92226190D01*
X160710380Y-92702380D02*
X160615142Y-92654761D01*
X160567523Y-92607142D01*
X160519904Y-92511904D01*
X160519904Y-92226190D01*
X160567523Y-92130952D01*
X160615142Y-92083333D01*
X160710380Y-92035714D01*
X160853238Y-92035714D01*
X160948476Y-92083333D01*
X160996095Y-92130952D01*
X161043714Y-92226190D01*
X161043714Y-92511904D01*
X160996095Y-92607142D01*
X160948476Y-92654761D01*
X160853238Y-92702380D01*
X160710380Y-92702380D01*
X161472285Y-92702380D02*
X161472285Y-92035714D01*
X161472285Y-91702380D02*
X161424666Y-91750000D01*
X161472285Y-91797619D01*
X161519904Y-91750000D01*
X161472285Y-91702380D01*
X161472285Y-91797619D01*
X161948476Y-92035714D02*
X161948476Y-92702380D01*
X161948476Y-92130952D02*
X161996095Y-92083333D01*
X162091333Y-92035714D01*
X162234190Y-92035714D01*
X162329428Y-92083333D01*
X162377047Y-92178571D01*
X162377047Y-92702380D01*
X162710380Y-92035714D02*
X163091333Y-92035714D01*
X162853238Y-91702380D02*
X162853238Y-92559523D01*
X162900857Y-92654761D01*
X162996095Y-92702380D01*
X163091333Y-92702380D01*
X159210380Y-91181904D02*
X159210380Y-90610476D01*
X160210380Y-90896190D02*
X159210380Y-90896190D01*
X160210380Y-90277142D02*
X159210380Y-90277142D01*
X159210380Y-89896190D01*
X159258000Y-89800952D01*
X159305619Y-89753333D01*
X159400857Y-89705714D01*
X159543714Y-89705714D01*
X159638952Y-89753333D01*
X159686571Y-89800952D01*
X159734190Y-89896190D01*
X159734190Y-90277142D01*
X159210380Y-89372380D02*
X159210380Y-88705714D01*
X160210380Y-89134285D01*
%TO.C,R13*%
X150946285Y-68162380D02*
X151565333Y-68162380D01*
X151232000Y-68543333D01*
X151374857Y-68543333D01*
X151470095Y-68590952D01*
X151517714Y-68638571D01*
X151565333Y-68733809D01*
X151565333Y-68971904D01*
X151517714Y-69067142D01*
X151470095Y-69114761D01*
X151374857Y-69162380D01*
X151089142Y-69162380D01*
X150993904Y-69114761D01*
X150946285Y-69067142D01*
X152184380Y-68162380D02*
X152279619Y-68162380D01*
X152374857Y-68210000D01*
X152422476Y-68257619D01*
X152470095Y-68352857D01*
X152517714Y-68543333D01*
X152517714Y-68781428D01*
X152470095Y-68971904D01*
X152422476Y-69067142D01*
X152374857Y-69114761D01*
X152279619Y-69162380D01*
X152184380Y-69162380D01*
X152089142Y-69114761D01*
X152041523Y-69067142D01*
X151993904Y-68971904D01*
X151946285Y-68781428D01*
X151946285Y-68543333D01*
X151993904Y-68352857D01*
X152041523Y-68257619D01*
X152089142Y-68210000D01*
X152184380Y-68162380D01*
X153136761Y-68162380D02*
X153232000Y-68162380D01*
X153327238Y-68210000D01*
X153374857Y-68257619D01*
X153422476Y-68352857D01*
X153470095Y-68543333D01*
X153470095Y-68781428D01*
X153422476Y-68971904D01*
X153374857Y-69067142D01*
X153327238Y-69114761D01*
X153232000Y-69162380D01*
X153136761Y-69162380D01*
X153041523Y-69114761D01*
X152993904Y-69067142D01*
X152946285Y-68971904D01*
X152898666Y-68781428D01*
X152898666Y-68543333D01*
X152946285Y-68352857D01*
X152993904Y-68257619D01*
X153041523Y-68210000D01*
X153136761Y-68162380D01*
D14*
X151910571Y-67286190D02*
X151743904Y-67048095D01*
X151624857Y-67286190D02*
X151624857Y-66786190D01*
X151815333Y-66786190D01*
X151862952Y-66810000D01*
X151886761Y-66833809D01*
X151910571Y-66881428D01*
X151910571Y-66952857D01*
X151886761Y-67000476D01*
X151862952Y-67024285D01*
X151815333Y-67048095D01*
X151624857Y-67048095D01*
X152386761Y-67286190D02*
X152101047Y-67286190D01*
X152243904Y-67286190D02*
X152243904Y-66786190D01*
X152196285Y-66857619D01*
X152148666Y-66905238D01*
X152101047Y-66929047D01*
X152553428Y-66786190D02*
X152862952Y-66786190D01*
X152696285Y-66976666D01*
X152767714Y-66976666D01*
X152815333Y-67000476D01*
X152839142Y-67024285D01*
X152862952Y-67071904D01*
X152862952Y-67190952D01*
X152839142Y-67238571D01*
X152815333Y-67262380D01*
X152767714Y-67286190D01*
X152624857Y-67286190D01*
X152577238Y-67262380D01*
X152553428Y-67238571D01*
D13*
%TO.C,C11*%
X181894142Y-76226380D02*
X181989380Y-76226380D01*
X182084619Y-76274000D01*
X182132238Y-76321619D01*
X182179857Y-76416857D01*
X182227476Y-76607333D01*
X182227476Y-76845428D01*
X182179857Y-77035904D01*
X182132238Y-77131142D01*
X182084619Y-77178761D01*
X181989380Y-77226380D01*
X181894142Y-77226380D01*
X181798904Y-77178761D01*
X181751285Y-77131142D01*
X181703666Y-77035904D01*
X181656047Y-76845428D01*
X181656047Y-76607333D01*
X181703666Y-76416857D01*
X181751285Y-76321619D01*
X181798904Y-76274000D01*
X181894142Y-76226380D01*
X182656047Y-77131142D02*
X182703666Y-77178761D01*
X182656047Y-77226380D01*
X182608428Y-77178761D01*
X182656047Y-77131142D01*
X182656047Y-77226380D01*
X183656047Y-77226380D02*
X183084619Y-77226380D01*
X183370333Y-77226380D02*
X183370333Y-76226380D01*
X183275095Y-76369238D01*
X183179857Y-76464476D01*
X183084619Y-76512095D01*
X184513190Y-76559714D02*
X184513190Y-77226380D01*
X184084619Y-76559714D02*
X184084619Y-77083523D01*
X184132238Y-77178761D01*
X184227476Y-77226380D01*
X184370333Y-77226380D01*
X184465571Y-77178761D01*
X184513190Y-77131142D01*
X185322714Y-76702571D02*
X184989380Y-76702571D01*
X184989380Y-77226380D02*
X184989380Y-76226380D01*
X185465571Y-76226380D01*
D14*
X183215571Y-75272571D02*
X183191761Y-75296380D01*
X183120333Y-75320190D01*
X183072714Y-75320190D01*
X183001285Y-75296380D01*
X182953666Y-75248761D01*
X182929857Y-75201142D01*
X182906047Y-75105904D01*
X182906047Y-75034476D01*
X182929857Y-74939238D01*
X182953666Y-74891619D01*
X183001285Y-74844000D01*
X183072714Y-74820190D01*
X183120333Y-74820190D01*
X183191761Y-74844000D01*
X183215571Y-74867809D01*
X183691761Y-75320190D02*
X183406047Y-75320190D01*
X183548904Y-75320190D02*
X183548904Y-74820190D01*
X183501285Y-74891619D01*
X183453666Y-74939238D01*
X183406047Y-74963047D01*
X184167952Y-75320190D02*
X183882238Y-75320190D01*
X184025095Y-75320190D02*
X184025095Y-74820190D01*
X183977476Y-74891619D01*
X183929857Y-74939238D01*
X183882238Y-74963047D01*
D13*
%TO.C,R19*%
X102092452Y-111578380D02*
X101521023Y-111578380D01*
X101806738Y-111578380D02*
X101806738Y-110578380D01*
X101711500Y-110721238D01*
X101616261Y-110816476D01*
X101521023Y-110864095D01*
X102521023Y-111578380D02*
X102521023Y-110578380D01*
X102616261Y-111197428D02*
X102901976Y-111578380D01*
X102901976Y-110911714D02*
X102521023Y-111292666D01*
D14*
X101890071Y-112494190D02*
X101723404Y-112256095D01*
X101604357Y-112494190D02*
X101604357Y-111994190D01*
X101794833Y-111994190D01*
X101842452Y-112018000D01*
X101866261Y-112041809D01*
X101890071Y-112089428D01*
X101890071Y-112160857D01*
X101866261Y-112208476D01*
X101842452Y-112232285D01*
X101794833Y-112256095D01*
X101604357Y-112256095D01*
X102366261Y-112494190D02*
X102080547Y-112494190D01*
X102223404Y-112494190D02*
X102223404Y-111994190D01*
X102175785Y-112065619D01*
X102128166Y-112113238D01*
X102080547Y-112137047D01*
X102604357Y-112494190D02*
X102699595Y-112494190D01*
X102747214Y-112470380D01*
X102771023Y-112446571D01*
X102818642Y-112375142D01*
X102842452Y-112279904D01*
X102842452Y-112089428D01*
X102818642Y-112041809D01*
X102794833Y-112018000D01*
X102747214Y-111994190D01*
X102651976Y-111994190D01*
X102604357Y-112018000D01*
X102580547Y-112041809D01*
X102556738Y-112089428D01*
X102556738Y-112208476D01*
X102580547Y-112256095D01*
X102604357Y-112279904D01*
X102651976Y-112303714D01*
X102747214Y-112303714D01*
X102794833Y-112279904D01*
X102818642Y-112256095D01*
X102842452Y-112208476D01*
D13*
%TO.C,R21*%
X71445523Y-85511714D02*
X71445523Y-86178380D01*
X71207428Y-85130761D02*
X70969333Y-85845047D01*
X71588380Y-85845047D01*
X71874095Y-85178380D02*
X72540761Y-85178380D01*
X72112190Y-86178380D01*
X72921714Y-86178380D02*
X72921714Y-85178380D01*
X73016952Y-85797428D02*
X73302666Y-86178380D01*
X73302666Y-85511714D02*
X72921714Y-85892666D01*
D14*
X71814571Y-87602190D02*
X71647904Y-87364095D01*
X71528857Y-87602190D02*
X71528857Y-87102190D01*
X71719333Y-87102190D01*
X71766952Y-87126000D01*
X71790761Y-87149809D01*
X71814571Y-87197428D01*
X71814571Y-87268857D01*
X71790761Y-87316476D01*
X71766952Y-87340285D01*
X71719333Y-87364095D01*
X71528857Y-87364095D01*
X72005047Y-87149809D02*
X72028857Y-87126000D01*
X72076476Y-87102190D01*
X72195523Y-87102190D01*
X72243142Y-87126000D01*
X72266952Y-87149809D01*
X72290761Y-87197428D01*
X72290761Y-87245047D01*
X72266952Y-87316476D01*
X71981238Y-87602190D01*
X72290761Y-87602190D01*
X72766952Y-87602190D02*
X72481238Y-87602190D01*
X72624095Y-87602190D02*
X72624095Y-87102190D01*
X72576476Y-87173619D01*
X72528857Y-87221238D01*
X72481238Y-87245047D01*
D13*
%TO.C,D7*%
X137373142Y-64394380D02*
X136801714Y-64394380D01*
X137087428Y-64394380D02*
X137087428Y-63394380D01*
X136992190Y-63537238D01*
X136896952Y-63632476D01*
X136801714Y-63680095D01*
X137801714Y-64394380D02*
X137801714Y-63394380D01*
X138373142Y-64394380D01*
X138373142Y-63394380D01*
X139277904Y-63727714D02*
X139277904Y-64394380D01*
X139039809Y-63346761D02*
X138801714Y-64061047D01*
X139420761Y-64061047D01*
X139992190Y-63394380D02*
X140087428Y-63394380D01*
X140182666Y-63442000D01*
X140230285Y-63489619D01*
X140277904Y-63584857D01*
X140325523Y-63775333D01*
X140325523Y-64013428D01*
X140277904Y-64203904D01*
X140230285Y-64299142D01*
X140182666Y-64346761D01*
X140087428Y-64394380D01*
X139992190Y-64394380D01*
X139896952Y-64346761D01*
X139849333Y-64299142D01*
X139801714Y-64203904D01*
X139754095Y-64013428D01*
X139754095Y-63775333D01*
X139801714Y-63584857D01*
X139849333Y-63489619D01*
X139896952Y-63442000D01*
X139992190Y-63394380D01*
X140944571Y-63394380D02*
X141039809Y-63394380D01*
X141135047Y-63442000D01*
X141182666Y-63489619D01*
X141230285Y-63584857D01*
X141277904Y-63775333D01*
X141277904Y-64013428D01*
X141230285Y-64203904D01*
X141182666Y-64299142D01*
X141135047Y-64346761D01*
X141039809Y-64394380D01*
X140944571Y-64394380D01*
X140849333Y-64346761D01*
X140801714Y-64299142D01*
X140754095Y-64203904D01*
X140706476Y-64013428D01*
X140706476Y-63775333D01*
X140754095Y-63584857D01*
X140801714Y-63489619D01*
X140849333Y-63442000D01*
X140944571Y-63394380D01*
X142230285Y-64394380D02*
X141658857Y-64394380D01*
X141944571Y-64394380D02*
X141944571Y-63394380D01*
X141849333Y-63537238D01*
X141754095Y-63632476D01*
X141658857Y-63680095D01*
X134174095Y-59824380D02*
X134174095Y-58824380D01*
X134745523Y-59824380D02*
X134316952Y-59252952D01*
X134745523Y-58824380D02*
X134174095Y-59395809D01*
X139167904Y-61924380D02*
X139167904Y-60924380D01*
X139406000Y-60924380D01*
X139548857Y-60972000D01*
X139644095Y-61067238D01*
X139691714Y-61162476D01*
X139739333Y-61352952D01*
X139739333Y-61495809D01*
X139691714Y-61686285D01*
X139644095Y-61781523D01*
X139548857Y-61876761D01*
X139406000Y-61924380D01*
X139167904Y-61924380D01*
X140072666Y-60924380D02*
X140739333Y-60924380D01*
X140310761Y-61924380D01*
%TO.C,D3*%
X135816142Y-80338380D02*
X135339952Y-80338380D01*
X135339952Y-79338380D01*
X136149476Y-79814571D02*
X136482809Y-79814571D01*
X136625666Y-80338380D02*
X136149476Y-80338380D01*
X136149476Y-79338380D01*
X136625666Y-79338380D01*
X137054238Y-80338380D02*
X137054238Y-79338380D01*
X137292333Y-79338380D01*
X137435190Y-79386000D01*
X137530428Y-79481238D01*
X137578047Y-79576476D01*
X137625666Y-79766952D01*
X137625666Y-79909809D01*
X137578047Y-80100285D01*
X137530428Y-80195523D01*
X137435190Y-80290761D01*
X137292333Y-80338380D01*
X137054238Y-80338380D01*
D14*
X136089952Y-78462190D02*
X136089952Y-77962190D01*
X136209000Y-77962190D01*
X136280428Y-77986000D01*
X136328047Y-78033619D01*
X136351857Y-78081238D01*
X136375666Y-78176476D01*
X136375666Y-78247904D01*
X136351857Y-78343142D01*
X136328047Y-78390761D01*
X136280428Y-78438380D01*
X136209000Y-78462190D01*
X136089952Y-78462190D01*
X136542333Y-77962190D02*
X136851857Y-77962190D01*
X136685190Y-78152666D01*
X136756619Y-78152666D01*
X136804238Y-78176476D01*
X136828047Y-78200285D01*
X136851857Y-78247904D01*
X136851857Y-78366952D01*
X136828047Y-78414571D01*
X136804238Y-78438380D01*
X136756619Y-78462190D01*
X136613761Y-78462190D01*
X136566142Y-78438380D01*
X136542333Y-78414571D01*
D13*
%TO.C,C2*%
X176496952Y-130660380D02*
X175925523Y-130660380D01*
X176211238Y-130660380D02*
X176211238Y-129660380D01*
X176116000Y-129803238D01*
X176020761Y-129898476D01*
X175925523Y-129946095D01*
X177116000Y-129660380D02*
X177211238Y-129660380D01*
X177306476Y-129708000D01*
X177354095Y-129755619D01*
X177401714Y-129850857D01*
X177449333Y-130041333D01*
X177449333Y-130279428D01*
X177401714Y-130469904D01*
X177354095Y-130565142D01*
X177306476Y-130612761D01*
X177211238Y-130660380D01*
X177116000Y-130660380D01*
X177020761Y-130612761D01*
X176973142Y-130565142D01*
X176925523Y-130469904D01*
X176877904Y-130279428D01*
X176877904Y-130041333D01*
X176925523Y-129850857D01*
X176973142Y-129755619D01*
X177020761Y-129708000D01*
X177116000Y-129660380D01*
X178068380Y-129660380D02*
X178163619Y-129660380D01*
X178258857Y-129708000D01*
X178306476Y-129755619D01*
X178354095Y-129850857D01*
X178401714Y-130041333D01*
X178401714Y-130279428D01*
X178354095Y-130469904D01*
X178306476Y-130565142D01*
X178258857Y-130612761D01*
X178163619Y-130660380D01*
X178068380Y-130660380D01*
X177973142Y-130612761D01*
X177925523Y-130565142D01*
X177877904Y-130469904D01*
X177830285Y-130279428D01*
X177830285Y-130041333D01*
X177877904Y-129850857D01*
X177925523Y-129755619D01*
X177973142Y-129708000D01*
X178068380Y-129660380D01*
X178830285Y-129993714D02*
X178830285Y-130660380D01*
X178830285Y-130088952D02*
X178877904Y-130041333D01*
X178973142Y-129993714D01*
X179116000Y-129993714D01*
X179211238Y-130041333D01*
X179258857Y-130136571D01*
X179258857Y-130660380D01*
D14*
X177532666Y-128706571D02*
X177508857Y-128730380D01*
X177437428Y-128754190D01*
X177389809Y-128754190D01*
X177318380Y-128730380D01*
X177270761Y-128682761D01*
X177246952Y-128635142D01*
X177223142Y-128539904D01*
X177223142Y-128468476D01*
X177246952Y-128373238D01*
X177270761Y-128325619D01*
X177318380Y-128278000D01*
X177389809Y-128254190D01*
X177437428Y-128254190D01*
X177508857Y-128278000D01*
X177532666Y-128301809D01*
X177723142Y-128301809D02*
X177746952Y-128278000D01*
X177794571Y-128254190D01*
X177913619Y-128254190D01*
X177961238Y-128278000D01*
X177985047Y-128301809D01*
X178008857Y-128349428D01*
X178008857Y-128397047D01*
X177985047Y-128468476D01*
X177699333Y-128754190D01*
X178008857Y-128754190D01*
D13*
%TO.C,TP11*%
X160824666Y-87052380D02*
X161396095Y-87052380D01*
X161110380Y-88052380D02*
X161110380Y-87052380D01*
X162110380Y-88004761D02*
X162015142Y-88052380D01*
X161824666Y-88052380D01*
X161729428Y-88004761D01*
X161681809Y-87909523D01*
X161681809Y-87528571D01*
X161729428Y-87433333D01*
X161824666Y-87385714D01*
X162015142Y-87385714D01*
X162110380Y-87433333D01*
X162158000Y-87528571D01*
X162158000Y-87623809D01*
X161681809Y-87719047D01*
X162538952Y-88004761D02*
X162634190Y-88052380D01*
X162824666Y-88052380D01*
X162919904Y-88004761D01*
X162967523Y-87909523D01*
X162967523Y-87861904D01*
X162919904Y-87766666D01*
X162824666Y-87719047D01*
X162681809Y-87719047D01*
X162586571Y-87671428D01*
X162538952Y-87576190D01*
X162538952Y-87528571D01*
X162586571Y-87433333D01*
X162681809Y-87385714D01*
X162824666Y-87385714D01*
X162919904Y-87433333D01*
X163253238Y-87385714D02*
X163634190Y-87385714D01*
X163396095Y-87052380D02*
X163396095Y-87909523D01*
X163443714Y-88004761D01*
X163538952Y-88052380D01*
X163634190Y-88052380D01*
X163967523Y-88052380D02*
X163967523Y-87052380D01*
X164348476Y-87052380D01*
X164443714Y-87100000D01*
X164491333Y-87147619D01*
X164538952Y-87242857D01*
X164538952Y-87385714D01*
X164491333Y-87480952D01*
X164443714Y-87528571D01*
X164348476Y-87576190D01*
X163967523Y-87576190D01*
X165110380Y-88052380D02*
X165015142Y-88004761D01*
X164967523Y-87957142D01*
X164919904Y-87861904D01*
X164919904Y-87576190D01*
X164967523Y-87480952D01*
X165015142Y-87433333D01*
X165110380Y-87385714D01*
X165253238Y-87385714D01*
X165348476Y-87433333D01*
X165396095Y-87480952D01*
X165443714Y-87576190D01*
X165443714Y-87861904D01*
X165396095Y-87957142D01*
X165348476Y-88004761D01*
X165253238Y-88052380D01*
X165110380Y-88052380D01*
X165872285Y-88052380D02*
X165872285Y-87385714D01*
X165872285Y-87052380D02*
X165824666Y-87100000D01*
X165872285Y-87147619D01*
X165919904Y-87100000D01*
X165872285Y-87052380D01*
X165872285Y-87147619D01*
X166348476Y-87385714D02*
X166348476Y-88052380D01*
X166348476Y-87480952D02*
X166396095Y-87433333D01*
X166491333Y-87385714D01*
X166634190Y-87385714D01*
X166729428Y-87433333D01*
X166777047Y-87528571D01*
X166777047Y-88052380D01*
X167110380Y-87385714D02*
X167491333Y-87385714D01*
X167253238Y-87052380D02*
X167253238Y-87909523D01*
X167300857Y-88004761D01*
X167396095Y-88052380D01*
X167491333Y-88052380D01*
X163610380Y-87008095D02*
X163610380Y-86436666D01*
X164610380Y-86722380D02*
X163610380Y-86722380D01*
X164610380Y-86103333D02*
X163610380Y-86103333D01*
X163610380Y-85722380D01*
X163658000Y-85627142D01*
X163705619Y-85579523D01*
X163800857Y-85531904D01*
X163943714Y-85531904D01*
X164038952Y-85579523D01*
X164086571Y-85627142D01*
X164134190Y-85722380D01*
X164134190Y-86103333D01*
X164610380Y-84579523D02*
X164610380Y-85150952D01*
X164610380Y-84865238D02*
X163610380Y-84865238D01*
X163753238Y-84960476D01*
X163848476Y-85055714D01*
X163896095Y-85150952D01*
X164610380Y-83627142D02*
X164610380Y-84198571D01*
X164610380Y-83912857D02*
X163610380Y-83912857D01*
X163753238Y-84008095D01*
X163848476Y-84103333D01*
X163896095Y-84198571D01*
D11*
%TO.C,TP10*%
X204470000Y-22606000D02*
X204470000Y-25146000D01*
X201930000Y-25146000D02*
X201930000Y-23241000D01*
X201930000Y-23241000D02*
X202565000Y-22606000D01*
X202565000Y-22606000D02*
X204470000Y-22606000D01*
X204470000Y-25146000D02*
X201930000Y-25146000D01*
%TO.C,D10*%
X130064000Y-136236000D02*
X132064000Y-136236000D01*
X130364000Y-135036000D02*
X130064000Y-135336000D01*
X130064000Y-135336000D02*
X130064000Y-136236000D01*
X132064000Y-136236000D02*
X132064000Y-135036000D01*
X132064000Y-135036000D02*
X130364000Y-135036000D01*
%TO.C,C9*%
X74977000Y-98024000D02*
X73727000Y-98024000D01*
X74977000Y-96024000D02*
X74977000Y-98024000D01*
X73727000Y-96024000D02*
X74977000Y-96024000D01*
X73727000Y-98024000D02*
X73727000Y-96024000D01*
%TO.C,C7*%
X74713500Y-75301000D02*
X74713500Y-74051000D01*
X74713500Y-74051000D02*
X76713500Y-74051000D01*
X76713500Y-75301000D02*
X74713500Y-75301000D01*
X76713500Y-74051000D02*
X76713500Y-75301000D01*
%TO.C,C1*%
X175578500Y-116453000D02*
X175578500Y-115203000D01*
X175578500Y-115203000D02*
X177578500Y-115203000D01*
X177578500Y-116453000D02*
X175578500Y-116453000D01*
X177578500Y-115203000D02*
X177578500Y-116453000D01*
%TO.C,C3*%
X137976000Y-67685000D02*
X135976000Y-67685000D01*
X135976000Y-67685000D02*
X135976000Y-66435000D01*
X135976000Y-66435000D02*
X137976000Y-66435000D01*
X137976000Y-66435000D02*
X137976000Y-67685000D01*
%TO.C,R3*%
X89275000Y-30956000D02*
X89275000Y-28956000D01*
X89275000Y-28956000D02*
X90525000Y-28956000D01*
X90525000Y-30956000D02*
X89275000Y-30956000D01*
X90525000Y-28956000D02*
X90525000Y-30956000D01*
%TO.C,C5*%
X201692000Y-87259000D02*
X203692000Y-87259000D01*
X203692000Y-87259000D02*
X203692000Y-88509000D01*
X203692000Y-88509000D02*
X201692000Y-88509000D01*
X201692000Y-88509000D02*
X201692000Y-87259000D01*
%TO.C,TP3*%
X79486000Y-30226000D02*
X76946000Y-30226000D01*
X76946000Y-30226000D02*
X76946000Y-28321000D01*
X77581000Y-27686000D02*
X79486000Y-27686000D01*
X79486000Y-27686000D02*
X79486000Y-30226000D01*
X76946000Y-28321000D02*
X77581000Y-27686000D01*
%TO.C,U2*%
X178166000Y-120408000D02*
X178166000Y-123308000D01*
X176866000Y-123308000D02*
X176866000Y-120733000D01*
X177191000Y-120408000D02*
X178166000Y-120408000D01*
X178166000Y-123308000D02*
X176866000Y-123308000D01*
X176866000Y-120733000D02*
X177191000Y-120408000D01*
D13*
%TO.C,U8*%
X141020000Y-75078000D02*
X151220000Y-75078000D01*
X151220000Y-80378000D02*
X142020000Y-80378000D01*
X141020000Y-79378000D02*
X141020000Y-75078000D01*
X142020000Y-80378000D02*
X141020000Y-79378000D01*
X151220000Y-75078000D02*
X151220000Y-80378000D01*
D11*
%TO.C,R12*%
X146136000Y-67685000D02*
X146136000Y-66435000D01*
X148136000Y-67685000D02*
X146136000Y-67685000D01*
X148136000Y-66435000D02*
X148136000Y-67685000D01*
X146136000Y-66435000D02*
X148136000Y-66435000D01*
%TO.C,R9*%
X199152000Y-91049000D02*
X199152000Y-89799000D01*
X201152000Y-91049000D02*
X199152000Y-91049000D01*
X199152000Y-89799000D02*
X201152000Y-89799000D01*
X201152000Y-89799000D02*
X201152000Y-91049000D01*
%TO.C,R10*%
X79216000Y-86751000D02*
X79216000Y-88001000D01*
X77216000Y-88001000D02*
X77216000Y-86751000D01*
X77216000Y-86751000D02*
X79216000Y-86751000D01*
X79216000Y-88001000D02*
X77216000Y-88001000D01*
%TO.C,TP2*%
X129102000Y-60837000D02*
X129737000Y-60202000D01*
X131642000Y-60202000D02*
X131642000Y-62742000D01*
X129737000Y-60202000D02*
X131642000Y-60202000D01*
X131642000Y-62742000D02*
X129102000Y-62742000D01*
X129102000Y-62742000D02*
X129102000Y-60837000D01*
%TO.C,TP1*%
X96758000Y-29718000D02*
X96758000Y-27813000D01*
X97393000Y-27178000D02*
X99298000Y-27178000D01*
X96758000Y-27813000D02*
X97393000Y-27178000D01*
X99298000Y-27178000D02*
X99298000Y-29718000D01*
X99298000Y-29718000D02*
X96758000Y-29718000D01*
%TO.C,R22*%
X85461000Y-56404000D02*
X85461000Y-58404000D01*
X84211000Y-58404000D02*
X84211000Y-56404000D01*
X85461000Y-58404000D02*
X84211000Y-58404000D01*
X84211000Y-56404000D02*
X85461000Y-56404000D01*
%TO.C,R16*%
X159629000Y-125460000D02*
X158379000Y-125460000D01*
X159629000Y-123460000D02*
X159629000Y-125460000D01*
X158379000Y-123460000D02*
X159629000Y-123460000D01*
X158379000Y-125460000D02*
X158379000Y-123460000D01*
%TO.C,R4*%
X190532000Y-83429000D02*
X190532000Y-82179000D01*
X190532000Y-82179000D02*
X192532000Y-82179000D01*
X192532000Y-82179000D02*
X192532000Y-83429000D01*
X192532000Y-83429000D02*
X190532000Y-83429000D01*
%TO.C,R15*%
X159613000Y-120888000D02*
X158363000Y-120888000D01*
X158363000Y-118888000D02*
X159613000Y-118888000D01*
X158363000Y-120888000D02*
X158363000Y-118888000D01*
X159613000Y-118888000D02*
X159613000Y-120888000D01*
%TO.C,C6*%
X205194500Y-82179000D02*
X205194500Y-83429000D01*
X203194500Y-83429000D02*
X203194500Y-82179000D01*
X205194500Y-83429000D02*
X203194500Y-83429000D01*
X203194500Y-82179000D02*
X205194500Y-82179000D01*
%TO.C,C8*%
X76713500Y-81671000D02*
X76713500Y-82921000D01*
X74713500Y-82921000D02*
X74713500Y-81671000D01*
X76713500Y-82921000D02*
X74713500Y-82921000D01*
X74713500Y-81671000D02*
X76713500Y-81671000D01*
%TO.C,RV2*%
X152992000Y-64380000D02*
X152992000Y-59580000D01*
X148392000Y-59960000D02*
X148392000Y-61740000D01*
X148392000Y-60850000D02*
X148392000Y-60850000D01*
X148392000Y-59960000D02*
X148392000Y-59960000D01*
X148392000Y-59580000D02*
X148392000Y-64380000D01*
X148392000Y-61740000D02*
X148392000Y-59960000D01*
X148392000Y-61740000D02*
X148392000Y-61740000D01*
X148392000Y-64380000D02*
X152992000Y-64380000D01*
X152992000Y-59580000D02*
X148392000Y-59580000D01*
%TO.C,U7*%
X76342000Y-45026000D02*
X76342000Y-39326000D01*
X72642000Y-46026000D02*
X72642000Y-39326000D01*
X76342000Y-39326000D02*
X72642000Y-39326000D01*
X76342000Y-45026000D02*
X75342000Y-46026000D01*
X75342000Y-46026000D02*
X72642000Y-46026000D01*
%TO.C,U4*%
X169971625Y-64749625D02*
G75*
G03*
X168218000Y-60516000I-1753625J1753625D01*
G01*
X168218000Y-60516000D02*
G75*
G03*
X166464375Y-64749625I0J-2480000D01*
G01*
X166448000Y-64746000D02*
X169948000Y-64746000D01*
%TO.C,TP4*%
X167329000Y-67314000D02*
X169234000Y-67314000D01*
X166694000Y-67949000D02*
X167329000Y-67314000D01*
X169234000Y-69854000D02*
X166694000Y-69854000D01*
X169234000Y-67314000D02*
X169234000Y-69854000D01*
X166694000Y-69854000D02*
X166694000Y-67949000D01*
%TO.C,R17*%
X143748000Y-123053000D02*
X141748000Y-123053000D01*
X143748000Y-121803000D02*
X143748000Y-123053000D01*
X141748000Y-121803000D02*
X143748000Y-121803000D01*
X141748000Y-123053000D02*
X141748000Y-121803000D01*
%TO.C,J2*%
X92018000Y-58195000D02*
X92018000Y-55655000D01*
X92018000Y-55655000D02*
X175838000Y-55655000D01*
X175203000Y-58195000D02*
X92018000Y-58195000D01*
X175838000Y-57560000D02*
X175203000Y-58195000D01*
X175838000Y-55655000D02*
X175838000Y-57560000D01*
%TO.C,D11*%
X109128000Y-135620000D02*
X110328000Y-135620000D01*
X110028000Y-133620000D02*
X109128000Y-133620000D01*
X109128000Y-133620000D02*
X109128000Y-135620000D01*
X110328000Y-133920000D02*
X110028000Y-133620000D01*
X110328000Y-135620000D02*
X110328000Y-133920000D01*
%TO.C,Q1*%
X81162000Y-30154000D02*
X82432000Y-30154000D01*
X81162000Y-33854000D02*
X82432000Y-33854000D01*
X85562000Y-37004000D02*
X85562000Y-27004000D01*
X82432000Y-37004000D02*
X82432000Y-27004000D01*
X85562000Y-27004000D02*
X81162000Y-27004000D01*
X81162000Y-27004000D02*
X81162000Y-37004000D01*
X81162000Y-37004000D02*
X85562000Y-37004000D01*
%TO.C,BT1*%
X115394000Y-25820500D02*
X115394000Y-41318000D01*
X120556500Y-20658000D02*
X115394000Y-25820500D01*
X120556500Y-20658000D02*
X192454000Y-20658000D01*
X115394000Y-41318000D02*
X192454000Y-41318000D01*
X192454000Y-20658000D02*
X192454000Y-41318000D01*
%TO.C,R6*%
X131896000Y-74289000D02*
X129896000Y-74289000D01*
X129896000Y-74289000D02*
X129896000Y-73039000D01*
X129896000Y-73039000D02*
X131896000Y-73039000D01*
X131896000Y-73039000D02*
X131896000Y-74289000D01*
D16*
%TO.C,J5*%
X172953000Y-73495000D02*
X177903000Y-73495000D01*
X173703000Y-80995000D02*
X172953000Y-80195000D01*
X177903000Y-73495000D02*
X177903000Y-80995000D01*
X177903000Y-80995000D02*
X173703000Y-80995000D01*
X172953000Y-80195000D02*
X172953000Y-73495000D01*
D11*
%TO.C,R18*%
X104023000Y-118856000D02*
X104023000Y-116856000D01*
X105273000Y-116856000D02*
X105273000Y-118856000D01*
X104023000Y-116856000D02*
X105273000Y-116856000D01*
X105273000Y-118856000D02*
X104023000Y-118856000D01*
%TO.C,U1*%
X94898000Y-32602000D02*
X94898000Y-37502000D01*
X94898000Y-37502000D02*
X90998000Y-37502000D01*
X91973000Y-32602000D02*
X94898000Y-32602000D01*
X90998000Y-37502000D02*
X90998000Y-33577000D01*
X90998000Y-33577000D02*
X91973000Y-32602000D01*
%TO.C,D1*%
X101708000Y-29348000D02*
X101708000Y-27548000D01*
X103358000Y-28048000D02*
X103358000Y-28848000D01*
X104508000Y-27548000D02*
X104508000Y-29348000D01*
X102758000Y-28448000D02*
X102758000Y-28998000D01*
X103358000Y-28848000D02*
X102758000Y-28448000D01*
X102758000Y-28448000D02*
X102758000Y-27898000D01*
X102358000Y-28448000D02*
X102758000Y-28448000D01*
X103358000Y-28448000D02*
X103858000Y-28448000D01*
X101708000Y-27548000D02*
X104508000Y-27548000D01*
X104508000Y-29348000D02*
X101708000Y-29348000D01*
X102758000Y-28448000D02*
X103358000Y-28048000D01*
%TO.C,U5*%
X99486000Y-114898000D02*
X99486000Y-119798000D01*
X95586000Y-115873000D02*
X96561000Y-114898000D01*
X99486000Y-119798000D02*
X95586000Y-119798000D01*
X95586000Y-119798000D02*
X95586000Y-115873000D01*
X96561000Y-114898000D02*
X99486000Y-114898000D01*
%TO.C,TP9*%
X198882000Y-73914000D02*
X198882000Y-72009000D01*
X201422000Y-73914000D02*
X198882000Y-73914000D01*
X199517000Y-71374000D02*
X201422000Y-71374000D01*
X201422000Y-71374000D02*
X201422000Y-73914000D01*
X198882000Y-72009000D02*
X199517000Y-71374000D01*
%TO.C,R5*%
X194072000Y-84719000D02*
X196072000Y-84719000D01*
X196072000Y-85969000D02*
X194072000Y-85969000D01*
X196072000Y-84719000D02*
X196072000Y-85969000D01*
X194072000Y-85969000D02*
X194072000Y-84719000D01*
%TO.C,J1*%
X175838000Y-46105000D02*
X175838000Y-48010000D01*
X175838000Y-48010000D02*
X92018000Y-48010000D01*
X92018000Y-48010000D02*
X92018000Y-45470000D01*
X175203000Y-45470000D02*
X175838000Y-46105000D01*
X92018000Y-45470000D02*
X175203000Y-45470000D01*
%TO.C,D8*%
X151476000Y-125460000D02*
X151476000Y-123460000D01*
X150576000Y-125460000D02*
X151476000Y-125460000D01*
X150276000Y-123460000D02*
X150276000Y-125160000D01*
X150276000Y-125160000D02*
X150576000Y-125460000D01*
X151476000Y-123460000D02*
X150276000Y-123460000D01*
%TO.C,Q5*%
X159190000Y-132080000D02*
G75*
G03*
X159190000Y-132080000I-4250000J0D01*
G01*
X158553594Y-135085319D02*
G75*
G03*
X157945408Y-135693520I-3613594J3005319D01*
G01*
X159359621Y-135891510D02*
X158553520Y-135085408D01*
X158751510Y-136499621D02*
X159359621Y-135891510D01*
X157945408Y-135693520D02*
X158751510Y-136499621D01*
%TO.C,R7*%
X198612000Y-88509000D02*
X196612000Y-88509000D01*
X196612000Y-88509000D02*
X196612000Y-87259000D01*
X198612000Y-87259000D02*
X198612000Y-88509000D01*
X196612000Y-87259000D02*
X198612000Y-87259000D01*
%TO.C,C4*%
X143034500Y-67685000D02*
X141034500Y-67685000D01*
X141034500Y-66435000D02*
X143034500Y-66435000D01*
X143034500Y-66435000D02*
X143034500Y-67685000D01*
X141034500Y-67685000D02*
X141034500Y-66435000D01*
%TO.C,Q6*%
X133282000Y-119888000D02*
G75*
G03*
X133282000Y-119888000I-4250000J0D01*
G01*
X125418406Y-116882681D02*
G75*
G03*
X126026592Y-116274480I3613594J-3005319D01*
G01*
X125220490Y-115468379D02*
X124612379Y-116076490D01*
X124612379Y-116076490D02*
X125418480Y-116882592D01*
X126026592Y-116274480D02*
X125220490Y-115468379D01*
%TO.C,D2*%
X135468000Y-73364000D02*
X135468000Y-74264000D01*
X135468000Y-74264000D02*
X137468000Y-74264000D01*
X135768000Y-73064000D02*
X135468000Y-73364000D01*
X137468000Y-73064000D02*
X135768000Y-73064000D01*
X137468000Y-74264000D02*
X137468000Y-73064000D01*
%TO.C,R20*%
X81296000Y-71511000D02*
X83296000Y-71511000D01*
X81296000Y-72761000D02*
X81296000Y-71511000D01*
X83296000Y-72761000D02*
X81296000Y-72761000D01*
X83296000Y-71511000D02*
X83296000Y-72761000D01*
%TO.C,D9*%
X154924000Y-119980000D02*
X154924000Y-118780000D01*
X154924000Y-118780000D02*
X153224000Y-118780000D01*
X153224000Y-118780000D02*
X152924000Y-119080000D01*
X152924000Y-119080000D02*
X152924000Y-119980000D01*
X152924000Y-119980000D02*
X154924000Y-119980000D01*
%TO.C,J4*%
X175838000Y-108970000D02*
X92018000Y-108970000D01*
X175203000Y-106430000D02*
X175838000Y-107065000D01*
X175838000Y-107065000D02*
X175838000Y-108970000D01*
X92018000Y-108970000D02*
X92018000Y-106430000D01*
X92018000Y-106430000D02*
X175203000Y-106430000D01*
%TO.C,R2*%
X102632000Y-33645000D02*
X102632000Y-32395000D01*
X102632000Y-32395000D02*
X104632000Y-32395000D01*
X104632000Y-32395000D02*
X104632000Y-33645000D01*
X104632000Y-33645000D02*
X102632000Y-33645000D01*
%TO.C,R14*%
X155565000Y-123444000D02*
X155565000Y-125444000D01*
X155565000Y-125444000D02*
X154315000Y-125444000D01*
X154315000Y-123444000D02*
X155565000Y-123444000D01*
X154315000Y-125444000D02*
X154315000Y-123444000D01*
%TO.C,TP8*%
X198882000Y-66294000D02*
X198882000Y-68834000D01*
X196977000Y-66294000D02*
X198882000Y-66294000D01*
X196342000Y-68834000D02*
X196342000Y-66929000D01*
X196342000Y-66929000D02*
X196977000Y-66294000D01*
X198882000Y-68834000D02*
X196342000Y-68834000D01*
%TO.C,C10*%
X74336000Y-104253000D02*
X72336000Y-104253000D01*
X72336000Y-104253000D02*
X72336000Y-103003000D01*
X74336000Y-103003000D02*
X74336000Y-104253000D01*
X72336000Y-103003000D02*
X74336000Y-103003000D01*
%TO.C,BZ2*%
X126396000Y-139604000D02*
X114396000Y-139604000D01*
X126396000Y-127604000D02*
X126396000Y-139604000D01*
X114396000Y-128604000D02*
X115396000Y-127604000D01*
X115396000Y-127604000D02*
X126396000Y-127604000D01*
X114396000Y-139604000D02*
X114396000Y-128604000D01*
%TO.C,TP6*%
X176854000Y-67314000D02*
X176854000Y-69854000D01*
X174949000Y-67314000D02*
X176854000Y-67314000D01*
X174314000Y-69854000D02*
X174314000Y-67949000D01*
X176854000Y-69854000D02*
X174314000Y-69854000D01*
X174314000Y-67949000D02*
X174949000Y-67314000D01*
%TO.C,BZ1*%
X136240000Y-138080000D02*
X136240000Y-127080000D01*
X136240000Y-127080000D02*
X137240000Y-126080000D01*
X148240000Y-126080000D02*
X148240000Y-138080000D01*
X148240000Y-138080000D02*
X136240000Y-138080000D01*
X137240000Y-126080000D02*
X148240000Y-126080000D01*
%TO.C,J3*%
X175838000Y-96270000D02*
X175838000Y-98175000D01*
X175838000Y-98175000D02*
X175203000Y-98810000D01*
X175203000Y-98810000D02*
X92018000Y-98810000D01*
X92018000Y-98810000D02*
X92018000Y-96270000D01*
X92018000Y-96270000D02*
X175838000Y-96270000D01*
%TO.C,R11*%
X81671000Y-78216000D02*
X81671000Y-76216000D01*
X82921000Y-76216000D02*
X82921000Y-78216000D01*
X81671000Y-76216000D02*
X82921000Y-76216000D01*
X82921000Y-78216000D02*
X81671000Y-78216000D01*
%TO.C,Q4*%
X156830592Y-60398480D02*
X156024490Y-59592379D01*
X155416379Y-60200490D02*
X156222480Y-61006592D01*
X156024490Y-59592379D02*
X155416379Y-60200490D01*
X156222406Y-61006681D02*
G75*
G03*
X156830592Y-60398480I3613594J-3005319D01*
G01*
X164086000Y-64012000D02*
G75*
G03*
X164086000Y-64012000I-4250000J0D01*
G01*
%TO.C,R1*%
X92456000Y-29581000D02*
X92456000Y-28331000D01*
X94456000Y-28331000D02*
X94456000Y-29581000D01*
X94456000Y-29581000D02*
X92456000Y-29581000D01*
X92456000Y-28331000D02*
X94456000Y-28331000D01*
%TO.C,R8*%
X80264000Y-51933000D02*
X78264000Y-51933000D01*
X78264000Y-50683000D02*
X80264000Y-50683000D01*
X80264000Y-50683000D02*
X80264000Y-51933000D01*
X78264000Y-51933000D02*
X78264000Y-50683000D01*
%TO.C,TP7*%
X161028000Y-91190000D02*
X158488000Y-91190000D01*
X161028000Y-88650000D02*
X161028000Y-91190000D01*
X158488000Y-89285000D02*
X159123000Y-88650000D01*
X159123000Y-88650000D02*
X161028000Y-88650000D01*
X158488000Y-91190000D02*
X158488000Y-89285000D01*
%TO.C,R13*%
X151232000Y-67685000D02*
X151232000Y-66435000D01*
X151232000Y-66435000D02*
X153232000Y-66435000D01*
X153232000Y-67685000D02*
X151232000Y-67685000D01*
X153232000Y-66435000D02*
X153232000Y-67685000D01*
%TO.C,C11*%
X184537000Y-74469000D02*
X184537000Y-75719000D01*
X184537000Y-75719000D02*
X182537000Y-75719000D01*
X182537000Y-74469000D02*
X184537000Y-74469000D01*
X182537000Y-75719000D02*
X182537000Y-74469000D01*
%TO.C,R19*%
X103211500Y-112893000D02*
X101211500Y-112893000D01*
X103211500Y-111643000D02*
X103211500Y-112893000D01*
X101211500Y-111643000D02*
X103211500Y-111643000D01*
X101211500Y-112893000D02*
X101211500Y-111643000D01*
%TO.C,R21*%
X71136000Y-88001000D02*
X71136000Y-86751000D01*
X73136000Y-86751000D02*
X73136000Y-88001000D01*
X71136000Y-86751000D02*
X73136000Y-86751000D01*
X73136000Y-88001000D02*
X71136000Y-88001000D01*
%TO.C,D7*%
X137796000Y-60122000D02*
X137796000Y-62822000D01*
X144596000Y-61472000D02*
X142116000Y-61472000D01*
X137596000Y-60122000D02*
X137596000Y-62822000D01*
X136916000Y-62822000D02*
X142116000Y-62822000D01*
X142116000Y-60122000D02*
X136916000Y-60122000D01*
X136916000Y-60122000D02*
X136916000Y-62822000D01*
X134436000Y-61472000D02*
X136916000Y-61472000D01*
X142116000Y-62822000D02*
X142116000Y-60122000D01*
X137696000Y-60122000D02*
X137696000Y-62822000D01*
%TO.C,D3*%
X137459000Y-77636000D02*
X135759000Y-77636000D01*
X135759000Y-77636000D02*
X135459000Y-77936000D01*
X135459000Y-77936000D02*
X135459000Y-78836000D01*
X135459000Y-78836000D02*
X137459000Y-78836000D01*
X137459000Y-78836000D02*
X137459000Y-77636000D01*
%TO.C,C2*%
X178616000Y-127903000D02*
X178616000Y-129153000D01*
X176616000Y-127903000D02*
X178616000Y-127903000D01*
X176616000Y-129153000D02*
X176616000Y-127903000D01*
X178616000Y-129153000D02*
X176616000Y-129153000D01*
%TO.C,TP11*%
X165428000Y-86540000D02*
X162888000Y-86540000D01*
X165428000Y-84000000D02*
X165428000Y-86540000D01*
X162888000Y-84635000D02*
X163523000Y-84000000D01*
X162888000Y-86540000D02*
X162888000Y-84635000D01*
X163523000Y-84000000D02*
X165428000Y-84000000D01*
%TD*%
M02*
