%TF.GenerationSoftware,KiCad,Pcbnew,(6.0.2)*%
%TF.CreationDate,2022-03-20T20:15:49+02:00*%
%TF.ProjectId,main,6d61696e-2e6b-4696-9361-645f70636258,rev?*%
%TF.SameCoordinates,Original*%
%TF.FileFunction,Soldermask,Top*%
%TF.FilePolarity,Negative*%
%FSLAX46Y46*%
G04 Gerber Fmt 4.6, Leading zero omitted, Abs format (unit mm)*
G04 Created by KiCad (PCBNEW (6.0.2)) date 2022-03-20 20:15:49*
%MOMM*%
%LPD*%
G01*
G04 APERTURE LIST*
G04 Aperture macros list*
%AMRoundRect*
0 Rectangle with rounded corners*
0 $1 Rounding radius*
0 $2 $3 $4 $5 $6 $7 $8 $9 X,Y pos of 4 corners*
0 Add a 4 corners polygon primitive as box body*
4,1,4,$2,$3,$4,$5,$6,$7,$8,$9,$2,$3,0*
0 Add four circle primitives for the rounded corners*
1,1,$1+$1,$2,$3*
1,1,$1+$1,$4,$5*
1,1,$1+$1,$6,$7*
1,1,$1+$1,$8,$9*
0 Add four rect primitives between the rounded corners*
20,1,$1+$1,$2,$3,$4,$5,0*
20,1,$1+$1,$4,$5,$6,$7,0*
20,1,$1+$1,$6,$7,$8,$9,0*
20,1,$1+$1,$8,$9,$2,$3,0*%
G04 Aperture macros list end*
%TA.AperFunction,Profile*%
%ADD10C,0.200000*%
%TD*%
%ADD11R,1.700000X1.700000*%
%ADD12RoundRect,0.250000X-0.325000X-0.450000X0.325000X-0.450000X0.325000X0.450000X-0.325000X0.450000X0*%
%ADD13RoundRect,0.250000X0.475000X-0.337500X0.475000X0.337500X-0.475000X0.337500X-0.475000X-0.337500X0*%
%ADD14RoundRect,0.250000X-0.337500X-0.475000X0.337500X-0.475000X0.337500X0.475000X-0.337500X0.475000X0*%
%ADD15RoundRect,0.250000X-0.450000X0.350000X-0.450000X-0.350000X0.450000X-0.350000X0.450000X0.350000X0*%
%ADD16RoundRect,0.150000X-0.587500X-0.150000X0.587500X-0.150000X0.587500X0.150000X-0.587500X0.150000X0*%
%ADD17R,0.450000X1.750000*%
%ADD18RoundRect,0.250000X-0.350000X-0.450000X0.350000X-0.450000X0.350000X0.450000X-0.350000X0.450000X0*%
%ADD19RoundRect,0.250000X0.350000X0.450000X-0.350000X0.450000X-0.350000X-0.450000X0.350000X-0.450000X0*%
%ADD20RoundRect,0.250000X0.450000X-0.350000X0.450000X0.350000X-0.450000X0.350000X-0.450000X-0.350000X0*%
%ADD21R,2.000000X1.300000*%
%ADD22R,2.000000X2.000000*%
%ADD23R,2.000000X1.500000*%
%ADD24R,2.000000X3.800000*%
%ADD25O,1.050000X1.500000*%
%ADD26R,1.050000X1.500000*%
%ADD27O,1.700000X1.700000*%
%ADD28RoundRect,0.250000X-0.450000X0.325000X-0.450000X-0.325000X0.450000X-0.325000X0.450000X0.325000X0*%
%ADD29R,2.000000X1.905000*%
%ADD30O,2.000000X1.905000*%
%ADD31R,7.340000X6.350000*%
%ADD32C,2.390000*%
%ADD33C,3.450000*%
%ADD34R,2.000000X1.350000*%
%ADD35R,0.700000X1.825000*%
%ADD36R,1.500000X2.000000*%
%ADD37O,1.700000X1.350000*%
%ADD38R,2.500000X1.430000*%
%ADD39O,1.500000X1.100000*%
%ADD40R,1.650000X0.400000*%
%ADD41RoundRect,0.150000X-0.825000X-0.150000X0.825000X-0.150000X0.825000X0.150000X-0.825000X0.150000X0*%
%ADD42R,0.900000X1.200000*%
%ADD43RoundRect,0.250000X0.450000X-0.325000X0.450000X0.325000X-0.450000X0.325000X-0.450000X-0.325000X0*%
%ADD44O,1.200000X1.200000*%
%ADD45O,1.600000X1.200000*%
%ADD46RoundRect,0.250000X0.337500X0.475000X-0.337500X0.475000X-0.337500X-0.475000X0.337500X-0.475000X0*%
%ADD47R,1.200000X4.000000*%
%ADD48R,0.550000X0.600000*%
%ADD49RoundRect,0.250000X0.262500X0.450000X-0.262500X0.450000X-0.262500X-0.450000X0.262500X-0.450000X0*%
%ADD50R,2.200000X2.200000*%
%ADD51O,2.200000X2.200000*%
G04 APERTURE END LIST*
D10*
X210820000Y-15748000D02*
X59944000Y-15748000D01*
X59944000Y-15748000D02*
X59944000Y-144272000D01*
X59944000Y-144272000D02*
X210820000Y-144272000D01*
X210820000Y-144272000D02*
X210820000Y-15748000D01*
D11*
%TO.C,TP10*%
X203200000Y-23876000D03*
%TD*%
D12*
%TO.C,D10*%
X132089000Y-135636000D03*
X130039000Y-135636000D03*
%TD*%
D13*
%TO.C,C9*%
X74352000Y-95986500D03*
X74352000Y-98061500D03*
%TD*%
D14*
%TO.C,C7*%
X74676000Y-74676000D03*
X76751000Y-74676000D03*
%TD*%
%TO.C,C1*%
X177616000Y-115828000D03*
X175541000Y-115828000D03*
%TD*%
%TO.C,C3*%
X138013500Y-67060000D03*
X135938500Y-67060000D03*
%TD*%
D15*
%TO.C,R3*%
X89900000Y-28956000D03*
X89900000Y-30956000D03*
%TD*%
D14*
%TO.C,C5*%
X201654500Y-87884000D03*
X203729500Y-87884000D03*
%TD*%
D11*
%TO.C,TP3*%
X78216000Y-28956000D03*
%TD*%
D16*
%TO.C,U2*%
X176578500Y-120908000D03*
X176578500Y-122808000D03*
X178453500Y-121858000D03*
%TD*%
D17*
%TO.C,U8*%
X141895000Y-74128000D03*
X142545000Y-74128000D03*
X143195000Y-74128000D03*
X143845000Y-74128000D03*
X144495000Y-74128000D03*
X145145000Y-74128000D03*
X145795000Y-74128000D03*
X146445000Y-74128000D03*
X147095000Y-74128000D03*
X147745000Y-74128000D03*
X148395000Y-74128000D03*
X149045000Y-74128000D03*
X149695000Y-74128000D03*
X150345000Y-74128000D03*
X150345000Y-81328000D03*
X149695000Y-81328000D03*
X149045000Y-81328000D03*
X148395000Y-81328000D03*
X147745000Y-81328000D03*
X147095000Y-81328000D03*
X146445000Y-81328000D03*
X145795000Y-81328000D03*
X145145000Y-81328000D03*
X144495000Y-81328000D03*
X143845000Y-81328000D03*
X143195000Y-81328000D03*
X142545000Y-81328000D03*
X141895000Y-81328000D03*
%TD*%
D18*
%TO.C,R12*%
X146136000Y-67060000D03*
X148136000Y-67060000D03*
%TD*%
%TO.C,R9*%
X199152000Y-90424000D03*
X201152000Y-90424000D03*
%TD*%
%TO.C,R10*%
X77216000Y-87376000D03*
X79216000Y-87376000D03*
%TD*%
D11*
%TO.C,TP2*%
X130372000Y-61472000D03*
%TD*%
%TO.C,TP1*%
X98028000Y-28448000D03*
%TD*%
D15*
%TO.C,R22*%
X84836000Y-56404000D03*
X84836000Y-58404000D03*
%TD*%
%TO.C,R16*%
X159004000Y-125460000D03*
X159004000Y-123460000D03*
%TD*%
D19*
%TO.C,R4*%
X192532000Y-82804000D03*
X190532000Y-82804000D03*
%TD*%
D20*
%TO.C,R15*%
X158988000Y-118888000D03*
X158988000Y-120888000D03*
%TD*%
D14*
%TO.C,C6*%
X203157000Y-82804000D03*
X205232000Y-82804000D03*
%TD*%
%TO.C,C8*%
X74676000Y-82296000D03*
X76751000Y-82296000D03*
%TD*%
D21*
%TO.C,RV2*%
X152692000Y-60830000D03*
D22*
X148692000Y-61980000D03*
D21*
X152692000Y-63130000D03*
%TD*%
D23*
%TO.C,U7*%
X77642000Y-44976000D03*
X77642000Y-42676000D03*
D24*
X71342000Y-42676000D03*
D23*
X77642000Y-40376000D03*
%TD*%
D25*
%TO.C,U4*%
X169488000Y-62996000D03*
X168218000Y-62996000D03*
D26*
X166948000Y-62996000D03*
%TD*%
D11*
%TO.C,TP4*%
X167964000Y-68584000D03*
%TD*%
D19*
%TO.C,R17*%
X141748000Y-122428000D03*
X143748000Y-122428000D03*
%TD*%
D11*
%TO.C,J2*%
X174568000Y-56925000D03*
D27*
X172028000Y-56925000D03*
X169488000Y-56925000D03*
X166948000Y-56925000D03*
X164408000Y-56925000D03*
X161868000Y-56925000D03*
X159328000Y-56925000D03*
X156788000Y-56925000D03*
X154248000Y-56925000D03*
X151708000Y-56925000D03*
X149168000Y-56925000D03*
X146628000Y-56925000D03*
X144088000Y-56925000D03*
X141548000Y-56925000D03*
X139008000Y-56925000D03*
X136468000Y-56925000D03*
X133928000Y-56925000D03*
X131388000Y-56925000D03*
X128848000Y-56925000D03*
X126308000Y-56925000D03*
X123768000Y-56925000D03*
X121228000Y-56925000D03*
X118688000Y-56925000D03*
X116148000Y-56925000D03*
X113608000Y-56925000D03*
X111068000Y-56925000D03*
X108528000Y-56925000D03*
X105988000Y-56925000D03*
X103448000Y-56925000D03*
X100908000Y-56925000D03*
X98368000Y-56925000D03*
X95828000Y-56925000D03*
X93288000Y-56925000D03*
%TD*%
D28*
%TO.C,D11*%
X109728000Y-133595000D03*
X109728000Y-135645000D03*
%TD*%
D29*
%TO.C,Q1*%
X84312000Y-34544000D03*
D30*
X84312000Y-32004000D03*
X84312000Y-29464000D03*
%TD*%
D31*
%TO.C,BT1*%
X193254000Y-30988000D03*
X114594000Y-30988000D03*
D32*
X117994000Y-22988000D03*
D33*
X126324000Y-38988000D03*
X181524000Y-22988000D03*
%TD*%
D18*
%TO.C,R6*%
X131896000Y-73664000D03*
X129896000Y-73664000D03*
%TD*%
D34*
%TO.C,J5*%
X174753000Y-74495000D03*
D35*
X174003000Y-74245000D03*
D36*
X172683000Y-74345000D03*
D37*
X175683000Y-74515000D03*
D38*
X175953000Y-76285000D03*
D36*
X172703000Y-80095000D03*
D38*
X175953000Y-78205000D03*
D39*
X172683000Y-74825000D03*
D37*
X175683000Y-79975000D03*
D35*
X174003000Y-80195000D03*
D34*
X174753000Y-79975000D03*
D39*
X172683000Y-79665000D03*
D40*
X172803000Y-75945000D03*
X172803000Y-76595000D03*
X172803000Y-77245000D03*
X172803000Y-77895000D03*
X172803000Y-78545000D03*
%TD*%
D20*
%TO.C,R18*%
X104648000Y-116856000D03*
X104648000Y-118856000D03*
%TD*%
D41*
%TO.C,U1*%
X90473000Y-33147000D03*
X90473000Y-34417000D03*
X90473000Y-35687000D03*
X90473000Y-36957000D03*
X95423000Y-36957000D03*
X95423000Y-35687000D03*
X95423000Y-34417000D03*
X95423000Y-33147000D03*
%TD*%
D42*
%TO.C,D1*%
X104758000Y-28448000D03*
X101458000Y-28448000D03*
%TD*%
D41*
%TO.C,U5*%
X100011000Y-115443000D03*
X100011000Y-116713000D03*
X100011000Y-117983000D03*
X100011000Y-119253000D03*
X95061000Y-119253000D03*
X95061000Y-117983000D03*
X95061000Y-116713000D03*
X95061000Y-115443000D03*
%TD*%
D11*
%TO.C,TP9*%
X200152000Y-72644000D03*
%TD*%
D18*
%TO.C,R5*%
X194072000Y-85344000D03*
X196072000Y-85344000D03*
%TD*%
D11*
%TO.C,J1*%
X174568000Y-46740000D03*
D27*
X172028000Y-46740000D03*
X169488000Y-46740000D03*
X166948000Y-46740000D03*
X164408000Y-46740000D03*
X161868000Y-46740000D03*
X159328000Y-46740000D03*
X156788000Y-46740000D03*
X154248000Y-46740000D03*
X151708000Y-46740000D03*
X149168000Y-46740000D03*
X146628000Y-46740000D03*
X144088000Y-46740000D03*
X141548000Y-46740000D03*
X139008000Y-46740000D03*
X136468000Y-46740000D03*
X133928000Y-46740000D03*
X131388000Y-46740000D03*
X128848000Y-46740000D03*
X126308000Y-46740000D03*
X123768000Y-46740000D03*
X121228000Y-46740000D03*
X118688000Y-46740000D03*
X116148000Y-46740000D03*
X113608000Y-46740000D03*
X111068000Y-46740000D03*
X108528000Y-46740000D03*
X105988000Y-46740000D03*
X103448000Y-46740000D03*
X100908000Y-46740000D03*
X98368000Y-46740000D03*
X95828000Y-46740000D03*
X93288000Y-46740000D03*
%TD*%
D43*
%TO.C,D8*%
X150876000Y-123435000D03*
X150876000Y-125485000D03*
%TD*%
D44*
%TO.C,Q5*%
X152400000Y-132080000D03*
X154940000Y-129540000D03*
D45*
X157480000Y-132080000D03*
%TD*%
D18*
%TO.C,R7*%
X196612000Y-87884000D03*
X198612000Y-87884000D03*
%TD*%
D14*
%TO.C,C4*%
X143072000Y-67060000D03*
X140997000Y-67060000D03*
%TD*%
D44*
%TO.C,Q6*%
X131572000Y-119888000D03*
X129032000Y-122428000D03*
D45*
X126492000Y-119888000D03*
%TD*%
D12*
%TO.C,D2*%
X135443000Y-73664000D03*
X137493000Y-73664000D03*
%TD*%
D19*
%TO.C,R20*%
X81296000Y-72136000D03*
X83296000Y-72136000D03*
%TD*%
D12*
%TO.C,D9*%
X154949000Y-119380000D03*
X152899000Y-119380000D03*
%TD*%
D11*
%TO.C,J4*%
X174568000Y-107700000D03*
D27*
X172028000Y-107700000D03*
X169488000Y-107700000D03*
X166948000Y-107700000D03*
X164408000Y-107700000D03*
X161868000Y-107700000D03*
X159328000Y-107700000D03*
X156788000Y-107700000D03*
X154248000Y-107700000D03*
X151708000Y-107700000D03*
X149168000Y-107700000D03*
X146628000Y-107700000D03*
X144088000Y-107700000D03*
X141548000Y-107700000D03*
X139008000Y-107700000D03*
X136468000Y-107700000D03*
X133928000Y-107700000D03*
X131388000Y-107700000D03*
X128848000Y-107700000D03*
X126308000Y-107700000D03*
X123768000Y-107700000D03*
X121228000Y-107700000D03*
X118688000Y-107700000D03*
X116148000Y-107700000D03*
X113608000Y-107700000D03*
X111068000Y-107700000D03*
X108528000Y-107700000D03*
X105988000Y-107700000D03*
X103448000Y-107700000D03*
X100908000Y-107700000D03*
X98368000Y-107700000D03*
X95828000Y-107700000D03*
X93288000Y-107700000D03*
%TD*%
D18*
%TO.C,R2*%
X102632000Y-33020000D03*
X104632000Y-33020000D03*
%TD*%
D15*
%TO.C,R14*%
X154940000Y-125444000D03*
X154940000Y-123444000D03*
%TD*%
D11*
%TO.C,TP8*%
X197612000Y-67564000D03*
%TD*%
D46*
%TO.C,C10*%
X72298500Y-103628000D03*
X74373500Y-103628000D03*
%TD*%
D47*
%TO.C,BZ2*%
X125996000Y-133604000D03*
X114796000Y-133604000D03*
%TD*%
D48*
%TO.C,U6*%
X73926000Y-79756000D03*
X74676000Y-79756000D03*
X75426000Y-79756000D03*
X76176000Y-79756000D03*
X76926000Y-79756000D03*
X77676000Y-79756000D03*
X77676000Y-77756000D03*
X76926000Y-77756000D03*
X76176000Y-77756000D03*
X75426000Y-77756000D03*
X74676000Y-77756000D03*
X73926000Y-77756000D03*
%TD*%
D11*
%TO.C,TP6*%
X175584000Y-68584000D03*
%TD*%
D48*
%TO.C,U3*%
X198362000Y-77724000D03*
X197612000Y-77724000D03*
X196862000Y-77724000D03*
X196112000Y-77724000D03*
X195362000Y-77724000D03*
X194612000Y-77724000D03*
X194612000Y-79724000D03*
X195362000Y-79724000D03*
X196112000Y-79724000D03*
X196862000Y-79724000D03*
X197612000Y-79724000D03*
X198362000Y-79724000D03*
%TD*%
D47*
%TO.C,BZ1*%
X147840000Y-132080000D03*
X136640000Y-132080000D03*
%TD*%
D11*
%TO.C,J3*%
X174568000Y-97540000D03*
D27*
X172028000Y-97540000D03*
X169488000Y-97540000D03*
X166948000Y-97540000D03*
X164408000Y-97540000D03*
X161868000Y-97540000D03*
X159328000Y-97540000D03*
X156788000Y-97540000D03*
X154248000Y-97540000D03*
X151708000Y-97540000D03*
X149168000Y-97540000D03*
X146628000Y-97540000D03*
X144088000Y-97540000D03*
X141548000Y-97540000D03*
X139008000Y-97540000D03*
X136468000Y-97540000D03*
X133928000Y-97540000D03*
X131388000Y-97540000D03*
X128848000Y-97540000D03*
X126308000Y-97540000D03*
X123768000Y-97540000D03*
X121228000Y-97540000D03*
X118688000Y-97540000D03*
X116148000Y-97540000D03*
X113608000Y-97540000D03*
X111068000Y-97540000D03*
X108528000Y-97540000D03*
X105988000Y-97540000D03*
X103448000Y-97540000D03*
X100908000Y-97540000D03*
X98368000Y-97540000D03*
X95828000Y-97540000D03*
X93288000Y-97540000D03*
%TD*%
D15*
%TO.C,R11*%
X82296000Y-76216000D03*
X82296000Y-78216000D03*
%TD*%
D45*
%TO.C,Q4*%
X157296000Y-64012000D03*
D44*
X159836000Y-66552000D03*
X162376000Y-64012000D03*
%TD*%
D18*
%TO.C,R1*%
X92456000Y-28956000D03*
X94456000Y-28956000D03*
%TD*%
%TO.C,R8*%
X80264000Y-51308000D03*
X78264000Y-51308000D03*
%TD*%
D11*
%TO.C,TP7*%
X159758000Y-89920000D03*
%TD*%
D18*
%TO.C,R13*%
X151232000Y-67060000D03*
X153232000Y-67060000D03*
%TD*%
D14*
%TO.C,C11*%
X182499500Y-75094000D03*
X184574500Y-75094000D03*
%TD*%
D49*
%TO.C,R19*%
X101299000Y-112268000D03*
X103124000Y-112268000D03*
%TD*%
D19*
%TO.C,R21*%
X71136000Y-87376000D03*
X73136000Y-87376000D03*
%TD*%
D50*
%TO.C,D7*%
X134436000Y-61472000D03*
D51*
X144596000Y-61472000D03*
%TD*%
D12*
%TO.C,D3*%
X135434000Y-78236000D03*
X137484000Y-78236000D03*
%TD*%
D14*
%TO.C,C2*%
X176578500Y-128528000D03*
X178653500Y-128528000D03*
%TD*%
D11*
%TO.C,TP11*%
X164158000Y-85270000D03*
%TD*%
M02*
